<svg id="Layer_1" data-name="Layer 1" xmlns="http://www.w3.org/2000/svg" viewBox="0 0 261.15 62.13"><path d="M26.93,20.15c-8.06,4.61-15.63,11.53-15.63,25C11.3,54.06,17.18,58,22.47,58c8,0,15-8.62,15-16.32,0-5.92-3.74-9.8-9.35-9.8-6.51,0-11.71,6-11.71,10.94,0,.73.32,2,.64,2,1-4.65,4.47-6,6.88-6a4.45,4.45,0,0,1,4.7,4.7,7,7,0,0,1-6.84,6.56c-3.1,0-6.29-2.1-6.29-6.74,0-5.66,5.42-12.17,12.85-12.17,4.33,0,10,2.82,10,10.48,0,9.07-7.88,18.05-19.37,18.05-8.56,0-16.81-5.2-16.81-15.13,0-13,12.21-20.92,18.18-23.61,1.37-.59,2.83-1.19,4.28-1.73-7.15-3.29-12.76-7.93-16.45-7.93A7.24,7.24,0,0,0,.77,18a2.1,2.1,0,0,0,.28,1.14C2.1,16.73,4,15,6.7,15a4.93,4.93,0,0,1,5.15,4.61c0,2.59-2,4.87-5.83,4.87-2.46,0-6-2.05-6-5.74C0,13.54,5.1,8.53,14.4,8.53c11.76,0,20.74,10.12,28.94,10.12a5.83,5.83,0,0,0,5.88-6.06,2,2,0,0,0-.27-1.1,6.31,6.31,0,0,1-5.7,4.11C39.83,15.6,38,13.13,38,11c0-2.6,2-4.88,5.79-4.88,2.5,0,6.06,2.05,6.06,5.74,0,4.79-3.65,10.3-13.45,10.3a10.67,10.67,0,0,1-1.13,0,29.25,29.25,0,0,1-8.35-2" transform="translate(0 0)"/><path d="M77.43,19.33a3.57,3.57,0,0,1-3.83-3.51,6,6,0,0,1,5.7-5.56,11,11,0,0,1,2.91.46c.23,0,.41,0,.41-.5,0-1.28-2.23-3.06-5.28-3.06-10.48,0-21.29,14.36-23.84,25.16L50.13,46.54H41L45,29a7,7,0,0,0,.14-1.32c0-1.19-.46-2-1.1-2-1.23,0-3.1,3.7-3.51,4.52l-.45-.32c1.27-2.6,4.1-8.39,10.16-8.39A4.3,4.3,0,0,1,54.91,26c3.61-8,11.08-19.78,21.2-19.78,5.24,0,8,2.87,8,6.11a8.09,8.09,0,0,1-.18,1.46c-.68,3-3.92,5.51-6.47,5.51" transform="translate(0 0)"/><path d="M73.42,22.61c-4,0-7.93,14-7.93,18.74,0,2.46.91,3.46,2.18,3.46,3.24,0,7.84-15.13,7.84-18.82,0-1.78-.82-3.38-2.09-3.38M85.31,41.07A9,9,0,0,1,77,47c-2.56,0-5.2-1.27-5.2-4.65A8.77,8.77,0,0,1,72,40.3c-1.64,4-3.46,6.88-8.47,6.88-3.65,0-7.07-2.46-7.07-7.89,0-9,8.48-17.68,14.77-17.68,2.6,0,4.15.78,4.88,2.69l.77-2.46h9.71L81.57,41a9.1,9.1,0,0,0-.36,2.28c0,.72.36,1.13.73,1.13,1,0,2.46-2.14,3-3.55Z" transform="translate(0 0)"/><path d="M119.14,41.76a8.78,8.78,0,0,1-8.66,5.46c-3.32,0-5.87-1.64-5.87-4.37,0-3.19,3.91-15.36,3.91-17.09,0-1-.41-1.69-1.23-1.69-1.32,0-4.46,4.56-6.47,8.57L97.5,46.54H88.06l4-17.5a7,7,0,0,0,.14-1.32c0-1.19-.41-2-1-2-1.23,0-3.1,3.69-3.51,4.51l-.5-.36c1.28-2.6,4.1-8.39,10.16-8.39,3.38,0,4.56,2.28,4.56,4.92a22.91,22.91,0,0,1-.77,4.38c3.78-7.57,7.38-9.53,11.34-9.53s5.38,2.69,5.38,5c0,3.1-3.74,14.9-3.74,16.9a1.32,1.32,0,0,0,1.46,1.37c1.6,0,2.42-2.23,3.1-3Z" transform="translate(0 0)"/><path d="M127.3,46.63c3.6,0,5.24-1.18,5.24-3.28,0-4.78-9.94-6-9.94-12.81,0-5,4.84-9.11,11.81-9.11,4.6,0,7.75,2.55,7.75,5.47a3.72,3.72,0,0,1-3.7,3.64c-2.14,0-4.1-1.5-4.1-3.55a3.7,3.7,0,0,1,3.83-3.51,3.57,3.57,0,0,1,1.91.5,6.76,6.76,0,0,0-5-2c-3.06,0-4.79,2-4.79,3.64,0,4.29,10.35,6.29,10.35,12.81,0,5.15-5.43,8.75-12.22,8.75-5.06,0-8.75-2-8.75-5.65a3.89,3.89,0,0,1,3.78-3.92,3.82,3.82,0,0,1,4,3.83A3.71,3.71,0,0,1,123.65,45a6.12,6.12,0,0,1-2.23-.55c.59,1.05,3.74,2.23,5.88,2.23" transform="translate(0 0)"/><path d="M164.18,20.06c-2.19,0-4.11-1.14-4.11-3.33,0-3.14,3-5.46,5.79-5.46h1c.36,0,.59,0,.64-.1s-1-.86-3-.86a5.26,5.26,0,0,0-5.33,4.33l-1.69,7.24h5.29l-.14.6h-5.29L152.14,45c-2.27,9.93-9.38,15.72-20,15.72-5.43,0-8.34-2.87-8.34-6.06a6.26,6.26,0,0,1,5.92-6,3.56,3.56,0,0,1,3.83,3.6c0,3.19-3,5.38-6.06,5.38-.23,0-.41,0-.41.36,0,.87,1.68,2,3.78,2,5.06,0,9.25-3.83,11.35-13l5.65-24.52h-2.64l.13-.6H148l.68-3.14C150,12.63,157.16,9.67,163,9.67c5.19,0,7.24,2.23,7.24,4.65a4.25,4.25,0,0,1-.13,1,6.27,6.27,0,0,1-6,4.69" transform="translate(0 0)"/><path d="M176.75,24.26c0-1.83-.63-2.69-2.18-2.69-2.74,0-3.83,2.41-6.25,12.8-1.14,5-1.73,8.11-1.73,9.94,0,2.14.77,2.55,2.1,2.55,2.55,0,3.73-2.23,6.06-12.35,1.09-4.7,2-8.16,2-10.25M168.5,47.41C162,47.41,158,43,158,37.11,158,28.58,166.18,21,174.61,21c6.47,0,10.44,4.42,10.44,10.3a12.75,12.75,0,0,1-.32,2.87C183,41.48,176,47.41,168.5,47.41" transform="translate(0 0)"/><path d="M224.29,19.33a3.57,3.57,0,0,1-3.83-3.51,6,6,0,0,1,5.7-5.56,11,11,0,0,1,2.91.46c.23,0,.41,0,.41-.5,0-1.28-2.23-3.06-5.28-3.06-10.49,0-21.29,14.36-23.84,25.16L197,46.54h-9.16l4-17.5a6.93,6.93,0,0,0,.13-1.32c0-1.19-.45-2-1.09-2-1.23,0-3.1,3.7-3.51,4.52l-.46-.32c1.28-2.6,4.11-8.39,10.17-8.39A4.3,4.3,0,0,1,201.77,26c3.6-8,11.08-19.78,21.19-19.78,5.25,0,8,2.87,8,6.11a8.09,8.09,0,0,1-.18,1.46c-.69,3-3.92,5.51-6.47,5.51" transform="translate(0 0)"/><path d="M251,61.4c2.32,0,4.78-1.37,4.78-2.23,0-.19-.27-.14-.59-.14-2.23,0-3.69-1.37-3.69-3.33,0-3.28,3.23-5.65,6-5.65a3.56,3.56,0,0,1,3.73,3.65c0,4-5.37,8.43-12,8.43-8.79,0-13.31-4-13.31-10.94,0-7.11,5.15-21,5.15-25.43,0-1-.41-1.69-1.23-1.69-1.18,0-3.46,3.69-5.37,7.39l-3.29,15.08H221.6l4.28-19.46a5.54,5.54,0,0,0,.18-1.41c0-1.14-.5-1.6-1.09-1.6-1.32,0-4.1,4.56-6.11,8.57l-3.33,13.9H206.1l4-17.5a7,7,0,0,0,.14-1.32c0-1.19-.41-2-1.05-2-1.23,0-3.1,3.69-3.51,4.51l-.5-.36c1.27-2.6,4.1-8.39,10.16-8.39,3.37,0,4.56,2.28,4.56,4.92a22.74,22.74,0,0,1-.78,4.38c3.79-7.57,7-9.53,11-9.53a5.08,5.08,0,0,1,5.24,5.15,4.61,4.61,0,0,1-.14,1.1l-.36,1.73c3.42-6.29,6.33-8,10-8,3.88,0,5.38,2.69,5.38,5,0,3.73-5.74,22.56-5.74,27.84s2.55,7.25,6.43,7.25" transform="translate(0 0)"/><path d="M144.21,14.9s0,.07-.09.07H144v-.15h.11c.07,0,.1,0,.1.07Zm.19,0h0a.2.2,0,0,0-.06-.15.28.28,0,0,0-.22-.07h-.31v.66H144v-.2h.08l.13.2h.21l-.16-.23a.22.22,0,0,0,.14-.2m.23.12a.55.55,0,1,1-1.09,0h0a.55.55,0,1,1,1.09,0Zm-.54-.72a.72.72,0,0,0-.72.72h0a.71.71,0,0,0,.71.71.72.72,0,0,0,.72-.71h0a.71.71,0,0,0-.71-.71" transform="translate(0 0)"/><path d="M110,15.79A2.77,2.77,0,0,1,107.16,13v0A2.79,2.79,0,0,1,110,10.12a2.68,2.68,0,0,1,2.17.92l-1,1a1.58,1.58,0,0,0-1.23-.6,1.39,1.39,0,0,0-1.32,1.49v0a1.39,1.39,0,0,0,1.38,1.5,1.71,1.71,0,0,0,1.25-.58l.9.92a2.74,2.74,0,0,1-2.22,1" transform="translate(0 0)"/><path d="M116.41,13A1.44,1.44,0,0,0,115,11.45a1.4,1.4,0,0,0-1.41,1.49v0a1.45,1.45,0,0,0,1.43,1.5,1.39,1.39,0,0,0,1.4-1.48ZM115,15.79A2.83,2.83,0,0,1,112.06,13v0a2.86,2.86,0,0,1,3-2.84,2.82,2.82,0,0,1,2.92,2.82v0A2.85,2.85,0,0,1,115,15.79" transform="translate(0 0)"/><path d="M121.77,15.67v-3c0-.73-.35-1.1-.93-1.1s-1,.37-1,1.1v3h-1.53V10.22h1.53V11a1.94,1.94,0,0,1,1.6-.88,1.79,1.79,0,0,1,1.84,2v3.52Z" transform="translate(0 0)"/><path d="M126.41,15.79A2.77,2.77,0,0,1,123.59,13v0a2.79,2.79,0,0,1,2.84-2.84,2.67,2.67,0,0,1,2.17.92l-.94,1a1.62,1.62,0,0,0-1.24-.6,1.39,1.39,0,0,0-1.31,1.49v0a1.39,1.39,0,0,0,1.37,1.5,1.7,1.7,0,0,0,1.25-.58l.9.92a2.72,2.72,0,0,1-2.22,1" transform="translate(0 0)"/><path d="M131.21,11.36A1.21,1.21,0,0,0,130,12.52h2.32a1.17,1.17,0,0,0-1.15-1.16m2.63,2.13h-3.78a1.26,1.26,0,0,0,1.33,1.06A1.78,1.78,0,0,0,132.7,14l.88.78a2.69,2.69,0,0,1-2.21,1A2.72,2.72,0,0,1,128.53,13v0a2.71,2.71,0,0,1,2.68-2.84c1.82,0,2.65,1.41,2.65,3v0c0,.15,0,.24,0,.39" transform="translate(0 0)"/><path d="M137.4,11.74c-1,0-1.65.62-1.65,1.92v2h-1.54V10.22h1.54v1.1a1.68,1.68,0,0,1,1.73-1.2v1.62Z" transform="translate(0 0)"/><path d="M141.37,15.67v-3c0-.73-.35-1.1-.93-1.1s-1,.37-1,1.1v3h-1.53V10.22h1.53V11a1.92,1.92,0,0,1,1.59-.88,1.78,1.78,0,0,1,1.84,2v3.52Z" transform="translate(0 0)"/><polygon points="112.56 9.11 111.59 9.11 110.45 5.79 109.31 9.11 108.34 9.11 106.61 4.01 107.81 4.01 108.86 7.44 109.99 4 110.94 4 112.08 7.44 113.13 4.01 114.29 4.01 112.56 9.11"/><path d="M120.7,6.27c-.73,0-1.18.44-1.18,1.37V9.07h-1.09V5.2h1.09V6a1.21,1.21,0,0,1,1.24-.86V6.27Z" transform="translate(0 0)"/><rect x="121.06" y="3.79" width="1.1" height="5.28"/><path d="M125.58,7.13a1,1,0,1,0-1.89,0h0a1,1,0,1,0,1.89,0Zm0,1.94V8.51a1.41,1.41,0,0,1-1.21.63,1.82,1.82,0,0,1-1.76-2h0a1.82,1.82,0,0,1,1.76-2,1.49,1.49,0,0,1,1.21.58V3.79h1.1V9.07Z" transform="translate(0 0)"/><path d="M116,8.13a1,1,0,1,1,1-1,1,1,0,0,1-1,1m0-3a2,2,0,1,0,2,2,2,2,0,0,0-2-2" transform="translate(0 0)"/><path d="M96.21,2.09l.55-.68-1-1.25a.42.42,0,0,0-.6-.06.42.42,0,0,0-.06.59Zm5.68,7.47c-1.66-2.16-3.53-2.16-4.33-2a2,2,0,0,0-1.16.81v0a0,0,0,0,0,0,0h0a1.59,1.59,0,0,1,1-.37,1.7,1.7,0,0,1,1,.33h0l.08.06a3,3,0,0,1,1.23,1.63,5.29,5.29,0,0,1-1.44,4.4l-.78,1,.93.84a3.5,3.5,0,0,0,4.86-5ZM99.22,10a2.07,2.07,0,0,0-.82-1.15h0a0,0,0,0,0,0,0s0,0,0,0h0a1.69,1.69,0,0,1,.36,1,1.62,1.62,0,0,1-.33,1h0l-.06.09a3.12,3.12,0,0,1-1.63,1.23,5.32,5.32,0,0,1-4.41-1.45l-.59-.46-.92,1A3.53,3.53,0,0,0,91,16.24a3.63,3.63,0,0,0,5,.05l1.9-2A5.23,5.23,0,0,0,99.22,10M90.66,8.67l1.8,1.52a5.23,5.23,0,0,0,4.21,1.42,2.1,2.1,0,0,0,1.15-.81,0,0,0,0,1,0,0,0,0,0,0,0,0,0h0a1.65,1.65,0,0,1-1,.37,1.67,1.67,0,0,1-1-.33h0l-.09-.06A3.12,3.12,0,0,1,94.44,9.1a5.32,5.32,0,0,1,1.45-4.41l3.22-4A.42.42,0,0,0,99.05.1a.41.41,0,0,0-.59.06L96.17,3a4.09,4.09,0,0,0-2.86-1.38,4,4,0,0,0-2.93,1.19A4.06,4.06,0,0,0,89.2,5.91a3.88,3.88,0,0,0,1.46,2.76m10-7.08a4.06,4.06,0,0,1,3.15,1.18A3.91,3.91,0,0,1,105,5.7a4.06,4.06,0,0,1-1.45,2.94l-1,.78-1.07-1.14c-2.47-2.46-5-1.19-5.67-.21l0,.08a2,2,0,0,0-.33,1,1.59,1.59,0,0,0,.37,1h0v0s0,0,0,0h0A2.07,2.07,0,0,1,95,9.06c-.35-1.37.45-3.07,1.42-4.21L98,3.05a3.91,3.91,0,0,1,2.75-1.46" transform="translate(0 0)"/></svg>