<?xml version="1.0" encoding="utf-8"?>
<!-- Generator: Adobe Illustrator 15.1.0, SVG Export Plug-In  -->
<!DOCTYPE svg PUBLIC "-//W3C//DTD SVG 1.1//EN" "http://www.w3.org/Graphics/SVG/1.1/DTD/svg11.dtd" [
	<!ENTITY ns_flows "http://ns.adobe.com/Flows/1.0/">
]>
<svg version="1.1"
	 xmlns="http://www.w3.org/2000/svg" xmlns:xlink="http://www.w3.org/1999/xlink" xmlns:a="http://ns.adobe.com/AdobeSVGViewerExtensions/3.0/"
	 x="0px" y="0px" width="351px" height="60px" viewBox="-0.881 -0.03 351 60"
	 overflow="visible" enable-background="new -0.881 -0.03 351 60" xml:space="preserve">
<defs>
</defs>
<path fill="#FFFFFF" d="M303.984,57.687l-1.508-55.3l30.119,0.19l0.445,10.794l-17.818-0.463l0.178,11.166l16.225,0.004
	l-0.088,9.654l-15.416,0.836l0.283,11.844h18.373l1.25,12.891L303.984,57.687z"/>
<path fill="#FFFFFF" d="M287.441,57.8l-8.252-18.5l-7.42-0.082v19.068h-13.73l1.912-55.796l17.533,0.659
	c13.49,0,20.613,7.812,20.613,16.538c0,7.787-3.559,13.793-8.26,17.309L300.339,57.8H287.441z M276.13,12.29l-4.443-0.565v17.791
	l4.885-0.354c5.975,0,9.473-2.459,9.473-7.812C286.044,16.157,282.269,13.6,276.13,12.29z"/>
<path fill="#FFFFFF" d="M38.463,46.285v10.787l-13.054,0.494l0.448-10.344L0.906,46.285L0,38.001L21.586,3.373l17.539-0.899
	l-0.662,34.782l7.857,0.971l-0.267,8.059H38.463z M26.758,18.214L13.041,36.203l13.041,0.451L26.758,18.214z"/>
<path fill="#FFFFFF" d="M87.209,46.285l-0.188,11.281l-12.355-0.494V46.285H49.652v-8.311L71.955,2.249l15.516,0.899L87.436,36.58
	l7.68-0.826l-0.314,10.531H87.209z M75.778,19.339L64.085,38.001l10.581-0.746L75.778,19.339z"/>
<path fill="#FFFFFF" d="M120.217,50.039l-1.199,7.832l-7.711-1.205l2.023-7.42c-9.109-1.918-14.391-12.469-14.391-22.938
	c0-12.785,9.291-16.143,20.958-16.143h0.239l1.197-7.83l6.074,1.357l-1.117,7.112c2.396,0.479,4.474,1.278,6.311,2.237l-1.518,9.668
	c-2.158-1.197-3.439-2.219-5.836-2.697l-3.373,20.912c3.195-0.08,7.021-0.236,11.02-2.473l0.027,8.15
	C128.848,48.841,124.93,49.96,120.217,50.039z M115.354,39.126l3.373-19.338c-5.596,0.48-8.019,4.041-8.019,10.514
	C110.708,35.097,111.838,37.769,115.354,39.126z"/>
<path fill="#FFFFFF" d="M184.027,58.031c-16.461,0-29.949-13.229-29.949-30.65c0-17.1,13.025-27.38,29.644-27.38
	c5.834,0,11.492,2.254,15.486,4.572l-1.916,12.306c-3.279-2.557-7.113-4.476-11.906-4.476c-8.631,0-14.146,6.552-14.146,17.101
	c0,10.707,5.834,17.1,14.465,17.1c4.475,0,9.236-0.197,13.311-2.754l0.994,9.945C195.613,56.353,190.5,58.031,184.027,58.031z"/>
<path fill="#FFFFFF" d="M227.863,57.951c-13.506,0-22.934-7.271-22.934-22.693V1.935l14.76,1.214l-1.014,32.029
	c0,7.111,4.754,12.719,10.91,12.719c6.23,0,7.787-5.527,7.787-12.561l-1.045-33.086h15.967l-1.176,32.928
	C251.119,50.519,241.208,57.951,227.863,57.951z"/>
<path fill="#FFFFFF" d="M340.946,59.302v-4.682h-1.672v-0.953h4.478v0.953h-1.668v4.682H340.946z"/>
<path fill="#FFFFFF" d="M344.47,59.302v-5.635h1.703l1.022,3.844l1.011-3.844h1.707v5.635h-1.058v-4.436l-1.118,4.436h-1.096
	l-1.114-4.436v4.436H344.47z"/>
</svg>
