<?xml version="1.0" encoding="utf-8"?>
<!-- Generator: Adobe Illustrator 15.1.0, SVG Export Plug-In  -->
<!DOCTYPE svg PUBLIC "-//W3C//DTD SVG 1.1//EN" "http://www.w3.org/Graphics/SVG/1.1/DTD/svg11.dtd" [
	<!ENTITY ns_flows "http://ns.adobe.com/Flows/1.0/">
]>
<svg version="1.1"
	 xmlns="http://www.w3.org/2000/svg" xmlns:xlink="http://www.w3.org/1999/xlink" xmlns:a="http://ns.adobe.com/AdobeSVGViewerExtensions/3.0/"
	 x="0px" y="0px" width="142px" height="23px" viewBox="-0.166 -0.938 142 23"
	 overflow="visible" enable-background="new -0.166 -0.938 142 23" xml:space="preserve">
<defs>
</defs>
<path fill="#FFFFFF" d="M11.987,0c0.172,0.362,0.009,0.763-0.115,1.083c-0.25,0.65-0.572,1.135-1.038,1.591
	c-0.214,0.211-0.508,0.482-0.876,0.393C9.985,1.487,10.713,0.407,11.987,0"/>
<path fill="#FFFFFF" d="M8.392,1.29C8.578,1.484,8.662,1.842,8.76,2.189c0.22,0.773,0.396,2.06-0.254,2.538
	C7.099,4.2,7.308,2.01,8.369,1.29H8.392z"/>
<path fill="#FFFFFF" d="M5.602,4.564C4.864,4.316,4.32,3.047,4.933,2.282h0.046C5.555,2.55,6.194,3.91,5.602,4.564"/>
<path fill="#FFFFFF" d="M16.414,2.536c-0.005-0.02,0.008-0.022,0.022-0.023c0.23,0.137,0.55,0.576,0.785,0.921
	c0.256,0.377,0.475,0.736,0.553,1.107c0.073,0.349-0.015,0.657-0.207,0.784c-0.285,0.187-0.92,0.157-1.199-0.046
	C15.659,4.764,16.121,3.145,16.414,2.536"/>
<path fill="#FFFFFF" d="M12.195,2.858h0.046c0.238,1.396-0.937,2.932-2.444,2.421C9.986,3.862,11.173,3.442,12.195,2.858"/>
<path fill="#FFFFFF" d="M6.271,4.864c-0.242-0.716,0.175-1.46,0.737-1.521C7.152,3.986,6.853,4.724,6.271,4.864"/>
<path fill="#FFFFFF" d="M18.581,5.694c-0.107,0.198-0.365,0.213-0.553,0.277c-2.24,0.759-4.21,1.658-5.441,3.505
	c-0.292,0.437-0.594,0.993-0.83,1.613c-0.098,0.256-0.255,0.616-0.023,0.738c0.223,0.116,0.654-0.148,0.854-0.254
	c1.497-0.795,3.02-1.544,4.149-2.674c0.156-0.156,0.383-0.438,0.646-0.438c-0.047,0.565-0.516,0.939-0.899,1.291
	c-0.377,0.347-0.819,0.688-1.245,0.992c-0.887,0.629-1.939,1.092-2.743,1.706c-0.013,0.01-0.033,0.033-0.046,0.045
	c-1.246,1.207-0.804,4.102-0.3,5.74c0.094,0.308,0.167,0.611,0.277,0.899c0.104,0.278,0.316,0.543,0.275,0.854
	c-0.688,0.063-1.41-0.23-2.005-0.415c-0.051-1.21-0.151-2.383-0.231-3.574c-0.076-1.169-0.108-2.361-0.229-3.573
	c-0.123-1.214-0.374-2.228-0.761-3.042C9.05,8.49,8.537,7.697,8.599,6.409c0.03-0.633,0.199-1.185,0.438-1.706
	c0.131-0.285,0.498-1.244,0.808-1.36c0.334-0.127,0.15,0.436,0.068,0.599C9.58,4.609,9.171,5.298,9.243,6.316
	c0.083,1.144,0.634,2.171,1.107,3.112c0.131,0.259,0.349,0.822,0.577,0.83c0.276,0.009,0.518-0.629,0.668-0.876
	c1.214-2.002,2.96-3.082,5.717-3.55C17.72,5.764,18.141,5.646,18.581,5.694"/>
<path fill="#FFFFFF" d="M13.255,3.319c0.67,0.287,1.708,0.793,2.213,1.336c0.166,0.18,0.388,0.494,0.323,0.83
	c-0.12,0.625-1.275,0.905-1.774,0.461c-0.601-0.532-0.709-1.589-0.83-2.559C13.2,3.355,13.223,3.333,13.255,3.319"/>
<path fill="#FFFFFF" d="M19.042,3.411c0.256,0.716-0.134,1.718-0.784,1.868C17.978,4.449,18.38,3.597,19.042,3.411"/>
<path fill="#FFFFFF" d="M2.536,6.478C1.512,6.189,0.73,5.431,0.898,4.103c0.018-0.022,0.042-0.035,0.07-0.046
	C2.03,4.308,2.494,5.28,2.536,6.478"/>
<path fill="#FFFFFF" d="M21.117,4.61c-0.244,0.552-1.063,1.152-1.914,1.015c-0.141-0.023-0.258-0.089-0.346-0.208
	C19.112,4.637,20.243,4.084,21.117,4.61"/>
<path fill="#FFFFFF" d="M5.348,5.095C4.732,5.259,4.154,5.024,4.034,4.542C4.524,4.348,5.287,4.565,5.348,5.095"/>
<path fill="#FFFFFF" d="M10.259,19.504c-0.531-0.031-1.121-0.201-1.775-0.186c0.008-0.197,0.176-0.306,0.253-0.483
	c0.367-0.831,0.089-2.164,0-3.135c-0.185-2.021-0.863-3.503-1.89-4.657C5.663,9.711,3.79,9.013,2.835,7.401
	c-0.124-0.209-0.288-0.47-0.254-0.738c0.172,0.012,0.275,0.191,0.37,0.299c0.705,0.815,1.604,1.47,2.514,2.121
	c0.498,0.357,1.028,0.747,1.475,1.176c0.427,0.411,0.855,1.048,1.567,1.015c0.154-0.317-0.004-0.676-0.092-0.968
	C8.142,9.404,7.642,8.735,7.17,7.976C6.73,7.271,6.253,6.559,5.855,5.695c-0.082-0.18-0.437-0.906-0.069-0.923
	c0.202-0.01,0.462,0.428,0.599,0.645c0.182,0.289,0.31,0.556,0.438,0.761C7.164,6.72,7.525,7.146,7.861,7.561
	c0.762,0.944,1.305,1.87,1.66,3.182c0.354,1.317,0.461,2.855,0.461,4.335C9.982,16.636,10.328,18.153,10.259,19.504"/>
<path fill="#FFFFFF" d="M3.435,7.123C2.817,6.528,3.198,5.199,3.758,4.794C4.34,5.431,3.986,6.706,3.435,7.123"/>
<path fill="#FFFFFF" d="M20.356,6.616c-0.617,0.209-1.413-0.097-1.567-0.646C19.451,5.701,20.242,6.036,20.356,6.616"/>
<path fill="#FFFFFF" d="M10.95,9.06c-0.151-0.145-0.235-0.439-0.299-0.715c-0.164-0.695-0.219-2.135,0.506-2.259
	c0.307-0.052,0.731,0.182,0.854,0.485c0.066,0.165,0.063,0.349,0.046,0.53C11.978,7.912,11.358,8.559,10.95,9.06"/>
<path fill="#FFFFFF" d="M5.117,6.178C5.235,6.188,5.23,6.385,5.232,6.455c0.029,0.697-0.507,1.273-1.06,1.452
	C4.004,7.022,4.535,6.464,5.117,6.178"/>
<path fill="#FFFFFF" d="M19.227,6.754c0.019,0.352-0.269,0.676-0.553,0.944c-0.312,0.298-0.764,0.729-1.291,0.531
	C17.656,7.412,18.21,6.753,19.227,6.754"/>
<path fill="#FFFFFF" d="M16.091,9.014c-0.911-0.495-0.196-1.846,0.323-2.259C17.122,7.313,16.625,8.625,16.091,9.014"/>
<path fill="#FFFFFF" d="M2.881,7.746C2.104,8.375,0.359,8.208,0,7.332C0.794,6.502,2.358,7.113,2.881,7.746"/>
<path fill="#FFFFFF" d="M7.63,10.051c-0.462-0.116-0.818-0.29-1.175-0.576c-0.249-0.2-0.75-0.626-0.645-1.107
	c0.063-0.293,0.568-0.495,0.922-0.346C7.34,8.281,7.525,9.374,7.63,10.051"/>
<path fill="#FFFFFF" d="M12.656,10.697c0.093-0.621,0.522-1.412,0.969-1.845c0.206-0.2,0.66-0.545,1.037-0.369
	c0.344,0.161,0.502,0.78,0.277,1.152C14.563,10.252,13.413,10.585,12.656,10.697"/>
<path fill="#FFFFFF" d="M19.596,8.552c-0.097,0.864-1.253,1.028-2.145,0.808C17.672,8.625,18.664,8.353,19.596,8.552"/>
<path fill="#FFFFFF" d="M4.081,9.29c-0.696,0.961-3.085,1.271-3.828,0.138C0.64,9.078,1.11,8.736,1.706,8.667
	C2.613,8.563,3.459,8.957,4.081,9.29"/>
<path fill="#FFFFFF" d="M19.365,10.212c-0.271,1.071-2.152,0.773-2.835,0.277C16.943,9.656,18.609,9.745,19.365,10.212"/>
<path fill="#FFFFFF" d="M5.832,19.757c0.101-0.309,0.373-0.523,0.577-0.782c0.678-0.872,1.37-1.993,1.36-3.483
	c-0.004-0.623-0.083-1.24-0.024-1.96c0.267-0.194,0.314,0.354,0.37,0.602c0.163,0.715,0.239,1.487,0.299,2.259
	c0.068,0.884,0.165,2.565-0.438,2.904c-0.268,0.149-0.77,0.132-1.107,0.208C6.52,19.582,6.217,19.674,5.832,19.757"/>
<path fill="#FFFFFF" d="M17.129,21.693c-0.146,0.118-0.446,0.112-0.599,0.114c-0.947,0.016-1.949-0.243-2.905-0.438
	c-0.961-0.192-1.916-0.364-2.882-0.481c0.23,0.146,0.55,0.182,0.853,0.253c0.293,0.068,0.607,0.118,0.854,0.229
	c-0.138,0.171-0.391,0.123-0.577,0.117c-1.41-0.048-2.75-0.436-4.196-0.438c-0.81-0.002-1.637,0.125-2.236,0.414
	c-0.193,0.095-0.332,0.285-0.552,0.301c0.037-0.303,0.346-0.529,0.506-0.784c-0.563,0.088-1.022,0.261-1.452,0.508
	c-0.13,0.072-0.248,0.229-0.414,0.183c0.033-0.199,0.235-0.298,0.368-0.413c1.162-1.019,2.531-1.737,4.819-1.638
	c2.276,0.101,4.398,0.989,6.363,1.546c0.532,0.149,1.048,0.252,1.614,0.369C16.83,21.559,17.034,21.555,17.129,21.693"/>
<path fill="#FFFFFF" d="M141,10.701l-1.049-0.134l-1.471,2.822l-1.278-2.822l-1.296,0.203l1.833,3.483v2.565h1.234v-2.565
	L141,10.701z M136.304,16.818v-0.83h-2.45v-5.341h-1.234v6.171H136.304z M131.138,10.647h-1.233v6.171h1.233V10.647z
	 M128.424,16.818v-6.171h-1.35l-2.001,4.55l-1.921-4.55h-1.401v6.171h0.988v-3.403c0-0.24-0.004-0.479-0.015-0.715
	c-0.008-0.234-0.019-0.472-0.03-0.713c0.082,0.234,0.167,0.475,0.252,0.719c0.085,0.243,0.158,0.44,0.225,0.594l1.497,3.519h0.557
	l1.542-3.519c0.082-0.188,0.166-0.392,0.252-0.615c0.085-0.224,0.169-0.456,0.251-0.697c-0.013,0.259-0.024,0.497-0.035,0.713
	c-0.013,0.22-0.019,0.457-0.019,0.715v3.403H128.424z M118.859,14.385h-1.709l0.898-2.38L118.859,14.385z M121.013,16.818
	l-2.32-6.171h-0.951l-2.521,6.171h1.022l0.643-1.685h2.222l0.573,1.685H121.013z M115.211,11.477v-0.83h-3.332v6.171h1.234v-2.627
	h2.055v-0.829h-2.055v-1.886H115.211z M106.644,14.385h-1.71l0.898-2.38L106.644,14.385z M108.794,16.818l-2.317-6.171h-0.953
	l-2.52,6.171h1.021l0.644-1.685h2.223l0.572,1.685H108.794z M103.453,11.477v-0.83h-5.031v0.83h1.894v5.342h1.235v-5.342H103.453z
	 M97.472,14.394c-0.133-0.24-0.362-0.492-0.691-0.758c-0.141-0.111-0.255-0.205-0.344-0.277c-0.088-0.073-0.166-0.139-0.233-0.194
	c-0.068-0.057-0.129-0.107-0.186-0.153c-0.054-0.047-0.118-0.103-0.189-0.168c-0.111-0.095-0.203-0.178-0.278-0.252
	c-0.072-0.072-0.13-0.142-0.17-0.205c-0.042-0.067-0.07-0.127-0.088-0.187c-0.02-0.059-0.027-0.121-0.027-0.185
	c0-0.195,0.071-0.351,0.216-0.468c0.145-0.118,0.336-0.177,0.578-0.177c0.17,0,0.326,0.026,0.471,0.074
	c0.144,0.052,0.318,0.144,0.525,0.278l0.476-0.678c-0.481-0.336-1.005-0.503-1.567-0.503c-0.296,0-0.564,0.037-0.809,0.11
	c-0.244,0.074-0.454,0.178-0.631,0.313c-0.176,0.135-0.313,0.298-0.408,0.485c-0.099,0.188-0.146,0.396-0.146,0.625
	c0,0.254,0.062,0.485,0.186,0.696c0.123,0.212,0.317,0.424,0.581,0.637c0.142,0.11,0.257,0.202,0.349,0.276
	c0.092,0.073,0.172,0.14,0.242,0.197c0.07,0.061,0.134,0.114,0.194,0.163c0.059,0.051,0.129,0.111,0.202,0.181
	c0.242,0.213,0.414,0.395,0.521,0.547c0.105,0.154,0.158,0.32,0.158,0.502c0,0.254-0.092,0.453-0.277,0.6
	c-0.186,0.147-0.419,0.221-0.7,0.221c-0.213,0-0.418-0.039-0.618-0.115c-0.199-0.076-0.417-0.202-0.651-0.378l-0.467,0.739
	c0.552,0.39,1.163,0.583,1.833,0.583c0.318,0,0.607-0.043,0.873-0.128c0.264-0.085,0.489-0.205,0.678-0.358
	c0.188-0.151,0.335-0.334,0.441-0.546c0.105-0.212,0.158-0.444,0.158-0.694C97.671,14.902,97.605,14.635,97.472,14.394
	 M92.646,10.647h-1.231v6.171h1.231V10.647z M88.79,12.878c-0.051,0.146-0.125,0.269-0.225,0.37
	c-0.105,0.111-0.23,0.189-0.374,0.233c-0.143,0.044-0.34,0.065-0.586,0.065h-0.371V11.44h0.477c0.212,0,0.379,0.013,0.502,0.036
	s0.226,0.067,0.309,0.132c0.229,0.159,0.344,0.423,0.344,0.793C88.865,12.572,88.84,12.732,88.79,12.878 M90.531,16.685
	l-1.507-2.626c0.716-0.417,1.076-0.999,1.076-1.746c0-0.574-0.21-1.016-0.625-1.322c-0.089-0.064-0.184-0.118-0.284-0.163
	c-0.101-0.044-0.213-0.078-0.34-0.106c-0.125-0.027-0.273-0.045-0.444-0.057c-0.17-0.012-0.371-0.019-0.599-0.019h-1.807v6.171
	h1.232v-2.504h0.741l1.269,2.609L90.531,16.685z M84.996,11.036c-0.317-0.177-0.617-0.303-0.904-0.38
	c-0.283-0.077-0.595-0.114-0.93-0.114c-0.494,0-0.952,0.081-1.374,0.243c-0.424,0.161-0.788,0.388-1.093,0.675
	c-0.307,0.288-0.546,0.628-0.72,1.022c-0.172,0.395-0.26,0.821-0.26,1.286c0,0.471,0.086,0.898,0.256,1.283
	c0.172,0.385,0.406,0.716,0.71,0.996c0.303,0.279,0.663,0.495,1.08,0.647c0.415,0.153,0.873,0.229,1.366,0.229
	c0.665,0,1.27-0.15,1.816-0.451l-0.327-0.757c-0.41,0.223-0.846,0.336-1.304,0.336c-0.354,0-0.67-0.061-0.948-0.178
	c-0.28-0.117-0.518-0.28-0.714-0.49c-0.197-0.206-0.349-0.453-0.455-0.739c-0.105-0.285-0.156-0.595-0.156-0.929
	c0-0.348,0.052-0.661,0.161-0.944c0.109-0.282,0.261-0.524,0.455-0.726c0.193-0.203,0.426-0.359,0.7-0.468
	c0.274-0.11,0.578-0.164,0.914-0.164c0.238,0,0.458,0.029,0.66,0.089c0.198,0.058,0.421,0.159,0.669,0.3L84.996,11.036z
	 M76.693,16.818v-0.83h-2.467v-1.982h2.052V13.16h-2.052v-1.684h2.097v-0.83h-3.332v6.171H76.693z M71.511,16.818v-6.171h-1.233
	v2.354h-2.592v-2.354h-1.233v6.171h1.233v-2.971h2.592v2.971H71.511z M65.667,11.477v-0.83h-5.033v0.83h1.894v5.342h1.235v-5.342
	H65.667z M57.912,11.477v-0.83h-3.333v6.171h1.234v-2.627h2.053v-0.829h-2.053v-1.886H57.912z M51.961,14.708
	c-0.083,0.283-0.199,0.526-0.348,0.726c-0.15,0.199-0.334,0.353-0.551,0.458c-0.219,0.106-0.458,0.16-0.724,0.16
	c-0.316,0-0.586-0.07-0.81-0.208c-0.223-0.139-0.406-0.317-0.546-0.537c-0.141-0.221-0.243-0.468-0.304-0.746
	c-0.062-0.275-0.092-0.552-0.092-0.827c0-0.266,0.03-0.535,0.092-0.812c0.061-0.276,0.161-0.525,0.3-0.748
	c0.137-0.224,0.316-0.406,0.537-0.548c0.22-0.141,0.487-0.212,0.798-0.212c0.559,0,0.994,0.207,1.305,0.617
	c0.311,0.411,0.466,0.984,0.466,1.719C52.084,14.103,52.044,14.42,51.961,14.708 M53.186,12.429
	c-0.152-0.382-0.364-0.713-0.635-0.992c-0.27-0.279-0.589-0.499-0.956-0.658c-0.367-0.158-0.766-0.237-1.194-0.237
	c-0.458,0-0.88,0.079-1.264,0.234c-0.386,0.156-0.716,0.372-0.992,0.647c-0.276,0.277-0.492,0.608-0.648,0.996
	s-0.233,0.812-0.233,1.271c0,0.451,0.072,0.875,0.216,1.269c0.144,0.394,0.351,0.735,0.621,1.026
	c0.271,0.291,0.594,0.521,0.97,0.688c0.375,0.167,0.798,0.251,1.268,0.251c0.471,0,0.896-0.084,1.275-0.251
	c0.379-0.167,0.702-0.398,0.969-0.693c0.268-0.292,0.473-0.639,0.616-1.034c0.145-0.398,0.217-0.821,0.217-1.274
	C53.416,13.225,53.339,12.81,53.186,12.429 M44.47,11.477v-0.83h-5.033v0.83h1.895v5.342h1.233v-5.342H44.47z M37.414,12.878
	c-0.051,0.146-0.125,0.269-0.225,0.37c-0.106,0.111-0.231,0.189-0.374,0.233c-0.146,0.044-0.339,0.065-0.586,0.065h-0.371V11.44
	h0.476c0.211,0,0.378,0.013,0.502,0.036c0.123,0.023,0.226,0.067,0.307,0.132c0.23,0.159,0.345,0.423,0.345,0.793
	C37.489,12.572,37.463,12.732,37.414,12.878 M39.153,16.685l-1.507-2.626c0.717-0.417,1.076-0.999,1.076-1.746
	c0-0.574-0.209-1.016-0.626-1.322c-0.087-0.064-0.182-0.118-0.282-0.163c-0.1-0.044-0.212-0.078-0.339-0.106
	c-0.125-0.027-0.275-0.045-0.444-0.057c-0.17-0.012-0.37-0.019-0.6-0.019h-1.808v6.171h1.235v-2.504h0.74l1.271,2.609L39.153,16.685
	z M31.715,14.385h-1.709l0.899-2.38L31.715,14.385z M33.866,16.818l-2.319-6.171h-0.951l-2.521,6.171h1.022l0.643-1.685h2.222
	l0.573,1.685H33.866z M27.965,11.56c-0.132-0.244-0.323-0.442-0.569-0.595c-0.1-0.058-0.201-0.108-0.305-0.15
	c-0.103-0.04-0.22-0.076-0.352-0.102c-0.132-0.025-0.288-0.044-0.467-0.052c-0.179-0.01-0.402-0.015-0.666-0.015h-1.631v6.171h1.234
	v-5.342h0.342c0.123,0,0.226,0.001,0.311,0.005c0.085,0.003,0.158,0.008,0.219,0.018c0.062,0.008,0.117,0.019,0.166,0.029
	c0.05,0.013,0.099,0.03,0.146,0.054c0.169,0.076,0.298,0.193,0.385,0.353c0.088,0.158,0.132,0.352,0.132,0.574
	c0,0.751-0.432,1.156-1.295,1.216v0.758c0.382-0.006,0.73-0.062,1.044-0.164c0.314-0.102,0.583-0.244,0.807-0.427
	s0.395-0.401,0.515-0.657c0.122-0.256,0.182-0.538,0.182-0.849C28.163,12.078,28.097,11.804,27.965,11.56"/>
</svg>
