<svg xmlns="http://www.w3.org/2000/svg" viewBox="0 0 357.48 323.99"><defs><style>.cls-1{fill:#00afb4;}.cls-2{fill:#786441;}</style></defs><title>logo</title><g id="Layer_2" data-name="Layer 2"><g id="Logo_Color" data-name="Logo Color"><path class="cls-1" d="M23.32,319.77l2.55-8.59h2.86l-4.1,12.62H22.09l-2.79-8.54-2.81,8.57H13.93l-4-12.62h2.93l2.51,8.59,2.77-8.64h2.39Z"/><path class="cls-1" d="M30.63,309.26v-2.73H33.7v2.73Zm.12,14.45V311.18h2.88v12.53H30.75Z"/><path class="cls-1" d="M40.07,319.79a1.36,1.36,0,0,0,1.56,1.57,3.83,3.83,0,0,0,1.77-.43v2.33a5,5,0,0,1-2.58.64c-2.1,0-3.59-.93-3.59-3.68v-6.6h-1.6v-2.47h1.58v-3.44h2.86v3.44h3.36v2.47H40.07v6.17Z"/><path class="cls-1" d="M48.46,323.71H45.63V311.18h2.86v2a4.49,4.49,0,0,1,3.9-2.21c2.81,0,4.44,1.9,4.44,4.82v8H54v-7.12c0-2-1-3.06-2.67-3.06a2.78,2.78,0,0,0-2.81,3.11v7.07Z"/><path class="cls-1" d="M65.32,321.64a4.52,4.52,0,0,0,3.38-1.5l1.68,1.5a6.51,6.51,0,0,1-11.51-4.18c0-3.61,2.53-6.55,6.1-6.55,4,0,6,3.13,6,6.76v.78H61.8A3.5,3.5,0,0,0,65.32,321.64Zm2.79-5.08c-.19-1.85-1.28-3.3-3.17-3.3s-3,1.35-3.24,3.3Z"/><path class="cls-1" d="M77.39,323.95a8.75,8.75,0,0,1-5.29-1.87l1.28-2a7,7,0,0,0,4.09,1.54c1.23,0,1.94-.52,1.94-1.35h0c0-1-1.32-1.3-2.79-1.76-1.84-.52-3.9-1.28-3.9-3.68h0c0-2.37,2-3.82,4.44-3.82a8.63,8.63,0,0,1,4.59,1.42l-1.13,2a7.23,7.23,0,0,0-3.52-1.19c-1.11,0-1.75.52-1.75,1.26h0c0,.9,1.35,1.28,2.81,1.76C80,316.88,82,317.71,82,320h0C82,322.64,80,323.95,77.39,323.95Z"/><path class="cls-1" d="M88.26,323.95A8.75,8.75,0,0,1,83,322.08l1.28-2a7,7,0,0,0,4.09,1.54c1.23,0,1.94-.52,1.94-1.35h0c0-1-1.32-1.3-2.79-1.76-1.84-.52-3.9-1.28-3.9-3.68h0c0-2.37,2-3.82,4.44-3.82a8.63,8.63,0,0,1,4.59,1.42l-1.13,2A7.23,7.23,0,0,0,88,313.29c-1.11,0-1.75.52-1.75,1.26h0c0,.9,1.35,1.28,2.81,1.76,1.82.57,3.88,1.4,3.88,3.65h0C92.9,322.64,90.86,323.95,88.26,323.95Z"/><path class="cls-1" d="M104.93,319.79a1.36,1.36,0,0,0,1.54,1.57,3.83,3.83,0,0,0,1.77-.43v2.33a5,5,0,0,1-2.58.64c-2.1,0-3.59-.93-3.59-3.68v-6.6h-1.58v-2.47h1.58v-3.44h2.86v3.44h3.36v2.47h-3.36v6.17Z"/><path class="cls-1" d="M113.32,323.71h-2.86V306.39h2.86v6.74a4.49,4.49,0,0,1,3.9-2.21c2.81,0,4.44,1.9,4.44,4.82v8H118.8v-7.12c0-2-1-3.06-2.67-3.06a2.78,2.78,0,0,0-2.81,3.11v7Z"/><path class="cls-1" d="M130.17,321.64a4.52,4.52,0,0,0,3.38-1.5l1.68,1.5a6.51,6.51,0,0,1-11.51-4.18c0-3.61,2.53-6.55,6.1-6.55,4,0,6,3.13,6,6.76v.78h-9.17A3.5,3.5,0,0,0,130.17,321.64Zm2.79-5.08c-.19-1.85-1.28-3.3-3.17-3.3s-3,1.35-3.24,3.3Z"/><path class="cls-1" d="M147.8,319.79a1.36,1.36,0,0,0,1.54,1.57,3.83,3.83,0,0,0,1.77-.43v2.33a5,5,0,0,1-2.58.64c-2.1,0-3.59-.93-3.59-3.68v-6.6h-1.58v-2.47h1.58v-3.44h2.86v3.44h3.36v2.47H147.8v6.17Z"/><path class="cls-1" d="M156.19,323.71h-2.86V311.18h2.86V314a4.43,4.43,0,0,1,4.42-3.06v3h-.17c-2.51,0-4.25,1.64-4.25,5Z"/><path class="cls-1" d="M169.43,323.71v-1.54a5,5,0,0,1-4,1.8c-2.36,0-4.44-1.35-4.44-3.87h0c0-2.71,2.15-4,5.06-4a10.46,10.46,0,0,1,3.45.52v-.36c0-1.73-1.09-2.68-3.07-2.68a8.66,8.66,0,0,0-3.57.78l-.78-2.3a10.66,10.66,0,0,1,4.75-1c3.69,0,5.48,2,5.48,5.29v7.43h-2.88Zm.07-5.31a8.13,8.13,0,0,0-2.86-.5c-1.8,0-2.86.74-2.86,2h0c0,1.19,1.06,1.85,2.41,1.85,1.89,0,3.31-1.07,3.31-2.63v-.72Z"/><path class="cls-1" d="M177.82,323.71H175V311.18h2.86v2a4.49,4.49,0,0,1,3.9-2.21c2.81,0,4.44,1.9,4.44,4.82v8H183.3v-7.12c0-2-1-3.06-2.67-3.06a2.78,2.78,0,0,0-2.81,3.11v7Z"/><path class="cls-1" d="M193.18,323.95a8.75,8.75,0,0,1-5.29-1.87l1.28-2a7,7,0,0,0,4.09,1.54c1.23,0,1.94-.52,1.94-1.35h0c0-1-1.32-1.3-2.79-1.76-1.84-.52-3.9-1.28-3.9-3.68h0c0-2.37,2-3.82,4.44-3.82a8.63,8.63,0,0,1,4.58,1.42l-1.13,2a7.23,7.23,0,0,0-3.52-1.19c-1.11,0-1.75.52-1.75,1.26h0c0,.9,1.35,1.28,2.81,1.76,1.82.57,3.88,1.4,3.88,3.65h0C197.81,322.64,195.78,323.95,193.18,323.95Z"/><path class="cls-1" d="M206.77,311.26v2.37h-3.26v10.06h-2.88v-10h-1.58v-2.39h1.58v-.9c0-2.75,1.37-4.1,3.83-4.1a7.6,7.6,0,0,1,2.32.33V309a5,5,0,0,0-1.68-.31c-1.09,0-1.65.59-1.65,1.9v.66h3.32Z"/><path class="cls-1" d="M213.88,324a6.47,6.47,0,0,1-6.62-6.32q0-.09,0-.18a6.66,6.66,0,1,1,6.82,6.5Zm0-10.56a3.76,3.76,0,0,0-3.77,3.75q0,.12,0,.25a3.87,3.87,0,0,0,3.67,4.06h.14a3.77,3.77,0,0,0,3.79-3.75q0-.12,0-.25a3.87,3.87,0,0,0-3.68-4.06Z"/><path class="cls-1" d="M225.63,323.71h-2.86V311.18h2.86V314a4.43,4.43,0,0,1,4.42-3.06v3h-.16c-2.51,0-4.25,1.64-4.25,5v4.77Z"/><path class="cls-1" d="M246.43,310.92c2.72,0,4.37,1.73,4.37,4.79v8h-2.86v-7.12c0-2-.92-3.06-2.53-3.06s-2.67,1.09-2.67,3.11v7.07h-2.86v-7.14c0-2-1-3-2.53-3s-2.72,1.15-2.72,3.09v7h-2.86V311.18h2.86v1.9a4.47,4.47,0,0,1,3.81-2.16,3.92,3.92,0,0,1,3.71,2.21A5.09,5.09,0,0,1,246.43,310.92Z"/><path class="cls-1" d="M261.2,323.71v-1.54a5,5,0,0,1-4,1.8c-2.36,0-4.44-1.35-4.44-3.87h0c0-2.71,2.15-4,5.06-4a10.46,10.46,0,0,1,3.45.52v-.36c0-1.73-1.09-2.68-3.07-2.68a8.66,8.66,0,0,0-3.57.78l-.78-2.3a10.67,10.67,0,0,1,4.75-1c3.69,0,5.48,2,5.48,5.29v7.43h-2.84Zm.07-5.31a8.13,8.13,0,0,0-2.86-.5c-1.8,0-2.86.74-2.86,2h0c0,1.19,1.06,1.85,2.41,1.85,1.89,0,3.31-1.07,3.31-2.63v-.72Z"/><path class="cls-1" d="M270.06,319.79a1.36,1.36,0,0,0,1.57,1.57,3.83,3.83,0,0,0,1.77-.43v2.33a5,5,0,0,1-2.58.64c-2.1,0-3.59-.93-3.59-3.68v-6.6h-1.6v-2.47h1.58v-3.44h2.86v3.44h3.36v2.47h-3.36v6.17Z"/><path class="cls-1" d="M275.63,309.26v-2.73h3.07v2.73Zm.12,14.45V311.18h2.88v12.53h-2.88Z"/><path class="cls-1" d="M287.58,324a6.47,6.47,0,0,1-6.62-6.32q0-.09,0-.18a6.65,6.65,0,1,1,6.8,6.5Zm0-10.56a3.76,3.76,0,0,0-3.77,3.75q0,.12,0,.25a3.87,3.87,0,0,0,3.67,4.06h.14a3.76,3.76,0,0,0,3.79-3.73q0-.13,0-.27a3.87,3.87,0,0,0-3.68-4.06Z"/><path class="cls-1" d="M299.32,323.71h-2.86V311.18h2.86v2a4.49,4.49,0,0,1,3.9-2.21c2.81,0,4.44,1.9,4.44,4.82v8H304.8v-7.12c0-2-1-3.06-2.67-3.06a2.78,2.78,0,0,0-2.81,3.11v7Z"/><path class="cls-2" d="M350.84,282.95a6.71,6.71,0,0,0-6.7,6.69v.06a6.67,6.67,0,0,0,13.33.45q0-.26,0-.51h0a6.64,6.64,0,0,0-6.59-6.69Zm5.1,6.69a5.13,5.13,0,0,1-10.25.45q0-.23,0-.45h0a5.14,5.14,0,0,1,5.09-5.19h.06a5.08,5.08,0,0,1,5.1,5.06s0,.07,0,.1h0Zm-2.2-1.12h0a1.87,1.87,0,0,0-.53-1.41,2.79,2.79,0,0,0-2.08-.7h-2.86v6.18H350V290.7h.75l1.25,1.89h2l-1.47-2.15A1.94,1.94,0,0,0,353.74,288.52Zm-1.7.11a.78.78,0,0,1-.81.75l-.13,0H350v-1.49h1.11a.78.78,0,0,1,.94.73h0Z"/><path class="cls-2" d="M31.51,297A26,26,0,0,1,5.07,271.47q0-.4,0-.81v-.19a26.13,26.13,0,0,1,25.7-26.55h.92c9.57,0,15.55,3.25,20.28,8.57L43.15,262c-3.22-3.43-6.44-5.62-11.56-5.62-7.2,0-12.32,6.38-12.32,13.89v.19c0,7.8,5,14.09,12.89,14.09,4.83,0,8.15-2.1,11.65-5.43l8.44,8.57C47.33,293.11,41.63,297,31.51,297Z"/><path class="cls-2" d="M78.39,297C62.66,297,51,285.32,51,270.66v-.19c0-14.64,11.74-26.55,27.57-26.55S106,255.63,106,270.28v.19C106,285.12,94.21,297,78.39,297Zm13.36-26.55c0-7.51-5.4-14.08-13.36-14.08-8.25,0-13.17,6.38-13.17,13.89v.19c0,7.52,5.4,14.09,13.36,14.09,8.25,0,13.17-6.37,13.17-13.89v-.19Z"/><path class="cls-2" d="M141.88,295.88V267.43c0-6.85-3.22-10.38-8.72-10.38s-9,3.53-9,10.38v28.45h-14.4v-51h14.4v7.23c3.32-4.28,7.59-8.19,14.88-8.19,10.89,0,17.24,7.24,17.24,18.94v33h-14.4Z"/><path class="cls-2" d="M185.37,297a26,26,0,0,1-26.44-25.55q0-.4,0-.81v-.19a26.13,26.13,0,0,1,25.7-26.55h.93c9.57,0,15.54,3.25,20.28,8.57L197,262c-3.22-3.43-6.45-5.62-11.56-5.62-7.2,0-12.32,6.38-12.32,13.89v.19c0,7.8,5,14.09,12.88,14.09,4.83,0,8.15-2.1,11.66-5.43l8.44,8.57C201.19,293.11,195.51,297,185.37,297Z"/><path class="cls-2" d="M254.86,275.42H219.51c1.42,6.56,6,10,12.42,10,4.83,0,8.34-1.52,12.31-5.23l8.24,7.32c-4.73,5.9-11.56,9.52-20.75,9.52-15.25,0-26.53-10.75-26.53-26.36v-.19c0-14.56,10.33-26.55,25.11-26.55,17,0,24.73,13.23,24.73,27.7v.19C255,273.26,255,274.09,254.86,275.42Zm-24.54-19.89c-6,0-9.86,4.28-11,10.85H241c-.85-6.47-4.64-10.85-10.7-10.85Z"/><path class="cls-2" d="M288.22,259c-9.57,0-15.44,5.8-15.44,18v18.84h-14.4v-51h14.4v10.27c2.94-7,7.67-11.61,16.21-11.23v15.14h-.76Z"/><path class="cls-2" d="M325.37,295.88V267.43c0-6.85-3.22-10.38-8.72-10.38s-9,3.53-9,10.38v28.45h-14.4v-51h14.38v7.23c3.31-4.28,7.58-8.19,14.88-8.19,10.89,0,17.24,7.24,17.24,18.94v33h-14.4Z"/><path class="cls-2" d="M55.7,234.41H46.63l-10.69-31-10.69,31H16.16L0,186.69H11.16L21,218.78l10.66-32.22h8.93l10.63,32.22L61,186.69H71.89Z"/><path class="cls-2" d="M131.91,207.87c-6.84,0-11,4.14-11,12.8v13.39H110.63V197.8h10.29v7.3c2.1-5,5.48-8.25,11.58-8v10.76h-.59Z"/><path class="cls-2" d="M135.29,234.07V184.66h10.28v49.4H135.29Z"/><path class="cls-2" d="M177.39,234.07v-5.21a13.31,13.31,0,0,1-11.31,5.89c-8.45,0-16.51-6.64-16.51-18.75v-.13c0-12.12,7.91-18.76,16.51-18.76a13.94,13.94,0,0,1,11.31,5.42V184.66h10.24v49.4H177.39Zm.14-18.2c0-6-4-10-8.8-10s-8.87,3.93-8.87,10V216c0,6,4.07,10,8.87,10s8.8-4,8.8-10Z"/><path class="cls-2" d="M87.41,197a19,19,0,1,0,19,19h0A19,19,0,0,0,87.41,197Zm0,28.22A9.22,9.22,0,1,1,96.63,216a9.22,9.22,0,0,1-9.22,9.22Z"/><path class="cls-1" d="M107.81,15.35a38,38,0,0,1,29.42,11.06,36.82,36.82,0,0,1,11.1,27.45C148,64.23,143.17,74,134.74,81.36l-9,7.32-10-10.74c-23-23-46.8-11.08-53-2l-.5.82c-1.73,3-3.08,5.75-3.08,9.21a15.27,15.27,0,0,0,3.43,9.56h0a.38.38,0,0,1,.1.25.36.36,0,0,1-.36.35.3.3,0,0,1-.18-.08,19.29,19.29,0,0,1-7.69-10.79c-3.22-12.79,4.23-28.79,13.29-39.39L82,29C89,20.87,97.47,16.06,107.81,15.35Zm-94,66.28L30.63,95.87c10.6,9.06,26.59,16.5,39.38,13.29a19.39,19.39,0,0,0,10.82-7.63.38.38,0,0,0,.08-.18.36.36,0,0,0-.36-.36h0a.32.32,0,0,0-.24.1h0a15.21,15.21,0,0,1-9.55,3.43,15.37,15.37,0,0,1-9.22-3.09h0l-.82-.51c-5.19-3.27-10.13-9.84-11.5-15.27-3-12,1.92-27,13.51-41.26L92.95,6.93a4,4,0,0,0-6.16-5L65.39,28.14c-7.31-8-16.76-12.53-26.76-12.88a36.83,36.83,0,0,0-27.45,11.1A38,38,0,0,0,.12,55.78C.78,66.15,5.63,74.59,13.77,81.63ZM93.95,94.49a19.35,19.35,0,0,0-7.63-10.83.36.36,0,0,0-.18-.07.35.35,0,0,0-.26.6h0a15.27,15.27,0,0,1,3.43,9.56A15.43,15.43,0,0,1,86.23,103h0l-.51.81c-3.28,5.19-9.84,10.14-15.27,11.5-12,3-27-1.91-41.26-13.51l-5.56-4.31L15,107a33,33,0,0,0,1.55,45.51c12.55,12.13,33.75,12.59,46.33.46l17.75-19.13c9.06-10.6,16.5-26.6,13.29-39.38Zm25-4.56C103.37,69.72,85.87,69.71,78.4,71.58a19.33,19.33,0,0,0-10.84,7.68.3.3,0,0,0-.08.17.36.36,0,0,0,.36.36h0a.33.33,0,0,0,.24-.1h0a15.25,15.25,0,0,1,9.55-3.43,15.43,15.43,0,0,1,9.21,3.08h0l.82.51c5.19,3.28,10.13,9.83,11.5,15.27,3,12-1.92,27-13.52,41.26l-7.27,9.33,8.7,7.85A33,33,0,0,0,132.63,152c12.14-12.55,12-31.8,0-45.52ZM65.75,20l5.13-6.29L61.26,1.9a4,4,0,1,0-6.16,5Z"/></g></g></svg>