<svg xmlns="http://www.w3.org/2000/svg" viewBox="0 0 145 73">
  <path d="M0 .3l.3.2"/>
  <path fill="#565656" d="M45.7 65.3h1.6V61h3.2v-1.4h-3.2v-2.5h3.2v-1.3h-4.8zm8.5-7.6c-1.1 0-1.9.3-2.2.8-.4.6-.5 1.4-.5 2.5v1.1c0 1.1.2 1.9.6 2.4.4.6 1.1.9 2.2.9.9 0 1.6-.2 2-.6.5-.4.7-1.3.7-2.7V61c0-1.1-.2-1.9-.5-2.5-.4-.5-1.1-.8-2.3-.8zm1.1 3.1v1.5c0 .6-.1 1-.2 1.3-.1.3-.4.5-.9.5s-.8-.1-.9-.4c-.1-.2-.2-.6-.2-1v-2.2c0-.5.1-.8.2-1.1.1-.3.4-.4.9-.4s.8.1.9.4c.1.2.2.6.2 1v.4zm6.1 1.8c0 .3 0 .6-.1.9-.1.3-.2.5-.4.6-.2.1-.4.1-.6.1-.2 0-.4 0-.5-.1-.2-.1-.3-.2-.3-.5-.1-.2-.1-.5-.1-.8v-4.9h-1.7v5.8c0 .2.1.4.1.6.1.4.4.6.7.9.4.2.8.3 1.2.3.3 0 .7-.1 1-.2.3-.1.5-.3.7-.5v.5H63v-7.4h-1.6v4.7zm5.5-4.6c-.1.1-.3.3-.3.6v-.7H65v7.4h1.7v-6.2h2v-1.2h-.9c-.5-.1-.8 0-.9.1zm10 1.9l-.6-.3c-.5-.3-.9-.5-1.1-.7-.2-.2-.3-.5-.3-.8 0-.2.1-.4.2-.6.1-.2.3-.3.4-.4.2-.1.4-.1.5-.1h.3c.1 0 .2.1.4.1.3.1.5.3.6.6.1.1.1.3.2.4v.4h1.7c0-.5-.1-1-.4-1.5-.3-.5-.7-.9-1.2-1.1-.5-.2-1-.4-1.6-.4-.5 0-1 .1-1.5.3-.5.2-.9.5-1.1.9-.2.4-.4.8-.4 1.2 0 .7.2 1.2.5 1.6.3.4 1 .8 1.9 1.3l.6.3c.6.4 1 .6 1.3.8.2.2.3.5.3.9 0 .2-.1.4-.2.6-.1.2-.3.3-.5.4-.2.1-.5.2-.7.2-.3 0-.6-.1-.9-.2-.3-.1-.5-.4-.6-.7-.1-.2-.1-.4-.1-.6 0-.2-.1-.3-.1-.5h-1.7c0 .6.1 1.1.3 1.6.2.5.5.9 1 1.1.4.2.8.4 1.1.4.3.1.7.1 1 .1.6 0 1.1-.1 1.6-.3.5-.2.9-.5 1.1-.9.2-.4.4-.8.4-1.2 0-.7-.2-1.3-.5-1.7-.2-.2-.9-.6-1.9-1.2zm5.9-3.4h-1.7v1.4h-1v1.2h1V64c0 .2.1.3.1.4.1.3.3.6.6.9h1.8c-.3-.4-.6-.7-.7-1-.1-.3-.2-.7-.2-1.2v-4H84v-1.2h-1.3v-1.4zm7.7 3.9c0-.5-.1-1-.2-1.4-.1-.4-.3-.7-.6-.9-.3-.2-.6-.3-.8-.3-.3 0-.6-.1-.9-.1h-.8c-.2 0-.3.1-.5.1-.1 0-.3.1-.4.1-.3.1-.6.3-.8.6-.2.3-.3.8-.5 1.5h1.5c0-.3.1-.6.2-.8.1-.2.3-.3.5-.3s.3-.1.4-.1c.2 0 .4 0 .6.1.2.1.3.2.3.3.1.1.1.3.1.4 0 .2-.2.4-.5.6l-1.3.5c-.3.1-.5.2-.7.3-.2.1-.4.2-.5.3-.3.2-.6.5-.6.8.1.6 0 .9 0 1.1 0 .3 0 .6.1.8.1.3.3.5.5.7.2.2.5.4.8.5.3.1.6.1 1 .1s.7-.1.9-.2c.2-.1.4-.4.7-.7l.1.5.1.3h1.5c-.2-.3-.2-.7-.2-1.3v-3.5zm-1.7 1.8v.3c0 .3 0 .7-.1.9-.1.3-.2.5-.4.6-.2.1-.4.1-.6.1-.2 0-.4 0-.5-.1-.1-.1-.3-.2-.3-.3-.1-.1-.1-.3-.1-.5v-.1c0-.2.1-.5.3-.6.2-.2.6-.5 1.3-.8l.5-.3v.8zm4.6-4.2c-.1.1-.3.3-.3.6v-.7h-1.6v7.4h1.7v-6.2h2v-1.2h-.9c-.5-.1-.8 0-.9.1zm12.1-1.6c-.4-.3-.8-.5-1.2-.6-.2-.1-.5-.1-.7-.1h-.7c-.4 0-.8 0-1.1.1-.4.1-.7.2-1.2.5-.4.3-.7.6-.8 1-.1.4-.2.9-.2 1.6v3.6c0 .8.1 1.3.4 1.7.3.4.6.7 1.1.9.5.2 1 .3 1.7.3.3 0 .7 0 1-.1.3-.1.7-.2 1.1-.4.4-.2.7-.5.9-1 .1-.2.2-.5.2-.7 0-.3.1-.6.1-.9v-.4h-1.7v.6c0 .2 0 .5-.1.8-.1.3-.3.6-.8.7l-.3.1h-.2c-.4 0-.7-.1-1-.2-.3-.2-.5-.4-.5-.7-.1-.3-.1-.6-.1-1v-3.5c0-.3.1-.6.1-.9.1-.3.3-.5.5-.6.2-.1.5-.2.9-.2.3 0 .6.1.8.2.3.1.5.3.5.5.1.2.1.6.2 1.2h1.7v-.8l-.1-.5c0-.5-.2-.9-.5-1.2zm6 1.5c-.3-.1-.5-.2-.6-.2-.1 0-.2 0-.3-.1h-.8c-.2 0-.4.1-.5.2-.2.1-.4.3-.6.5v-2.7H107v9.5h1.7v-4.8c0-.3 0-.6.1-.8.1-.3.2-.4.4-.5.2-.1.4-.1.6-.1.1 0 .3 0 .5.1s.3.2.3.4v5.8h1.7v-5.5c0-.5-.1-.8-.2-1.2-.1-.2-.3-.5-.6-.6zm7.9 2.5c0-.5-.1-1-.2-1.4-.1-.4-.3-.7-.6-.9-.3-.2-.6-.3-.8-.3-.3 0-.6-.1-.9-.1h-.8c-.2 0-.3.1-.5.1-.1 0-.3.1-.4.1-.3.1-.6.3-.8.6-.2.3-.3.8-.5 1.5h1.5c0-.3.1-.6.2-.8.1-.2.3-.3.5-.3s.3-.1.4-.1c.2 0 .4 0 .6.1.2.1.3.2.3.3 0 .1.1.3.1.4 0 .2-.2.4-.5.6l-1.3.5c-.3.1-.5.2-.7.3-.2.1-.4.2-.5.3-.3.2-.6.5-.6.8-.1.3-.1.6-.1.9 0 .3 0 .6.1.8.1.3.3.5.5.7.2.2.5.4.8.5.3.1.6.1 1 .1s.7-.1.9-.2c.2-.1.4-.4.7-.7l.2.8.1.3h1.5c-.2-.3-.2-.7-.2-1.3v-3.6zm-1.7 1.8v.3c0 .3 0 .7-.1.9-.1.3-.2.5-.4.6-.2.1-.4.1-.6.1-.2 0-.4 0-.5-.1-.2-.1-.3-.2-.3-.3-.1-.1-.1-.3-.1-.5v-.1c0-.2.1-.5.3-.6.2-.2.6-.5 1.3-.8l.5-.3v.8zm4.6-4.2c-.1.1-.3.3-.3.6v-.7h-1.6v7.4h1.7v-6.2h2v-1.2h-.9c-.5-.1-.8 0-.9.1zm3.6-2.3c-.3 0-.5.1-.7.3-.2.2-.3.4-.3.6 0 .2.1.4.3.6.2.2.4.2.7.2s.5-.1.7-.2c.2-.2.3-.4.3-.6 0-.2-.1-.4-.3-.6-.2-.3-.4-.3-.7-.3zm-.8 2.1h1.7v7.4h-1.7zm5.9-1.3h-1.7v1.4h-1v1.2h1V64c0 .2.1.3.1.4.1.3.3.6.6.9h1.8c-.3-.4-.6-.7-.7-1-.1-.3-.2-.7-.2-1.2v-4h1.3v-1.2H131v-1.4zm4.8 6l-1.1-4.7H133l1.8 6.7.1.4c0 .2.1.3.1.4 0 .3-.1.4-.2.6-.1.1-.3.2-.5.2h-1v1.2c1 0 1.8-.1 2.2-.3.5-.2.8-.7 1.1-1.6l2.1-7.6H137l-1.2 4.7zM62.9 43l5 3.6-2 5.9 5-3.6 5 3.6-1.9-5.9 5-3.6h-6.1l-2-5.9L69 43zM93 43l-1.9-5.9-1.9 5.9H83l5 3.6-1.9 5.9 5-3.6 5 3.6-2-5.9 5-3.6zm18.8-5.9l-1.9 5.9h-6.1l4.9 3.6-1.9 5.9 5-3.6 5 3.6-1.9-5.9 5-3.6h-6.2zm20.1 0L130 43h-6.2l5 3.6-1.9 5.9 5-3.6 5 3.6-1.9-5.9 4.9-3.6h-6.1zM82.4 16.9c.6.3 1.3.4 2.1.4.4 0 .8 0 1.2-.1.4-.1.9-.3 1.4-.6.5-.3.9-.7 1.1-1.2.1-.3.2-.6.2-1 0-.3.1-.7.1-1.1v-.5h-2.1v.8c0 .3 0 .6-.1 1s-.4.7-1 .9h-.6c-.5 0-.9-.1-1.2-.3-.4-.2-.6-.5-.6-.9-.1-.4-.1-.8-.1-1.3V8.5c0-.4.1-.8.2-1.2.1-.3.3-.6.6-.8.3-.2.7-.2 1.1-.2.4 0 .7.1 1 .2.3.2.6.4.6.6.1.3.1.8.2 1.5h2.1v-1l-.1-.7c0-.6-.2-1-.7-1.4-.5-.4-.9-.7-1.5-.8-.3-.1-.6-.2-.8-.2h-.9c-.5 0-1 0-1.4.1-.4.1-.9.3-1.5.6-.5.3-.9.7-1 1.3-.1.5-.2 1.2-.2 2.1v4.7c0 1 .2 1.7.5 2.2.4.7.9 1.1 1.4 1.4zm10.1-5.4H96v5.6h2.1V4.8H96v4.8h-3.5V4.8h-2.1v12.3h2.1zm9.7 2.5h2.7l.7 3.1h2.2l-2.6-12.3h-3.4l-2.4 12.3h2.2l.6-3.1zm1.3-7.3l1.1 5.7h-2.1l1-5.7zm7 5.4h1.7c.5 0 .8.2 1 .7.2.5.3 1 .3 1.6l.1 1.4c0 .2 0 .4.1.7 0 .3.1.5.1.6h2.3c-.1-.5-.2-.9-.2-1.4v-1.4c0-.8-.1-1.4-.2-1.8-.1-.4-.4-.9-.9-1.2.2-.1.3-.2.3-.3l.4-.5c.2-.2.3-.5.4-.9.1-.4.1-.7.1-1.1v-.6c0-.2-.1-.4-.1-.6-.1-.2-.1-.4-.2-.6-.1-.2-.2-.4-.4-.7-.3-.5-.8-.8-1.6-1-.7-.2-1.6-.2-2.8-.2h-2.5v12.3h2.1v-5zm0-5.6h1.4c.3 0 .5.1.7.1.5.1.8.3 1 .6.2.3.3.7.3 1.2 0 .4-.1.7-.2.9-.2.3-.4.5-.6.7-.2.1-.5.2-.7.2h-1.8V6.5zm7.5-1.7h2.1v12.3H118zm5.7 12.3h2.1V6.6h2.6V4.8h-7.3v1.8h2.6zm9.2 0h2.1v-4.4l3.3-7.9H136l-2.1 5.2-2-5.2h-2.4l3.4 7.9zm-57.8 7.4l3.3 8.3h2.1V20.4h-1.8v8.3l-3.3-8.3h-2.1v12.4h1.8zm8.3-4.1l-2.1 12.3h1.9l.5-3.1h2.4l.6 3.1h1.9l-2.3-12.3h-2.9zM84 28l.9-5.7 1 5.7H84zm9.7 4.8l2.4-12.4h-2L92.3 30l-1.8-9.6h-2l2.6 12.4zm3.7-12.4h1.8v12.3h-1.8zm10.2 1.6c-.2-.7-.6-1.1-1.3-1.3-.7-.3-1.3-.4-1.8-.4h-.6c-.2 0-.4.1-.6.1-.4.1-.8.3-1.3.6-.4.3-.7.7-.9 1.2-.1.5-.2 1.2-.2 2.1V29c0 .8.1 1.5.3 2 .2.6.6 1 1 1.2.5.3.8.4 1 .5.2.1.5.1.8.1l.6-.1c.3 0 .6-.2.9-.4.3-.3.5-.5.7-.8l1.4 1.2V26h-3.4v1.7h1.7v1.5c0 .3 0 .7-.1 1.1-.1.4-.3.7-.6.8-.3.1-.6.2-.8.2-.4 0-.8-.1-1.1-.3-.3-.2-.5-.5-.6-.8-.1-.4-.1-.8-.1-1.3v-4.5c0-.4 0-.8.2-1.2.1-.4.3-.6.5-.8.3-.2.6-.2 1-.2.3 0 .6.1.9.2.3.1.5.4.6.8.1.4.1.8.1 1.4h1.8v-1c0-.1 0-.3-.1-.5.2-.5.1-.8 0-1.1zm3.8 7.7h2.4l.6 3.1h1.9L114 20.4h-2.9L109 32.8h1.9l.5-3.1zm1.1-7.4l1 5.7h-1.9l.9-5.7zm6 10.5h1.8V22.2h2.3v-1.7h-6.4v1.7h2.3zm5.1-11.7c-.6.6-.9 1.7-.9 3.5v3.9c0 1.3.2 2.4.7 3.2.5.8 1.4 1.2 2.8 1.2s2.3-.4 2.8-1.2c.5-.8.7-1.8.7-3.2v-3.9c0-1.4-.2-2.5-.7-3.2-.5-.8-1.4-1.1-2.7-1.1-1.2 0-2.1.3-2.7.8zm3.8 1.4c.2.3.3.9.3 1.6v5c0 .7-.1 1.2-.4 1.5-.2.3-.7.5-1.3.5-.7 0-1.1-.2-1.3-.5-.2-.4-.3-.9-.3-1.6v-5c0-.7.1-1.2.3-1.6.2-.3.7-.5 1.3-.5.8.1 1.2.3 1.4.6zm9.6 4.1l.3-.5c.1-.2.3-.5.4-.9.1-.4.1-.7.1-1.1v-.6c0-.2 0-.4-.1-.6-.1-.2-.1-.4-.2-.6-.1-.2-.2-.4-.3-.7-.3-.5-.7-.8-1.4-1-.6-.2-1.4-.2-2.4-.2h-2.2v12.3h1.8v-5h1.5c.4 0 .7.2.9.7.2.5.2 1 .2 1.6l.1 1.4v.7c0 .3.1.5.1.6h2c-.1-.5-.2-.9-.2-1.4V30c0-.8-.1-1.4-.2-1.8-.1-.4-.4-.9-.8-1.2l.4-.4zm-1.3-1.5c-.2.3-.3.5-.5.7-.2.1-.4.2-.6.2H133v-3.7h1.1c.2 0 .4.1.6.1.4.1.7.3.9.6.2.3.3.7.3 1.2 0 .3-.1.7-.2.9z" class="dkgray900"/>
  <path fill="#565656" d="M0 0v72.8h145V0H0zm48.3.5c.4 2.2.6 4.4.6 6.6l-.9-.2c0-2.1-.2-4.3-.6-6.4h.9zM35.4 35.7l-21.3-14L9 9.1h.1l26.3 26.6zM10 7.7h35.8l-23.9 5.2L10 7.7zm3.5 14.7l21.3 14.1c-7 6.6-16.3 10.8-26.7 11l5.4-25.1zM8 48.1c10.6-.2 20.3-4.4 27.4-11.3l.8.5C28.9 44.5 18.9 48.9 7.9 49l.1-.9zm14.3-34.4l24.9-5.3C47 18.7 42.9 28 36.3 35l-14-21.3zM48 8.2l.9-.2c-.1 11-4.6 21-11.7 28.4l-.5-.8C43.5 28.5 47.8 18.8 48 8.2zM22.2 1.5l.6-1h23.8c.4 2.1.6 4.2.6 6.3l-25-5.3zm-.5-.5L8.8 6.3 14.6.5H22l-.3.5zM7.5.5h2.1L7.5 6.4V.5zm-7 0h3.1l3 6L.5.7V.5zm0 4.4l5.6 2.3H.5V4.9zm0 6.3l5.7-2.4-5.7 5.7v-3.3zm6.6-1v35.9l-5-23.8 5-12.1zM.5 22.9l.9-.6 5.2 25.1c-2.1 0-4.1-.2-6.1-.6V22.9zm0 24.6c2.1.4 4.2.6 6.3.6l.2.9c-2.2 0-4.4-.2-6.5-.6v-.9zm144 24.7H.5v-23c2.2.4 4.4.6 6.6.6v20.1c0 .2.2.4.4.4s.4-.2.4-.4V49.8c11.3-.1 21.5-4.7 29.1-12l.1.1c.1.1.2.1.3.1.1 0 .2 0 .3-.1.2-.2.2-.4.1-.6l-.2-.3c7.4-7.5 11.9-17.8 12-29.1h20c.2 0 .4-.2.4-.4s-.2-.4-.4-.4h-20c0-2.3-.2-4.5-.6-6.7h95.5v71.8z" class="dkgray900"/>
</svg>