<svg xmlns="http://www.w3.org/2000/svg" overflow="visible" viewBox="-0.479 -0.04 590 136">
  <path fill="#565656" fill-rule="evenodd" d="M.48 0h32.4c.4 35.92.4 73.521 0 109.44H0V.72C-.01.31.179.098.48 0zm518.161 0h30.24v109.44h-30.24zM142.32 6.24h29.76V30c3.601.56 8.239.081 12.24.24v19.44h-12.24v27.36c0 3.318-.353 6.721.48 8.64 1.665 3.839 7.026 2.813 11.76 2.4v21.36c-11.512 2.645-27.956 4.397-35.52-2.16-11.548-10.013-4.921-37.377-6.72-57.36-2.801-.559-6.639-.081-9.84-.24V30.24h9.6c.72-7.44-.239-16.56.48-24zm131.281 71.04h-56.64c.501 9.329 11.374 17.197 21.36 12.479 1.2-.566 2.097-1.348 2.88-2.16.781-.81 1.196-1.745 2.16-2.64h28.8c-3.361 14.99-16.061 24.146-32.64 26.4-18.97 2.578-34.912-3.938-42.96-14.881-8.788-9.998-11.184-31.945-4.32-46.319 6.082-12.737 19.702-21.975 37.44-22.32 14.679-.286 26.712 5.416 33.6 13.68 6.961 8.355 10.508 20.754 10.32 35.761zM240.48 51.84c-4.741-4.164-14.431-4.181-18.72.48-1.807 2.273-3.27 4.89-4.08 8.16h27.12c-.773-3.377-1.786-6.415-4.32-8.64zm90.96-13.68v-7.92h28.561c-.001 15.241 0 30.825 0 46.56-.001 15.793 1.385 31.101-4.32 42-5.163 9.864-16.423 15.423-29.76 16.561-14.512 1.236-28.887-.334-37.68-7.681-4.372-4.188-7.603-9.517-8.4-17.279h28.32c1.141-.021.606 1.634 1.2 2.159 1.898 4.106 10.107 4.766 14.641 2.4 5.252-2.741 7.146-10.407 6.72-18.24-.579-.859-1.483.651-2.16 1.2-5.047 4.096-11.901 7.419-22.32 6.72-15.97-1.07-26.006-12.044-29.04-26.88-3.387-16.563.636-33.949 10.8-42.72 4.898-3.772 11.864-7.095 20.16-7.2 10.451-.132 18.769 4.193 23.278 10.32zm-20.879 41.76c4.474 3.733 14.172 3.089 17.76-1.2 4.838-5.781 4.256-21.165-.96-25.92-2.219-2.023-6.277-3.199-10.8-2.64-2.803.346-4.617 1.621-6.72 3.12-5.077 6.619-5.171 21.725.72 26.64zm201.599 29.04c-.479.881-2.313.473-3.6.48-8.696.046-18.61-.035-27.6 0-.049-2.912-.618-5.303-.721-8.16-.652-.792-.756.987-1.439.96-4.542 6.613-15.681 10.308-26.88 9.6-8.254-.521-15.713-3.516-19.92-7.68-3.678-4.266-6.154-9.417-6.24-15.84-.315-23.55 23.261-24.042 43.439-28.081 4.534-.907 8.881-1.975 9.36-5.28 1.056-7.282-10.001-8.878-15.84-6-3.703 1.826-4.422 4.611-5.521 9.12-9.281-.159-19.198.318-28.08-.24 1.382-21.972 15.132-28.756 36.721-29.76 18.42-.857 36.531 3.978 41.279 18.48 2.511 7.667 1.681 17.76 1.681 27.84-.001 6.66 0 14.723 0 22.079-.001 2.39-.429 5.122 0 7.2.271 1.321 1.011 1.92 1.68 2.641.511.551 2.192.739 1.681 2.641zm-46.8-30.24c-4.552 1.137-10.638 2.617-10.56 7.44.115 7.117 13.305 8.077 19.2 4.319 4.217-3.222 6.301-8.578 5.76-16.56-.014-.146-.036-.284-.24-.24-.146.014-.284.036-.24.24-3.018 2.526-8.31 3.399-13.92 4.801zm-337.92 30.72H97.68V86.16c0-8.12.578-16.46 0-23.28-.202-2.376-1.173-5.371-2.64-6.96-5.176-5.609-15.542-2.501-18 3.36-.458 1.094-.827 2.616-.96 3.84-.736 6.759 0 15.134 0 23.28v23.04H46.32V30h28.32v12c1.303-.897 1.998-2.397 3.12-3.6 4.32-4.631 10.909-9.383 19.44-10.08 19.193-1.568 28.994 10.009 30.24 27.12.599 8.221 0 17.72 0 27.12v26.88zm297.6-81.12v27.36c-13.343-2.697-22.875 2.968-23.76 15.12v38.641h-30.24V30.24h28.08c-.146 4.094.301 8.781-.239 12.48.887-.641 1.039-1.836 1.439-2.64 3.881-7.776 12.608-11.778 24.72-11.76zm134.16 1.92h30.24v30.24h-30.479V30.96c-.021-.34-.04-.68.239-.72zm0 48.96h30.24v30.24h-30.479V79.919c-.021-.34-.04-.679.239-.719z" clip-rule="evenodd"/>
</svg>