<svg xmlns="http://www.w3.org/2000/svg" xmlns:xlink="http://www.w3.org/1999/xlink" overflow="visible" viewBox="0 -0.049 200 54">
  <defs>
    <path id="a" d="M1.272 12.511C.57 12.511 0 13.077 0 13.78v7.169c0 .704.57 1.277 1.272 1.277h24.826c.703 0 1.271-.573 1.271-1.277V13.78c0-.703-.569-1.27-1.271-1.27H1.272zm43.862 0c-.704 0-1.273.571-1.273 1.271v7.173c0 .703.569 1.271 1.273 1.271h3.631c.699 0 1.271-.568 1.271-1.271v-7.173c0-.7-.572-1.271-1.271-1.271h-3.631z"/>
  </defs>
  <use fill="#565656" overflow="visible" xlink:href="#a"/>
  <clipPath id="b">
    <use overflow="visible" xlink:href="#a"/>
  </clipPath>
  <path fill="#565656" d="M0 12.511h50.036v9.716H0z" clip-path="url(#b)"/>
  <defs>
    <path id="c" d="M2.148 31.352c-.702 0-1.273.57-1.273 1.271V39.8c0 .699.572 1.266 1.273 1.266h3.63c.703 0 1.269-.566 1.269-1.266v-7.177c0-.701-.566-1.271-1.269-1.271h-3.63zm22.968 0c-.7 0-1.263.57-1.263 1.271V39.8c0 .699.563 1.266 1.263 1.266h24.828c.703 0 1.277-.566 1.277-1.266v-7.177c0-.701-.574-1.271-1.277-1.271H25.116z"/>
  </defs>
  <use fill="#565656" overflow="visible" xlink:href="#c"/>
  <clipPath id="d">
    <use overflow="visible" xlink:href="#c"/>
  </clipPath>
  <path fill="#565656" d="M.875 31.352h50.346v9.714H.875z" clip-path="url(#d)"/>
  <defs>
    <path id="e" d="M31.886 45.339c-.702 0-1.275.568-1.275 1.267v3.633c0 .702.573 1.271 1.275 1.271h7.17c.705 0 1.27-.569 1.27-1.271v-3.633c0-.698-.565-1.267-1.27-1.267h-7.17zm0-45.339c-.702 0-1.275.572-1.275 1.273v24.824c0 .703.573 1.273 1.275 1.273h7.17c.705 0 1.27-.57 1.27-1.273V1.273c0-.701-.565-1.273-1.27-1.273h-7.17z"/>
  </defs>
  <use fill="#565656" overflow="visible" xlink:href="#e"/>
  <clipPath id="f">
    <use overflow="visible" xlink:href="#e"/>
  </clipPath>
  <path fill="#565656" d="M30.611 0h9.715v51.51h-9.715z" clip-path="url(#f)"/>
  <defs>
    <path id="g" d="M12.602 25.614c-.697 0-1.27.567-1.27 1.27v24.832c0 .703.573 1.27 1.27 1.27h7.176c.704 0 1.27-.566 1.27-1.27V26.884c0-.702-.566-1.27-1.27-1.27h-7.176zm0-23.554c-.697 0-1.27.569-1.27 1.272V6.96c0 .706.573 1.272 1.27 1.272h7.176c.704 0 1.27-.566 1.27-1.272V3.332c0-.703-.566-1.272-1.27-1.272h-7.176z"/>
  </defs>
  <use fill="#565656" overflow="visible" xlink:href="#g"/>
  <clipPath id="h">
    <use overflow="visible" xlink:href="#g"/>
  </clipPath>
  <path fill="#565656" d="M11.332 2.06h9.715v50.926h-9.715z" clip-path="url(#h)"/>
  <path fill="#565656" d="M74.753 18.992l-2.3-7.465c-.283-.805-.323-1.574-.323-2.097 0 .523-.08 1.33-.362 2.098l-2.381 7.465h5.366zm1.495 4.522h-8.316l-2.096 6.333h-6.941L68.984 1.519h6.9l10.169 28.328h-7.789l-2.016-6.333zm22.114-8.436c-2.624 0-3.674 1.453-3.674 5.206 0 2.945.969 4.6 3.391 4.6 1.492 0 2.906-.323 4.235-.848l1.615 4.682c-1.898.847-4.277 1.452-7.144 1.452-5.971 0-8.998-2.702-8.998-9.362 0-7.464 4.076-10.895 9.685-10.895 2.139 0 4.196.16 5.932.928l-1.331 4.803c-1.332-.444-2.704-.566-3.711-.566m18.39 0c-2.624 0-3.672 1.453-3.672 5.206 0 2.945.969 4.6 3.389 4.6 1.492 0 2.908-.323 4.238-.848l1.614 4.682c-1.896.847-4.278 1.452-7.144 1.452-5.971 0-8.996-2.702-8.996-9.362 0-7.464 4.074-10.895 9.684-10.895 2.137 0 4.195.16 5.932.928l-1.329 4.803c-1.335-.444-2.708-.566-3.716-.566m18.582-.362c-1.896 0-2.986 1.654-2.986 5.083 0 4.237.685 5.652 2.783 5.652 2.263 0 3.068-1.616 3.068-5.612 0-3.833-.805-5.123-2.865-5.123m-.564 15.454c-6.577 0-9.523-3.229-9.523-9.847 0-6.254 3.914-10.41 10.41-10.41 6.618 0 9.646 3.107 9.646 9.726-.001 6.053-3.674 10.531-10.533 10.531m24.755-14.003c-1.491 0-1.938.364-3.31 1.979V29.85h-6.82V10.357l5.447-.323c.284.605.525 2.22.646 3.348 1.414-2.782 2.382-3.309 4.037-3.309.93 0 1.896.122 2.661.405l-.724 5.851c-.807-.039-1.332-.162-1.937-.162m14.83-1.331c-1.655 0-3.151 1.131-3.151 5.327 0 4.156 1.415 4.883 3.07 4.883.847 0 1.655-.201 2.419-.646v-9.16c-.805-.283-1.453-.404-2.338-.404m2.623 12.994c-1.574 1.411-3.188 2.301-5.167 2.301-4.518 0-7.546-2.057-7.546-9.443 0-6.658 3.552-10.693 9.159-10.693 1.253 0 2.221.121 3.312.484V.43l6.858-.403v29.579l-6.296.525c-.12-.607-.32-1.653-.32-2.301m10.883-26.539L187.979 0h4.993l-.097 1.291h-1.586v4.392h-1.767V1.291h-1.661zm8.785 2.265L198.309 0h1.616L200 5.683h-1.641l-.031-3.057c0 .136-.085.359-.17.518l-1.089 2.402h-1.132l-1.038-2.477c-.084-.202-.138-.36-.15-.497l-.061 3.11h-1.429L193.377 0h1.67l1.599 3.556zM77.397 52.99H74.93V38.926L68.144 52.99l-6.785-14.064V52.99h-2.468V33.25h2.469l6.783 14.062 6.784-14.062h2.469v19.74zm17.721 0H84.015V33.25h11.103v2.467h-8.636v6.169h8.636v2.47h-8.636v6.167h8.636v2.467zm25.124 0h-2.467V38.926l-6.787 14.064-6.785-14.064V52.99h-2.467V33.25h2.469l6.783 14.062 6.785-14.062h2.469v19.74zm22.656-5.527c0 1.562-.556 2.876-1.666 3.936s-2.447 1.592-4.01 1.592h-10.363V33.25h9.13c1.581 0 2.922.535 4.022 1.604 1.102 1.069 1.653 2.386 1.653 3.947 0 1.498-.517 2.78-1.555 3.851 1.861 1.053 2.789 2.656 2.789 4.811zm-3.701-8.662c0-.87-.312-1.604-.938-2.194-.625-.593-1.382-.89-2.271-.89h-6.661v6.169h6.661c.889 0 1.646-.294 2.271-.888.626-.593.938-1.324.938-2.197zm1.235 8.638c0-.872-.313-1.604-.938-2.197-.625-.592-1.381-.887-2.271-.887h-7.895v6.167h7.895c.89 0 1.646-.298 2.271-.888.624-.593.938-1.325.938-2.195zm20.188 5.551h-11.104V33.25h11.104v2.467h-8.637v6.169h8.637v2.47h-8.637v6.167h8.637v2.467zm22.902-13.573c0 1.594-.496 2.96-1.492 4.095-.993 1.134-2.278 1.8-3.854 1.998l5.105 7.48h-2.967l-4.935-7.402h-5.676v7.402h-2.466V33.25h9.993c1.742 0 3.228.592 4.454 1.776 1.226 1.184 1.838 2.648 1.838 4.391zm-2.466.002c0-1.053-.372-1.933-1.11-2.64-.74-.708-1.646-1.062-2.714-1.062h-7.527v7.403h7.527c1.067 0 1.974-.354 2.714-1.06.738-.707 1.11-1.588 1.11-2.641z"/>
</svg>