<svg xmlns="http://www.w3.org/2000/svg" class="w-18 mb-8 sm:mb-0" viewBox="0 0 150 150">
  <style>
    .dkgray900{fill:#565656}.white{fill:#fff}
  </style>
  <g id="ACCREDITED">
    <path d="M131.7 57.4c-7.5-24.2-30-41.7-56.7-41.7-26.6 0-49.2 17.6-56.7 41.7h113.4zM18.2 92.1c7.3 24.4 30 42.2 56.8 42.2 26.8 0 49.5-17.8 56.8-42.2H18.2z" class="dkgray900"/>
    <path d="M131.7 57.4c-7.5-24.2-30-41.7-56.7-41.7-26.6 0-49.2 17.6-56.7 41.7h113.4zM18.2 92.1c7.3 24.4 30 42.2 56.8 42.2 26.8 0 49.5-17.8 56.8-42.2H18.2z" class="white"/>
    <path d="M0 75c0 41.4 33.6 75 75 75s75-33.6 75-75S116.4 0 75 0 0 33.6 0 75zm1 0C1 34.2 34.2 1 75 1s74 33.2 74 74-33.2 74-74 74S1 115.8 1 75z" class="dkgray900"/>
    <path d="M2.4 75c0 40 32.5 72.6 72.6 72.6 40 0 72.6-32.5 72.6-72.6C147.6 35 115 2.4 75 2.4 35 2.4 2.4 35 2.4 75zm3.3 0C5.7 36.8 36.8 5.7 75 5.7c38.2 0 69.3 31.1 69.3 69.3 0 38.2-31.1 69.3-69.3 69.3-38.2 0-69.3-31.1-69.3-69.3z" class="dkgray900"/>
    <path d="M27.2 57.4h15.9L24.5 45.9 46 57.4h6.6L30.3 37.6l25.2 19.9h3.3l-21.3-27 24.2 27h1.8l-17.7-33 20.4 32.9h1.1L55 20.2l14.9 37.2h.7l-5.8-39.8 8.3 39.8h.6L75 16.7l1.3 40.7h.6l8.3-39.8-5.7 39.8h.5l14.9-37.2-12.2 37.2h1.1l20.4-32.9-17.8 32.9h1.8l24.2-27.1-21.3 27.1h3.2l25.3-19.9-22.3 19.9h6.5l21.6-11.6-18.7 11.6h15.8l7.3-2.4-6 2.4h7.9c-7.5-24.2-30-41.7-56.7-41.7-26.6 0-49.2 17.6-56.7 41.7H26l-5.8-2.3 7 2.3zm94 34.7H106l19.4 12-22.4-12h-6.2l22.8 20.4-25.8-20.4h-3l21.7 27.6-24.6-27.6h-1.6l17.9 33.4-20.7-33.4h-.9L95 129.8 79.9 92.1h-.6l5.8 40.3-8.4-40.3h-.4L75 133.3l-1.3-41.2h-.4l-8.4 40.3 5.8-40.3h-.6L55 129.8l12.4-37.7h-.9l-20.7 33.4 17.9-33.4h-1.6l-24.7 27.6 21.7-27.6h-3l-25.9 20.4 22.9-20.4H47l-22.6 12.1 19.5-12.1H29L20.2 95l7.3-2.9h-9.3c7.3 24.4 30 42.2 56.8 42.2 26.8 0 49.5-17.8 56.8-42.2h-9.1l7.1 2.8-8.6-2.8zM17.8 87.4V62h26.4v4.6H26.7v5.2h12.1v4.6H26.7v6.2h17.5v4.8H17.8zm42.6.4c-3.6 0-7.2-.9-9.7-2.6-3.3-2.1-5-5.6-5-10.4 0-5 1.8-8.5 5.4-10.7 2.6-1.6 6.3-2.5 10.1-2.5 7.3 0 12 3 13.5 7.3l-8.4 1c-1-2.5-2.7-3.7-5.4-3.7-4 0-5.9 2.2-5.9 8.4 0 6.3 1.8 8.6 6.4 8.6 2.9 0 5-1.4 6.6-4.1l7.2 1.4c-2.7 5.1-7.5 7.3-14.8 7.3zm27.1-21.1V72h13.8v4.6H87.5v10.8h-8.9V62h26.5v4.7H87.5zm35.6 20.7l-2.1-5.8h-9.1l-2.1 5.8h-9.3L112.1 62h8.6l11.8 25.4h-9.4zm-6.7-17l-2.8 6.7h5.6l-2.8-6.7z" class="dkgray900"/>
    <path d="M113.1 101.2c-1-.7-2.3-.7-3.5-.7H86.3v2.9c-.2-.8-.6-1.6-1.4-2.2-1-.7-2.3-.7-3.5-.7H70v2.5c-.5-1.7-1.8-2.5-3.9-2.5h-4.7v2.3c-.6-1.7-2-2.6-4.2-2.6-2.1 0-3.5.9-4.1 2.6-.6-1.7-2.2-2.6-4.5-2.6-2.7 0-4.2 1.5-4.4 4.4l-.1-.1-1.2-1.6-.5-2.4h-4.6L35.1 115h4.5l.2-1.7.9.6.2 1.1h4.5l-.3-1.4c.8 1.3 2.2 1.7 3.5 1.7 2.2 0 3.9-.9 4.6-2.6.7 2.1 2.4 2.6 3.9 2.6 2.2 0 3.7-.9 4.3-2.5v2.2h4.4v-4.9c0 .1 0 .2.1.4v3c0 .4.1.7.2.9l.2.6h15.8c.9 0 1.9-.1 2.8-.8.7-.5 1.1-1.2 1.3-2.1v2.9h4.4v-10.3h1.6V115h4.4v-8.6h1.6v8.6h12c.9 0 1.9-.1 2.8-.8 1-.7 1.5-1.9 1.5-3.5V105c.1-1.3 0-2.9-1.4-3.8z" class="dkgray900"/>
    <path d="M36.2 114.2l2.5-12.9h3.2l2.5 12.9h-2.7l-.4-2.5h-2.1l-.3 2.5h-2.7zm4-10.5l-.8 5.8H41l-.8-5.8z" class="white"/>
    <path d="M44.5 114.4h-3l-.4-2.5h-1.8l-.3 2.5h-3l2.5-13.2H42l2.5 13.2zm-2.7-.3h2.3l-2.4-12.5h-2.9l-2.4 12.5h2.3l.3-2.5h2.4l.4 2.5zm-.6-4.5h-1.9l.8-6.1h.3l.8 6.1zm-1.6-.3h1.1l-.6-4.4-.5 4.4z" class="dkgray900"/>
    <path d="M49.7 105.9v-.9c0-1.1-.3-1.7-.8-1.7-.8 0-1 .5-1 1.3v6.4c0 .7.3 1.1.9 1.1.9 0 1-1.1 1-1.9V109h2.7v1.6c0 2.2-1.1 3.8-3.8 3.8-2.4 0-3.4-1.5-3.4-4.1V105c0-2.8 1.1-4.1 3.6-4.1 2.3 0 3.6 1.1 3.6 3.7v1.1h-2.8z" class="white"/>
    <path d="M48.5 114.7c-2.4 0-3.6-1.4-3.6-4.3v-5.3c0-2.9 1.2-4.3 3.7-4.3s3.8 1.3 3.8 3.9v1.3h-3v-1c0-.9-.3-1.5-.7-1.5-.5 0-.6.2-.7.3-.1.2-.2.5-.2.9v6.4c0 .7.2 1 .8 1 .6 0 .8-.5.8-1.7V109h3v1.8c.1 2.5-1.3 3.9-3.9 3.9zm.2-13.5c-2.3 0-3.4 1.2-3.4 3.9v5.3c0 2.7 1 3.9 3.2 3.9 3 0 3.7-2 3.7-3.6v-1.4h-2.3v1c0 .6 0 2-1.2 2-.7 0-1.1-.4-1.1-1.3v-6.4c0-.7.1-1.5 1.2-1.5.6 0 1 .7 1 1.8v.7h2.3v-.9c0-2.3-1.1-3.5-3.4-3.5z" class="dkgray900"/>
    <path d="M58.2 105.9v-.9c0-1.1-.3-1.7-.8-1.7-.8 0-1 .5-1 1.3v6.4c0 .7.3 1.1.9 1.1.9 0 1-1.1 1-1.9V109H61v1.6c0 2.2-1.1 3.8-3.8 3.8-2.4 0-3.4-1.5-3.4-4.1V105c0-2.8 1.1-4.1 3.6-4.1 2.3 0 3.6 1.1 3.6 3.7v1.1h-2.8z" class="white"/>
    <path d="M57.1 114.7c-2.4 0-3.6-1.4-3.6-4.3v-5.3c0-2.9 1.2-4.3 3.7-4.3s3.8 1.3 3.8 3.9v1.3h-3v-1c0-.9-.3-1.5-.7-1.5-.6 0-.9.3-.9 1.2v6.4c0 .7.2 1 .8 1 .6 0 .8-.5.8-1.7V109h3v1.8c.1 2.5-1.4 3.9-3.9 3.9zm.1-13.5c-2.3 0-3.4 1.2-3.4 3.9v5.3c0 2.7 1 3.9 3.2 3.9 3 0 3.7-2 3.7-3.6v-1.4h-2.3v1c0 .6 0 2-1.2 2-.7 0-1.1-.4-1.1-1.3v-6.4c0-.7.1-1.5 1.2-1.5.6 0 1 .7 1 1.8v.7h2.3v-.9c.1-2.3-1.1-3.5-3.4-3.5z" class="dkgray900"/>
    <path d="M64.9 114.2h-2.7v-12.9h3.9c2.2 0 3.3 1 3.3 3.6 0 1.4-.3 2.4-1.4 2.9.7.2 1.3.8 1.3 1.7.1 1 .1 3.2.2 4.1.1.2.1.3.3.4v.2h-2.9c-.1-.2-.1-.5-.2-.7 0-1.1 0-2.2-.1-3-.1-.8-.3-1.3-.9-1.4h-.9v5.1zm0-7.4h.9c.8 0 .9-.8.9-1.6 0-1.5-.6-1.6-1.9-1.6v3.2z" class="white"/>
    <path d="M69.9 114.4h-3.2v-.1c-.1-.2-.1-.5-.2-.8v-2.9c-.1-.8-.3-1.2-.7-1.2h-.7v5.1h-3v-13.2h4c2.3 0 3.4 1.2 3.4 3.7 0 1.1-.2 2.2-1.2 2.9.7.3 1.1.9 1.1 1.7 0 .4 0 .9.1 1.4 0 1 .1 2.1.2 2.6.1.2.1.3.2.4v.4zm-2.9-.3h2.5c-.1-.1-.1-.2-.2-.4-.1-.6-.1-1.7-.2-2.7 0-.6 0-1.1-.1-1.4 0-.8-.5-1.3-1.2-1.5h-.1v-.2l.1-.1c.9-.5 1.3-1.3 1.3-2.8 0-2.4-.9-3.4-3.1-3.4h-3.7v12.5h2.3V109h1c.8.1 1 .8 1.1 1.5v3c.2.2.3.4.3.6zm-1.2-7.1h-1.1v-3.5h.2c1.4 0 2 .1 2 1.7 0 1.5-.6 1.8-1.1 1.8zm-.7-.3h.7c.5 0 .8-.5.8-1.4 0-1.4-.4-1.4-1.5-1.4v2.8z" class="dkgray900"/>
    <path d="M70.8 114.2v-12.9h6.1v2.6h-3.4v2.4h3.3v2.6h-3.3v2.8h3.6v2.6h-6.3z" class="white"/>
    <path d="M77.3 114.4h-6.6v-13.2h6.4v2.9h-3.4v2H77v2.9h-3.3v2.4h3.6v3zm-6.3-.3h5.9v-2.2h-3.6v-3.1h3.3v-2.2h-3.3v-2.7h3.4v-2.2H71v12.4z" class="dkgray900"/>
    <path d="M78.5 114.2v-12.9h2.9c1 0 2.1 0 3 .6 1 .7 1.2 1.9 1.2 3.2v5.7c0 1.3-.4 2.2-1.1 2.8-.7.5-1.5.6-2.3.6h-3.7zm2.7-2.3c1.8.1 1.8-.7 1.7-2.4v-4.2c0-1.5-.5-1.6-1.7-1.6v8.2z" class="white"/>
    <path d="M82.1 114.4h-3.7v-13.2h3c1 0 2.2 0 3.1.6 1.1.7 1.3 2.1 1.3 3.3v5.7c0 1.4-.4 2.4-1.2 2.9-.8.6-1.7.7-2.5.7zm-3.4-.3h3.4c.7 0 1.6-.1 2.2-.6.7-.5 1-1.4 1.1-2.6v-5.7c0-1.1-.1-2.4-1.1-3-.8-.5-1.9-.6-2.9-.6h-2.7v12.5zm2.8-2h-.6v-8.6h.2c1.3 0 1.9.1 1.9 1.8v4.2c0 1.1 0 1.8-.4 2.2-.1.3-.5.4-1.1.4zm-.2-.3h.2c.5 0 .8-.1.9-.3.3-.3.3-1 .3-2v-4.2c0-1.3-.3-1.4-1.4-1.5v8z" class="dkgray900"/>
    <path d="M87.1 114.2v-12.9h2.7v12.9h-2.7z" class="white"/>
    <path d="M89.9 114.4h-3v-13.2h3v13.2zm-2.6-.3h2.3v-12.5h-2.3v12.5z" class="dkgray900"/>
    <path d="M91 101.4h6.9v2.6h-2.1v10.3h-2.7V104H91v-2.6z" class="white"/>
    <path d="M95.9 114.4h-3v-10.3h-2.1v-2.9H98v2.9h-2.1v10.3zm-2.6-.3h2.3v-10.3h2.1v-2.2h-6.5v2.2h2.1v10.3z" class="dkgray900"/>
    <g>
      <path d="M99.1 114.2v-12.9h6.1v2.6h-3.4v2.4h3.3v2.6h-3.3v2.8h3.6v2.6h-6.3z" class="white"/>
      <path d="M105.5 114.4h-6.6v-13.2h6.4v2.9h-3.4v2h3.3v2.9h-3.3v2.4h3.6v3zm-6.3-.3h5.9v-2.2h-3.6v-3.1h3.3v-2.2h-3.3v-2.7h3.4v-2.2h-5.7v12.4z" class="dkgray900"/>
    </g>
    <g>
      <path d="M106.7 114.2v-12.9h2.9c1 0 2.1 0 3 .6 1 .7 1.2 1.9 1.2 3.2v5.7c0 1.3-.4 2.2-1.1 2.8-.7.5-1.5.6-2.3.6h-3.7zm2.7-2.3c1.8.1 1.8-.7 1.7-2.4v-4.2c0-1.5-.5-1.6-1.7-1.6v8.2z" class="white"/>
      <path d="M110.3 114.4h-3.7v-13.2h3c1 0 2.2 0 3.1.6 1.1.7 1.3 2.1 1.3 3.3v5.7c0 1.4-.4 2.4-1.2 2.9-.8.6-1.7.7-2.5.7zm-3.4-.3h3.4c.7 0 1.6-.1 2.2-.6.7-.5 1-1.4 1.1-2.6v-5.7c0-1.1-.1-2.4-1.1-3-.8-.5-1.9-.6-2.9-.6h-2.7v12.5zm2.9-2h-.6v-8.6h.2c1.3 0 1.9.1 1.9 1.8v4.2c0 1.1 0 1.8-.4 2.2-.2.3-.6.4-1.1.4zm-.2-.3h.2c.5 0 .8-.1.9-.3.3-.3.3-1 .3-2v-4.2c0-1.3-.3-1.4-1.4-1.5v8z" class="dkgray900"/>
    </g>
  </g>
</svg>