<?xml version="1.0" encoding="utf-8"?>
<!-- Generator: Adobe Illustrator 24.3.0, SVG Export Plug-In . SVG Version: 6.00 Build 0)  -->
<svg version="1.1" id="Layer_1" xmlns="http://www.w3.org/2000/svg" xmlns:xlink="http://www.w3.org/1999/xlink" x="0px" y="0px"
	 viewBox="0 0 520.1 161.7" style="enable-background:new 0 0 520.1 161.7;" xml:space="preserve">
<style type="text/css">
	.st0{fill:#FFFFFF;}
</style>
<g id="world-concern-logo_horiz_notag" transform="translate(-0.041 0.461)">
	<path id="Path_3306" class="st0" d="M513.5,133.7c-3.7,0-6.7,3-6.7,6.7v0.1c0,3.7,3,6.6,6.6,6.6c0,0,0,0,0,0c3.7,0,6.7-3,6.7-6.7
		l0,0C520.1,136.7,517.2,133.7,513.5,133.7C513.5,133.7,513.5,133.7,513.5,133.7L513.5,133.7z M518.6,140.3c0,2.8-2.3,5.1-5.1,5.1
		c-2.8,0-5.1-2.3-5.1-5.1l0,0c-0.1-2.8,2.2-5.2,5-5.2c2.8-0.1,5.2,2.2,5.2,5C518.6,140.2,518.6,140.2,518.6,140.3L518.6,140.3
		L518.6,140.3z M516.4,139.2L516.4,139.2c0-0.5-0.2-1-0.5-1.4c-0.6-0.5-1.3-0.8-2.1-0.7h-2.8v6.2h1.7v-1.9h0.8l1.2,1.9h2l-1.5-2.1
		C515.9,140.8,516.4,140.1,516.4,139.2z M514.7,139.3c0,0.4-0.4,0.8-0.8,0.7c0,0-0.1,0-0.1,0h-1.1v-1.5h1.1c0.4-0.1,0.8,0.2,0.9,0.6
		C514.7,139.2,514.7,139.3,514.7,139.3L514.7,139.3L514.7,139.3z"/>
	<path id="Path_3307" class="st0" d="M194.5,147.7c-14.4,0.2-26.2-11.2-26.4-25.6c0-0.2,0-0.5,0-0.7v-0.2
		c-0.2-14.4,11.3-26.3,25.7-26.5c0.3,0,0.6,0,0.9,0c9.6,0,15.5,3.2,20.3,8.6l-8.8,9.5c-3.2-3.4-6.4-5.6-11.6-5.6
		c-7.2,0-12.3,6.4-12.3,13.9v0.2c0,7.8,5,14.1,12.9,14.1c4.8,0,8.1-2.1,11.6-5.4l8.4,8.6C210.3,143.8,204.6,147.7,194.5,147.7z"/>
	<path id="Path_3308" class="st0" d="M241.3,147.7c-15.7,0-27.4-11.7-27.4-26.3v-0.2c0-14.6,11.7-26.5,27.5-26.5
		s27.4,11.7,27.4,26.3v0.2C268.9,135.8,257.1,147.7,241.3,147.7z M254.7,121.2c0-7.5-5.4-14.1-13.4-14.1c-8.2,0-13.1,6.4-13.1,13.9
		v0.2c0,7.5,5.4,14.1,13.3,14.1c8.2,0,13.2-6.4,13.2-13.9V121.2z"/>
	<path id="Path_3309" class="st0" d="M304.7,146.6v-28.4c0-6.9-3.2-10.4-8.7-10.4s-9,3.5-9,10.4v28.4h-14.4V95.6H287v7.2
		c3.3-4.3,7.6-8.2,14.9-8.2c10.9,0,17.2,7.2,17.2,18.9v33H304.7z"/>
	<path id="Path_3310" class="st0" d="M348.2,147.7c-14.4,0.2-26.2-11.2-26.4-25.6c0-0.2,0-0.5,0-0.7v-0.2
		c-0.2-14.4,11.3-26.3,25.7-26.5c0.3,0,0.6,0,0.9,0c9.6,0,15.5,3.2,20.3,8.6l-8.8,9.5c-3.2-3.4-6.4-5.6-11.5-5.6
		c-7.2,0-12.3,6.4-12.3,13.9v0.2c0,7.8,5,14.1,12.9,14.1c4.8,0,8.1-2.1,11.6-5.4l8.4,8.6C364,143.8,358.3,147.7,348.2,147.7z"/>
	<path id="Path_3311" class="st0" d="M417.6,126.1h-35.3c1.4,6.6,6,10,12.4,10c4.8,0,8.3-1.5,12.3-5.2l8.2,7.3
		c-4.7,5.9-11.5,9.5-20.7,9.5c-15.2,0-26.5-10.7-26.5-26.3v-0.2c0-14.5,10.3-26.5,25.1-26.5c16.9,0,24.7,13.2,24.7,27.7v0.2
		C417.8,124,417.7,124.8,417.6,126.1z M393.1,106.3c-6,0-9.9,4.3-11,10.8h21.7C402.9,110.6,399.1,106.3,393.1,106.3L393.1,106.3z"/>
	<path id="Path_3312" class="st0" d="M450.9,109.8c-9.6,0-15.4,5.8-15.4,18v18.8h-14.4v-51h14.4v10.3c2.9-7,7.7-11.6,16.2-11.2v15.2
		H450.9z"/>
	<path id="Path_3313" class="st0" d="M488,146.6v-28.4c0-6.9-3.2-10.4-8.7-10.4s-9,3.5-9,10.4v28.4h-14.4V95.6h14.4v7.2
		c3.3-4.3,7.6-8.2,14.9-8.2c10.9,0,17.2,7.2,17.2,18.9v33H488z"/>
	<path id="Path_3314" class="st0" d="M218.6,85.2h-9.1l-10.7-31l-10.7,31h-9.1L163,37.5h11.1l9.8,32.1l10.6-32.2h8.9l10.6,32.2
		l9.8-32.1h10.9L218.6,85.2z"/>
	<path id="Path_3315" class="st0" d="M294.8,58.7c-6.8,0-11,4.1-11,12.8v13.4h-10.3V48.6h10.3v7.3c2.1-5,5.5-8.2,11.6-8v10.8H294.8
		L294.8,58.7z"/>
	<path id="Path_3316" class="st0" d="M298.2,84.8V35.5h10.3v49.4H298.2z"/>
	<path id="Path_3317" class="st0" d="M340.2,84.8v-5.2c-2.5,3.7-6.8,6-11.3,5.9c-8.5,0-16.5-6.6-16.5-18.7v-0.1
		c0-12.1,7.9-18.7,16.5-18.7c4.4-0.1,8.6,1.9,11.3,5.4V35.5h10.3v49.4H340.2z M340.3,66.6c0-6-4-10-8.8-10s-8.9,3.9-8.9,10v0.2
		c0,6,4.1,10,8.9,10s8.8-4,8.8-10V66.6L340.3,66.6z"/>
	<path id="Path_3319" class="st0" d="M107.7,14.9c10.9-0.7,21.6,3.3,29.4,11c7.4,7.2,11.4,17.1,11.1,27.4
		c-0.3,10.4-5.2,20.1-13.6,27.5l-9,7.3l-10-10.7c-23-23-46.8-11.1-52.9-2l-0.5,0.8c-1.7,2.9-3.1,5.8-3.1,9.2c0,3.5,1.2,6.8,3.4,9.5
		l0,0c0.1,0.1,0.1,0.4,0,0.5c-0.1,0.1-0.2,0.1-0.3,0.1c-0.1,0-0.1,0-0.2-0.1c-3.7-2.6-6.4-6.4-7.6-10.8
		c-3.2-12.8,4.2-28.8,13.3-39.3l14.2-16.7C88.9,20.4,97.4,15.6,107.7,14.9z M13.8,81.1l16.8,14.2c10.6,9,26.6,16.5,39.3,13.3
		c4.4-1.2,8.2-3.9,10.8-7.6c0-0.1,0.1-0.1,0.1-0.2c0-0.2-0.2-0.4-0.4-0.3c-0.1,0-0.2,0-0.2,0.1l0,0c-2.7,2.2-6.1,3.4-9.5,3.4
		c-3.3,0-6.6-1.1-9.2-3.1l0,0l-0.8-0.5c-5.2-3.3-10.1-9.8-11.5-15.2c-3-12,1.9-27,13.5-41.2L92.9,6.5c1.6-1.5,1.7-4,0.2-5.7
		c-1.5-1.6-4-1.7-5.7-0.2c-0.3,0.2-0.5,0.5-0.7,0.8L65.3,27.6C58,19.7,48.6,15.1,38.6,14.8c-10.3-0.3-20.2,3.7-27.4,11.1
		c-7.7,7.7-11.7,18.5-11,29.4C0.8,65.6,5.6,74.1,13.8,81.1z M93.8,93.9c-1.2-4.4-3.9-8.2-7.6-10.8c-0.1,0-0.1-0.1-0.2-0.1
		c-0.2,0-0.3,0.2-0.3,0.3c0,0.1,0,0.2,0.1,0.2l0,0c2.2,2.7,3.4,6.1,3.4,9.6c0,3.3-1.1,6.6-3.1,9.2l0,0l-0.5,0.8
		c-3.3,5.2-9.8,10.1-15.3,11.5c-11.9,3-27-1.9-41.2-13.5l-5.5-4.3l-8.7,9.6c-11.7,13.1-11,33.1,1.5,45.5
		c12.5,12.1,33.7,12.6,46.3,0.5l17.8-19.1C89.6,122.7,97,106.7,93.8,93.9z M118.8,89.4c-15.6-20.2-33.1-20.2-40.5-18.3
		c-4.4,1.2-8.2,3.9-10.8,7.6c-0.1,0.2-0.1,0.4,0.1,0.5c0.1,0,0.1,0.1,0.2,0.1c0.1,0,0.2,0,0.2-0.1l0,0c2.7-2.2,6.1-3.4,9.6-3.4
		c3.3,0,6.5,1.1,9.2,3.1l0,0l0.8,0.5c5.2,3.3,10.1,9.8,11.5,15.2c3,12-1.9,27-13.5,41.2l-7.3,9.3l8.7,7.9
		c13.1,11.7,33.1,11,45.5-1.5c12.1-12.5,12-31.8,0-45.5L118.8,89.4z M65.7,19.5l5.1-6.3L61.2,1.5c-1.1-1.9-3.6-2.5-5.5-1.3
		c-1.9,1.1-2.5,3.6-1.3,5.5c0.2,0.3,0.4,0.6,0.7,0.8L65.7,19.5z"/>
	<path id="Path_3358" class="st0" d="M250.3,47.8c-10.5,0-19,8.5-19,19s8.5,19,19,19c10.5,0,19-8.5,19-19l0,0
		C269.3,56.3,260.8,47.8,250.3,47.8C250.3,47.8,250.3,47.8,250.3,47.8z M250.3,76c-5.1,0-9.2-4.1-9.2-9.2s4.1-9.2,9.2-9.2
		c5.1,0,9.2,4.1,9.2,9.2c0,0,0,0,0,0C259.5,71.9,255.4,76,250.3,76C250.3,76,250.3,76,250.3,76z"/>
</g>
</svg>
