<?xml version="1.0" encoding="utf-8"?>
<!-- Generator: Adobe Illustrator 15.1.0, SVG Export Plug-In . SVG Version: 6.00 Build 0)  -->
<!DOCTYPE svg PUBLIC "-//W3C//DTD SVG 1.1//EN" "http://www.w3.org/Graphics/SVG/1.1/DTD/svg11.dtd">
<svg version="1.1" id="Layer_1" xmlns="http://www.w3.org/2000/svg" xmlns:xlink="http://www.w3.org/1999/xlink" x="0px" y="0px"
	 width="127px" height="115px" viewBox="0 0 127 115" enable-background="new 0 0 127 115" xml:space="preserve">
<path fill="#FFFFFF" d="M123.662,99.577c-1.325,0-2.36,1.085-2.36,2.356v0.021c0,1.278,1.023,2.346,2.347,2.346
	c1.317,0,2.354-1.087,2.354-2.364v-0.013C126,100.652,124.979,99.577,123.662,99.577z M125.461,101.936
	c0,0.996-0.783,1.83-1.812,1.83c-1.026,0-1.806-0.822-1.806-1.82v-0.01c0-1,0.786-1.832,1.817-1.832c1.021,0,1.8,0.821,1.8,1.819
	L125.461,101.936L125.461,101.936z M124.684,101.54v-0.011c0-0.209-0.059-0.375-0.185-0.496c-0.149-0.159-0.388-0.245-0.735-0.245
	h-1.006v2.174h0.604v-0.664h0.265l0.438,0.664h0.695l-0.519-0.758C124.512,102.09,124.684,101.868,124.684,101.54z M124.082,101.576
	c0,0.154-0.121,0.256-0.326,0.256h-0.393v-0.523h0.391c0.194,0,0.328,0.086,0.328,0.258V101.576z"/>
<path fill="#FFFFFF" d="M11.11,104.533c-5.381,0-9.321-4.16-9.321-9.288v-0.07c0-5.132,3.908-9.356,9.385-9.356
	c3.372,0,5.479,1.144,7.148,3.021l-3.109,3.354c-1.132-1.209-2.271-1.979-4.072-1.979c-2.539,0-4.345,2.247-4.345,4.896v0.063
	c0,2.747,1.772,4.964,4.545,4.964c1.705,0,2.873-0.738,4.107-1.91l2.973,3.019C16.684,103.157,14.683,104.533,11.11,104.533z"/>
<path fill="#FFFFFF" d="M27.631,104.533c-5.544,0-9.653-4.122-9.653-9.288v-0.07c0-5.159,4.142-9.356,9.719-9.356
	c5.545,0,9.655,4.132,9.655,9.293v0.063C37.352,100.341,33.209,104.533,27.631,104.533z M32.342,95.175
	c0-2.644-1.902-4.961-4.71-4.961c-2.906,0-4.641,2.247-4.641,4.896v0.064c0,2.652,1.904,4.963,4.706,4.963
	c2.906,0,4.645-2.244,4.645-4.893V95.175z"/>
<path fill="#FFFFFF" d="M50.01,104.132V94.104c0-2.412-1.138-3.653-3.074-3.653c-1.939,0-3.175,1.241-3.175,3.653v10.028h-5.075
	V86.157h5.075v2.551c1.17-1.515,2.676-2.892,5.248-2.892c3.839,0,6.075,2.554,6.075,6.675v11.641H50.01z"/>
<path fill="#FFFFFF" d="M65.34,104.533c-5.375,0-9.317-4.16-9.317-9.288v-0.07c0-5.132,3.905-9.356,9.386-9.356
	c3.37,0,5.475,1.144,7.146,3.021l-3.107,3.354c-1.135-1.209-2.271-1.979-4.073-1.979c-2.538,0-4.34,2.247-4.34,4.896v0.063
	c0,2.747,1.77,4.964,4.542,4.964c1.703,0,2.869-0.738,4.104-1.91l2.975,3.019C70.916,103.157,68.915,104.533,65.34,104.533z"/>
<path fill="#FFFFFF" d="M89.832,96.919H77.374c0.501,2.315,2.104,3.524,4.375,3.524c1.703,0,2.938-0.534,4.344-1.844l2.902,2.58
	c-1.665,2.078-4.072,3.354-7.312,3.354c-5.377,0-9.353-3.79-9.353-9.288v-0.07c0-5.132,3.64-9.356,8.854-9.356
	c5.974,0,8.715,4.664,8.715,9.761v0.069C89.9,96.148,89.861,96.449,89.832,96.919z M81.184,89.908c-2.104,0-3.474,1.514-3.879,3.822
	h7.646C84.657,91.454,83.318,89.908,81.184,89.908z"/>
<path fill="#FFFFFF" d="M101.592,91.15c-3.375,0-5.447,2.048-5.447,6.341v6.641h-5.076V86.157h5.076v3.618
	c1.041-2.479,2.705-4.09,5.717-3.959v5.334H101.592z"/>
<path fill="#FFFFFF" d="M114.684,104.132V94.104c0-2.412-1.135-3.653-3.072-3.653c-1.938,0-3.174,1.241-3.174,3.653v10.028h-5.076
	V86.157h5.076v2.551c1.17-1.515,2.672-2.892,5.246-2.892c3.838,0,6.075,2.554,6.075,6.675v11.641H114.684z"/>
<path fill="#FFFFFF" d="M19.633,82.469h-3.198L12.667,71.54L8.899,82.469H5.7L0,65.646h3.936l3.458,11.311l3.747-11.354h3.146
	l3.746,11.354l3.458-11.311h3.841L19.633,82.469z"/>
<path fill="#FFFFFF" d="M46.497,73.113c-2.41,0-3.889,1.459-3.889,4.509v4.724h-3.627V69.562h3.627v2.574
	c0.738-1.769,1.931-2.91,4.079-2.816v3.795L46.497,73.113L46.497,73.113z"/>
<path fill="#FFFFFF" d="M47.688,82.346V64.93h3.625v17.416H47.688z"/>
<path fill="#FFFFFF" d="M62.525,82.346v-1.837c-0.88,1.197-2.099,2.078-3.983,2.078c-2.981,0-5.819-2.339-5.819-6.608v-0.045
	c0-4.273,2.789-6.613,5.819-6.613c1.933,0,3.124,0.885,3.983,1.906V64.93h3.627v17.416H62.525z M62.574,75.934
	c0-2.129-1.407-3.535-3.099-3.535c-1.696,0-3.128,1.386-3.128,3.535v0.045c0,2.121,1.433,3.53,3.128,3.53
	c1.692,0,3.099-1.409,3.099-3.53V75.934z"/>
<path fill="#FFFFFF" d="M30.812,69.298c-3.701,0-6.701,2.997-6.701,6.694c0,3.701,3,6.706,6.701,6.706
	c3.7,0,6.701-3.005,6.701-6.706C37.512,72.295,34.512,69.298,30.812,69.298z M30.812,79.247c-1.794,0-3.253-1.456-3.253-3.255
	c0-1.79,1.458-3.248,3.253-3.248c1.793,0,3.249,1.458,3.249,3.248C34.061,77.791,32.604,79.247,30.812,79.247z"/>
<path fill="#FFFFFF" d="M38.003,5.255c3.847-0.266,7.631,1.16,10.368,3.897c2.644,2.643,4.036,6.08,3.915,9.673
	c-0.119,3.657-1.82,7.099-4.792,9.696L44.319,31.1l-3.538-3.788c-8.119-8.121-16.496-3.903-18.682-0.69l-0.178,0.289
	c-0.609,1.041-1.084,2.027-1.084,3.245c0,1.284,0.464,2.438,1.206,3.372h-0.001c0.022,0.026,0.036,0.055,0.036,0.089
	c0,0.07-0.058,0.125-0.125,0.125c-0.026,0-0.044-0.016-0.063-0.03c-1.37-1.021-2.305-2.276-2.691-3.812
	c-1.132-4.508,1.49-10.146,4.684-13.88l5.02-5.938C31.381,7.199,34.358,5.503,38.003,5.255z M4.857,28.614l5.937,5.021
	c3.735,3.192,9.374,5.813,13.882,4.683c1.535-0.388,2.789-1.32,3.815-2.691c0.01-0.019,0.028-0.037,0.028-0.064
	c0-0.067-0.058-0.125-0.129-0.125c-0.031,0-0.062,0.013-0.083,0.038l-0.004-0.003c-0.929,0.743-2.085,1.207-3.368,1.207
	c-1.224,0-2.337-0.409-3.249-1.086l-0.003,0.004l-0.286-0.182c-1.831-1.155-3.572-3.47-4.054-5.382
	c-1.059-4.215,0.676-9.517,4.761-14.543l10.65-13.204c0.489-0.596,0.4-1.481-0.2-1.97c-0.6-0.49-1.481-0.397-1.97,0.202
	l-7.545,9.238c-2.565-2.803-5.896-4.409-9.437-4.524C10.009,5.11,6.574,6.501,3.929,9.145c-2.74,2.737-4.164,6.521-3.897,10.369
	C0.279,23.159,1.975,26.135,4.857,28.614z M33.104,33.146c-0.386-1.538-1.318-2.791-2.689-3.816
	c-0.019-0.011-0.037-0.024-0.064-0.024c-0.068,0-0.125,0.054-0.125,0.124c0,0.034,0.016,0.065,0.035,0.086l-0.001,0.002
	c0.741,0.93,1.208,2.086,1.208,3.371c0,1.221-0.412,2.335-1.086,3.248l0.001,0.003l-0.18,0.283
	c-1.156,1.831-3.467,3.572-5.383,4.054c-4.215,1.059-9.516-0.673-14.543-4.761L8.321,34.19l-3.042,3.375
	c-4.127,4.574-3.88,11.758,0.545,16.042c4.424,4.276,11.894,4.437,16.33,0.16l6.268-6.739C31.616,43.292,34.24,37.653,33.104,33.146
	z M41.921,31.538c-5.491-7.124-11.659-7.129-14.293-6.467c-1.536,0.388-2.79,1.32-3.813,2.69c-0.013,0.021-0.025,0.038-0.025,0.062
	c0,0.072,0.056,0.129,0.125,0.129c0.03,0,0.063-0.015,0.083-0.037L24,27.916c0.93-0.742,2.086-1.208,3.371-1.208
	c1.221,0,2.335,0.414,3.247,1.087l0.005-0.002l0.286,0.182c1.831,1.157,3.57,3.465,4.054,5.379
	c1.062,4.218-0.677,9.519-4.763,14.545l-2.563,3.288l3.068,2.765c4.575,4.127,11.757,3.882,16.041-0.543
	c4.277-4.425,4.22-11.207,0.006-16.043L41.921,31.538z M23.178,6.884l1.807-2.216l-3.391-4.151c-0.488-0.602-1.37-0.691-1.97-0.202
	c-0.6,0.488-0.688,1.374-0.199,1.97L23.178,6.884z"/>
</svg>
