<svg xmlns="http://www.w3.org/2000/svg" width="357.402" height="324.022" viewBox="0 0 357.402 324.022">
  <g id="world-concern-logo_vert" transform="translate(0 0.42)">
    <path id="Path_3320" data-name="Path 3320" d="M23.3,319.3l2.6-8.6h2.9l-4.1,12.6H22.2l-2.8-8.5-2.8,8.6H14l-4-12.6h2.9l2.5,8.6,2.8-8.6h2.4Z" fill="#00afb4"/>
    <path id="Path_3321" data-name="Path 3321" d="M30.6,308.8v-2.7h3.1v2.7Zm.2,14.5V310.8h2.9v12.5Z" fill="#00afb4"/>
    <path id="Path_3322" data-name="Path 3322" d="M40.1,319.4a1.51,1.51,0,0,0,1.1,1.6h.4a3.922,3.922,0,0,0,1.8-.4v2.3a4.752,4.752,0,0,1-2.6.6c-2.1,0-3.6-.9-3.6-3.7v-6.6H35.6v-2.5h1.6v-3.4h2.9v3.4h3.4v2.5H40.1v6.2Z" fill="#00afb4"/>
    <path id="Path_3323" data-name="Path 3323" d="M48.5,323.3H45.7V310.8h2.9v2a4.447,4.447,0,0,1,3.9-2.2c2.8,0,4.4,1.9,4.4,4.8v8H54v-7.1c0-2-1-3.1-2.7-3.1a2.775,2.775,0,0,0-2.8,2.7v7.4Z" fill="#00afb4"/>
    <path id="Path_3324" data-name="Path 3324" d="M65.3,321.2a4.478,4.478,0,0,0,3.4-1.5l1.7,1.5a6.508,6.508,0,0,1-9.2.8,6.41,6.41,0,0,1-2.3-5c0-3.6,2.5-6.5,6.1-6.5,4,0,6,3.1,6,6.8v.8H61.8A3.56,3.56,0,0,0,65.3,321.2Zm2.8-5.1c-.2-1.9-1.3-3.3-3.2-3.3s-3,1.4-3.2,3.3Z" fill="#00afb4"/>
    <path id="Path_3325" data-name="Path 3325" d="M77.4,323.5a8.593,8.593,0,0,1-5.3-1.9l1.3-2a6.878,6.878,0,0,0,4.1,1.5c1.2,0,1.9-.5,1.9-1.4h0c0-1-1.3-1.3-2.8-1.8-1.8-.5-3.9-1.3-3.9-3.7h0c0-2.4,2-3.8,4.4-3.8a8.555,8.555,0,0,1,4.6,1.4l-1.1,2a7.334,7.334,0,0,0-3.5-1.2c-1.1,0-1.8.5-1.8,1.3h0c0,.9,1.4,1.3,2.8,1.8,1.8.6,3.9,1.4,3.9,3.6h0C82,322.2,80,323.5,77.4,323.5Z" fill="#00afb4"/>
    <path id="Path_3326" data-name="Path 3326" d="M88.3,323.5a8.593,8.593,0,0,1-5.3-1.9l1.3-2a6.878,6.878,0,0,0,4.1,1.5c1.2,0,1.9-.5,1.9-1.4h0c0-1-1.3-1.3-2.8-1.8-1.8-.5-3.9-1.3-3.9-3.7h0c0-2.4,2-3.8,4.4-3.8a8.555,8.555,0,0,1,4.6,1.4l-1.1,2a7.334,7.334,0,0,0-3.5-1.2c-1.1,0-1.8.5-1.8,1.3h0c0,.9,1.4,1.3,2.8,1.8,1.8.6,3.9,1.4,3.9,3.6h0C92.9,322.2,90.9,323.5,88.3,323.5Z" fill="#00afb4"/>
    <path id="Path_3327" data-name="Path 3327" d="M104.9,319.4A1.51,1.51,0,0,0,106,321h.4a3.922,3.922,0,0,0,1.8-.4v2.3a4.752,4.752,0,0,1-2.6.6c-2.1,0-3.6-.9-3.6-3.7v-6.6h-1.6v-2.5H102v-3.4h2.9v3.4h3.4v2.5h-3.4v6.2Z" fill="#00afb4"/>
    <path id="Path_3328" data-name="Path 3328" d="M113.3,323.3h-2.9V306h2.9v6.7a4.447,4.447,0,0,1,3.9-2.2c2.8,0,4.4,1.9,4.4,4.8v8h-2.9v-7.1c0-2-1-3.1-2.7-3.1a2.775,2.775,0,0,0-2.8,2.7v7.5Z" fill="#00afb4"/>
    <path id="Path_3329" data-name="Path 3329" d="M130.2,321.2a4.478,4.478,0,0,0,3.4-1.5l1.7,1.5a6.508,6.508,0,0,1-9.2.8,6.41,6.41,0,0,1-2.3-5c0-3.6,2.5-6.5,6.1-6.5,4,0,6,3.1,6,6.8v.8h-9.2A3.485,3.485,0,0,0,130.2,321.2Zm2.8-5.1c-.2-1.9-1.3-3.3-3.2-3.3s-3,1.4-3.2,3.3Z" fill="#00afb4"/>
    <path id="Path_3330" data-name="Path 3330" d="M147.8,319.4a1.51,1.51,0,0,0,1.1,1.6h.4a3.922,3.922,0,0,0,1.8-.4v2.3a4.752,4.752,0,0,1-2.6.6c-2.1,0-3.6-.9-3.6-3.7v-6.6h-1.6v-2.5h1.6v-3.4h2.9v3.4h3.4v2.5h-3.4v6.2Z" fill="#00afb4"/>
    <path id="Path_3331" data-name="Path 3331" d="M156.2,323.3h-2.9V310.8h2.9v2.8a4.413,4.413,0,0,1,4.4-3.1v3h-.2c-2.5,0-4.2,1.6-4.2,5Z" fill="#00afb4"/>
    <path id="Path_3332" data-name="Path 3332" d="M169.4,323.3v-1.5a5.179,5.179,0,0,1-4,1.8c-2.4,0-4.4-1.4-4.4-3.9h0c0-2.7,2.1-4,5.1-4a12.7,12.7,0,0,1,3.4.5v-.4c0-1.7-1.1-2.7-3.1-2.7a9.375,9.375,0,0,0-3.6.8l-.8-2.3a11.172,11.172,0,0,1,4.8-1c3.7,0,5.5,2,5.5,5.3v7.4Zm.1-5.3a9.291,9.291,0,0,0-2.9-.5c-1.8,0-2.9.7-2.9,2h0c0,1.2,1.1,1.9,2.4,1.9,1.9,0,3.3-1.1,3.3-2.6V318Z" fill="#00afb4"/>
    <path id="Path_3333" data-name="Path 3333" d="M177.8,323.3H175V310.8h2.9v2a4.447,4.447,0,0,1,3.9-2.2c2.8,0,4.4,1.9,4.4,4.8v8h-2.9v-7.1c0-2-1-3.1-2.7-3.1a2.775,2.775,0,0,0-2.8,2.7v7.4Z" fill="#00afb4"/>
    <path id="Path_3334" data-name="Path 3334" d="M193.2,323.5a8.593,8.593,0,0,1-5.3-1.9l1.3-2a6.878,6.878,0,0,0,4.1,1.5c1.2,0,1.9-.5,1.9-1.4h0c0-1-1.3-1.3-2.8-1.8-1.8-.5-3.9-1.3-3.9-3.7h0c0-2.4,2-3.8,4.4-3.8a8.555,8.555,0,0,1,4.6,1.4l-1.1,2a7.334,7.334,0,0,0-3.5-1.2c-1.1,0-1.8.5-1.8,1.3h0c0,.9,1.4,1.3,2.8,1.8,1.8.6,3.9,1.4,3.9,3.6h0C197.8,322.2,195.8,323.5,193.2,323.5Z" fill="#00afb4"/>
    <path id="Path_3335" data-name="Path 3335" d="M206.8,310.8v2.4h-3.3v10.1h-2.9v-10H199v-2.4h1.6V310c0-2.8,1.4-4.1,3.8-4.1a8.525,8.525,0,0,1,2.3.3v2.4a4.671,4.671,0,0,0-1.7-.3c-1.1,0-1.6.6-1.6,1.9v.7h3.4Z" fill="#00afb4"/>
    <path id="Path_3336" data-name="Path 3336" d="M213.9,323.6a6.4,6.4,0,0,1-6.6-6.3v-.2a6.652,6.652,0,1,1,6.8,6.5C214,323.5,214,323.6,213.9,323.6Zm0-10.6a3.8,3.8,0,0,0-3.8,3.8v.2a3.907,3.907,0,0,0,3.7,4.1h.1a3.8,3.8,0,0,0,3.8-3.8v-.2A3.907,3.907,0,0,0,214,313Z" fill="#00afb4"/>
    <path id="Path_3337" data-name="Path 3337" d="M225.6,323.3h-2.9V310.8h2.9v2.8a4.413,4.413,0,0,1,4.4-3.1v3h-.2c-2.5,0-4.2,1.6-4.2,5v4.8Z" fill="#00afb4"/>
    <path id="Path_3338" data-name="Path 3338" d="M246.4,310.5c2.7,0,4.4,1.7,4.4,4.8v8h-2.9v-7.1c0-2-.9-3.1-2.5-3.1s-2.7,1.1-2.7,3.1v7.1h-2.9v-7.1c0-2-1-3-2.5-3s-2.7,1.1-2.7,3.1v7h-2.9V310.8h2.9v1.9a4.631,4.631,0,0,1,3.8-2.2,3.859,3.859,0,0,1,3.7,2.2A5.262,5.262,0,0,1,246.4,310.5Z" fill="#00afb4"/>
    <path id="Path_3339" data-name="Path 3339" d="M261.2,323.3v-1.5a5.179,5.179,0,0,1-4,1.8c-2.4,0-4.4-1.4-4.4-3.9h0c0-2.7,2.1-4,5.1-4a14.085,14.085,0,0,1,3.5.5v-.4c0-1.7-1.1-2.7-3.1-2.7a9.375,9.375,0,0,0-3.6.8l-.8-2.3a11.041,11.041,0,0,1,4.7-1c3.7,0,5.5,2,5.5,5.3v7.4Zm.1-5.3a9.291,9.291,0,0,0-2.9-.5c-1.8,0-2.9.7-2.9,2h0c0,1.2,1.1,1.9,2.4,1.9,1.9,0,3.3-1.1,3.3-2.6V318Z" fill="#00afb4"/>
    <path id="Path_3340" data-name="Path 3340" d="M270.1,319.4a1.51,1.51,0,0,0,1.1,1.6h.5a3.922,3.922,0,0,0,1.8-.4v2.3a4.752,4.752,0,0,1-2.6.6c-2.1,0-3.6-.9-3.6-3.7v-6.6h-1.6v-2.5h1.6v-3.4h2.9v3.4h3.4v2.5h-3.4l-.1,6.2Z" fill="#00afb4"/>
    <path id="Path_3341" data-name="Path 3341" d="M275.6,308.8v-2.7h3.1v2.7Zm.2,14.5V310.8h2.9v12.5Z" fill="#00afb4"/>
    <path id="Path_3342" data-name="Path 3342" d="M287.6,323.6a6.4,6.4,0,0,1-6.6-6.3v-.2a6.652,6.652,0,1,1,6.8,6.5A.138.138,0,0,0,287.6,323.6Zm0-10.6a3.8,3.8,0,0,0-3.8,3.8v.2a3.907,3.907,0,0,0,3.7,4.1h.1a3.778,3.778,0,0,0,3.8-3.7v-.3a3.907,3.907,0,0,0-3.7-4.1Z" fill="#00afb4"/>
    <path id="Path_3343" data-name="Path 3343" d="M299.3,323.3h-2.9V310.8h2.9v2a4.447,4.447,0,0,1,3.9-2.2c2.8,0,4.4,1.9,4.4,4.8v8h-2.9v-7.1c0-2-1-3.1-2.7-3.1a2.775,2.775,0,0,0-2.8,2.7v7.4Z" fill="#00afb4"/>
    <path id="Path_3344" data-name="Path 3344" d="M350.8,282.5a6.7,6.7,0,0,0-6.7,6.7v.1a6.655,6.655,0,1,0,13.3.5v-.5h0a6.518,6.518,0,0,0-6.6-6.8Zm5.2,6.7a5.281,5.281,0,0,1-4.9,5.4,5.209,5.209,0,0,1-5.4-4.9v-.5h0a5.208,5.208,0,0,1,5.1-5.2h.1a5.121,5.121,0,0,1,5.1,5.1s0,0,0,.1Zm-2.2-1.1h0a2.389,2.389,0,0,0-.5-1.4,2.7,2.7,0,0,0-2.1-.7h-2.9v6.2H350v-1.9h.8l1.2,1.9h2l-1.5-2.1A2.3,2.3,0,0,0,353.8,288.1Zm-1.8.1a.709.709,0,0,1-.8.7H350v-1.5h1.1a.779.779,0,0,1,.9.6v.2Z" fill="#786441"/>
    <path id="Path_3345" data-name="Path 3345" d="M31.5,296.6A26.015,26.015,0,0,1,5.1,271v-1a26.273,26.273,0,0,1,25.7-26.6h.9c9.6,0,15.6,3.2,20.3,8.6l-8.8,9.5c-3.2-3.4-6.4-5.6-11.6-5.6-7.2,0-12.3,6.4-12.3,13.9v.2c0,7.8,5,14.1,12.9,14.1,4.8,0,8.2-2.1,11.7-5.4l8.4,8.6C47.3,292.7,41.6,296.6,31.5,296.6Z" fill="#786441"/>
    <path id="Path_3346" data-name="Path 3346" d="M78.4,296.6c-15.7,0-27.4-11.7-27.4-26.4V270c0-14.6,11.7-26.5,27.6-26.5S106,255.2,106,269.9v.2C106,284.7,94.2,296.6,78.4,296.6ZM91.8,270c0-7.5-5.4-14.1-13.4-14.1-8.2,0-13.2,6.4-13.2,13.9v.2c0,7.5,5.4,14.1,13.4,14.1,8.2,0,13.2-6.4,13.2-13.9V270Z" fill="#786441"/>
    <path id="Path_3347" data-name="Path 3347" d="M141.9,295.4V267c0-6.9-3.2-10.4-8.7-10.4s-9,3.5-9,10.4v28.5H109.8v-51h14.4v7.2c3.3-4.3,7.6-8.2,14.9-8.2,10.9,0,17.2,7.2,17.2,18.9v33Z" fill="#786441"/>
    <path id="Path_3348" data-name="Path 3348" d="M185.4,296.6A25.952,25.952,0,0,1,159,271v-1a26.273,26.273,0,0,1,25.7-26.6h.9c9.6,0,15.5,3.2,20.3,8.6l-8.8,9.5c-3.2-3.4-6.5-5.6-11.6-5.6-7.2,0-12.3,6.4-12.3,13.9v.2c0,7.8,5,14.1,12.9,14.1,4.8,0,8.1-2.1,11.7-5.4l8.4,8.6C201.2,292.7,195.5,296.6,185.4,296.6Z" fill="#786441"/>
    <path id="Path_3349" data-name="Path 3349" d="M254.9,275H219.5c1.4,6.6,6,10,12.4,10,4.8,0,8.3-1.5,12.3-5.2l8.2,7.3c-4.7,5.9-11.6,9.5-20.8,9.5-15.2,0-26.5-10.8-26.5-26.4V270c0-14.6,10.3-26.5,25.1-26.5,17,0,24.7,13.2,24.7,27.7v.2A14.455,14.455,0,0,1,254.9,275Zm-24.6-19.9c-6,0-9.9,4.3-11,10.9H241c-.8-6.5-4.6-10.9-10.7-10.9Z" fill="#786441"/>
    <path id="Path_3350" data-name="Path 3350" d="M288.2,258.6c-9.6,0-15.4,5.8-15.4,18v18.8H258.4v-51h14.4v10.3c2.9-7,7.7-11.6,16.2-11.2v15.1Z" fill="#786441"/>
    <path id="Path_3351" data-name="Path 3351" d="M325.4,295.4V267c0-6.9-3.2-10.4-8.7-10.4s-9,3.5-9,10.4v28.5H293.3v-51h14.4v7.2c3.3-4.3,7.6-8.2,14.9-8.2,10.9,0,17.2,7.2,17.2,18.9v33Z" fill="#786441"/>
    <path id="Path_3352" data-name="Path 3352" d="M55.7,234H46.6L35.9,203,25.2,234H16.1L0,186.2H11.2L21,218.3l10.7-32.2h8.9l10.6,32.2L61,186.2H71.9Z" fill="#786441"/>
    <path id="Path_3353" data-name="Path 3353" d="M131.9,207.4c-6.8,0-11,4.1-11,12.8v13.4H110.6V197.3h10.3v7.3c2.1-5,5.5-8.2,11.6-8v10.8Z" fill="#786441"/>
    <path id="Path_3354" data-name="Path 3354" d="M135.3,233.6V184.2h10.3v49.4Z" fill="#786441"/>
    <path id="Path_3355" data-name="Path 3355" d="M177.4,233.6v-5.2a13.181,13.181,0,0,1-11.3,5.9c-8.4,0-16.5-6.6-16.5-18.8v-.1c0-12.1,7.9-18.8,16.5-18.8a13.879,13.879,0,0,1,11.3,5.4V184.1h10.2v49.4l-10.2.1Zm.1-18.2c0-6-4-10-8.8-10s-8.9,3.9-8.9,10v.1c0,6,4.1,10,8.9,10s8.8-4,8.8-10Z" fill="#786441"/>
    <path id="Path_3356" data-name="Path 3356" d="M87.4,196.6a19,19,0,1,0,19,19h0A18.992,18.992,0,0,0,87.4,196.6Zm0,28.2a9.2,9.2,0,1,1,9.2-9.2,9.176,9.176,0,0,1-9.2,9.2Z" fill="#786441"/>
    <path id="Path_3357" data-name="Path 3357" d="M107.8,14.9A37.948,37.948,0,0,1,137.2,26a36.722,36.722,0,0,1,11.1,27.5c-.3,10.4-5.2,20.1-13.6,27.5l-9,7.3-10-10.7c-23-23-46.8-11.1-53-2l-.5.8c-1.7,3-3.1,5.8-3.1,9.2a15.208,15.208,0,0,0,3.4,9.6h0a.31.31,0,0,1,.1.2.43.43,0,0,1-.4.4c-.1,0-.1,0-.2-.1a19.139,19.139,0,0,1-7.7-10.8C51.2,72,58.7,56,67.8,45.4L82,28.6C89,20.4,97.5,15.6,107.8,14.9Zm-94,66.3L30.6,95.4c10.6,9.1,26.6,16.5,39.4,13.3a19.45,19.45,0,0,0,10.8-7.6c0-.1.1-.1.1-.2a.43.43,0,0,0-.4-.4h0c-.1,0-.2,0-.2.1h0a15.228,15.228,0,0,1-18.8.3h0l-.8-.5c-5.2-3.3-10.1-9.8-11.5-15.3-3-12,1.9-27,13.5-41.3L93,6.5A3.946,3.946,0,0,0,91.7,1a4.089,4.089,0,0,0-4.9.5L65.4,27.7A38.261,38.261,0,0,0,38.6,14.8,36.5,36.5,0,0,0,11.2,25.9,38.082,38.082,0,0,0,.1,55.3C.8,65.7,5.6,74.2,13.8,81.2ZM94,94a19.45,19.45,0,0,0-7.6-10.8c-.1,0-.1-.1-.2-.1-.2,0-.4.1-.4.3a.367.367,0,0,0,.1.3h0a15.228,15.228,0,0,1,.3,18.8h0l-.5.8c-3.3,5.2-9.8,10.1-15.3,11.5-12,3-27-1.9-41.3-13.5L23.6,97,15,106.6a32.974,32.974,0,0,0,1.6,45.5c12.6,12.1,33.8,12.6,46.3.5l17.8-19.1c9-10.7,16.4-26.7,13.3-39.5Zm25-4.5C103.4,69.3,85.9,69.3,78.4,71.2a19.139,19.139,0,0,0-10.8,7.7.349.349,0,0,0-.1.2.43.43,0,0,0,.4.4h0c.1,0,.2,0,.2-.1h0a15.228,15.228,0,0,1,18.8-.3h0l.8.5c5.2,3.3,10.1,9.8,11.5,15.3,3,12-1.9,27-13.5,41.3l-7.3,9.3,8.7,7.9a33.1,33.1,0,0,0,45.6-1.6c12.1-12.5,12-31.8,0-45.5Zm-53.2-70,5.1-6.3L61.3,1.5A3.946,3.946,0,0,0,55.8.2a3.946,3.946,0,0,0-1.3,5.5,5.547,5.547,0,0,0,.6.8Z" fill="#00afb4"/>
  </g>
</svg>
