<svg xmlns="http://www.w3.org/2000/svg" width="148" height="161" viewBox="0 0 148 161">
  <path id="wc-butterfly_teal" d="M135.67,40.991a38.03,38.03,0,0,1,29.357,10.951,36.561,36.561,0,0,1,11.078,27.3c-.34,10.314-5.154,20.02-13.565,27.357l-8.99,7.277-9.989-10.682c-22.974-22.9-46.708-11.02-52.891-1.991l-.509.816c-1.718,2.937-3.077,5.724-3.077,9.169a15.13,15.13,0,0,0,3.416,9.5h0a.348.348,0,0,1-.25.6.36.36,0,0,1-.18-.07,19.215,19.215,0,0,1-7.612-10.762c-3.206-12.723,4.215-28.621,13.265-39.164L109.909,54.61C116.9,46.487,125.352,41.688,135.67,40.991ZM41.835,106.9l16.811,14.166c10.578,8.96,26.531,16.406,39.3,13.211a19.308,19.308,0,0,0,10.8-7.586.348.348,0,0,0,.08-.179.359.359,0,0,0-.36-.348.35.35,0,0,0-.24.1h0a15.235,15.235,0,0,1-9.529,3.4,15.447,15.447,0,0,1-9.2-3.066h0l-.809-.508c-5.174-3.265-10.109-9.786-11.477-15.182-3-11.946,1.908-26.879,13.485-41.035l30.146-37.252a3.989,3.989,0,1,0-6.143-4.978L93.308,53.684C86.046,45.79,76.606,41.25,66.6,40.932a36.834,36.834,0,0,0-27.4,11.04A37.688,37.688,0,0,0,28.21,81.23C28.869,91.514,33.674,99.906,41.835,106.9Zm79.971,12.782a19.255,19.255,0,0,0-7.612-10.762.37.37,0,0,0-.18-.07.349.349,0,0,0-.35.348.368.368,0,0,0,.1.239h0a15.17,15.17,0,0,1,3.416,9.507,15.327,15.327,0,0,1-3.077,9.169h0l-.509.806c-3.276,5.157-9.819,10.075-15.243,11.439-11.937,2.987-26.97-1.9-41.174-13.44l-5.534-4.3-8.66,9.537a32.772,32.772,0,0,0,1.538,45.266c12.526,12.066,33.683,12.524,46.239.458l17.75-19.024c9.08-10.543,16.5-26.451,13.3-39.174Zm24.972-4.53c-15.553-20.1-33.013-20.119-40.465-18.248a19.3,19.3,0,0,0-10.8,7.586.335.335,0,0,0,.29.528.36.36,0,0,0,.24-.1h0a15.275,15.275,0,0,1,9.539-3.4,15.437,15.437,0,0,1,9.19,3.066h0l.809.508c5.184,3.265,10.119,9.786,11.477,15.182,3,11.946-1.908,26.879-13.485,41.035l-7.252,9.268,8.68,7.815a33.044,33.044,0,0,0,45.41-1.533c12.117-12.484,11.987-31.618,0-45.276ZM93.7,45.591l5.124-6.252-9.6-11.717A3.991,3.991,0,1,0,83.079,32.6Z" transform="translate(-28.121 -25.709)" fill="#00afb5"/>
</svg>
