<svg xmlns="http://www.w3.org/2000/svg" viewBox="0 0 520.87 161.94"><defs><style>.cls-1{fill:#00afb4;}.cls-2{fill:#786441;}</style></defs><title>world-concern-logo-horiz</title><g id="Layer_2" data-name="Layer 2"><g id="Logo_Color" data-name="Logo Color"><path class="cls-1" d="M186.56,156.82l2.55-8.59H192l-4.09,12.63h-2.55l-2.79-8.57-2.81,8.57h-2.56l-4-12.63h2.93l2.51,8.59,2.77-8.64h2.44Z"/><path class="cls-1" d="M193.87,146.3v-2.73h3.07v2.73Zm.12,14.46V148.23h2.86v12.54H194Z"/><path class="cls-1" d="M203.32,156.85a1.37,1.37,0,0,0,1.54,1.57,3.83,3.83,0,0,0,1.77-.43v2.35A5,5,0,0,1,204,161c-2.1,0-3.6-.93-3.6-3.68v-6.65h-1.58v-2.47h1.58v-3.44h2.86v3.44h3.36v2.47h-3.36v6.2Z"/><path class="cls-1" d="M211.67,160.76h-2.86V148.23h2.86v1.95a4.49,4.49,0,0,1,3.9-2.21c2.81,0,4.45,1.9,4.45,4.82v8h-2.86v-7.14c0-1.95-1-3.06-2.67-3.06a2.78,2.78,0,0,0-2.82,3.06v7.11Z"/><path class="cls-1" d="M228.58,158.65a4.53,4.53,0,0,0,3.38-1.5l1.71,1.5a6.51,6.51,0,0,1-11.52-4.18c0-3.61,2.53-6.55,6.1-6.55,4,0,6,3.13,6,6.77v.78h-9.18A3.51,3.51,0,0,0,228.58,158.65Zm2.79-5c-.19-1.85-1.28-3.3-3.17-3.3s-3,1.35-3.24,3.3Z"/><path class="cls-1" d="M240.67,161a8.75,8.75,0,0,1-5.3-1.88l1.28-1.95a7,7,0,0,0,4.09,1.54c1.23,0,1.94-.52,1.94-1.35h0c0-1-1.32-1.31-2.79-1.76-1.84-.52-3.9-1.28-3.9-3.68h0c0-2.37,2-3.82,4.45-3.82a8.63,8.63,0,0,1,4.59,1.42l-1.14,2a7.23,7.23,0,0,0-3.52-1.19c-1.11,0-1.75.52-1.75,1.26h0c0,.9,1.35,1.28,2.81,1.76,1.82.57,3.88,1.4,3.88,3.66h0C245.3,159.65,243.26,161,240.67,161Z"/><path class="cls-1" d="M251.54,161a8.75,8.75,0,0,1-5.3-1.88l1.28-1.95a7,7,0,0,0,4.09,1.54c1.23,0,1.94-.52,1.94-1.35h0c0-1-1.32-1.31-2.79-1.76-1.84-.52-3.9-1.28-3.9-3.68h0c0-2.37,2-3.82,4.45-3.82a8.63,8.63,0,0,1,4.59,1.42l-1.14,2a7.23,7.23,0,0,0-3.52-1.19c-1.11,0-1.75.52-1.75,1.26h0c0,.9,1.35,1.28,2.81,1.76,1.82.57,3.88,1.4,3.88,3.66h0C256.17,159.65,254.14,161,251.54,161Z"/><path class="cls-1" d="M268.21,156.85a1.37,1.37,0,0,0,1.54,1.57,3.83,3.83,0,0,0,1.77-.43v2.35a5,5,0,0,1-2.58.64c-2.1,0-3.59-.93-3.59-3.68v-6.65h-1.58v-2.47h1.58v-3.44h2.86v3.44h3.36v2.47h-3.36v6.2Z"/><path class="cls-1" d="M276.6,160.76h-2.86V143.43h2.86v6.74a4.49,4.49,0,0,1,3.9-2.21c2.81,0,4.45,1.9,4.45,4.82v8h-2.86v-7.13c0-1.95-1-3.06-2.67-3.06a2.78,2.78,0,0,0-2.81,3.11v7.06Z"/><path class="cls-1" d="M293.46,158.65a4.53,4.53,0,0,0,3.38-1.5l1.68,1.5A6.51,6.51,0,0,1,287,154.47c0-3.61,2.53-6.55,6.1-6.55,4,0,6,3.13,6,6.77v.78h-9.23A3.51,3.51,0,0,0,293.46,158.65Zm2.79-5.08c-.19-1.85-1.28-3.3-3.17-3.3s-3,1.35-3.24,3.3Z"/><path class="cls-1" d="M311.1,156.85a1.37,1.37,0,0,0,1.54,1.57,3.83,3.83,0,0,0,1.77-.43v2.35a5,5,0,0,1-2.58.64c-2.1,0-3.59-.93-3.59-3.68v-6.65h-1.57v-2.47h1.59v-3.44h2.86v3.44h3.36v2.47h-3.36v6.15Z"/><path class="cls-1" d="M319.49,160.76h-2.82V148.23h2.86v2.83a4.43,4.43,0,0,1,4.42-3.06v3h-.17c-2.51,0-4.26,1.64-4.26,5v4.77Z"/><path class="cls-1" d="M332.74,160.76v-1.54a5,5,0,0,1-4,1.8c-2.37,0-4.45-1.35-4.45-3.87h0c0-2.71,2.15-4,5.06-4a10.48,10.48,0,0,1,3.45.52v-.31c0-1.73-1.09-2.68-3.08-2.68a8.66,8.66,0,0,0-3.57.78l-.78-2.3a10.68,10.68,0,0,1,4.75-1c3.69,0,5.49,1.95,5.49,5.29v7.43h-2.84Zm.07-5.32a8.14,8.14,0,0,0-2.86-.5c-1.8,0-2.86.74-2.86,2h0c0,1.19,1.06,1.85,2.41,1.85,1.89,0,3.31-1.07,3.31-2.64v-.71Z"/><path class="cls-1" d="M341.13,160.76h-2.86V148.23h2.86v1.95A4.49,4.49,0,0,1,345,148c2.81,0,4.45,1.9,4.45,4.82v8h-2.86v-7.14c0-1.95-1-3.06-2.67-3.06a2.78,2.78,0,0,0-2.81,3.11v7.06Z"/><path class="cls-1" d="M356.5,161a8.75,8.75,0,0,1-5.3-1.88l1.28-1.95a7,7,0,0,0,4.09,1.54c1.23,0,1.94-.52,1.94-1.35h0c0-1-1.32-1.31-2.79-1.76-1.84-.52-3.9-1.28-3.9-3.68h0c0-2.37,2-3.82,4.45-3.82a8.63,8.63,0,0,1,4.59,1.42l-1.13,2a7.23,7.23,0,0,0-3.52-1.19c-1.11,0-1.75.52-1.75,1.26h0c0,.9,1.35,1.28,2.81,1.76,1.82.57,3.88,1.4,3.88,3.66h0C361.13,159.65,359.1,161,356.5,161Z"/><path class="cls-1" d="M370.1,148.32v2.33h-3.26v10.07H364V150.65h-1.58v-2.4H364v-.9c0-2.75,1.37-4.11,3.83-4.11a7.64,7.64,0,0,1,2.32.33V146a5,5,0,0,0-1.68-.31c-1.09,0-1.66.59-1.66,1.9v.69h3.31Z"/><path class="cls-1" d="M377.21,161a6.48,6.48,0,0,1-6.62-6.34q0-.09,0-.17a6.66,6.66,0,1,1,6.81,6.51Zm0-10.57a3.76,3.76,0,0,0-3.77,3.75q0,.12,0,.25a3.87,3.87,0,0,0,3.67,4.06h.14a3.77,3.77,0,0,0,3.79-3.75q0-.12,0-.25a3.87,3.87,0,0,0-3.68-4.06h-.15Z"/><path class="cls-1" d="M389,160.76H386.1V148.23H389v2.83a4.43,4.43,0,0,1,4.42-3.06v3h-.17c-2.51,0-4.26,1.64-4.26,5v4.77Z"/><path class="cls-1" d="M409.78,148c2.72,0,4.37,1.73,4.37,4.8v8h-2.86v-7.12c0-2-.92-3.06-2.53-3.06s-2.67,1.09-2.67,3.11v7.08h-2.86v-7.13c0-1.95-1-3-2.53-3s-2.67,1.19-2.67,3.13v7.05h-2.86v-12.6H398v1.9a4.47,4.47,0,0,1,3.81-2.16,3.93,3.93,0,0,1,3.71,2.21A5.09,5.09,0,0,1,409.78,148Z"/><path class="cls-1" d="M424.55,160.76v-1.54a5,5,0,0,1-4,1.8c-2.37,0-4.45-1.35-4.45-3.87h0c0-2.71,2.15-4,5.06-4a10.48,10.48,0,0,1,3.45.52v-.31c0-1.73-1.09-2.68-3.08-2.68a8.65,8.65,0,0,0-3.57.78l-.78-2.3a10.68,10.68,0,0,1,4.75-1c3.69,0,5.49,1.95,5.49,5.29v7.43h-2.84Zm.07-5.32a8.14,8.14,0,0,0-2.86-.5c-1.8,0-2.86.74-2.86,2h0c0,1.19,1.06,1.85,2.41,1.85,1.89,0,3.31-1.07,3.31-2.64v-.71Z"/><path class="cls-1" d="M433.42,156.85a1.37,1.37,0,0,0,1.54,1.57,3.83,3.83,0,0,0,1.77-.43v2.35a5,5,0,0,1-2.58.64c-2.1,0-3.59-.93-3.59-3.68v-6.65H429v-2.47h1.58v-3.44h2.86v3.44h3.36v2.47h-3.36v6.2Z"/><path class="cls-1" d="M439,146.3v-2.73h3.08v2.73Zm.12,14.46V148.23H442v12.54h-2.86Z"/><path class="cls-1" d="M450.94,161a6.48,6.48,0,0,1-6.62-6.34q0-.09,0-.17a6.66,6.66,0,1,1,6.81,6.51Zm0-10.57a3.76,3.76,0,0,0-3.77,3.75q0,.12,0,.25a3.87,3.87,0,0,0,3.67,4.06H451a3.77,3.77,0,0,0,3.79-3.75q0-.12,0-.25a3.87,3.87,0,0,0-3.68-4.06h-.15Z"/><path class="cls-1" d="M462.67,160.76h-2.86V148.23h2.86v1.95a4.49,4.49,0,0,1,3.9-2.21c2.81,0,4.45,1.9,4.45,4.82v8h-2.86v-7.14c0-1.95-1-3.06-2.67-3.06a2.78,2.78,0,0,0-2.82,3.06v7.11Z"/><path class="cls-2" d="M514.22,120a6.71,6.71,0,0,0-6.7,6.69v.06a6.65,6.65,0,0,0,6.65,6.65h0a6.72,6.72,0,0,0,6.7-6.74h0a6.65,6.65,0,0,0-6.64-6.66Zm5.1,6.69a5.13,5.13,0,0,1-10.25.45q0-.23,0-.45h0a5.14,5.14,0,0,1,5.08-5.2h.07a5.08,5.08,0,0,1,5.1,5.06s0,.07,0,.1h0Zm-2.19-1.12h0a1.91,1.91,0,0,0-.53-1.42,2.83,2.83,0,0,0-2.08-.69h-2.85v6.2h1.72v-1.89h.75l1.23,1.89h2l-1.48-2.15a1.93,1.93,0,0,0,1.24-1.94Zm-1.71.11a.78.78,0,0,1-.82.73h-1.23V124.9h1.1a.78.78,0,0,1,1,.73h0Z"/><path class="cls-2" d="M194.76,134.06a26,26,0,0,1-26.45-25.54q0-.43,0-.87v-.19A26.14,26.14,0,0,1,194,80.9h.92c9.57,0,15.55,3.24,20.29,8.57L206.42,99c-3.22-3.43-6.45-5.62-11.57-5.62-7.2,0-12.32,6.38-12.32,13.9v.19c0,7.8,5,14.09,12.89,14.09,4.84,0,8.15-2.1,11.66-5.43l8.44,8.57C210.59,130.16,204.9,134.06,194.76,134.06Z"/><path class="cls-2" d="M241.67,134.06c-15.74,0-27.4-11.71-27.4-26.37v-.19c0-14.66,11.75-26.56,27.59-26.56s27.4,11.71,27.4,26.37v.19C269.24,122.16,257.49,134.06,241.67,134.06ZM255,107.5c0-7.52-5.4-14.09-13.37-14.09-8.25,0-13.17,6.38-13.17,13.9v.19c0,7.52,5.4,14.09,13.36,14.09,8.25,0,13.18-6.37,13.18-13.9Z"/><path class="cls-2" d="M305.17,132.91V104.45c0-6.85-3.23-10.37-8.73-10.37s-9,3.52-9,10.37v28.46H273v-51h14.41v7.23c3.32-4.28,7.59-8.19,14.89-8.19,10.9,0,17.25,7.23,17.25,18.94v33H305.17Z"/><path class="cls-2" d="M348.67,134.06a26,26,0,0,1-26.43-25.56q0-.42,0-.85v-.19A26.14,26.14,0,0,1,347.95,80.9h.93c9.57,0,15.55,3.24,20.29,8.57L360.35,99c-3.23-3.43-6.44-5.62-11.57-5.62-7.2,0-12.32,6.38-12.32,13.9v.19c0,7.8,5,14.09,12.89,14.09,4.84,0,8.16-2.1,11.66-5.43l8.44,8.57C364.52,130.16,358.83,134.06,348.67,134.06Z"/><path class="cls-2" d="M418.2,112.45H382.85c1.42,6.57,6,10,12.42,10,4.83,0,8.34-1.52,12.32-5.23l8.25,7.33c-4.74,5.91-11.57,9.52-20.76,9.52-15.27,0-26.55-10.76-26.55-26.37v-.19c0-14.57,10.33-26.56,25.13-26.56,17,0,24.74,13.23,24.74,27.71v.18C418.39,110.26,418.3,111.12,418.2,112.45Zm-24.53-19.9c-6,0-9.86,4.29-11,10.85h21.71C403.51,96.93,399.72,92.55,393.67,92.55Z"/><path class="cls-2" d="M451.58,96.08c-9.57,0-15.45,5.81-15.45,18v18.85H421.67v-51h14.42V92.21c2.94-7,7.68-11.62,16.21-11.23V96.12h-.76Z"/><path class="cls-2" d="M488.74,132.91V104.45c0-6.85-3.22-10.37-8.72-10.37s-9,3.52-9,10.37v28.46h-14.4v-51H471v7.23c3.32-4.28,7.59-8.19,14.89-8.19,10.9,0,17.25,7.23,17.25,18.94v33H488.74Z"/><path class="cls-2" d="M219,71.42h-9.08l-10.7-31-10.7,31H179.4L163.22,23.65h11.17l9.82,32.1,10.64-32.2h8.94l10.63,32.23,9.81-32.13h10.9Z"/><path class="cls-2" d="M295.2,44.88c-6.84,0-11,4.13-11,12.8v13.4H273.87V34.79h10.29V42.1c2.1-5,5.49-8.26,11.58-8V44.88Z"/><path class="cls-2" d="M298.58,71.08V21.65h10.29V71.08Z"/><path class="cls-2" d="M340.67,71.08V65.87a13.33,13.33,0,0,1-11.31,5.89c-8.46,0-16.52-6.63-16.52-18.76v-.13c0-12.12,7.92-18.77,16.52-18.77a14,14,0,0,1,11.31,5.43V21.65H351V71.08Zm.13-18.21c0-6-4-10-8.8-10s-8.87,3.92-8.87,10V53c0,6,4.07,10,8.87,10s8.8-4,8.8-10Z"/><path class="cls-2" d="M250.67,34a19,19,0,1,0,19,19h0A19,19,0,0,0,250.67,34Zm0,28.24A9.23,9.23,0,1,1,259.9,53a9.23,9.23,0,0,1-9.23,9.23Z"/><path class="cls-1" d="M107.86,15.35A38,38,0,0,1,137.3,26.41a36.86,36.86,0,0,1,11.11,27.46c-.34,10.37-5.16,20.14-13.6,27.52l-9,7.32L115.81,78C92.76,55,69,66.88,62.81,76l-.51.82c-1.73,2.95-3.08,5.75-3.08,9.22a15.26,15.26,0,0,0,3.43,9.56h0a.35.35,0,0,1-.25.59.34.34,0,0,1-.18-.07,19.33,19.33,0,0,1-7.64-10.83c-3.22-12.8,4.23-28.8,13.3-39.4L82,29C89.07,20.87,97.53,16,107.86,15.35ZM13.79,81.65,30.67,95.9c10.6,9.06,26.6,16.51,39.4,13.29a19.34,19.34,0,0,0,10.82-7.63.32.32,0,0,0-.28-.54.34.34,0,0,0-.24.1h0a15.26,15.26,0,0,1-9.56,3.43,15.49,15.49,0,0,1-9.23-3.08h0l-.82-.51c-5.22-3.31-10.17-9.85-11.53-15.31-3-12,1.91-27,13.52-41.28L93,6.93a4,4,0,1,0-6.16-5L65.4,28.12c-7.29-7.94-16.73-12.47-26.79-12.84A36.87,36.87,0,0,0,11.15,26.39,38,38,0,0,0,.09,55.83C.79,66.17,5.61,74.65,13.79,81.65ZM94,94.51a19.37,19.37,0,0,0-7.63-10.86.35.35,0,0,0-.18,0,.36.36,0,0,0-.35.36.38.38,0,0,0,.1.24h0a15.28,15.28,0,0,1,3.42,9.56A15.45,15.45,0,0,1,86.25,103h0l-.51.81C82.45,109,75.89,114,70.46,115.35c-12,3-27-1.91-41.28-13.52l-5.51-4.35L15,107.06a33,33,0,0,0,1.55,45.52c12.56,12.15,33.77,12.6,46.36.47l17.73-19.14C89.74,123.32,97.19,107.31,94,94.51Zm25-4.56C103.38,69.73,85.87,69.71,78.4,71.59a19.35,19.35,0,0,0-10.83,7.64.33.33,0,0,0,.29.53.37.37,0,0,0,.24-.1h0a15.18,15.18,0,0,1,18.78-.34h0l.81.51c5.2,3.28,10.14,9.85,11.51,15.27,3,12-1.91,27-13.52,41.28l-7.27,9.32,8.71,7.86A33,33,0,0,0,132.67,152c12.14-12.56,12-31.81,0-45.54Zm-53.21-70,5.16-6.3L61.3,1.9a4,4,0,1,0-6.16,5Z"/></g></g></svg>