<?xml version="1.0" encoding="utf-8"?>
<!-- Generator: Adobe Illustrator 15.1.0, SVG Export Plug-In  -->
<!DOCTYPE svg PUBLIC "-//W3C//DTD SVG 1.1//EN" "http://www.w3.org/Graphics/SVG/1.1/DTD/svg11.dtd" [
	<!ENTITY ns_flows "http://ns.adobe.com/Flows/1.0/">
]>
<svg version="1.1"
	 xmlns="http://www.w3.org/2000/svg" xmlns:xlink="http://www.w3.org/1999/xlink" xmlns:a="http://ns.adobe.com/AdobeSVGViewerExtensions/3.0/"
	 x="0px" y="0px" width="100px" height="100px" viewBox="-10 -24.001 100 100"
	 overflow="visible" enable-background="new -10 -24.001 100 100" xml:space="preserve">
<defs>
</defs>
<path fill="#884E2D" d="M73.602,0H6.399L0,10.402h0.001c0.011,3.524,2.87,6.38,6.398,6.38c1.914,0,3.626-0.842,4.799-2.174
	c1.173,1.332,2.885,2.174,4.799,2.174s3.631-0.842,4.803-2.174c1.172,1.332,2.887,2.174,4.801,2.174s3.626-0.842,4.799-2.174
	c1.173,1.332,2.885,2.174,4.799,2.174s3.626-0.842,4.799-2.174c1.173,1.332,2.883,2.174,4.805,2.174c1.91,0,3.621-0.842,4.794-2.174
	c1.173,1.332,2.884,2.174,4.805,2.174c1.911,0,3.621-0.842,4.794-2.174c1.173,1.332,2.884,2.174,4.805,2.174
	c1.91,0,3.621-0.842,4.794-2.174c1.173,1.332,2.884,2.174,4.806,2.174c3.532,0,6.386-2.856,6.397-6.38H80L73.602,0z"/>
<path fill="#884E2D" d="M68.796,18.69c-1.439,0.967-3.095,1.487-4.794,1.487c-1.698,0-3.354-0.52-4.805-1.487
	c-1.439,0.967-3.095,1.487-4.794,1.487c-1.708,0-3.354-0.52-4.805-1.487c-1.439,0.967-3.095,1.487-4.794,1.487
	c-1.71,0-3.359-0.52-4.805-1.487c-1.446,0.967-3.1,1.487-4.799,1.487c-1.705,0-3.354-0.52-4.799-1.487
	c-1.446,0.967-3.101,1.487-4.799,1.487c-1.705,0-3.356-0.52-4.801-1.487c-1.445,0.967-3.099,1.487-4.803,1.487
	c-1.699,0-3.354-0.52-4.799-1.487c-1.445,0.967-3.094,1.487-4.799,1.487v35.827h7.201V27.201h14.398v28.803h45.603V20.177
	C71.901,20.177,70.247,19.657,68.796,18.69z M66.398,45.603H35.201V27.201h31.198V45.603z"/>
</svg>
