<?xml version="1.0" encoding="utf-8"?>
<!-- Generator: Adobe Illustrator 15.1.0, SVG Export Plug-In  -->
<!DOCTYPE svg PUBLIC "-//W3C//DTD SVG 1.1//EN" "http://www.w3.org/Graphics/SVG/1.1/DTD/svg11.dtd" [
	<!ENTITY ns_flows "http://ns.adobe.com/Flows/1.0/">
]>
<svg version="1.1"
	 xmlns="http://www.w3.org/2000/svg" xmlns:xlink="http://www.w3.org/1999/xlink" xmlns:a="http://ns.adobe.com/AdobeSVGViewerExtensions/3.0/"
	 x="0px" y="0px" width="100px" height="100px" viewBox="-18.54 -8.5 100 100"
	 overflow="visible" enable-background="new -18.54 -8.5 100 100" xml:space="preserve">
<defs>
</defs>
<path fill="#E89692" d="M31.503,0c7.511,0,13.607,6.096,13.607,13.607c0,7.52-6.097,13.609-13.607,13.609
	c-7.518,0-13.607-6.089-13.607-13.609C17.896,6.096,23.986,0,31.503,0z"/>
<path fill="#E89692" d="M60.761,49.16c-1.496-3.204-3.667-6.809-5.387-9.698c-2.783-4.667-5.869-8.391-12.338-8.391
	c-2.183,0-9.623-0.001-21.101-0.001c-9.938,0-13.526,10.294-16.683,16.26c-2.405,4.54-5.017,11.518-5.228,15.389
	c-0.438,7.899,5.052,13.061,5.897,13.674c4.435,3.164,9.58,5.84,17.992,6.554c6.271,0.511,11.925-2.517,12.502-5.983
	c0.692-4.116-1.922-6.972-7.307-6.729c-8.42,0.376-13.875-2.102-15.517-2.914c-4.155-2.083,0.813-2.008,1.866-2.089
	c2.611-0.192,5.225-0.803,6.533-1.902c1.34-1.133,0.128-0.792-1.613-6.223c-1.327-4.134,0.585-5.858,1.63-6.204
	c2.584-0.851,4.069,0.289,5.593,3.088c1.03,1.88,2.379,3.927,3.086,4.737c1.053,1.213,1.82,2.561,3.99,3.86
	c1.785,1.071,3.91,1.741,5.651,1.848c1.784,0.11,1.686,0.022,3.315-0.271c-1.728,1.633-7.733,5.844-3.583,10.323
	c2.216,2.384,7.17,1.467,9.483,0.562c2.33-0.904,6.315-3.656,9.736-7.892C65.914,58.961,61.905,51.601,60.761,49.16z M41.978,62.537
	c-5.228,0-9.459-4.226-9.459-9.455c0-5.219,4.231-9.449,9.459-9.449c5.213,0,9.449,4.23,9.449,9.449
	C51.426,58.312,47.191,62.537,41.978,62.537z"/>
</svg>
