<?xml version="1.0" encoding="utf-8"?>
<!-- Generator: Adobe Illustrator 15.1.0, SVG Export Plug-In  -->
<!DOCTYPE svg PUBLIC "-//W3C//DTD SVG 1.1//EN" "http://www.w3.org/Graphics/SVG/1.1/DTD/svg11.dtd" [
	<!ENTITY ns_flows "http://ns.adobe.com/Flows/1.0/">
]>
<svg version="1.1"
	 xmlns="http://www.w3.org/2000/svg" xmlns:xlink="http://www.w3.org/1999/xlink" xmlns:a="http://ns.adobe.com/AdobeSVGViewerExtensions/3.0/"
	 x="0px" y="0px" width="100px" height="100px" viewBox="-20.915 -12.824 100 100"
	 overflow="visible" enable-background="new -20.915 -12.824 100 100" xml:space="preserve">
<defs>
</defs>
<polygon fill="#B95A43" points="63.524,59.343 61.153,60.17 55.382,49.73 55.382,76.107 51.948,76.107 51.948,60.029 50.671,60.029 
	50.671,76.107 47.229,76.107 47.229,47.609 34.544,40 25.139,22.302 24.346,22.302 33.575,50.699 24.78,50.699 21.347,76.023 
	16.395,76.023 12.953,50.699 4.159,50.699 13.388,22.302 12.511,22.302 3.674,40.408 0,39.132 11.041,13.198 26.65,13.198 
	37.442,38.547 47.229,42.598 55.382,42.598 "/>
<circle fill="#B95A43" cx="18.841" cy="5.533" r="5.533"/>
<circle fill="#B95A43" cx="51.356" cy="37.655" r="3.573"/>
</svg>
