<?xml version="1.0" encoding="utf-8"?>
<!-- Generator: Adobe Illustrator 15.1.0, SVG Export Plug-In . SVG Version: 6.00 Build 0)  -->
<!DOCTYPE svg PUBLIC "-//W3C//DTD SVG 1.1//EN" "http://www.w3.org/Graphics/SVG/1.1/DTD/svg11.dtd">
<svg version="1.1" id="Layer_1" xmlns="http://www.w3.org/2000/svg" xmlns:xlink="http://www.w3.org/1999/xlink" x="0px" y="0px"
	 width="100px" height="100px" viewBox="0 0 100 100" enable-background="new 0 0 100 100" xml:space="preserve">
<g>
	<path fill="#00AEB4" d="M69.23,64.095c-2.42,0-4.646-0.932-6.309-2.599c-1.678,1.648-3.953,2.599-6.343,2.599
		c-2.427,0-4.718-0.987-6.399-2.677c-1.716,1.652-4.177,2.677-6.669,2.677c-2.388,0-4.664-0.95-6.339-2.599
		c-1.661,1.667-3.888,2.599-6.307,2.599c-2.255,0-4.399-0.847-6.041-2.323c-3.125,16.187,9.333,30.561,25.177,30.561
		c15.817,0,28.261-14.327,25.19-30.48C73.561,63.282,71.445,64.095,69.23,64.095z"/>
	<path fill="#00AEB4" d="M56.58,61.557c2.111,0,4.097-1.162,5.312-2.889C62.133,58.33,62.52,58,62.934,58c0,0,0.002,0,0.004,0
		c0.414,0,0.801,0.334,1.037,0.674c1.217,1.748,3.133,2.816,5.258,2.816c2.065,0,4.002-0.96,5.225-2.619
		c-0.456-1.491-1.032-2.973-1.768-4.473C63.127,34.916,60.078,29.174,50.001,7.654C40.756,28.36,36.872,34.93,27.312,54.414
		c-0.722,1.469-1.288,2.939-1.74,4.402c1.218,1.714,3.19,2.738,5.294,2.738c2.122,0,4.038-1.004,5.255-2.752
		c0.237-0.341,0.599-0.57,1.043-0.545c0.412,0,0.799,0.201,1.037,0.539c1.219,1.727,3.204,2.758,5.311,2.758
		c2.216,0,4.482-1.123,5.64-2.797c0.017-0.023,0.038-0.044,0.057-0.066c0.029-0.034,0.056-0.072,0.09-0.104
		c0.037-0.038,0.076-0.068,0.117-0.102c0.019-0.016,0.036-0.033,0.057-0.049c0.005-0.004,0.012-0.006,0.017-0.008
		c0.044-0.031,0.093-0.056,0.141-0.08c0.029-0.015,0.055-0.031,0.083-0.043c0.042-0.018,0.086-0.027,0.129-0.039
		c0.036-0.012,0.072-0.025,0.108-0.033c0.042-0.008,0.083-0.008,0.125-0.012c0.04-0.005,0.078-0.011,0.116-0.011
		c0.044,0,0.089,0.006,0.134,0.013c0.036,0.002,0.073,0.004,0.108,0.01c0.042,0.009,0.083,0.022,0.125,0.037
		c0.037,0.011,0.075,0.02,0.112,0.033c0.035,0.014,0.067,0.034,0.103,0.053c0.041,0.021,0.084,0.041,0.123,0.066
		c0.006,0.006,0.015,0.008,0.021,0.014c0.025,0.018,0.047,0.041,0.072,0.061c0.033,0.027,0.066,0.054,0.099,0.085
		c0.036,0.035,0.065,0.076,0.099,0.112c0.017,0.022,0.035,0.041,0.051,0.062C52.453,60.51,54.449,61.557,56.58,61.557z"/>
</g>
</svg>
