<?xml version="1.0" encoding="utf-8"?>
<!-- Generator: Adobe Illustrator 16.0.2, SVG Export Plug-In . SVG Version: 6.00 Build 0)  -->
<!DOCTYPE svg PUBLIC "-//W3C//DTD SVG 1.1//EN" "http://www.w3.org/Graphics/SVG/1.1/DTD/svg11.dtd">
<svg version="1.1" id="Layer_1" xmlns="http://www.w3.org/2000/svg" xmlns:xlink="http://www.w3.org/1999/xlink" x="0px" y="0px"
	 width="100px" height="100px" viewBox="0 0 100 100" enable-background="new 0 0 100 100" xml:space="preserve">
<path fill="#00AF68" d="M74.127,76.74v-0.033c1.446,0,2.61-1.165,2.631-2.613h0.007V22.604c0-1.464-1.178-2.653-2.636-2.653h-9.963
	V7.151c0-0.896-0.451-1.736-1.205-2.227c-0.751-0.488-1.695-0.558-2.508-0.189l-35.66,16.113c-0.748,0.337-1.225,0.99-1.427,1.725
	h-0.131v48.835v2.649c0,0.018,0.002,0.033,0.002,0.049c0,0.013,0.001,0.021,0.001,0.025c0.038,7.026,5.606,12.742,12.529,12.996
	v8.374l5.264-6.356l5.025,6.356v-8.352h28.07c1.458,0,2.635-1.188,2.635-2.647c0-1.467-1.177-2.649-2.635-2.649v-0.002
	c-1.397,0-2.533-1.147-2.533-2.561C71.595,77.884,72.729,76.74,74.127,76.74z M28.963,76.707h6.805v5.106
	C32.633,81.619,29.992,79.56,28.963,76.707z M66.791,81.853H46.058v-5.146H66.8c-0.283,0.814-0.471,1.678-0.471,2.583
	C66.329,80.191,66.509,81.048,66.791,81.853z M71.499,71.407H38.164l24.441-11.046c0.946-0.427,1.559-1.37,1.559-2.414V25.255h7.334
	L71.499,71.407L71.499,71.407z"/>
</svg>
