<?xml version="1.0" encoding="utf-8"?>
<!-- Generator: Adobe Illustrator 16.0.2, SVG Export Plug-In . SVG Version: 6.00 Build 0)  -->
<!DOCTYPE svg PUBLIC "-//W3C//DTD SVG 1.1//EN" "http://www.w3.org/Graphics/SVG/1.1/DTD/svg11.dtd">
<svg version="1.1" id="Layer_1" xmlns="http://www.w3.org/2000/svg" xmlns:xlink="http://www.w3.org/1999/xlink" x="0px" y="0px"
	 width="100px" height="100px" viewBox="0 0 100 100" enable-background="new 0 0 100 100" xml:space="preserve">
<path display="none" fill="#E6C12F" d="M11.391,21.742c3.224,2.659,8.246,1.891,8.246,1.891s-0.207-5.073-3.433-7.731
	c-3.223-2.657-8.246-1.895-8.246-1.895S8.167,19.085,11.391,21.742z"/>
<path display="none" fill="#E6C12F" d="M75.682,32.699H67.54c0-1.045,0-2.093,0-3.141c0-2.32-0.873-4.486-1.908-6.521
	c-0.577-1.139-1.216-2.245-1.782-3.392c-0.4-0.818-0.783-1.693-0.94-2.602c0.53-0.341,0.728-1.068,0.62-1.697
	c-0.127-0.724-0.813-1.103-1.484-1.103c-0.839,0-1.682,0-2.521,0c-0.821,0-1.637,0-2.459,0c-0.672,0-1.303,0.289-1.51,0.993
	c-0.191,0.649,0.021,1.444,0.59,1.807c-0.263,1.589-1.174,3.083-1.922,4.472c-0.984,1.827-1.97,3.689-2.443,5.721
	c-0.391,1.685-0.268,3.486-0.268,5.206c0,0.087,0,0.174,0,0.259h-6.083c-1.669-1.754-3.529-3.368-5.396-4.443
	c-0.422-0.246-0.551-0.601-0.495-0.943c0.122-0.697,0.993-1.334,1.833-0.855c2.184,1.262,4.291,2.692,6.14,4.358
	c0,0.001,0.219-1.554-0.067-3.092c-0.309-1.64-1.041-2.843-1.041-2.843c-2.203-3.002-5.36-6.354-8.527-8.172
	c-1.258-0.723,0.084-2.519,1.341-1.796c2.179,1.254,4.283,2.686,6.131,4.346c-2.7-13.462-7.846-19.987-14.357-19.197
	c-3.075,0.371-6.566,2.589-4.836,11.838l3.324,17.814c-2.234-3.01-5.806-4.967-9.841-4.967c-5.252,0-9.721,3.307-11.467,7.95H0V80
	h75.682V32.699z M68.113,72.434H7.568V40.269h60.545V72.434L68.113,72.434z"/>
<g>
	<path fill="#E6C12F" d="M33.725,25.106c0.634,2.521-0.39,5.029-2.4,5.627c-2.003,0.596-4.273-1.077-4.952-3.772
		c-0.815-2.737,1.352-12.548,1.352-12.548S32.988,22.677,33.725,25.106"/>
	<path fill="#E6C12F" d="M42.637,34.921c-0.833,2.32-3.073,3.676-5.072,2.865c-2.006-0.804-2.959-3.517-2.047-5.898
		c0.855-2.462,7.8-8.444,7.8-8.444S43.359,32.564,42.637,34.921"/>
	<path fill="#E6C12F" d="M47.574,46.836c-0.586,2.379-2.651,3.975-4.733,3.397c-2.076-0.574-3.318-3.167-2.658-5.627
		c0.594-2.537,6.896-9.185,6.896-9.185S48.036,44.439,47.574,46.836"/>
	<path fill="#E6C12F" d="M53.785,57.954c-0.296,2.408-2.137,4.259-4.271,3.959c-2.129-0.3-3.688-2.716-3.312-5.23
		c0.285-2.593,5.828-9.861,5.828-9.861S53.943,55.545,53.785,57.954"/>
	<path fill="#E6C12F" d="M24.736,41.239c2.224,1.56,4.789,1.078,5.777-0.902c0.98-1.983,0.083-4.712-2.033-6.272
		c-2.123-1.46-11.295-3.858-11.295-3.858S22.423,39.777,24.736,41.239"/>
	<path fill="#E6C12F" d="M30.467,55.066c2.387,1.325,4.891,0.553,5.645-1.523c0.756-2.084-0.433-4.7-2.702-6.037
		c-2.266-1.231-11.639-2.69-11.639-2.69S27.986,53.848,30.467,55.066"/>
	<path fill="#E6C12F" d="M37.847,68.267c2.554,1.038,4.935-0.053,5.414-2.215c0.48-2.172-1.029-4.618-3.439-5.688
		c-2.396-0.949-11.898-1.396-11.898-1.396S35.2,67.361,37.847,68.267"/>
	<path fill="#E6C12F" d="M61.327,67.954c0.028,2.412-1.488,4.505-3.649,4.543c-2.14,0.027-4.027-2.144-4.001-4.67
		c-0.089-2.609,4.508-10.481,4.508-10.481S61.12,65.581,61.327,67.954"/>
	<path fill="#E6C12F" d="M47.081,80.499c2.689,0.686,4.896-0.773,5.029-2.979c0.146-2.228-1.695-4.435-4.244-5.165
		c-2.511-0.594-12.024,0.136-12.024,0.136S44.281,80.004,47.081,80.499"/>
	<path fill="#E6C12F" d="M83.703,96.13c-13.184-5.073-24.68-14.089-33.318-25.167c-8.705-11.079-14.861-23.952-19.06-37.31
		c-0.152-0.495,0.084-1.005,0.53-1.139c0.445-0.136,0.928,0.149,1.079,0.636c4.146,13.197,10.228,25.893,18.774,36.77
		c8.486,10.88,19.719,19.678,32.607,24.641c0.472,0.186,0.721,0.688,0.559,1.125C84.711,96.122,84.187,96.32,83.703,96.13"/>
	<path fill="#E6C12F" d="M74.402,13.595c-0.806,1.697-2.513,2.654-3.933,2.087c-1.409-0.56-1.938-2.575-1.057-4.437
		c0.81-1.982,6.643-6.448,6.643-6.448S75.071,11.904,74.402,13.595"/>
	<path fill="#E6C12F" d="M75.141,23.059c-1.475,0.942-3.38,0.783-4.196-0.548c-0.844-1.333-0.172-3.331,1.398-4.282
		c1.607-1.045,8.231-1.161,8.231-1.161S76.547,22.017,75.141,23.059"/>
	<path fill="#E6C12F" d="M73.138,31.902c-1.3,1.162-3.206,1.318-4.229,0.14c-1.048-1.175-0.718-3.257,0.693-4.438
		c1.397-1.296,7.93-2.389,7.93-2.389S74.348,30.643,73.138,31.902"/>
	<path fill="#E6C12F" d="M72.631,40.931c-1.1,1.363-2.932,1.833-4.152,0.842c-1.21-0.986-1.255-3.092-0.055-4.491
		c1.174-1.515,7.429-3.65,7.429-3.65S73.614,39.478,72.631,40.931"/>
	<path fill="#E6C12F" d="M61.965,18.934c0.602,1.944,2.31,2.759,3.754,2.009c1.425-0.762,2.132-2.743,1.616-4.619
		c-0.562-1.787-4.593-7.466-4.593-7.466S61.219,17.005,61.965,18.934"/>
	<path fill="#E6C12F" d="M59.467,29.975c0.91,1.829,2.729,2.351,4.032,1.374c1.282-0.986,1.652-3.058,0.856-4.83
		c-0.863-1.677-5.698-6.703-5.698-6.703S58.401,28.191,59.467,29.975"/>
	<path fill="#E6C12F" d="M58.828,41.304c1.192,1.652,3.094,1.863,4.198,0.684c1.12-1.186,1.116-3.29,0.044-4.906
		c-1.122-1.506-6.723-5.685-6.723-5.685S57.481,39.731,58.828,41.304"/>
	<path fill="#E6C12F" d="M73.613,49.953c-0.855,1.531-2.604,2.29-3.956,1.503c-1.359-0.781-1.741-2.852-0.788-4.432
		c0.912-1.686,6.726-4.839,6.726-4.839S74.354,48.35,73.613,49.953"/>
	<path fill="#E6C12F" d="M60.054,52.55c1.447,1.428,3.345,1.336,4.257-0.006c0.908-1.346,0.568-3.422-0.757-4.838
		c-1.352-1.301-7.563-4.485-7.563-4.485S58.481,51.224,60.054,52.55"/>
	<path fill="#E6C12F" d="M76.577,76.395c-5.823-8.538-9.529-18.414-10.929-28.625c-1.407-10.218-0.138-20.769,3.504-30.402
		c0.127-0.359,0.503-0.542,0.817-0.421c0.317,0.124,0.454,0.5,0.329,0.852c-7.425,18.954-4.111,41.225,7.277,57.886
		c0.212,0.3,0.17,0.696-0.097,0.903C77.211,76.796,76.799,76.707,76.577,76.395"/>
</g>
</svg>
