<?xml version="1.0" encoding="utf-8"?>
<!-- Generator: Adobe Illustrator 15.1.0, SVG Export Plug-In  -->
<!DOCTYPE svg PUBLIC "-//W3C//DTD SVG 1.1//EN" "http://www.w3.org/Graphics/SVG/1.1/DTD/svg11.dtd" [
	<!ENTITY ns_flows "http://ns.adobe.com/Flows/1.0/">
]>
<svg version="1.1"
	 xmlns="http://www.w3.org/2000/svg" xmlns:xlink="http://www.w3.org/1999/xlink" xmlns:a="http://ns.adobe.com/AdobeSVGViewerExtensions/3.0/"
	 x="0px" y="0px" width="100px" height="100px" viewBox="-10 -11.259 100 100"
	 overflow="visible" enable-background="new -10 -11.259 100 100" xml:space="preserve">
<defs>
</defs>
<path fill="#93B75D" d="M29.838,15.406c0,0,0.604-5.324,0.77-9.623c0.114-2.848-0.194-5.287-0.194-5.287s1.588-0.263,3.424-0.363
	C36.174,0.025,38.875,0,38.875,0l-0.149,2.964l-4.734,0.315v2.854l3.897,0.288l0.088,3.224l-3.701-0.239v2.592l5.164,0.358v3.364
	L29.838,15.406z"/>
<path fill="#93B75D" d="M24.126,15.292c0,0-2.772-4.597-4.282-6.849c-0.515-0.743-1.181-1.145-1.181-1.145v7.692l-3.198-0.065
	L15.276,0.933l3.191-0.131l5.991,8.982l0.165-8.982l3.033,0.349l0.188,14.371L24.126,15.292z"/>
<path fill="#93B75D" d="M6.854,15.451C3.973,15.451,0,12.285,0,7.604C0,2.903,2.724,0,6.896,0c4.188,0,6.886,3.652,6.886,7.563
	C13.781,12.24,11.062,15.451,6.854,15.451 M6.879,2.948c-2.071,0-2.906,1.631-2.906,4.642c0,3.007,0.851,5.124,2.912,5.124
	c2.671,0,3.304-2.117,3.304-5.124C10.188,4.579,8.969,2.948,6.879,2.948"/>
<polygon fill="#93B75D" points="71.327,35.435 71.268,20.452 79.432,20.509 79.482,23.437 74.658,23.306 74.634,26.327 
	79.027,26.327 78.941,28.939 74.759,29.168 74.759,32.386 79.737,32.386 80,35.864 "/>
<path fill="#93B75D" d="M47.319,21.302l3.403-0.27l4.956,14.154l-3.698,0.11l-0.69-2.319l-4.96-0.085l-1.486,2.78l-3.217-0.036
	L47.319,21.302z M46.965,29.912l3.676,0.102l-1.732-4.826L46.965,29.912z"/>
<polygon fill="#93B75D" points="16.706,35.394 16.437,21.068 19.9,21.068 20.449,35.394 "/>
<path fill="#93B75D" d="M15.053,20.635L9.58,35.709l-3.926-0.233L0.498,20.897l3.662-0.575l3.864,9.838l3.052-9.708
	C11.076,20.452,13.514,20.35,15.053,20.635"/>
<polygon fill="#93B75D" points="22.701,35.627 22.085,20.685 26.396,21.073 26.396,32.422 30.995,32.422 31.362,35.844 "/>
<polygon fill="#93B75D" points="32.765,36.104 32.765,21.167 36.67,21.546 36.606,32.757 41.537,32.72 40.995,36.235 "/>
<path fill="#93B75D" d="M63.428,36.391c-4.732,0-7.957-3.92-7.957-8.537c0-5.137,3.439-6.965,8.057-6.965
	c1.839,0,3.895,0.355,5.093,1.028l-1.09,3.593c-1.116-0.701-2.388-1.571-3.919-1.571c-2.58,0-3.827,1.906-3.827,4.703
	c0,2.813,1.29,4.789,3.874,4.789c0.812,0,1.727-0.22,2.343-0.535l0.183-2.604l-3.237,0.086l-0.314-2.845l6.613-0.038l0.354,6.851
	C68.035,35.362,65.485,36.391,63.428,36.391"/>
<path fill="#93B75D" d="M54.937,76.988c0,0,0.603-5.342,0.775-9.644c0.093-2.864-0.195-5.321-0.195-5.321s1.59-0.259,3.428-0.352
	c2.35-0.12,5.047-0.142,5.047-0.142l-0.137,2.975l-4.769,0.319V67.7l3.931,0.285l0.072,3.227l-3.712-0.243v2.606l5.179,0.372v3.379
	L54.937,76.988z"/>
<path fill="#93B75D" d="M31.412,77.482l-1.938-5.118l-1.729,0.105c0,0-0.088,2.104-0.044,3.58c0.021,0.804,0.263,1.433,0.263,1.433
	l-3.575-0.242c0,0-0.062-1.074-0.044-2.652c0.011-1.747,0.095-4.109,0.121-6.244c0.035-2.965-0.223-5.523-0.223-5.523L29.54,63
	c3.665,0,5.313,1.428,5.361,4.07c0.058,2.12-0.721,3.827-2.46,4.567c0,0,0.419,0.783,0.867,1.773
	c0.376,0.841,0.626,1.948,0.921,2.755c0.314,0.81,0.672,1.316,0.672,1.316H31.412z M29.113,65.344l-1.478-0.055l0.327,4.381
	l1.155-0.121c1.58-0.431,2.294-0.811,2.294-2.267C31.412,65.876,30.747,65.344,29.113,65.344"/>
<path fill="#93B75D" d="M59.021,57.443c-2.044-0.117-3.642-0.307-5.391-0.882l0.542-2.884c1.576,0.821,2.851,1.182,4.377,1.182
	c1.057,0,1.501-0.562,1.501-1.469c0-0.868-0.1-1.322-1.832-2.075c-2.942-1.321-4.491-2.158-4.491-4.68
	c0-2.944,2.448-4.092,5.349-4.092c1.789,0,2.118,0.037,3.44,0.676l-0.386,2.63c-1.367-0.8-1.856-0.758-3.012-0.758
	c-1.142,0-1.451,0.767-1.451,1.465c0,0.778,0.248,1.174,2.116,2.017c3.232,1.464,3.877,2.934,3.877,4.745
	C63.66,55.865,61.445,57.585,59.021,57.443"/>
<path fill="#93B75D" d="M4.467,65.806v2.716l3.791,0.249l-0.033,3.077l-3.626-0.179l-0.282,5.727H0.841c0,0,0-5.148,0.214-9.332
	c0.12-2.774,0.586-5.135,0.586-5.135l7.332,0.147l-0.224,2.931L4.467,65.806z"/>
<path fill="#93B75D" d="M21.021,57.681l-2.246-5.03l-2.01-0.005v5.172h-3.742l0.518-15.149l4.777,0.163
	c3.666,0,5.606,2.109,5.606,4.504c0,2.109-0.969,3.732-2.259,4.689l2.877,5.656H21.021z M17.941,45.321l-1.213-0.157v4.831
	l1.338-0.091c1.617,0,2.57-0.668,2.57-2.129C20.637,46.375,19.615,45.679,17.941,45.321"/>
<path fill="#93B75D" d="M50.553,77.115l-0.873-9.457l-3.21,9.475h-3.545l-2.482-8.807l-1.447,8.947l-2.849,0.122
	c0,0,0.062-5.031,0.466-9.105c0.298-3.015,0.782-5.666,0.782-5.666L41.866,63l3.108,8.704l3.283-9.264l4.52,0.214l0.578,14.461
	H50.553z"/>
<path fill="#93B75D" d="M29.697,42.39l4.812,0.572l3.842,14.207l-3.054,0.157l-1.122-3.312h-5.227l-1.111,3.435h-3.341L29.697,42.39
	z M29.894,50.828h3.395l-1.234-4.837L29.894,50.828z"/>
<polygon fill="#93B75D" points="7.792,45.792 8.104,57.448 4.35,57.448 4.35,45.495 0.066,45.495 0.066,42.499 11.83,42.533 
	12.036,45.829 "/>
<path fill="#93B75D" d="M16.455,77.396c-2.899,0-6.864-3.168-6.864-7.86c0-4.731,2.711-7.638,6.909-7.638
	c4.188,0,6.894,3.679,6.894,7.587C23.394,74.188,20.684,77.396,16.455,77.396 M16.474,64.86c-2.069,0-2.918,1.624-2.918,4.643
	c0,3.022,0.868,5.158,2.936,5.158c2.681,0,3.31-2.136,3.31-5.158C19.801,66.484,18.594,64.86,16.474,64.86"/>
<path fill="#93B75D" d="M48.61,57.169l-6.149-8.281l-0.048,8.83h-3.517c0,0-0.194-2.22-0.149-4.985
	c0.075-4.171,0.393-9.476,0.393-9.476h3.658l5.457,7.886l0.11-7.98l3.503,0.333v13.674H48.61z"/>
<path fill="#93B75D" d="M71.743,76.748l-5.559-0.045l0.272-14.478l5.213-0.468c5.275-0.431,7.992,4.061,7.992,8.51
	C79.662,74.731,76.822,76.748,71.743,76.748 M71.427,64.941l-1.549,0.082l0.34,8.833h1.349c2.637,0,4.297-1.387,4.297-4.604
	C75.863,66.093,73.979,64.58,71.427,64.941"/>
<path fill="#93B75D" d="M66.422,52.21v-2.881h5.461v2.881H66.422z"/>
</svg>
