<?xml version="1.0" encoding="utf-8"?>
<!-- Generator: Adobe Illustrator 15.1.0, SVG Export Plug-In  -->
<!DOCTYPE svg PUBLIC "-//W3C//DTD SVG 1.1//EN" "http://www.w3.org/Graphics/SVG/1.1/DTD/svg11.dtd" [
	<!ENTITY ns_flows "http://ns.adobe.com/Flows/1.0/">
]>
<svg version="1.1"
	 xmlns="http://www.w3.org/2000/svg" xmlns:xlink="http://www.w3.org/1999/xlink" xmlns:a="http://ns.adobe.com/AdobeSVGViewerExtensions/3.0/"
	 x="0px" y="0px" width="100px" height="100px" viewBox="-13.575 -12.317 100 100"
	 overflow="visible" enable-background="new -13.575 -12.317 100 100" xml:space="preserve">
<defs>
</defs>
<path fill="#E4A85A" d="M10.044,57.915c-2.754,0-4.985-2.231-4.985-4.987c0-2.759,2.231-4.989,4.985-4.989
	c2.756,0,4.986,2.231,4.986,4.989C15.031,55.683,12.8,57.915,10.044,57.915"/>
<path fill="#E4A85A" d="M0,76v-9.774c0-3.517,2.893-6.386,6.424-6.386h6.885c3.53,0,6.68,2.868,6.68,6.386V76H0z"/>
<path fill="#E4A85A" d="M61.753,57.488c2.753,0,4.983-2.234,4.983-4.985c0-2.759-2.23-4.992-4.983-4.992
	c-2.756,0-4.991,2.233-4.991,4.992C56.762,55.253,58.998,57.488,61.753,57.488"/>
<path fill="#E4A85A" d="M71.79,76v-9.774c0-3.517-2.896-6.386-6.421-6.386h-6.878c-3.538,0-6.682,2.868-6.682,6.386V76H71.79z"/>
<path fill="#E4A85A" d="M35.89,47.879c2.786,0,5.045,2.239,5.045,5.005c0,2.759-2.26,4.997-5.045,4.997
	c-2.786,0-5.045-2.238-5.045-4.997C30.845,50.119,33.104,47.879,35.89,47.879"/>
<path fill="#E4A85A" d="M23.742,76l3.97-10.815c1.588-5.526,6.218-5.352,6.218-5.352h1.969h1.963c0,0,4.626-0.175,6.219,5.352
	L48.055,76H23.742z"/>
<polygon fill="#E4A85A" points="35.89,41.561 35.89,29.731 33.925,27.766 33.925,39.594 4.206,39.594 4.206,1.968 33.925,1.968 
	33.925,21.296 35.89,23.26 35.89,0 2.251,0 2.251,41.561 "/>
<path fill="#E4A85A" d="M61.753,19.79c2.753,0,4.983-2.24,4.983-4.988c0-2.76-2.23-4.989-4.983-4.989
	c-2.756,0-4.991,2.229-4.991,4.989C56.762,17.55,58.998,19.79,61.753,19.79"/>
<path fill="#E4A85A" d="M65.368,21.38H58.49c-1.247,0-2.435,0.357-3.459,0.969c-1.22,0.487-2.252,1.332-2.959,2.394l-4.131,6.236
	l-6.269-0.003l-8.861-8.855c-0.333-0.333-0.873-0.333-1.206,0c-0.333,0.333-0.335,0.872-0.003,1.208l8.428,8.427
	c-0.177,0.302-0.463,0.913-0.463,1.299c0,1.165,0.935,2.098,2.095,2.098h6.903c0.785,0,1.817-0.318,2.257-0.977
	c0.324-0.486,0.665-0.98,0.984-1.458v2.718v2.105v4.471h2.532h17.388h0.062v-4.471v-2.105v-7.667
	C71.79,24.244,68.894,21.38,65.368,21.38"/>
</svg>
