<svg xmlns="http://www.w3.org/2000/svg" xmlns:xlink="http://www.w3.org/1999/xlink" viewBox="0 0 92.62 131.89"><defs><style>.cls-1{fill:url(#linear-gradient);}.cls-2{fill:none;}.cls-3{clip-path:url(#clip-path);}.cls-4{mask:url(#mask);}.cls-5{clip-path:url(#clip-path-2);}.cls-6{fill:#009aa7;}.cls-7{font-size:34.31px;}.cls-12,.cls-7,.cls-8{fill:#fff;font-family:Whitney-BlackItalic, Whitney;font-weight:800;font-style:italic;}.cls-12,.cls-8{font-size:14.7px;}.cls-8{letter-spacing:-0.07em;}.cls-9{letter-spacing:0em;}.cls-10{letter-spacing:0.01em;}.cls-11{letter-spacing:0em;}.cls-13{filter:url(#luminosity-noclip);}</style><linearGradient id="linear-gradient" x1="-662.79" y1="776.22" x2="-661.79" y2="776.22" gradientTransform="matrix(127.37, 0, 0, -127.37, 84410.14, 98930.97)" gradientUnits="userSpaceOnUse"><stop offset="0" stop-color="#fff"/><stop offset="1"/></linearGradient><clipPath id="clip-path" transform="translate(0 0)"><rect class="cls-2" width="92.62" height="131.89"/></clipPath><filter id="luminosity-noclip" x="-23.85" y="-22.69" width="148.18" height="171.33" filterUnits="userSpaceOnUse" color-interpolation-filters="sRGB"><feFlood flood-color="#fff" result="bg"/><feBlend in="SourceGraphic" in2="bg"/></filter><mask id="mask" x="-23.85" y="-22.69" width="148.18" height="171.33" maskUnits="userSpaceOnUse"><g class="cls-13"><g transform="translate(0 0)"><rect class="cls-1" x="-27.03" y="8.3" width="146.68" height="115.3" transform="translate(-27.03 99.34) rotate(-79.4)"/></g></g></mask><clipPath id="clip-path-2" transform="translate(0 0)"><rect class="cls-2" x="-23.61" y="-22.69" width="147.94" height="164.89"/></clipPath></defs><g id="Layer_2" data-name="Layer 2"><g id="Layer_1-2" data-name="Layer 1"><g class="cls-3"><g class="cls-4"><g class="cls-5"><path class="cls-6" d="M92,92.87A46.26,46.26,0,1,1,.58,78.39C5.67,46.23,44.66,11.08,56.64.94a4,4,0,0,1,6,.93c8.3,13.25,34.54,58.32,29.36,91" transform="translate(0 0)"/><text class="cls-7" transform="translate(30.72 64.66) rotate(9)">2x</text><text class="cls-7" transform="translate(66.02 70.26) rotate(9)"> </text><text class="cls-8" transform="matrix(0.99, 0.16, -0.16, 0.99, 17.32, 80.41)">Y<tspan class="cls-9" x="8.34" y="0">our Gi</tspan><tspan class="cls-10" x="45.8" y="0">f</tspan><tspan class="cls-11" x="51" y="0">t </tspan></text><text class="cls-12" transform="matrix(0.99, 0.16, -0.16, 0.99, 75.93, 89.69)"> </text><text class="cls-12" transform="matrix(0.99, 0.16, -0.16, 0.99, 16.2, 98.09)">Doubles!</text></g></g></g></g></g></svg>