<?xml version="1.0" encoding="utf-8"?>
<!-- Generator: Adobe Illustrator 19.2.1, SVG Export Plug-In . SVG Version: 6.00 Build 0)  -->
<svg version="1.1" id="Layer_1" xmlns="http://www.w3.org/2000/svg" xmlns:xlink="http://www.w3.org/1999/xlink" x="0px" y="0px"
	 viewBox="0 0 153.1 151" style="enable-background:new 0 0 153.1 151;" xml:space="preserve">
<style type="text/css">
	.st0{fill:#E66054;}
	.st1{fill:#FFFFFF;}
	.st2{font-family:'Whitney-Bold';}
	.st3{font-size:23.6591px;}
	.st4{letter-spacing:-1;}
	.st5{font-size:41.6591px;}
</style>
<polygon class="st0" points="75.4,0 68.7,11 59.4,1.4 55.2,13.6 44.2,6 42.7,18.9 30.4,13.7 31.7,26.7 18.6,24.1 22.7,36.6 
	9.4,36.7 16,48.2 3.1,51 11.9,61 0,66.4 10.7,74.5 0.2,82.2 12.3,87.9 3.8,97.7 16.8,100.9 10.6,112.2 23.9,112.7 20.2,125.1 
	33.2,122.9 32.4,135.9 44.5,131 46.4,144 57.2,136.7 61.8,149.1 70.7,139.7 77.8,151 84.5,139.9 93.7,149.6 97.9,137.3 108.9,144.9 
	110.4,132 122.7,137.3 121.4,124.3 134.5,126.9 130.5,114.4 143.7,114.3 137.2,102.7 150,100 141.2,89.9 153.1,84.6 142.5,76.5 
	152.9,68.8 140.8,63 149.3,53.3 136.3,50.1 142.6,38.8 129.3,38.3 132.9,25.9 119.9,28.1 120.8,15.1 108.6,20 106.7,7 96,14.3 
	91.4,1.9 82.4,11.2 "/>
<text transform="matrix(0.9877 0.1564 -0.1564 0.9877 31.4835 52.3486)"><tspan x="0" y="0" class="st1 st2 st3 st4">Y</tspan><tspan x="14.1" y="0" class="st1 st2 st3">o</tspan><tspan x="26.8" y="0" class="st1 st2 st3">u</tspan><tspan x="39.6" y="0" class="st1 st2 st3">r</tspan><tspan x="48.8" y="0" class="st1 st2 st3"> </tspan><tspan x="53.9" y="0" class="st1 st2 st3">G</tspan><tspan x="70.4" y="0" class="st1 st2 st3">i</tspan><tspan x="76.7" y="0" class="st1 st2 st3">f</tspan><tspan x="85.3" y="0" class="st1 st2 st3">t </tspan></text>
<text transform="matrix(0.9877 0.1564 -0.1564 0.9877 23.0054 72.3012)"><tspan x="0" y="0" class="st1 st2 st3">M</tspan><tspan x="21.4" y="0" class="st1 st2 st3">u</tspan><tspan x="34.3" y="0" class="st1 st2 st3">l</tspan><tspan x="40.6" y="0" class="st1 st2 st3">t</tspan><tspan x="49.4" y="0" class="st1 st2 st3">i</tspan><tspan x="55.7" y="0" class="st1 st2 st3">p</tspan><tspan x="68.7" y="0" class="st1 st2 st3">l</tspan><tspan x="75" y="0" class="st1 st2 st3">i</tspan><tspan x="81.2" y="0" class="st1 st2 st3">e</tspan><tspan x="93.4" y="0" class="st1 st2 st3">s </tspan></text>
<text transform="matrix(0.9877 0.1564 -0.1564 0.9877 40.7451 110.5639)"><tspan x="0" y="0" class="st1 st2 st5">4</tspan><tspan x="24.8" y="0" class="st1 st2 st5">x</tspan><tspan x="45.2" y="0" class="st1 st2 st5">!</tspan></text>
</svg>
