<?xml version="1.0" encoding="utf-8"?>
<!-- Generator: Adobe Illustrator 21.1.0, SVG Export Plug-In . SVG Version: 6.00 Build 0)  -->
<svg version="1.1" id="Layer_1" xmlns="http://www.w3.org/2000/svg" xmlns:xlink="http://www.w3.org/1999/xlink" x="0px" y="0px"
	 viewBox="0 0 299 181" style="enable-background:new 0 0 299 181;" xml:space="preserve">
<style type="text/css">
	.st0{fill:#FFFFFF;}
</style>
<g>
	<g>
		<g>
			<path class="st0" d="M42,43.8v9.4l-11.4,0.4l0.4-9L9.2,43.8l-0.8-7.2L27.3,6.3l15.3-0.8L42,35.9l6.9,0.9l-0.2,7H42z M31.8,19.3
				L19.8,35l11.4,0.4L31.8,19.3z"/>
			<path class="st0" d="M84.6,43.8l-0.2,9.9l-10.8-0.4v-9.4H51.8v-7.3L71.3,5.3l13.6,0.8l0,29.2l6.7-0.7l-0.3,9.2H84.6z M74.6,20.2
				L64.4,36.5l9.2-0.7L74.6,20.2z"/>
			<path class="st0" d="M114.2,46.8l-1.1,7.1l-7-1.1l1.8-6.7c-8.2-1.7-13-11.3-13-20.7c0-11.6,8.4-14.6,18.9-14.6h0.2l1.1-7.1
				l5.5,1.2l-1,6.4c2.2,0.4,4,1.2,5.7,2l-1.4,8.7c-2-1.1-3.1-2-5.3-2.4l-3,18.9c2.9-0.1,6.3-0.2,10-2.2l0,7.4
				C122,45.8,118.4,46.8,114.2,46.8z M109.8,37l3-17.5c-5.1,0.4-7.2,3.7-7.2,9.5C105.6,33.3,106.6,35.7,109.8,37z"/>
		</g>
		<g>
			<path class="st0" d="M271.1,52.8l-2.8-29.9l-10.1,30h-11.2L239.1,25l-4.6,28.3l-9,0.4c0,0,0.2-15.9,1.5-28.8
				C228,15.4,229.5,7,229.5,7l14.1,1.2l9.8,27.5l10.4-29.2L278,7.1l1.9,45.7L271.1,52.8z"/>
			<g>
				<path class="st0" d="M202.7,54.3c-5.4,0-10.1-1.2-14.3-3l1.8-11c3.6,1.7,7.9,3.1,12.2,3.1c3.9,0,6.6-1.8,6.5-5
					c-0.1-3-2.1-4.7-5.5-4.7c-2.3,0-4.1,0.5-5.6,1.1l-7.5-1.9l1.6-25.6L217,8.2l2,10.7l-18.1-0.5l-0.2,5.8c1.4-0.3,3.2-0.5,5.6-0.5
					c8,0.2,14,4.9,14.4,14.2C221,48.6,213.7,54.3,202.7,54.3z"/>
			</g>
		</g>
		<path class="st0" d="M175.7,13.8c-0.4-1.8-1.8-4.8-4.3-5.9l-0.2,0c-1.1,0-5.5,4.7-13,14c-2.3-6.1-3.5-10.2-3.7-11.6l0-0.2
			l-0.2-0.1c-1-0.8-3.7,0.3-4.8,0.8c-1.2,0.5-3.9,2-3.9,3.3c0,4,3.6,12.9,5.3,16.9c-4.7,6-9.9,13.1-10.6,15.2
			c-0.5,1.3-0.3,3,0.7,4.3c0.9,1.4,2.4,2.2,3.9,2.2h0.3l0.2-0.3c2.7-4.5,6.3-9.3,9.2-13.2c2.6,5.6,4.8,9.7,5.9,11.1
			c0.6,0.8,1.6,1.2,2.9,1.2c2.5,0,5.5-1.6,6.7-3.4l0.2-0.3l-0.2-0.3c-3.3-5.6-6.1-11.7-8.5-17.1c4-4.8,7.7-8.9,10.4-12
			c1.8-2,3-3.4,3.6-4.1l0.2-0.2L175.7,13.8z"/>
	</g>
	<path class="st0" d="M287.8,65.6c-6.7-1.5-279.4-6-282.8,7.5c-0.5,2.1,2.2,4.8,4.4,4.8c1.7-5,283.2-3.8,282.5,1.6
		c0.3,0.1,0.8,0.3,1.1,0.3c1,0,1.5-1.2,1.5-3C294.5,72.9,292.1,66.7,287.8,65.6z"/>
	<g>
		<g>
			<path class="st0" d="M8.4,179.3c1.1,0,1.2-17.2,1.2-17.2c1,0,28.5-30.3,28.5-30.3c5.6-5,7.9-8.5,7.9-13.8
				c-0.3-4.5-3.5-7.2-9.4-7.2c-6.4,0-15.4,2.1-23.2,7.2c0,0-3-20.5-3-20.5c7.1-4.9,17.5-8.3,30.6-8.3c18.8,0,30.3,8.3,30.3,24.4
				c0.8,12.7-6.6,21.9-17.3,31.9c0.8,0-14.6,14.6-14.6,14.6c0.8,0,30.6-1.2,30.6-1.2c1.2,0,3.3,20.3,3.3,20.3
				C74,179.3,8.4,179.3,8.4,179.3z"/>
		</g>
		<g>
			<path class="st0" d="M119.1,181c-22.1,0-37-16.3-37-46.1c-1.3-29.8,14.2-46.1,37-46.1c21.9,0,36.9,16.3,36.9,46.1
				C155.6,164.7,142,181,119.1,181z M119.1,108.1c-8.4,0-12.3,9.7-12.3,26.8c-0.4,17.1,3.7,26.8,12.3,26.8c8.4,0,13.4-9.7,13.4-26.8
				C132.4,117.8,127.9,108.1,119.1,108.1z"/>
		</g>
		<g>
			<path class="st0" d="M182.7,179.3c-0.3,0,1.2-65.8,1.2-65.8c-0.7,0-18.6,8.1-18.6,8.1c0.8,0-2.9-20.3-2.9-20.3
				c0.5,0,23.2-9.6,23.2-9.6c-0.6,0,22.4,0,22.4,0c-0.6,0,0,87.5,0,87.5C208.3,179.3,182.7,179.3,182.7,179.3z"/>
		</g>
		<g>
			<path class="st0" d="M235.5,133.2c-7.7-4.9-12.1-11.3-12.1-19.7c-1-16,14.4-24.7,33.2-24.7c20.3,0,31.9,9.6,31.9,23.1
				c-0.7,8.1-4.5,14.8-12.5,20.2c9.9,5.2,15,11.8,15,21.9c-0.4,15.7-13.3,26.9-35,26.9c-23,0-35.3-11.5-35.3-25.1
				C220.6,146.7,226.2,138.7,235.5,133.2z M256.4,163.9c5.6,0,10.4-3.7,10.4-9.4c-0.3-5.8-3.5-8.8-15.6-13.6
				c-3.9,3.3-6.7,7.5-6.7,12.5C244.2,159.7,249.7,163.9,256.4,163.9z M259.5,124.8c3.8-3.1,6-6.6,6-11.3c-0.3-5.4-4.2-8.8-9.8-8.8
				c-5.2,0-9.2,3.5-9.2,8.3C246.3,117.6,249.7,120.8,259.5,124.8z"/>
		</g>
	</g>
</g>
</svg>
