<?xml version="1.0" encoding="utf-8"?>
<!-- Generator: Adobe Illustrator 22.0.1, SVG Export Plug-In . SVG Version: 6.00 Build 0)  -->
<svg version="1.1" id="Layer_1" xmlns="http://www.w3.org/2000/svg" xmlns:xlink="http://www.w3.org/1999/xlink" x="0px" y="0px"
	 viewBox="0 0 100 100" style="enable-background:new 0 0 100 100;" xml:space="preserve">
<style type="text/css">
	.st0{fill:#884E2D;}
</style>
<path class="st0" d="M26.9,52c0.1,0.6,0.4,5.9,0.4,9.1c0,0.9-0.7,1.7-1.7,1.7S24,62,24,61.1c0-3.3-0.4-8.9-0.4-9v-0.1
	c0-0.1-0.2-0.2-0.2-0.2h-8.3c-0.1,0-0.2,0.1-0.2,0.2v0.1c0,0.1-0.4,5.6-0.4,9c0,0.9-0.7,1.7-1.7,1.7s-1.7-0.7-1.7-1.7
	c0-3.2,0.4-8.6,0.4-9.1c0-1.9,1.6-3.4,3.5-3.4h8.3C25.3,48.5,26.9,50.1,26.9,52z M14.6,42.1c0-2.7,2.2-5,5-5s5,2.2,5,5
	c0,2.7-2.2,5.1-5,5.1S14.6,44.9,14.6,42.1z M17.9,42.1c0,0.9,0.7,1.7,1.7,1.7s1.7-0.7,1.7-1.7c0-0.9-0.7-1.7-1.7-1.7
	S17.9,41.2,17.9,42.1z M21.4,60.5h-4.8c-0.9,0-1.7,0.7-1.7,1.7V75c0,0.9,0.7,1.7,1.7,1.7s1.7-0.7,1.7-1.7V63.8h1.5V75
	c0,0.9,0.7,1.7,1.7,1.7s1.7-0.7,1.7-1.7V62.1C23.1,61.2,22.3,60.5,21.4,60.5z M43.8,48.5h-8.3c-1.9,0-3.5,1.5-3.5,3.4
	c-0.1,0.6-0.4,5.9-0.4,9.1c0,0.9,0.7,1.7,1.7,1.7c0.9,0,1.7-0.7,1.7-1.7c0-3.3,0.4-8.9,0.4-9V52c0-0.1,0.1-0.2,0.2-0.2h8.3
	c0.1,0,0.2,0.1,0.2,0.2v0.1c0,0.1,0.4,5.6,0.4,9c0,0.9,0.7,1.7,1.7,1.7c0.9,0,1.7-0.7,1.7-1.7c0-3.2-0.4-8.6-0.4-9.1
	C47.3,50.1,45.7,48.5,43.8,48.5z M45,42.1c0,2.7-2.2,5.1-5,5.1s-5-2.2-5-5.1c0-2.7,2.2-5,5-5C42.7,37.1,45,39.4,45,42.1z M41.7,42.1
	c0-0.9-0.7-1.7-1.7-1.7s-1.7,0.7-1.7,1.7c0,0.9,0.7,1.7,1.7,1.7C40.9,43.9,41.7,43,41.7,42.1z M41.8,60.5H37c-0.9,0-1.7,0.7-1.7,1.7
	V75c0,0.9,0.7,1.7,1.7,1.7s1.7-0.7,1.7-1.7V63.8h1.5V75c0,0.9,0.7,1.7,1.7,1.7s1.7-0.7,1.7-1.7V62.1C43.5,61.2,42.7,60.5,41.8,60.5z
	 M64.2,48.5h-8.3c-1.9,0-3.5,1.5-3.5,3.4C52.4,52.5,52,57.8,52,61c0,0.9,0.7,1.7,1.7,1.7s1.7-0.7,1.7-1.7c0-3.3,0.4-8.9,0.4-9V52
	c0-0.1,0.1-0.2,0.2-0.2h8.3c0.1,0,0.2,0.1,0.2,0.2v0.1c0,0.1,0.4,5.6,0.4,9c0,0.9,0.7,1.7,1.7,1.7s1.7-0.7,1.7-1.7
	c0-3.2-0.4-8.6-0.4-9.1C67.7,50.1,66.2,48.5,64.2,48.5z M65.4,42.1c0,2.7-2.2,5.1-5,5.1s-5-2.2-5-5.1c0-2.7,2.2-5,5-5
	C63.2,37.1,65.4,39.4,65.4,42.1z M62.1,42.1c0-0.9-0.7-1.7-1.7-1.7s-1.7,0.7-1.7,1.7c0,0.9,0.7,1.7,1.7,1.7S62.1,43,62.1,42.1z
	 M62.3,60.5h-4.8c-0.9,0-1.7,0.7-1.7,1.7V75c0,0.9,0.7,1.7,1.7,1.7s1.7-0.7,1.7-1.7V63.8h1.5V75c0,0.9,0.7,1.7,1.7,1.7
	S64,75.9,64,75V62.1C64,61.2,63.2,60.5,62.3,60.5z M88.2,52c0-1.9-1.6-3.4-3.5-3.4h-8.3c-1.9,0-3.5,1.5-3.5,3.4
	c-0.1,0.6-0.4,5.9-0.4,9.1c0,0.9,0.7,1.7,1.7,1.7c0.9,0,1.7-0.7,1.7-1.7c0-3.3,0.4-8.9,0.4-9v-0.1c0-0.1,0.1-0.2,0.2-0.2h8.3
	c0.1,0,0.2,0.1,0.2,0.2v0.1c0,0.1,0.4,5.6,0.4,9c0,0.9,0.7,1.7,1.7,1.7s1.7-0.7,1.7-1.7C88.7,57.8,88.2,52.6,88.2,52z M75.9,42.1
	c0-2.7,2.2-5,5-5s5,2.2,5,5c0,2.7-2.2,5.1-5,5.1S75.9,44.9,75.9,42.1z M79.2,42.1c0,0.9,0.7,1.7,1.7,1.7s1.7-0.7,1.7-1.7
	c0-0.9-0.7-1.7-1.7-1.7C79.9,40.5,79.2,41.2,79.2,42.1z M82.8,60.5h-4.8c-0.9,0-1.7,0.7-1.7,1.7V75c0,0.9,0.7,1.7,1.7,1.7
	s1.7-0.7,1.7-1.7V63.8h1.5V75c0,0.9,0.7,1.7,1.7,1.7s1.7-0.7,1.7-1.7V62.1C84.4,61.2,83.7,60.5,82.8,60.5z M34.2,34.8
	c0.8-0.4,1.2-1.4,0.7-2.2c-0.8-1.6-2-3.2-4.7-3.2c-2.2,0-4.1,1.2-4.8,3.4c-0.3,0.8,0.1,1.8,1,2.2C26.5,35,26.8,35,27,35
	c0.7,0,1.3-0.4,1.6-1.1c0.3-0.8,0.9-1.2,1.7-1.2c0.8,0,1.2,0.2,1.8,1.4C32.4,34.9,33.4,35.2,34.2,34.8z M54.6,34.8
	c0.8-0.4,1.2-1.4,0.7-2.2c-0.8-1.6-2-3.2-4.8-3.2c-2.2,0-4.1,1.2-4.8,3.4c-0.3,0.8,0.1,1.8,1,2.2c0.2,0.1,0.4,0.1,0.6,0.1
	c0.7,0,1.3-0.4,1.6-1.1c0.3-0.8,0.9-1.2,1.7-1.2c0.8,0,1.2,0.2,1.8,1.4C52.8,34.9,53.8,35.2,54.6,34.8z M75,34.8
	c0.8-0.4,1.2-1.4,0.7-2.2c-0.8-1.6-2-3.2-4.8-3.2c-2.2,0-4.1,1.2-4.8,3.4c-0.3,0.8,0.1,1.8,1,2.2c0.2,0.1,0.4,0.1,0.6,0.1
	c0.7,0,1.3-0.4,1.6-1.1c0.3-0.8,0.9-1.2,1.7-1.2c0.8,0,1.2,0.2,1.8,1.4C73.1,34.9,74.1,35.2,75,34.8z M56.8,28.4
	c0.2,0.1,0.4,0.1,0.6,0.1c0.7,0,1.3-0.4,1.6-1.1c0.3-0.8,0.9-1.2,1.7-1.2s1.2,0.2,1.8,1.4c0.4,0.8,1.4,1.2,2.2,0.7
	c0.8-0.4,1.2-1.4,0.7-2.2c-0.8-1.6-2-3.2-4.8-3.2c-2.2,0-4.1,1.2-4.8,3.4C55.5,27.1,55.9,28.1,56.8,28.4z M36.4,28.4
	c0.2,0.1,0.4,0.1,0.6,0.1c0.7,0,1.3-0.4,1.6-1.1c0.3-0.8,0.9-1.2,1.7-1.2s1.2,0.2,1.8,1.4c0.4,0.8,1.4,1.2,2.2,0.7s1.2-1.4,0.7-2.2
	c-0.8-1.6-2-3.2-4.8-3.2c-2.2,0-4.1,1.2-4.8,3.4C35.2,27.1,35.6,28.1,36.4,28.4z"/>
<g>
	<path class="st0" d="M49.9,98.2c-26.7,0-48.4-21.7-48.4-48.4c0-26.7,21.7-48.4,48.4-48.4s48.4,21.7,48.4,48.4
		C98.3,76.5,76.6,98.2,49.9,98.2z M49.9,4.8C25.1,4.8,4.9,25,4.9,49.8s20.2,44.9,44.9,44.9s44.9-20.2,44.9-44.9S74.7,4.8,49.9,4.8z"
		/>
</g>
</svg>
