<svg xmlns="http://www.w3.org/2000/svg" viewBox="0 0 364.51 334.58"><defs><style>.cls-1{fill:#fff;}</style></defs><title>change-a-life_1</title><g id="Layer_2" data-name="Layer 2"><g id="Layer_1-2" data-name="Layer 1"><path class="cls-1" d="M138.34,193.72a6,6,0,0,0,7.22-4.45l6.23-26.2h.06a115,115,0,0,1,14.37-.69h2.41l5.52,21.49a6,6,0,0,0,11.63-3l-20-78.25a6.22,6.22,0,0,0-12,.1l-19.92,83.75a6,6,0,0,0,4.43,7.24Zm16.39-43L160,128.48l5.59,21.88c-4.7,0-8.32.2-10.88.39Z"/><path class="cls-1" d="M97.15,228.15A7,7,0,0,0,87.43,230h0c-9.55,14.14-19,20.44-30.74,20.44-8.76,0-16.5-3.35-23-10C20.75,227.35,13.58,202,14,170.83c.6-42.69,19.62-76.45,44.26-78.53,2.08-.18,4.88-.06,6.42,1.5,1.7,1.73,2.36,5.45,1.86,10.5a7,7,0,0,0,13.93,1.38c.94-9.52-1-16.83-5.82-21.7-3-3-8.38-6.4-17.56-5.62C24.73,81.09.73,119.9,0,170.64-.48,206,7.94,234.3,23.73,250.31a45.57,45.57,0,0,0,33,14.12c16.63,0,30.08-8.45,42.34-26.61A7,7,0,0,0,97.15,228.15Z"/><path class="cls-1" d="M263,191.38c-12.48,0-14.34-25.44-14.34-40.61,0-12.17,1.44-40.46,14.8-40.46,1.26,0,5.08,0,9.94,7.8a6,6,0,0,0,10.19-6.35C278,102.83,271.23,98.3,263.44,98.3c-12.22,0-26.8,9.1-26.8,52.46,0,15.84,1.71,27.73,5.23,36.36,5.49,13.43,14.5,16.25,21.1,16.25a18,18,0,0,0,8.25-1.88v6.72a6,6,0,1,0,12,0V156.38c0-2.76-.33-4.47-1.25-5.17-1.31-1.08-4.83-1.74-5.88-2-3.85-.77-6.78-1.18-9.89-1.61-1.84-.26-3.73-.52-5.89-.87a6,6,0,1,0-2.22,11.79l.29.05c2.3.37,4.26.65,6.17.91,2.19.31,4.29.6,6.68,1v24.6C267.53,190.41,265.77,191.38,263,191.38Z"/><path class="cls-1" d="M95.48,209.22a7,7,0,0,0,7-7h0V160.44c4.5-.74,10.41-1.61,15.33-2.15v32.93a6,6,0,0,0,12,0V103.88a6,6,0,0,0-12,0v42.34c-4.82.49-10.58,1.31-15.33,2.06v-44.4a7,7,0,0,0-14,0v98.33a7,7,0,0,0,7,7Z"/><path class="cls-1" d="M196,188.13a6,6,0,0,0,6-6V139.5l16.85,47.15a6,6,0,0,0,11.65-2l.25-81a6,6,0,0,0-6-6h0a6,6,0,0,0-6,6l-.14,46.7-17-47.45a6,6,0,0,0-11.65,2v77.25a6,6,0,0,0,6,6Z"/><path class="cls-1" d="M308.59,154.56l.06-61.17h48.5a7,7,0,0,0,0-14h-62.5V244.32L355.3,266A7,7,0,0,0,360,252.8l-51.36-18.35V169.87c13.53,3,34.5,9.62,34.71,9.69a7,7,0,1,0,4.49-13.26l-.25-.08"/><path class="cls-1" d="M203.73,212.79a1,1,0,0,0,.9,1.09h0a175.12,175.12,0,0,1,49.08,11.84.94.94,0,0,0,.37.07,1,1,0,0,0,.37-1.93,177,177,0,0,0-49.64-12,1,1,0,0,0-1.09.9Z"/><path class="cls-1" d="M187.07,215l2.62,10.37a2.5,2.5,0,0,0,4.85-1.22L187.15,195a2.72,2.72,0,0,0-5.22-.36l-8.11,29.29a2.5,2.5,0,0,0,4.82,1.33l2.81-10.15C183.4,215,185,215,187.07,215Zm-4.2-5,1.54-5.57,1.4,5.55-2.95,0Z"/><path class="cls-1" d="M117.47,224a1,1,0,0,0,.67,1.89A222.22,222.22,0,0,1,164,215a1,1,0,1,0-.25-2A223.73,223.73,0,0,0,117.47,224Z"/><path class="cls-1" d="M224.28,241.09c-1-.26-10.18-2.54-36.23-2.54a6,6,0,0,0-6,6v84a6,6,0,0,0,12,0v-39h21a6,6,0,0,0,0-12h-21v-27c19.64.3,26.91,2,27.14,2.09a6,6,0,0,0,3.08-11.6Z"/><path class="cls-1" d="M276.15,322.56H246.81V294.13a146.32,146.32,0,0,1,17.64,4.43,6,6,0,0,0,4.28-11.21l-.22-.08c-5.93-2.13-15.76-4.2-21.7-5.35v-22.5a253.64,253.64,0,0,1,24.94,10.81,6,6,0,0,0,6-10.41l-.52-.26a284.75,284.75,0,0,0-34.5-14.35l-7.9-2.63v92h41.34a6,6,0,0,0,0-12Z"/><path class="cls-1" d="M170.72,322.34h-8.47V251.22c2.08-.08,5.92-.21,8.45-.23a6,6,0,1,0,0-12h-.05a184.29,184.29,0,0,0-28.06,2l-.67.1A6,6,0,1,0,143.73,253l.69-.11c1.49-.24,3.35-.53,5.83-.82v70.27h-7.57a6,6,0,0,0,0,12h28a6,6,0,0,0,0-12Z"/><path class="cls-1" d="M123.48,322.22H102.15V257.56a6,6,0,0,0-1.39-3.84,74.49,74.49,0,0,1-10.61,10.17v70.33h33.33a6,6,0,0,0,0-12Z"/><polyline class="cls-1" points="89.85 163.12 84.3 158.85 88.57 153.3"/><polyline class="cls-1" points="145.14 154.31 139.75 149.84 144.22 144.46"/><polyline class="cls-1" points="151.53 289.44 146.14 284.98 150.6 279.59"/><polyline class="cls-1" points="92.31 297.24 86.56 293.26 90.54 287.5"/><polyline class="cls-1" points="100.31 285.74 106.01 289.8 101.96 295.5"/><polyline class="cls-1" points="175.93 142.47 180.97 147.33 176.11 152.37"/><polyline class="cls-1" points="161.79 278.99 166.83 283.85 161.97 288.89"/><polyline class="cls-1" points="230.55 143.79 235.13 149.08 229.83 153.66"/><polyline class="cls-1" points="282.18 151.41 286.76 156.7 281.46 161.28"/><polyline class="cls-1" points="294.82 163.13 290.89 157.34 296.68 153.41"/><polyline class="cls-1" points="190.37 152.06 185.38 147.15 190.29 142.16"/><polyline class="cls-1" points="182.75 288.83 177.76 283.92 182.67 278.94"/><polyline class="cls-1" points="234.76 290.49 230.11 285.26 235.33 280.61"/><polyline class="cls-1" points="129.01 145.32 134.33 149.87 129.78 155.19"/><path class="cls-1" d="M133.86,31c.21,0,.21.37.21.65-1.87,1.15-3.31,2.59-5.18,3.67.14.22.29-.21.58-.14-.22.29-.65.72-.87.43-.14.8-.94,1.23-1.73,1.59-.21.57-1,1.08-1.51,1.51V39c-.14-.15-.22.21-.43.14a25.28,25.28,0,0,1-4.32,3.53c-.15.22-.29.29-.29.58-.43.07-.94.57-.58.86-.28.14-.28.58-.5,1-.07.14.07.21.22.14-.22.22-.65.58-.36.87-.58.72-.51,1.87-.94,2.44-.22,1.16-.86,2.16-.86,3.17-.15.07-.08.29-.22.22.14.36-.5,1.22-.65,2a14.09,14.09,0,0,0-.36,1.37c0,.15.15.07.22.15s-.22.07-.22,0a38.28,38.28,0,0,0-1.08,4c-.36.43-.21.93-.57,1.22-.22,2-1.37,4.54-1.73,6.7a3.42,3.42,0,0,0-.58,1.94c-.21.07-.21.36-.43.36-.07,1-.07,1.73-.72,2.16-.07.22.07.22.07.36a3.08,3.08,0,0,0-.65,1.66,27.67,27.67,0,0,0-1.58,3.89c-.14.07-.22.14-.29.14-.07.22.07.14.07.36-.5.86-1.36,1.58-1.44,2.59a2.89,2.89,0,0,0-1.08,1.66c-.93.65-1.08,1.94-1.94,2.52-.65,1.51-2.31,2.16-3.17,3.6-.79,0-1.58,1.3-2.45,1a6.54,6.54,0,0,1-4,.5c-1.37-.36-2.16-1.37-3.74-1.58-.08-.22-.44-.22-.44-.58.29.22-.07-.29.22-.29-.94-1.15-.14-3.31-.36-4.68a4.8,4.8,0,0,0,.22-1.08c.72-1.87,1.36-4.82,2.44-6.84a34.74,34.74,0,0,1,4.68-8.57c.08-.72.72-1.15.72-1.72.08,0,.15.07.22.07a101.86,101.86,0,0,1,7.27-10.66v-.36c.08,0,.15.07.22.07,1-1.44,2.16-2.66,3.1-4,.79-.43,1.08-1.22,1.8-1.73.07-.14,0-.07,0-.29.07.08.14.08.28,0a9.57,9.57,0,0,0,1.73-2.08,16.1,16.1,0,0,1,.87-3.6c0-.15-.08-.15-.15-.22.36-.14,0-.22.29-.5-.07-.15-.29-.08-.22-.29.08,0,.15.07.22.07.36-.79.36-2,.79-3.1,0-.14-.07-.14-.14-.21.43-.29.29-1.3.5-1.73-.07-.14-.36,0-.29-.29.72-.07.51-1.15.72-1.66a.42.42,0,0,0-.28-.07c.64-3,1.15-6.69,2-10,0-.07-.07-.21-.14-.21s.07-.07.14-.07a23.73,23.73,0,0,1,.79-3.89,2,2,0,0,0-.57,1.37c-.51.07-.36.86-.72.86-.36,1.37-1.73,2-1.8,3.38-.65.58-.87,1.59-1.44,2.24,0,.14.14.07.14.21a1.69,1.69,0,0,0-.79,1.59c-.36.28-.94.64-.72,1.22,0,.14-.29.07-.36.07a29.57,29.57,0,0,1-3.6,5.19c-.07.21-.07.14,0,.36-.43,0-.43.29-.65.29,0,.5-.86.79-.57,1-.72.22-.8,1.23-1.59,1.44-.36.8-1.44.8-1.58,1.73-1.08.29-1.3,1.37-2.31,1.66-.07.14.07.14.07.29-.21.07-.21-.08-.36-.08-.28.29-.86.51-.93.72-.79.22-2,.94-3,.8a5.93,5.93,0,0,1-1.95.07c-4.17-.29-7.41-4.32-7.41-8.93a22.39,22.39,0,0,0-.08-2.31c.29-.21.15-.79.08-1.08.14,0,0-.28.21-.28-.29-1.16.43-2.67.29-3.53.14,0,.29-.58.14-.87A6.27,6.27,0,0,0,89,25.06a1.25,1.25,0,0,0,.21-1c.29.07,0-.5.29-.5-.07-.15-.14.07-.14-.08a11.16,11.16,0,0,0,.79-3.24,4.06,4.06,0,0,0,.58-2H91c-.28-.51.51-.87.15-1.23a2.56,2.56,0,0,0,.72-1.8h.21a46.68,46.68,0,0,1,1.37-4.75c0-.21-.21-.14-.14-.36.5-1,1.08-2.3.57-3.53a1.9,1.9,0,0,0,.8-.36.87.87,0,0,0,.86,0A4.46,4.46,0,0,1,97.71,8,2.9,2.9,0,0,0,98,10.15a1.23,1.23,0,0,0,0,1.23v.07c-.43.29,0,1,0,1.3s-.36.93,0,1.08c-.43.07.07.72-.22.79-.07.21.22.14.29.29a2.79,2.79,0,0,0,.07,2.16c-.36.64-.14,1.22-.29,1.94,0,.14.15.07.15.14s-.15.08-.22.08c.43,1.65-.5,2.66-.21,3.74-.87,1.08-.44,2.23-.94,3.6,0,.14-.07.29.07.22a1.78,1.78,0,0,0-.29,1.51c-.28,0-.36.5-.14.65-.36,1.58-.72,3.24-1,4.61.07.14,0,.36.22.28-.07.15-.22.36.07.36-.07.15-.29.15-.29.22.07,2-.21,4.25.94,6.12.14-.14.65,0,.65-.36.79-.07,1.36-.86,2.3-1.08a3.29,3.29,0,0,0,.07-.36c.22.07.29-.07.43-.14A32.2,32.2,0,0,0,103,35.86a21.24,21.24,0,0,0,3.17-4.11,2.85,2.85,0,0,0,1.08-1.58h.21c.08-.72.72-.86.87-1.73.43,0,.29-.5.72-.57-.07-.72,1-1.3.93-2.09a5.91,5.91,0,0,0,1.16-1.8,13.19,13.19,0,0,0,1.44-2.81c.43-.22.57-1.3,1.15-1.73-.07-.21.07-.21.07-.5a10.14,10.14,0,0,0,1.44-3h.22c.21-.8.86-1.3,1-2.24.94-1.36,1.59-3.09,2.45-4.6-.07-.08,0-.22-.07-.22.43-.29.43-1.15.86-1.44-.07-.07-.21-.07-.21-.15,1-1.08,1.29-2.95,1.73-4.68,0-.14-.29-.07-.22-.28.07,0,.14.07.22.07a2.91,2.91,0,0,0,0-1.73,7.23,7.23,0,0,0,.57-.72c.36.43.87,0,1.37,0,.07,0,.14.14.14.29.65-.51,1.52.14,2.09.07.79.22.94,1,1.8,1.15a.6.6,0,0,0,.51.58c.29.79.5,1.37.14,2,0,.08,0,.08.15.08-.37.21,0,.79-.37.93a1,1,0,0,0,.15.43c-.72,1.08-.43,2.67-1,3.75-.07.21.15.21.15.43a.32.32,0,0,0-.22.07c.14.94-.65,2.09-.36,3a15.15,15.15,0,0,0-.65,3.09c-.07.08-.22.08-.22.15s.08.36.08.5c-.15.58-.29,1.8-.58,2a61.08,61.08,0,0,1-1.08,6.55.56.56,0,0,0,.07.36c-.57,1-.36,3-1,3.82a4.21,4.21,0,0,1-.28,1.8c-.08.21.28,0,.21.21s-.21.15-.29.15a8.83,8.83,0,0,1-.64,3.24c-.08.29.28.07.21.36-.36.07-.29.57.07.65-.07.21-.36.36-.5.21-.14.65-.5,1.23-.22,1.66-.07.14-.21.07-.28.07a4.37,4.37,0,0,1-.08.94c2.16-1.52,4.69-3.17,6.92-4.83A13.55,13.55,0,0,1,133.86,31ZM102.39,64.45c-.5.21-.43.86-1,1a21,21,0,0,1-2.88,4.4c.07.43-.29.43-.14.79a4.78,4.78,0,0,0-.87,1.73c-.28-.08-.21.14-.28.14,0,.65-.72,1.3-.51,2-.29.21-.43.64-.36,1.36,0,.15-.29.08-.21.22.07,1.08-.58,2.23-.58,3.24-.14.07-.22.15-.29.15-.07,1.36-.57,2.08-.57,3.38-.08.07-.15.14-.22.14,0,.58-.07.72.14,1-.57.07-.07.72-.43.94.36.14.07.5.29.72.58-.29.65.07,1.15.21.51-.07.65-.43,1.08-.57A18.3,18.3,0,0,0,99,82.52c.21,0,.14-.29.36-.29.79-1.58,2-2.73,2.66-4.54.36-.14.43-.72.72-1.15-.14-.29,0-.36.07-.65.51.15.58-.79.8-1.15-.15,0-.15.07-.15,0,0-.65.65-.72.79-1.29h-.21c.07-.08.21-.08.36-.22s-.29-.07-.22-.29c0-.07.22,0,.29-.14-.07-.72.57-1.37.72-2.09h.14a.58.58,0,0,1,.22-.72c0-.14-.15-.14-.07-.29a62.36,62.36,0,0,0,2.59-8.35c.14,0,.14-.07.22-.14.07-1.16.86-2.6.93-4a8.27,8.27,0,0,0,.87-2.73,1.08,1.08,0,0,0,.21-.8c.22-.14.22-.79.43-1.29s.51-.79.29-1.08c-2.09,3.09-4.39,6-6.48,9.14C104.05,61.71,103,62.93,102.39,64.45Zm-6.7-22s.15,0,.15-.07S95.69,42.41,95.69,42.48Zm11.74,33.63s.15,0,.15-.07S107.43,76,107.43,76.11ZM124.5,37.66c-.15-.07-.36.22-.15.22C124.35,37.8,124.42,37.73,124.5,37.66Zm.57-1s.15,0,.15-.07S125.07,36.58,125.07,36.65Zm.22.43a2,2,0,0,0,.65-.5c.14-.07.36-.07.5-.29-.22.07-.5.07-.5.29A.82.82,0,0,0,125.29,37.08Zm1-1.29c.07,0,.14-.07.21-.15-.14,0-.21.08-.21.15S126.3,35.86,126.3,35.79Zm1.22-.29c.07-.07.22,0,.22-.22-.22,0-.29.07-.22.22C127.16,35.43,127.45,35.72,127.52,35.5Zm.36-29.81v.14h-.14V5.69Zm.43,27.72c0-.07.15-.14.29-.14C128.53,33.41,128.46,33.41,128.31,33.41Zm1.3,1.59c.14.07-.07.28-.14.21S129.54,35.14,129.61,35Z"/><path class="cls-1" d="M150.41,35.14c2.31-1.3,4.76-2.38,6.27-4.47,1-.5,1.51-1.94,2.59-2.23-1.15,2.38-3.09,4-4.82,5.83-1,.37-1.37,1.3-2.38,1.59-.36.79-1.58.86-1.94,1.66-.94.43-2.16.57-2.24,1.8-.5.28-.36.79-.79,1.08.07.07.15.07.15.21a5.56,5.56,0,0,0-.94,2.23c-.07.29.07.36.07.58a9.64,9.64,0,0,0-1.08,2.81c0,.21-.14.21-.29.21-.07,1.08-1,2-1.51,2.88.07.15,0,.36.15.44a28.29,28.29,0,0,1-4.4,5c.22.35-.43.28-.14.43a46.78,46.78,0,0,1-3.46,3.24,2.72,2.72,0,0,0-1.36.93c-.15-.14-.36.22-.58,0-.14.08-.22.29-.29.36-.79.08-1.37.15-2.3.29-1.73.15-2.88-1-4.11-1.37a10.83,10.83,0,0,1-2.81-10.8c0-.14,0-.21-.14-.21a17.94,17.94,0,0,0,1.44-4.68,19.21,19.21,0,0,0,1.3-3.6c1-1.88,2.16-3.68,3.17-5.55.43,0,.35-.58.79-.65.14-1.15,1.29-1.37,1.58-2.45a.56.56,0,0,1,.36-.07c.07-.57.58-.79.94-1.15a14.87,14.87,0,0,1,2.45-2.74c1.58.72,4,1.66,4,3.75-.07.21-.22.29-.15.57-.79.87-1.08,1.95-2.16,2.6-.07.07-.07.36-.14.43-.86.29-.86,1.37-1.8,1.58.07.44-.5.36-.29.72-.21-.07-.14.22-.36.15.15.43-.5.57-.43,1.15-1.3,1.15-1.94,3-2.88,4.54a21.21,21.21,0,0,1-1.44,3.09c-.07.29-.07.72-.36.79.07.65-.43.72-.36,1.37a.35.35,0,0,0-.22.43c-.21,0-.29.15-.43.22.07.29.07.65-.36.79a39.56,39.56,0,0,0-.5,4,6.84,6.84,0,0,0,1.65,4.25c.87.15,1.59-.5,2.38-.72,4.82-3.09,8.28-7.56,11.38-12.38-.08-.29.14-.36.14-.58.14,0,.14-.21.36-.21.36-1.44,1.22-2.74,1.73-4.25a6,6,0,0,1-6.34-1.66c-.93-1.29-.29-2.88.07-4.32a3.16,3.16,0,0,0,.8-1.44c1.65-1.66,2.52-4,4.89-5,.07,0,.07,0,.07.07.15,0,.15-.07.29-.07A19.24,19.24,0,0,1,148.9,28c1.51,1.94.87,4.68.51,7.34C149.84,35.43,150,35.14,150.41,35.14ZM146,28.59a21,21,0,0,0-2.52,2.08A7.73,7.73,0,0,0,142,37.23c1.66.65,3.1-.36,4.54-.65.36-2.74,1.29-6,0-8.07C146.31,28.51,146.24,28.66,146,28.59Z"/><path class="cls-1" d="M161.14,29.74c0,.21-.14.21,0,.36.07,0,.07-.15.07-.29.22-.07.07.22.22.29.58-.22.58.43.94.5-.22.51-.36.65-.15,1.08a5.42,5.42,0,0,0-.79,2.16c-.07,0-.15-.14-.22-.14s.07.22.15.22c-.51.86-.65,1.94-1.16,2.88.15.93-.64,1.72-.5,2.66-.07.07-.07.29-.29.29a10.22,10.22,0,0,1-1.22,3.53c-.22-.15.14-.36.07-.65-.65.29-.72,1.15-.65,1.8.36-.22.07-.72.58-.87a4.28,4.28,0,0,1-.87,2.74c-.14-.36.22-.29.15-.65-.51.07-.22.94-.72,1,.65.79-.65,2.16.07,3-.07.15-.22.15-.29.22-.07.29.15.36.15.57-.44-.07,0,.72-.44.65a13.68,13.68,0,0,0-.21,3c0,.15.07.22.21.22a2.75,2.75,0,0,0,.29,1.8c.15,0,0-.29.07-.43.15.14.15.43.22.72.86,0,1-.79,1.66-1a18.94,18.94,0,0,0,2.66-3.17,1.86,1.86,0,0,0,.72-.93c.29-.15.36-.58.72-.72,0-.15.15-.22.07-.44a78.37,78.37,0,0,0,6.12-10.58c1.08-1.22,1.59-3,2.74-4.18.07-.57.65-.72.65-1.36a39.6,39.6,0,0,0,3-3.89c.43-.08.51-.44.72-.65.43,0,.58-.29,1-.29.72.07.79.79,1.58.79,0,.29.08.51.44.43-.08.22-.08.51.21.51a10.85,10.85,0,0,0-.07,1.58,28.78,28.78,0,0,1-.58,3.17c-.07.43-.43.79-.5,1.23a40.85,40.85,0,0,1-1.08,4.6c-.07.08-.29.08-.5.08-.15,1.29-.65,3-.08,4.1a5.64,5.64,0,0,0,.51,3.1,2,2,0,0,0,1.44.5c1-.07,1.8-1.15,2.59-2,.29-.28.72-.57.94-.79a23.81,23.81,0,0,0,1.58-2.95c.36-.65.79-1.22,1.23-1.94A19.37,19.37,0,0,1,187,36.36v1.08c-.29,1-.72,1.88-.94,3-1.15,2.52-2.16,5.11-3.24,7.7a2.47,2.47,0,0,0-.71,1.51c-.73.72-1.3,1.66-2.09,2.31-.29-.08-.51.21-.58-.08-1.94,1-3.89-.57-5-1.65a16.73,16.73,0,0,1-.79-2.09,3.59,3.59,0,0,0-.43-2.3,25.17,25.17,0,0,1,.07-4c.07-.21.29-.21.36-.43-.15-1.15.57-2.45.14-3.38-.29.14-.29.57-.36.72a.54.54,0,0,1-.36.07,68.22,68.22,0,0,0-5.33,9.79c.44,0,.36-.5.44-.86.72.43-.65,1.29-.36,1.8-.22.14-.29.43-.51.5a5.81,5.81,0,0,1-2,3.31c-.29,1.16-1.23,1.66-1.59,2.81-1.65,1-2.73,3.46-5.18,3.24a4.94,4.94,0,0,1-6.2-4.25c0-.14,0-.21.15-.21a2.87,2.87,0,0,1-.15-1.59c-.43-1.22,0-1.8-.21-2.66.29-1.3.07-2.74.29-4,.36-2.38,1.22-5,1.8-7.49a19.47,19.47,0,0,1,.64-2.38c.29-.93.36-2,.65-2.8a20.37,20.37,0,0,1,.79-2.09.93.93,0,0,1,.36-.87,3,3,0,0,1,.51-1.65c-.07-.29,0-.36-.07-.65.14-.07.28-.15.28-.36A14.46,14.46,0,0,0,161.14,29.74ZM157.4,44.57c0,.15-.15.22-.08.43C157.61,45.08,157.47,44.72,157.4,44.57Zm1-2.09v-.14h-.14v.14Z"/><path class="cls-1" d="M240.86,37.12a.08.08,0,0,0,.08-.08c.23-.15.3-.22.15-.45.61-.38.61-1.37,1.75-1.22.16.61-.23.68,0,1.22-.15.3-.15.53-.45.61,0-.16.15-.23.22-.31h-.3v-.15l.23-.23c-.23-.07-.31,0-.23.23-.76.61-1.14,1.83-1.75,2.67.07.23.3,0,.45,0-.45.53-1,.84-1.29,1.44-.08.08.08.31.08.31-.16.3-.69.61-.46,1.14-.38.31-.54.31-.69.61,0,.23.15,0,.15-.15,0,.61-.68,1.14-.76,1.6H238c0,.08.07.08.07,0,.31.23-.53.76-.76,1.22-.08.07,0,.3,0,.38-.23.53-.84.76-.61,1.37-1.22,1.45-1.9,3.51-3.35,4.65,0,.3-.15.38-.08.61-.3.23-.84.53-.68.91.3-.07.15-.46.45-.38-.76,2-2.28,3.66-3.35,5.33a6.63,6.63,0,0,1-1.52,2.21c-.23,1.53-1.3,2.21-1.91,3.28-.15,0-.15-.08-.23-.15s-.07.23-.07.45c-1.07.84-1.6,2.21-2.67,3.05-.15.61-.76.76-.76,1.45a1.46,1.46,0,0,0-1,1.37c-.61.31-.84,1.14-1.45,1.53-.15-.31.46-.39.46-.84A3.6,3.6,0,0,0,219,72.32,3.46,3.46,0,0,0,217.39,74c-.45,0-.45.53-.91.53-.08.23.08.23.08.38a6.72,6.72,0,0,0-1.76,1.53c-.15,0-.22,0-.15-.16-.3.38-.53.69-1.14.61-3,2.14-7.39,3.13-12.42,2.82-.23-.07-.15-.3-.38-.3-.38-.08-.31.3-.46.38a17.91,17.91,0,0,1-7.31-4c-.76-1.22-1.14-2.82-1.91-4.11,0-.08.16-.08.23-.16-.91-3.43-1.83-7-1.37-10.21.08-.3-.3-.22-.23-.53a3.59,3.59,0,0,0,.15-2c.23-.31,0-1.14.46-1.45-.23-.3,0-.91.15-1.45.69-7.23,2.44-12.87,4.19-18.51.61-1.07.84-2.36,1.53-3.43.07-1.22.68-1.75.84-2.82.53-1,1.06-2,1.52-3.05a10.75,10.75,0,0,0,1.22-2.66c1.83-3,3.5-6.17,5.18-9.37,1.52-2.21,3.12-4.58,4.5-6.63,1-1.45,2.28-2.59,3.12-4.27a10.43,10.43,0,0,0,2.13-2.36c.46-.46,1-.69,1.3-1.3a2.79,2.79,0,0,0,1.44-1c.54-.23,1-.23,1.38-.45.15,0,.23.07.23.22,3.42-.76,7.31.46,10.74.92a5.43,5.43,0,0,0,2.13,1.22c.31.91,1.07,1.22,1.6,1.83a1.88,1.88,0,0,0-.07.91c-.69.08-.92.69-1.83.53a13.79,13.79,0,0,0-5.11-1.52c-.3.08-.68.08-.68.38-1.38-.07-2.06,1.07-2.9,1.6,0,.08,0,.15.08.15-.61.23-1.15.61-1.15,1.3-1.75,1.37-2.81,3.28-4.26,4.88.15.3-.08.38-.08.6-.15.16-.15-.07-.38,0-.23.31.15.46,0,.69-.08.08-.15,0-.23-.08a3.28,3.28,0,0,0-1.14,2.14c-.31,0-.38.23-.53.3,0,.61-1,1-.92,1.68-.07.07-.15.07-.3.07-.31,1-1.22,1.45-1.37,2.6-1.15.83-1.53,2.28-2.14,3.58-.68.45-.91,1.29-1.37,2-.15.3.15.3.15.53-.15,0-.15-.15-.23-.15-.53.46-.61,1.52-1.29,2.06-.08.15.08.15.08.38a1.38,1.38,0,0,0-.77,1.75c-.15,0-.15.15-.3.07a3.47,3.47,0,0,0-.92,2.29,1.39,1.39,0,0,0-.53,1.14c-.3-.07-.3.16-.38.16a4.61,4.61,0,0,1-.69,1.37c-.38,1.6-1.06,2.59-1.52,4.19-.76.61-.53,2.21-1.29,3,0,1.68-.84,2.36-1.07,4-1.53,4.12-2,8.46-2.52,13a32.8,32.8,0,0,0-.07,6c0,.07.15.07.23.07-.46.69.23,1.38-.08,2.29,0,.15.15.23.31.31-.08.15-.23.07-.08.22.61,2.52,1.68,5.87,4.19,7.09,4-.53,6.63-2.36,9.6-4,.15-.15.69-.31.61-.54,1-.3,1.83-1.67,2.89-2,.84-.92,2.06-1.53,2.67-2.82.23-.08.46-.15.46-.54.15.16.15,0,.3,0,.76-.68,1.22-1.52,2-2.2v-.39a1.33,1.33,0,0,0,.92-1c.15-.15.15-.07.38-.15,3.43-4.34,6.55-9,9.68-13.64H232a84.45,84.45,0,0,1,6.4-8.91c.16.08.61.23.69-.08.15,0,0,.31.08.31.76-.38,0-1.45.83-2a1,1,0,0,0-.22.76c.6.07.38-1.07,1-1.37A.07.07,0,0,0,240.86,37.12ZM198.8,50.76s.16,0,.16-.08S198.8,50.68,198.8,50.76Zm31.47,7.85h-.07c-.08,0-.08-.08-.08-.16S230.2,58.53,230.27,58.61Zm1.6-9.37H232c0-.08.07-.23,0-.23a.26.26,0,0,0-.08.23C231.72,49.31,231.87,49.31,231.87,49.24Zm.31-.46c.22,0-.08-.31,0,0C232,48.85,232.18,48.85,232.18,48.78Zm.76,2.36c.07-.08-.08-.08,0,0C232.79,51.22,232.94,51.22,232.94,51.14Zm.76-4.57a.29.29,0,0,0,.15.07c.08-.15.23-.38.38-.6-.3-.16-.53.22-.53.53C233.55,46.64,233.7,46.64,233.7,46.57Zm.61,4.34c-.15,0-.23.08-.23.15S234.23,51,234.31,50.91Zm2.59-9.22a.08.08,0,0,1-.08.08v.15c-.15.08,0,.08,0,0,.16.08.08-.08.16-.23.07,0,.07-.15.22-.15-.07.15,0,.23.16.23a1.55,1.55,0,0,1,0-.61c0,.23-.38.23-.38.53Zm.84-1.06c-.08.15-.38.38-.15.45C237.51,40.93,237.89,40.78,237.74,40.63Zm.23-.16c.07-.07-.08-.07,0,0C237.81,40.55,238,40.55,238,40.47Zm.23-.3c.07-.08-.08-.08,0,0C238,40.25,238.2,40.25,238.2,40.17Zm.38-.38c0,.15-.08.23-.08.3C238.65,40.25,238.65,39.79,238.58,39.79Zm0,.68c-.16.08,0,.08,0,0a.07.07,0,0,0,.07-.07c.08-.08-.07-.08,0,0S238.58,40.4,238.58,40.47Zm0-1.06a4.43,4.43,0,0,1,.53-.77C239.26,39,238.8,39.25,238.58,39.41Zm.91-.61c0,.23-.15.23-.15.38-.31-.08-.08-.23-.08-.46C239.34,38.72,239.34,38.8,239.49,38.8Zm-.23-.16a.28.28,0,0,1,.31-.3C239.41,38.49,239.49,38.72,239.26,38.64Zm.61.23s.15,0,.15-.07S239.87,38.8,239.87,38.87Zm.23-.53H240c-.15,0-.07-.08-.07-.15S240,38.26,240.1,38.34Zm.08-.53c-.23-.16.07-.38.15-.46C240.33,37.65,240.18,37.65,240.18,37.81Zm.68-.69c-.07,0-.07,0-.07.08h-.23a.57.57,0,0,1,.45-.38c0,.07-.15.07-.07.22C240.86,37,240.86,37,240.86,37.12Zm.84.08a.15.15,0,0,0-.15.15A.17.17,0,0,0,241.7,37.2Z"/><path class="cls-1" d="M266.37,41.51c0,.22.22.29.15.59-.67,1.5-.9,2.84-1.57,4.26-.52.07-.45.44-.45.82a17,17,0,0,0-2,4.4,2,2,0,0,0-.75,1.79c-.3.08-.22.22-.44,0,.07.3.14,1.12-.23.75.15.59-.45.52-.45,1-.29,0-.29.07-.52,0a1.75,1.75,0,0,1-.07.67c-.23,0-.08-.3-.23-.3-.15.22,0,.75-.37.67-.07.23.15.23.07.45s-.52.3-.52.67c-.15,0-.07-.22-.3-.15s0,.38-.07.52c-.82.68-1.72,1.35-2.54,1.94a5.69,5.69,0,0,0-2.09.38,17.54,17.54,0,0,1-3.58-.9A14.65,14.65,0,0,1,247.79,56c-.08-.22.15-.15.15-.3-.23,0-.08-.22-.38-.07a9.2,9.2,0,0,1-1-3.06,2.91,2.91,0,0,0-1.34,1.19c-.15,0-.08-.22-.23-.22a15.68,15.68,0,0,1-7.16,5.6.56.56,0,0,0-.67,0c-3.36-.45-4.48-4.85-3.36-8.51H234c-.15-.67.38-1.34.38-2.09a17.25,17.25,0,0,0,1-2.76,48.08,48.08,0,0,1,7-11.94,3.12,3.12,0,0,1,1.11-1.49V32a1.36,1.36,0,0,0,.83-1,19.73,19.73,0,0,1,3.06-2.46c.74-.08,1,.52,1.71.52.15.3.23.67.45.82a11.79,11.79,0,0,1-.3,1.64,3.43,3.43,0,0,1-1.19.52,47.41,47.41,0,0,0-6.35,5.82,3.59,3.59,0,0,1-1,1.5c-.08.52-.37.74-.52,1.12,0,.14.07.14.22.14a3,3,0,0,0-1,2.39c-.23,0-.3.3-.45.38.07.89-.6,1-.52,1.94-.75.89-.68,2.24-1.57,2.83-.3,1.27-1,2.69-1.49,4,0,1-.45,1.34-.3,2.76a1.75,1.75,0,0,1,.22.89c.3.23.23.82.67,1,.45-.15,1.05-.22,1.27-.67h.75c.07,0,.07-.07.22-.07.45-.53,1.2-.82,1.57-1.5.67-.22,1.34-1.11,2-1.64A22.83,22.83,0,0,1,245,49c.53-1.49,1.5-2.53,1.94-4,.08-1,.45-1.71.53-2.83-.08-.23.14-.15.14-.3a20.66,20.66,0,0,1,.83-4.4c.52-2.84,1.19-5.53,1.56-8.21a8.52,8.52,0,0,0-.59-2.09c.22-.15.22-.6.22-1.05.3,0,.37-.15.82-.15.45,1.35,2.39.75,2.76,1.8.23-.08.45.14.82.14.08.23-.22.15-.15.38a3.27,3.27,0,0,1,1.27.15c-.07.3-.45.3-.37.67a1.6,1.6,0,0,1,.6.37c.29.08.07-.37.37-.3.37.45,1,.53,1.19,1.2.15.22.23-.23.38,0s0,.22,0,.52c.59,1.12-.08,3.36.07,4.4a40.67,40.67,0,0,1-1,5.52,4.15,4.15,0,0,0-.75,2.17c-.15,0-.15.07-.3.07a2.46,2.46,0,0,1-.45,2.17c.15,1.41-.67,2.24-.59,3.58-.3.45-.3,1.34-.68,1.72.08.14.23.22.15.52-.07,1-.89,2.16-.74,3.13.07.45.52.75.22,1.2.67.59.82,1.71,2,1.86,2.68-.89,3.35-3.66,5.22-5.37,1.49-3.73,4-6.94,5.52-10.9.37-.15.45-.59.6-1,.07,0,.15-.07.15,0h.15C266.82,40.83,266.89,41.21,266.37,41.51Z"/><path class="cls-1" d="M273.83,31.28c-.08,0-.08.08,0,.08.15.52-.37.67-.22,1.27-.23.07-.3.29-.6.22a.41.41,0,0,0,.3.45c-.3.22-.15.37-.23.82-.22-.08-.22.07-.37.07,0,.23,0,.3.22.3a1,1,0,0,0-.15.9.26.26,0,0,1-.22-.08c.15.9-.82,2-.6,2.84-.15,0-.07-.23-.29-.15a1.14,1.14,0,0,1,.29.67c-.15,0-.07.22-.29.15.07.3,0,.45.07.82h-.37v.45c.22,0,.3-.15.22-.38a.38.38,0,0,0,.3.15c-.22.53-.6.45-.75,1,0,.07.08.07.08-.08s.07.08.15.08,0,.22.07.22-.15.08-.3.08a.79.79,0,0,0-.15.59,7.89,7.89,0,0,0,1.65-2.16c.07,0,.07.07.14.07.6-1.41,1.94-2.46,2.47-3.73h.22a3.57,3.57,0,0,1,.9-1c.52-1.26,1.86-1.71,2.53-2.76,1.27-.74,2.47-1.94,3.88-2.24.23.08.15-.15.3-.15,1.57-.67,3.21-.07,4.7.6.53.75,1.57,1,1.65,2.09.22.08.29.23.44.37a22.87,22.87,0,0,1-.37,5.68h-.22a11.66,11.66,0,0,1-.45,3.95c.22.37-.23,1.05-.15,1.72,0,.07,0,.15-.15.15-.22,1.94-.22,4.1-.45,6,.3,1.41.15,3.28,1.2,4,.44.08.44,0,.82.08,1.71-.53,2.38-2,3.65-3,0-.45.38-.52.45-.89a8.67,8.67,0,0,0,2.39-3.21c1.19-1,1.57-2.69,2.61-3.81.15-.82.82-1.27,1-2.16.23.29-.15.89,0,1.26A90.2,90.2,0,0,1,296,51.28c.15.45-.22.45-.15.9-.15,0-.15-.08-.3-.08-.29,1.94-1.79,2.61-2.76,4.11h-.37c-.07.15-.07.37-.15.52a3.94,3.94,0,0,1-3.06.67c-.07,0-.15,0-.15.15A4.62,4.62,0,0,1,285,53.3a3,3,0,0,1-.23-2c-.07-.22-.22.15-.29-.07s.07-.23.29-.23c-.14-.22-.07-.74-.29-.89.07-1.94-.23-3.58.44-5.38-.29-1.79,1.27-4.77.9-6.94.07-.67.67-2.76-.22-3.58.07-.37-.3-.82-.6-1a6.68,6.68,0,0,0-3.06,1.34c-.6.37-1.12.6-1.42,1.2-.6.07-.67.74-1,1-.08,0-.08-.07-.08-.15s0-.07,0,0h-.3c-.07-.22.08-.3.15-.45-.59.15-1.27.6-1,1.12-.23,0-.45-.07-.45.15s.22.23.37.15a.49.49,0,0,1-.59.22c-.08.3,0,.23-.08.45-.6-.3-.82.67-.45.75-.3.22-.3.74-.74.82.07.3.15.52-.08.67-.67.15-.74,1.57-1.42,1.72-.67,1.19-1.11,2.24-1.86,3.36a1.61,1.61,0,0,0,.15.59c-.23.23-.08.82-.37,1a1.31,1.31,0,0,1-.6,1.2,20.93,20.93,0,0,1-1.27,4.18c0,1-.6,1.64-.67,2.46-.08,0-.08.07,0,.07a14.71,14.71,0,0,0-.38,1.87.26.26,0,0,1-.22-.08c.15.45-.22.6.15.9-.45.37-.07,1.12-.52,1.49,0,.15.07.15.15.23-.08,1.19-.6,2.16-.3,3.58-.37.67.52,1.56-.6,1.94-.07-.08-.22-.08-.3-.23-.22.08-.07.3-.15.68a2.9,2.9,0,0,1-1.12,0c-.07.22.15.22,0,.37-1-.08-1.71.3-2.76.15,0-.08.08-.15,0-.23s-.07.23-.22.15v-.07h.07c0-.08-.07-.08-.07,0s-.07.15-.15.22-.3-.45-.45-.07c-.07,0-.07-.08-.07-.15s.07-.08.07-.15-.44-.08-.52,0,.08.15.22.15c0,.3-.37-.08-.52.15.08-.23,0-.6-.37-.52.07-.15.07-.68-.15-.75a22.6,22.6,0,0,0,.52-3.14c-.07-.22.15-.14.23-.22-.6-.75.67-1.57,0-2.24.37-.82,0-1.56.52-2.16-.3-.3.07-.6,0-1.12.15.07.3-.08.45.15a.34.34,0,0,1-.15.45c.44,0,.37-.6.22-.9.45.07.3-.75.15-.9a15.08,15.08,0,0,0,.6-2.31c-.23-.15-.23-.22-.23-.45.08,0,.08,0,.08-.07s-.08,0-.08.07H264c.22.15.15.68-.15.82,0-.07-.07-.07-.07,0-.15-.22.14-.29-.08-.52.08,0,.15.08.22,0-.07-.37.15-1,0-1.19.08-.37.45-.37.38-.82-.08-.23-.15.22-.3,0,.15-.45.6-.82.52-1.12-.07-.08-.07,0,0,0s-.15.07-.22,0c.22-.23.67-.23.74-.67-.22-.23-.29.37-.59.3.3-.38,0-.9.52-1,0-.15,0-.3-.15-.3a.34.34,0,0,1,.37-.23c-.3-.07.08-.37-.3-.45.68-.52.3-1,.83-1.79-.23-.22-.15.23-.38.15a11.91,11.91,0,0,0,.3-1.49c0-.15-.22,0-.15.15-.22-.22.08-.52,0-.9.23-.07.3-.29.52-.37.08.15.08,0,0,0s.23-.82-.15-.67c0-.08,0-.08-.07-.08.07-.37.37-.52.37-1,.3-.37.23-.67.45-1.12,0,.08.08.15.22.15s.15-.37.15-.67c-.22,0-.22.37-.29.52h-.08c0-.07-.15-.15-.15-.22s0-.08,0,0-.07.22-.15.22-.07-.22-.07-.45h.22c-.07-.44-.15-1,.37-1.12-.07-.15.15-.52-.14-.44.22-.53,0-.82.22-1.12.15,0,.07-.23.22-.23,0-.07-.15-.07-.22-.07a1.05,1.05,0,0,0,.45-1c-.15,0-.15.07-.15.22-.15-.52.37-1.12.52-1.64.07-.3-.15-.3-.15-.52.45-1.72,1-3.88,1.27-5.6,0-.22-.22-.22-.37-.37.07-.23.22-.45.07-.75.45-.22.75-.6,1.19-.82a1,1,0,0,0,1.27-.15c.45.15.9.45,1.12,0a.45.45,0,0,1,.45.23c1,0,2.24.52,2.46,1.26a39.37,39.37,0,0,1-1.19,4.41ZM263.16,65.76h-.23C262.93,65.68,263.16,65.68,263.16,65.76Zm-.08-9.11c.08,0,.15,0,.15-.07S263.08,56.58,263.08,56.65Zm.6-1.56a.47.47,0,0,0-.37.44c-.3-.37.3-.37.15-.82C263.68,54.71,263.68,54.86,263.68,55.09Zm-.15,10.44c.15.15.23-.22.08-.22s0,.08-.08.08Zm.3-12.91c0,.15.07.38-.15.3,0-.15.08-.15.08-.3Zm.45-1.64c-.08.23-.15.38-.23.6a.62.62,0,0,1,.38.07,3.22,3.22,0,0,0,.22-.89c-.22,0-.22.22-.37.22S264.2,51,264.28,51Zm.15-.22c.15-.15.07-.52.37-.52-.15-.53.07-.45.15-.9-.15,0-.15.15-.37.08C264.43,49.94,264.2,50.24,264.43,50.76Zm.07-.67c.15,0,.23-.08.23-.15C264.58,49.94,264.5,50,264.5,50.09Zm1.12-8.21c0-.08.08-.15.22-.15C265.84,41.88,265.77,41.88,265.62,41.88Zm.3,1.19c-.3,0-.22.3-.08.38C265.77,43.22,265.92,43.22,265.92,43.07Zm0-2.39v-.29c.22-.08.15.15.22.22S266.07,40.68,265.92,40.68Zm.45,1a.27.27,0,0,1-.23-.08c0,.08-.07.15-.07.3C266.29,42,266.37,42,266.37,41.73Zm-.23-1.49c-.15-.15,0-.53.08-.75h.07C266.37,39.86,266.14,39.94,266.14,40.24Zm.67-.08c-.07,0-.07-.15-.14-.15s-.08.08-.15.08C266.44,40.31,266.81,40.39,266.81,40.16Zm-.22-1.56c.22-.08.15.14.15.29.22,0,.3,0,.3-.22-.3,0,0-.07-.15-.22s-.22.07-.3.07-.07,0,0,0Zm.82-2.17c-.07.15-.22.23-.15.45C267.49,37,267.56,36.51,267.41,36.43Zm.52,27.84h-.15c0,.07-.07.07-.07.15C267.86,64.42,267.93,64.42,267.93,64.27Zm.3.22c-.07-.07-.07,0,0,0C268.16,64.86,268.46,64.56,268.23,64.49Zm1.87-9.55c.07,0,.07.07,0,.07Zm1.49-15.45c0-.15,0-.37-.15-.37-.15.15,0,.3.15.37S271.67,39.49,271.59,39.49Zm4.55,1v-.08C276.07,40.46,276.07,40.54,276.14,40.54Zm2.47-2.77c-.23-.14.14-.29.14-.52C279,37.4,278.68,37.63,278.61,37.77Zm.22-.67c0-.07.15-.07.15-.15C279.2,37,278.9,37.25,278.83,37.1ZM282,34.27c.3.07,0-.23,0,0C281.81,34.34,282,34.34,282,34.27Z"/></g></g></svg>