<?xml version="1.0" encoding="utf-8"?>
<!-- Generator: Adobe Illustrator 22.0.1, SVG Export Plug-In . SVG Version: 6.00 Build 0)  -->
<svg version="1.1" id="Layer_1" xmlns="http://www.w3.org/2000/svg" xmlns:xlink="http://www.w3.org/1999/xlink" x="0px" y="0px"
	 viewBox="0 0 100 100" style="enable-background:new 0 0 100 100;" xml:space="preserve">
<style type="text/css">
	.st0{fill:#E4A85A;}
</style>
<g>
	<path class="st0" d="M24.1,24.8v3.1c0,0.8,0.4,1.6,1.1,2.2c0.5,0.4,1,0.6,1.5,0.6c0.3,0,0.5,0,0.9-0.1l2-0.7
		c0.7-0.2,1.3-0.8,1.5-1.4c0.3-0.6,0.3-1.3,0-2.1l-2.4-5.1c-0.6-1.1-1.9-1.8-3.1-1.4l-0.1,0.1c-0.6,0.2-1.2,0.6-1.6,1.2
		c-0.4,0.6-0.5,1.3-0.3,2L24.1,24.8z M26.7,28C26.7,27.9,26.6,27.9,26.7,28l0-3.1c0-0.2,0-0.4-0.1-0.8l-0.5-1.9c0-0.1,0-0.1,0-0.1
		c0,0,0,0,0,0l0.3-0.1c0,0,0.1,0,0.1,0l2.4,5.2l0,0c0,0,0,0.1,0,0.1l-2,0.7V28H26.7z"/>
	<path class="st0" d="M16.9,31.1l0.8,0.5c0.3,0.2,0.8,0.3,1.2,0.3c0.4,0,0.9-0.1,1.1-0.2l2.5-1.2c1-0.6,1.5-1.7,1.3-2.8
		c-0.2-0.9-1-1.7-1.9-1.8l-1.1-0.2c-0.9-0.2-1.9,0.2-2.5,1l-1.8,2.6c-0.3,0.3-0.3,0.6-0.3,1C16.4,30.6,16.5,30.9,16.9,31.1z
		 M19.7,29l0.6-0.9l0.8,0.1L19.7,29z"/>
	<path class="st0" d="M66.8,37.8l-2.9-1.7l0.6-1.6c0.2-0.8-0.1-1.1-0.3-1.2c-0.4-0.4-0.8-0.5-1.2-0.4l-3.2,0.9l-1.1,0.2L57,33.5
		c-0.5-0.1-1,0-1.4,0.5L52.8,38c-0.3,0.3-0.3,0.6-0.3,1l0,0.1c0.1,0.3,0.2,0.6,0.6,0.7l2.9,1.6c0.3,0.1,0.7,0.2,1.1,0l2.4-1l4.4,1.2
		l0.4,0c0.3,0,0.5-0.1,0.8-0.3l1.9-1.5c0.5-0.3,0.5-0.8,0.5-1.1C67.5,38.3,67.1,37.9,66.8,37.8z M61.6,37.6l2.2,1.3l-4.1-1h-0.3
		c-0.1,0-0.4,0-0.5,0.1l-2.2,0.9l-1.1-0.6l1.5-2.2l1.2,0.3l0.4,0l1.5-0.2l1-0.3l-0.1,0.2C60.8,36.7,61.1,37.4,61.6,37.6z"/>
	<path class="st0" d="M80.8,12.5c-3.2,0-5.8,2.6-5.8,5.8c0,1.5,0.5,2.9,1.6,4c1.1,1.2,2.7,1.8,4.2,1.8c1.5,0,3-0.6,4.2-1.7
		c1.2-1.2,1.8-2.7,1.7-4.2C86.7,15.1,84,12.5,80.8,12.5z M84.2,18.2c0,0.9-0.4,1.8-1,2.4s-1.5,1-2.4,1c-1.8,0-3.4-1.5-3.4-3.4
		c0-1.9,1.5-3.4,3.5-3.4C82.6,14.9,84.2,16.4,84.2,18.2z"/>
	<path class="st0" d="M95.1,46.7c0-0.2,0-0.3,0-0.5c0-0.3,0-0.5-0.1-0.8c0-0.2,0-0.4,0-0.6c0-0.4-0.1-0.8-0.2-1.2l0-0.2
		c0-0.2-0.1-0.4-0.1-0.5c0-0.2-0.1-0.4-0.1-0.6l-0.3-1.5c0-0.1-0.1-0.2-0.1-0.4c0-0.2-0.1-0.3-0.1-0.4c-0.1-0.3-0.1-0.6-0.2-0.8
		c-0.1-0.3-0.1-0.5-0.2-0.8l0-0.1c0-0.1-0.1-0.2-0.1-0.2c0-0.1-0.1-0.2-0.1-0.3c-0.1-0.3-0.2-0.6-0.2-0.9c-0.1-0.3-0.1-0.6-0.2-0.9
		c0-0.1,0-0.2-0.1-0.2c0,0,0-0.1,0-0.1l0-0.1c-0.1-0.4-0.2-0.7-0.4-1c-0.1-0.3-0.2-0.6-0.3-1c-0.5-1.3-1.1-2.5-1.6-3.8l2.3-3.4
		c0.5-0.8,0.9-1.6,1.3-2.4l0-0.2c0.7-1.7,1.1-3.7,1.1-5.4c0-8-6.5-14.5-14.5-14.5c-4.1,0-8.1,1.8-11,4.9C63.5,5.5,56.3,3.8,49,3.8
		C23.5,3.8,2.8,24.5,2.8,50c0,22.6,16.2,41.8,38.5,45.5l0.1,0c0.7,0.1,1.2,0.2,1.6,0.2c0.2,0,0.2,0,0.4,0.1l0.1,0
		c0.3,0.1,0.5,0.1,0.8,0.1c0.2,0,0.5,0,0.8,0.1c0.3,0,0.6,0,0.8,0.1l0.1,0c0.2,0,0.4,0,0.5,0c0.5,0.1,1.1,0.1,1.6,0.1
		c0.4,0,0.7,0.1,1.1,0.1c0.7,0,1.4,0,2.1-0.1h0.7c0.3,0,0.5,0,0.8-0.1c0.2,0,0.5,0,0.7,0c0.2,0,0.5,0,0.8-0.1c0.2,0,0.5-0.1,0.7-0.1
		c0.3,0,0.5-0.1,0.7-0.1c0.2,0,0.4,0,0.7-0.1c0.7-0.1,1.4-0.2,2.1-0.4c0.1,0,0.1,0,0.2-0.1c0.1,0,0.1,0,0.2,0
		c0.6-0.1,1.1-0.2,1.8-0.4c0.1,0,0.2-0.1,0.2-0.1c0.1,0,0.2-0.1,0.3-0.1c0.3-0.1,0.6-0.2,0.9-0.2c0.2-0.1,0.4-0.1,0.6-0.2
		c0.1,0,0.2-0.1,0.2-0.1c0.1,0,0.2-0.1,0.4-0.1c0.1,0,0.2-0.1,0.2-0.1c0.1,0,0.1,0,0.2-0.1c0.1,0,0.2,0,0.3-0.1
		c14.4-4.9,25.5-16.4,29.7-30.8l0-0.1c0-0.1,0.1-0.2,0.1-0.3c0.1-0.3,0.2-0.6,0.3-1c0.2-0.6,0.3-1.2,0.4-1.7L94,59.7l0.2,0
		c0.1-0.4,0.2-0.8,0.2-1.2c0-0.1,0-0.2,0-0.4c0-0.1,0.1-0.3,0-0.4c0.1-0.2,0.1-0.4,0.1-0.6c0-0.2,0-0.3,0.1-0.6
		c0.1-0.6,0.2-1.2,0.2-1.7c0-0.2,0-0.4,0.1-0.6l0-0.1c0-0.2,0-0.5,0-0.7c0-0.3,0.1-0.5,0.1-0.8V52c0-0.3,0-0.7,0-1
		c0-0.4,0.1-0.7,0.1-1.1c0-0.9,0-1.7-0.1-2.6C95.2,47.1,95.1,46.9,95.1,46.7z M92.5,54.9c-0.1,0.7-0.2,1.4-0.3,2.2l0,0.1
		c0,0.3-0.1,0.7-0.2,1.1c-0.1,0.3-0.1,0.6-0.2,0.9c-0.1,0-0.2,0-0.3,0.1L91,59.5c0,0-0.1,0-0.1,0l-2.8-3.6c-0.6-0.7-1.5-1.1-2.3-1
		l-2.5,0.3L75.7,53l0,0c0,0-0.1-0.1-0.1-0.1l-1.3-1.7c-0.5-0.8-1.6-1.1-2.6-0.9l-0.9,0.2c-0.4,0.1-0.7,0.4-0.9,0.8
		c-0.1,0.4-0.1,0.7,0,1.1l2.8,5.1c0.4,0.9,1.5,1.4,2.4,1.3l1-0.1l2.7,1l0.1,0.1v0.1l-2,3l-0.1,0.1l-7.9,3.7c0,0,0,0-0.1,0l-7.1-12.8
		c-0.6-1-1.7-1.5-2.7-1.1c-0.5,0.2-1,0.6-1.3,1.2c-0.3,0.5-0.3,1.1,0,1.8l6,13.1c0.1,0.2,0.3,0.5,0.5,0.8l1.9,1.9
		c0.6,0.6,1.5,0.9,2.4,0.7l3.5-0.7c0.1,0,0.1,0,0.2,0v0.2l-3.6,6.9l-5.6,7c-0.5,0.6-0.7,1.3-0.6,1.9l0.4,3.9c0,0,0,0,0,0.1
		c-0.1,0-0.1,0-0.2,0.1c0,0-0.1,0-0.2,0c-0.2,0.1-0.4,0.1-0.7,0.2c-0.2,0.1-0.4,0.1-0.7,0.2l-0.9,0.3c-0.3,0.1-0.5,0.1-0.8,0.2
		c-0.3,0.1-0.5,0.1-0.8,0.2l-0.2,0.1c-0.3,0.1-0.5,0.1-0.9,0.1l-1.8,0.3c-0.2,0-0.4,0.1-0.6,0.1c-0.2,0-0.4,0.1-0.6,0.1
		c-0.2,0-0.4,0-0.6,0.1c-0.4,0.1-0.8,0.1-1.2,0.1s-0.8,0-1.2,0.1c-0.2,0-0.4,0-0.6,0h-3.5c-0.3,0-0.6,0-0.9,0
		c-0.3,0-0.6-0.1-0.9-0.1l-0.5,0l-2.2-0.3l0-0.2l-1.7-6.8c-0.1-0.2-0.1-0.3-0.2-0.4c0-0.1-0.1-0.2-0.1-0.4l-1.7-2.3
		c0-0.1,0-0.2-0.1-0.2l0.5-3.2c0.1-1-0.3-2-1.1-2.5l-3.2-2.1c-0.4-0.3-1.1-0.6-1.9-0.4l-9,1.6c-0.1,0-0.1,0-0.1,0l-7-7.6
		c-0.5-0.6-0.8-1.5-0.8-2.3l0.4-4.3c0.1-0.3,0.2-0.7,0.3-1c0.1-0.3,0.2-0.6,0.3-1l6.3-10.3l0.2-0.2c0.4-0.3,0.7-0.6,1-0.9l7.6-2.7
		l5.4-0.3c0,0,0.1,0,0.1,0c0,0,0,0,0,0.1v0.9c0,1,0.6,1.9,1.4,2.3l5.2,2.7c0.6,0.3,1.3,0.4,1.9,0.2c0.7-0.2,1.2-0.6,1.5-1.2l0.6-1
		c0,0,0.1,0,0.1-0.1l4.7,1.8c0.3,0.1,0.7,0.2,1.1,0.1l3.8-0.2c1.1-0.1,2.1-0.9,2.3-1.9l0.7-2.5c0.2-0.8,0.1-1.6-0.4-2.2
		c-0.5-0.7-1.1-1-1.9-1.1l-3.5-0.3c0,0-0.1-0.1-0.1-0.1l-1.6-2.4c-0.4-0.6-1-1-1.7-1.1l-0.6-0.2c-0.9-0.1-1.6,0.2-2,0.8
		c-0.3,0.3-0.4,0.6-0.5,1l-1.1-2.3c-0.1-0.4-0.4-0.7-0.7-0.9l-3.6-3c-0.6-0.5-1.3-0.7-1.9-0.6h-1.2c-0.4,0-0.8,0.2-1,0.6
		c-0.3,0.4-0.3,0.9,0,1.2l0.6,1.2l-0.9-1.1c-0.7-0.8-1.9-1.1-2.9-0.8l-3,1.1c-0.3,0.1-0.7,0.3-0.9,0.6l-4.7,4.6
		c-0.1,0-0.1,0.1-0.2,0.1l-2.6,0.9H25l-1.7-0.6c-0.1,0-0.1-0.1-0.1-0.1l0.4-3.7c0,0,0.1,0,0.1-0.1l4.3-0.3c1.3-0.1,2.3-1.1,2.4-2.4
		l0-0.1c0.1-0.9-0.3-2.1-1-2.5l-0.1,0h-0.1c0,0,0,0,0,0c0,0,0,0,0-0.1c0,0,0,0,0.1,0l2.4-1c0,0,0.1,0,0.1-0.1
		c0.2-0.1,0.4-0.2,0.6-0.4l3.2-3c0.1,0,0.1-0.1,0.1-0.1l7.9-0.7c0.1,0,0.3,0,0.4-0.1L48,27c0.4-0.1,0.8-0.2,1.1-0.6l2.9-2.4
		c0.1,0,0.1-0.1,0.2-0.1l3.7-1.1c0.4-0.1,0.6-0.4,0.8-0.7l0-0.1c0.1-0.4,0.1-0.8-0.1-1.1L56,20.3c-0.6-0.8-1.5-1.2-2.4-1.1l-3.7,0.4
		l0-0.1l2-2.1c0.6-0.6,0.8-1.5,0.6-2.1c-0.2-0.7-0.8-1.3-1.7-1.6l-0.3-0.1c-0.8-0.1-1.5,0.1-2,0.6l-3.6,3.3
		c-0.6,0.6-0.9,1.3-0.9,2.1l0.1,1.9l-1,1.1c-0.1,0-0.1,0.1-0.1,0.1l-1.1,0.3c-0.2,0-0.2,0-0.2,0l-1-1.3c-0.8-1-2.3-1.3-3.3-0.7
		l-0.8,0.4l-0.1,0l-0.1,0l-0.5-0.4l0-1.3c0,0,0,0,0-0.1l5.3-2.7c0.1-0.1,0.2-0.1,0.3-0.2c0.1,0,0.1-0.1,0.2-0.1l4.3-3.8
		c0.1,0,0.1-0.1,0.1-0.1l7.2-1.6h0.2l13.2,4.2v0.3c0,0.2-0.1,0.3-0.1,0.5c0,0.2,0,0.3-0.1,0.5l0,0.5c0,0.2,0,0.4,0,0.6
		c0,0.2-0.1,0.5-0.1,0.7c0,1.8,0.4,3.7,1.1,5.5c0.2,0.6,0.5,1.1,0.9,1.7c0.1,0.2,0.2,0.4,0.3,0.5c0,0.1,0.1,0.1,0.1,0.2
		c0.1,0.2,0.3,0.5,0.5,0.8c0.2,0.3,0.4,0.5,0.6,0.9l0.3,0.5l0,0c0.1,0.1,0.2,0.2,0.3,0.4l3.6,5.5l4.5,6.8l1.1,1.7
		c0.2,0.3,0.6,0.5,1,0.5c0.5,0,0.8-0.3,1-0.5l7-10.5c0,0,0,0,0,0l0.1,0c0,0,0,0,0,0.1c1.6,3.5,2.7,7.2,3.2,10.8l0.3,2.3
		c0,0.2,0,0.5,0.1,0.8c0,0.2,0,0.5,0,0.7c0,0.3,0.1,0.5,0.1,0.9c0,0.4,0,0.8,0.1,1.2c0,0.4,0,0.7,0,1.1c0,0.8,0,1.6-0.1,2.3l0,0.3
		c0,0.7-0.1,1.4-0.2,2.1L92.5,54.9z M64.9,87.2l5.6-7c0.1-0.1,0.2-0.2,0.3-0.5l3.7-6.9c0.3-0.5,0.3-1,0.2-1.3l0-0.3
		c-0.1-0.5-0.4-1.3-1.1-1.8c-0.5-0.4-1.3-0.6-2-0.4l-3.4,0.8c-0.1,0-0.1,0-0.1,0L66,67.9c0-0.1-0.1-0.1-0.1-0.2l-3.1-6.6l3.7,6.6
		c0.7,1.2,2.1,1.7,3.3,1.1l7.9-3.7c0.5-0.2,0.8-0.5,1-0.9l2.1-3c0.4-0.7,0.6-1.4,0.3-2.2c-0.2-0.7-0.7-1.3-1.6-1.7l-2.7-1
		c-0.3-0.1-0.7-0.2-1-0.1l-1,0.1c0,0,0,0-0.1,0l-0.6-1.1c0.2,0.1,0.4,0.2,0.6,0.2l7.6,2.2c0.3,0.1,0.7,0.1,1,0.1l2.5-0.3
		c0.1,0,0.1,0,0.1,0l2.8,3.6c0.5,0.6,1.1,0.9,1.9,1l0.1,0.5c-3.6,12.6-13.2,23.1-25.5,28.1l-0.4-3.3C64.8,87.2,64.9,87.2,64.9,87.2z
		 M49,6.2c6.7,0,13.4,1.6,19.4,4.6c0,0,0,0,0,0c0,0,0,0.1-0.1,0.2c0,0.1-0.1,0.1-0.1,0.2c-0.1,0.1-0.2,0.3-0.3,0.5
		c-0.1,0.2-0.2,0.4-0.3,0.5c0,0.1-0.1,0.1-0.1,0.2c-0.1,0.1-0.1,0.2-0.1,0.3c0,0,0,0.1,0,0.1l-0.1,0.1L54.2,8.7
		c-0.4-0.1-0.9-0.1-1.3-0.1l-7.3,1.6c-0.4,0.1-0.8,0.3-1.1,0.6l-4.3,3.8l-5.3,2.7c-0.9,0.4-1.4,1.4-1.4,2.4v1.3
		c0,0.7,0.4,1.5,0.9,1.9l0.5,0.4c0.8,0.8,2,0.9,3,0.3l0.8-0.4c0,0,0.1,0,0.1,0l1,1.3c0.7,0.9,1.8,1.2,2.8,0.9l1.2-0.3
		c0.5-0.1,0.9-0.4,1.3-0.8l1-1.1c0.5-0.6,0.7-1.3,0.6-1.9l-0.1-1.9c0-0.1,0-0.1,0-0.1l1.1-1c-0.3,0.5-0.4,1.1-0.2,1.6l0.1,0.6
		c0.2,1.1,1.2,1.8,2.4,1.7l0.8-0.1c-0.1,0.1-0.2,0.2-0.3,0.3l-2.8,2.3c-0.1,0-0.1,0.1-0.2,0.1l-3.6,0.9l-8,0.7c-0.5,0-1,0.2-1.6,0.7
		l-3.3,3c-0.1,0-0.1,0.1-0.2,0.1l-2.3,1c-0.8,0.3-1.4,1.1-1.6,2.1c-0.1,0.9,0.3,1.9,1.1,2.4c0,0,0,0,0,0l0,0.4l-4.4,0.3
		c-1.2,0.1-2.2,1-2.4,2.3l-0.4,3.6c-0.1,1.2,0.6,2.3,1.8,2.8l1.8,0.6c0.4,0.2,0.8,0.2,1.2,0.1l-1.9,0.7c-0.8,0.2-1.4,0.8-1.7,1.4
		l-6.7,11.2c-0.4,0.6-0.6,1.3-0.7,2.2l-0.4,5.4c-0.1,1,0.3,2.2,1.1,3.1l7.4,8.1c0.6,0.7,1.5,1,2.3,0.8l8.9-1.6l3.2,2.1
		c0,0,0.1,0.1,0.1,0.1l-0.4,3.4c-0.1,0.7,0,1.4,0.4,1.9l1.6,2.3l1.5,6C20,88.7,5.2,70.7,5.2,50C5.2,25.9,24.9,6.2,49,6.2z
		 M29.7,44.1l4.7-4.5l0.1-0.1l2.9-1.1c0.1,0,0.2,0,0.2,0l3.1,3.7c0.7,0.8,1.7,1.1,2.7,0.8l0.8-0.2c0.4-0.1,0.7-0.4,0.8-0.7l0-0.1
		c0.1-0.4,0.1-0.7,0-1.1l-1.4-2.5l2.3,1.9l0.1,0.1l1.8,3.8c0.4,0.7,0.9,1.1,1.7,1.2c0.8,0.1,1.5-0.1,2-0.8c0.5-0.5,0.7-1.4,0.5-2.2
		l1.6,2.5c0.4,0.6,1.2,1.1,2,1.2l3.6,0.2c0,0,0.1,0,0.1,0c0,0,0,0.1,0,0.1l-0.8,2.5l0,0c0,0-0.1,0-0.1,0.1c0,0,0,0-0.1,0.1l-3.7,0.2
		l-4.6-1.8c-1.2-0.5-2.6,0-3.1,1.1l-0.6,1c0,0-0.1,0-0.1,0l-5.3-2.8c0,0-0.1-0.1-0.1-0.1v-0.9c0-0.8-0.3-1.5-0.8-1.9
		c-0.5-0.5-1.2-0.8-2-0.8c0,0,0,0,0,0l-5.4,0.3c-0.1,0-0.2,0-0.3,0c-0.1,0-0.2,0.1-0.4,0.1l-2.7,1C29.3,44.4,29.5,44.2,29.7,44.1z
		 M91.9,22.7l0,0.1c-0.3,0.8-0.7,1.5-1.1,2l-4,6l-6,8.8l0,0.1v0c0,0,0,0,0-0.1c-1.4-2.2-4.1-6.3-6.5-9.7c-1.7-2.6-3.3-5-3.4-5.1
		c-0.4-0.7-0.8-1.3-1.1-2c0-0.1,0-0.2-0.1-0.2l0-0.1c-0.5-1.5-0.8-2.9-0.8-4.3c0-0.4,0-0.8,0.1-1l0-0.5c0-0.1,0-0.2,0-0.4
		c0-0.1,0.1-0.3,0.1-0.4c0-0.1,0-0.1,0.1-0.3c0.1-0.1,0.1-0.3,0.1-0.4c0-0.1,0-0.2,0.1-0.3l0-0.1c0,0,0-0.1,0-0.1
		c0-0.1,0-0.1,0.1-0.2c0.1-0.2,0.2-0.4,0.2-0.7c0-0.1,0.1-0.2,0.1-0.3c0.1-0.2,0.2-0.4,0.3-0.7l0-0.1v0c0,0,0.1-0.1,0.1-0.2
		c0-0.1,0.1-0.1,0.1-0.2c0.1-0.1,0.2-0.3,0.3-0.5l0.1-0.2c0-0.1,0.1-0.2,0.2-0.3c0.1-0.1,0.2-0.2,0.3-0.3C73.4,8,77,6.2,80.8,6.2
		c6.6,0,12,5.4,12,12C92.8,19.7,92.5,21.2,91.9,22.7z"/>
</g>
</svg>
