<svg xmlns="http://www.w3.org/2000/svg" xmlns:xlink="http://www.w3.org/1999/xlink" viewBox="0 0 1806.71 492.24"><defs><style>.cls-1{fill:#fff;}.cls-2{mask:url(#mask);filter:url(#luminosity-noclip);}.cls-3,.cls-4{fill:none;}.cls-3{stroke:#231f20;stroke-width:1.5px;}.cls-5{mask:url(#mask-2);}.cls-6{mask:url(#mask-3);}</style><mask id="mask" x="-1.2" y="-0.14" width="1807.11" height="492.52" maskUnits="userSpaceOnUse"><path class="cls-1" d="M264,210.06v22H300.1v33.15H264V313.7H223.65v-137h86.57v33.36Z"/><path class="cls-1" d="M325.7,313.7v-137h52.42c35.34,0,55.59,15.68,55.59,45.07,0,18.47-8.34,31.57-23.82,39.51l33.55,52.42H396.58l-24.42-42.49H366V313.7Zm48.05-107.42h-8.14V243H374c13.1,0,20.25-6.76,20.25-18.87C394.2,212.64,386.86,206.28,373.75,206.28Z"/><path class="cls-1" d="M452.77,313.7v-137h90.34v32H492.48v19.65h40.9v31.57h-40.9v21.84h52.41v32Z"/><path class="cls-1" d="M561.76,313.7v-137h90.35v32H601.47v19.65h40.91v31.57H601.47v21.84h52.42v32Z"/><path class="cls-1" d="M782.15,210.45V313.7H741.44V210.45H704.71V176.7H818.88v33.75Z"/><path class="cls-1" d="M912.39,313.7V261.48H874.46V313.7h-40.7v-137h40.7v49.64h37.93V176.7h40.7v137Z"/><path class="cls-1" d="M974.52,313.7v-137h90.34v32h-50.63v19.65h40.91v31.57h-40.91v21.84h52.42v32Z"/><path class="cls-1" d="M1200.67,313.7l-5-83.59-18.46,83.59h-39.51l-18.67-83.59-4.76,83.59h-35l9.73-137h52.62l19.85,86.57,19.86-86.57h51.22l9.73,137Z"/><path class="cls-1" d="M1338.85,316.28a110.24,110.24,0,0,1-43.49-8.74l5.16-32c11.32,4.76,24.43,8.73,37.73,8.73,11.91,0,20.45-5.56,20.45-14.89,0-8.93-6.35-13.7-17.08-13.7A44.16,44.16,0,0,0,1324,259.3l-23.62-5.17,4.56-74.65h85.18v31.57h-55.79l-1,17.07a80.24,80.24,0,0,1,17.87-1.78c25.42,0,44.08,13.5,44.08,41.3C1395.23,299.4,1372.2,316.28,1338.85,316.28Z"/><path class="cls-1" d="M1490.53,313.7l-37.13-61.35V313.7h-40.7v-137h40.7v57.38l36.14-57.38h45.66l-44.47,63.73,48,73.27Z"/></mask><mask id="mask-2" x="0" y="0" width="1806.71" height="492.24" maskUnits="userSpaceOnUse"><path class="cls-1" d="M264,210.06v22H300.1v33.15H264V313.7H223.65v-137h86.57v33.36Z"/><path class="cls-1" d="M325.7,313.7v-137h52.42c35.34,0,55.59,15.68,55.59,45.07,0,18.47-8.34,31.57-23.82,39.51l33.55,52.42H396.58l-24.42-42.49H366V313.7Zm48.05-107.42h-8.14V243H374c13.1,0,20.25-6.76,20.25-18.87C394.2,212.64,386.86,206.28,373.75,206.28Z"/><path class="cls-1" d="M452.77,313.7v-137h90.34v32H492.48v19.65h40.9v31.57h-40.9v21.84h52.41v32Z"/><path class="cls-1" d="M561.76,313.7v-137h90.35v32H601.47v19.65h40.91v31.57H601.47v21.84h52.42v32Z"/><path class="cls-1" d="M782.15,210.45V313.7H741.44V210.45H704.71V176.7H818.88v33.75Z"/><path class="cls-1" d="M912.39,313.7V261.48H874.46V313.7h-40.7v-137h40.7v49.64h37.93V176.7h40.7v137Z"/><path class="cls-1" d="M974.52,313.7v-137h90.34v32h-50.63v19.65h40.91v31.57h-40.91v21.84h52.42v32Z"/><path class="cls-1" d="M1200.67,313.7l-5-83.59-18.46,83.59h-39.51l-18.67-83.59-4.76,83.59h-35l9.73-137h52.62l19.85,86.57,19.86-86.57h51.22l9.73,137Z"/><path class="cls-1" d="M1338.85,316.28a110.24,110.24,0,0,1-43.49-8.74l5.16-32c11.32,4.76,24.43,8.73,37.73,8.73,11.91,0,20.45-5.56,20.45-14.89,0-8.93-6.35-13.7-17.08-13.7A44.16,44.16,0,0,0,1324,259.3l-23.62-5.17,4.56-74.65h85.18v31.57h-55.79l-1,17.07a80.24,80.24,0,0,1,17.87-1.78c25.42,0,44.08,13.5,44.08,41.3C1395.23,299.4,1372.2,316.28,1338.85,316.28Z"/><path class="cls-1" d="M1490.53,313.7l-37.13-61.35V313.7h-40.7v-137h40.7v57.38l36.14-57.38h45.66l-44.47,63.73,48,73.27Z"/></mask><filter id="luminosity-noclip" x="-1.2" y="-0.14" width="1807.11" height="492.52" filterUnits="userSpaceOnUse" color-interpolation-filters="sRGB"><feFlood flood-color="#fff" result="bg"/><feBlend in="SourceGraphic" in2="bg"/></filter><mask id="mask-3" x="-1.2" y="-0.14" width="1807.11" height="492.52" maskUnits="userSpaceOnUse"><g class="cls-2"><line class="cls-3" x1="1805.29" y1="0.28" x2="1537.77" y2="391.72"/><line class="cls-3" x1="1792.03" y1="1.15" x2="1524.51" y2="392.58"/><line class="cls-3" x1="1778.77" y1="2.01" x2="1511.25" y2="393.44"/><line class="cls-3" x1="1765.51" y1="2.88" x2="1497.99" y2="394.31"/><line class="cls-3" x1="1752.24" y1="3.74" x2="1484.73" y2="395.17"/><line class="cls-3" x1="1738.98" y1="4.6" x2="1471.47" y2="396.04"/><line class="cls-3" x1="1725.72" y1="5.47" x2="1458.2" y2="396.9"/><line class="cls-3" x1="1712.46" y1="6.33" x2="1444.94" y2="397.76"/><line class="cls-3" x1="1699.2" y1="7.2" x2="1431.68" y2="398.63"/><line class="cls-3" x1="1685.94" y1="8.06" x2="1418.42" y2="399.49"/><line class="cls-3" x1="1672.67" y1="8.93" x2="1405.16" y2="400.36"/><line class="cls-3" x1="1659.41" y1="9.79" x2="1391.9" y2="401.22"/><line class="cls-3" x1="1646.15" y1="10.65" x2="1378.63" y2="402.09"/><line class="cls-3" x1="1632.89" y1="11.52" x2="1365.37" y2="402.95"/><line class="cls-3" x1="1619.63" y1="12.38" x2="1352.11" y2="403.81"/><line class="cls-3" x1="1606.37" y1="13.25" x2="1338.85" y2="404.68"/><line class="cls-3" x1="1593.1" y1="14.11" x2="1325.59" y2="405.54"/><line class="cls-3" x1="1579.84" y1="14.97" x2="1312.32" y2="406.41"/><line class="cls-3" x1="1566.58" y1="15.84" x2="1299.06" y2="407.27"/><line class="cls-3" x1="1553.32" y1="16.7" x2="1285.8" y2="408.13"/><line class="cls-3" x1="1540.06" y1="17.57" x2="1272.54" y2="409"/><line class="cls-3" x1="1526.8" y1="18.43" x2="1259.28" y2="409.86"/><line class="cls-3" x1="1513.53" y1="19.3" x2="1246.02" y2="410.73"/><line class="cls-3" x1="1500.27" y1="20.16" x2="1232.75" y2="411.59"/><line class="cls-3" x1="1487.01" y1="21.02" x2="1219.49" y2="412.46"/><line class="cls-3" x1="1473.75" y1="21.89" x2="1206.23" y2="413.32"/><line class="cls-3" x1="1460.49" y1="22.75" x2="1192.97" y2="414.18"/><line class="cls-3" x1="1447.23" y1="23.62" x2="1179.71" y2="415.05"/><line class="cls-3" x1="1433.96" y1="24.48" x2="1166.45" y2="415.91"/><line class="cls-3" x1="1420.7" y1="25.34" x2="1153.18" y2="416.78"/><line class="cls-3" x1="1407.44" y1="26.21" x2="1139.92" y2="417.64"/><line class="cls-3" x1="1394.18" y1="27.07" x2="1126.66" y2="418.5"/><line class="cls-3" x1="1380.92" y1="27.94" x2="1113.4" y2="419.37"/><line class="cls-3" x1="1367.65" y1="28.8" x2="1100.14" y2="420.23"/><line class="cls-3" x1="1354.39" y1="29.67" x2="1086.88" y2="421.1"/><line class="cls-3" x1="1341.13" y1="30.53" x2="1073.61" y2="421.96"/><line class="cls-3" x1="1327.87" y1="31.39" x2="1060.35" y2="422.83"/><line class="cls-3" x1="1314.61" y1="32.26" x2="1047.09" y2="423.69"/><line class="cls-3" x1="1301.35" y1="33.12" x2="1033.83" y2="424.55"/><line class="cls-3" x1="1288.08" y1="33.99" x2="1020.57" y2="425.42"/><line class="cls-3" x1="1274.82" y1="34.85" x2="1007.31" y2="426.28"/><line class="cls-3" x1="1261.56" y1="35.71" x2="994.04" y2="427.15"/><line class="cls-3" x1="1248.3" y1="36.58" x2="980.78" y2="428.01"/><line class="cls-3" x1="1235.04" y1="37.44" x2="967.52" y2="428.87"/><line class="cls-3" x1="1221.78" y1="38.31" x2="954.26" y2="429.74"/><line class="cls-3" x1="1208.51" y1="39.17" x2="941" y2="430.6"/><line class="cls-3" x1="1195.25" y1="40.04" x2="927.74" y2="431.47"/><line class="cls-3" x1="1181.99" y1="40.9" x2="914.47" y2="432.33"/><line class="cls-3" x1="1168.73" y1="41.76" x2="901.21" y2="433.2"/><line class="cls-3" x1="1155.47" y1="42.63" x2="887.95" y2="434.06"/><line class="cls-3" x1="1142.21" y1="43.49" x2="874.69" y2="434.92"/><line class="cls-3" x1="1128.94" y1="44.36" x2="861.43" y2="435.79"/><line class="cls-3" x1="1115.68" y1="45.22" x2="848.16" y2="436.65"/><line class="cls-3" x1="1102.42" y1="46.08" x2="834.9" y2="437.52"/><line class="cls-3" x1="1089.16" y1="46.95" x2="821.64" y2="438.38"/><line class="cls-3" x1="1075.9" y1="47.81" x2="808.38" y2="439.24"/><line class="cls-3" x1="1062.64" y1="48.68" x2="795.12" y2="440.11"/><line class="cls-3" x1="1049.37" y1="49.54" x2="781.86" y2="440.97"/><line class="cls-3" x1="1036.11" y1="50.41" x2="768.59" y2="441.84"/><line class="cls-3" x1="1022.85" y1="51.27" x2="755.33" y2="442.7"/><line class="cls-3" x1="1009.59" y1="52.13" x2="742.07" y2="443.57"/><line class="cls-3" x1="996.33" y1="53" x2="728.81" y2="444.43"/><line class="cls-3" x1="983.07" y1="53.86" x2="715.55" y2="445.29"/><line class="cls-3" x1="969.8" y1="54.73" x2="702.29" y2="446.16"/><line class="cls-3" x1="956.54" y1="55.59" x2="689.02" y2="447.02"/><line class="cls-3" x1="943.28" y1="56.45" x2="675.76" y2="447.89"/><line class="cls-3" x1="930.02" y1="57.32" x2="662.5" y2="448.75"/><line class="cls-3" x1="916.76" y1="58.18" x2="649.24" y2="449.61"/><line class="cls-3" x1="903.49" y1="59.05" x2="635.98" y2="450.48"/><line class="cls-3" x1="890.23" y1="59.91" x2="622.72" y2="451.34"/><line class="cls-3" x1="876.97" y1="60.78" x2="609.45" y2="452.21"/><line class="cls-3" x1="863.71" y1="61.64" x2="596.19" y2="453.07"/><line class="cls-3" x1="850.45" y1="62.5" x2="582.93" y2="453.94"/><line class="cls-3" x1="837.19" y1="63.37" x2="569.67" y2="454.8"/><line class="cls-3" x1="823.92" y1="64.23" x2="556.41" y2="455.66"/><line class="cls-3" x1="810.66" y1="65.1" x2="543.15" y2="456.53"/><line class="cls-3" x1="797.4" y1="65.96" x2="529.88" y2="457.39"/><line class="cls-3" x1="784.14" y1="66.82" x2="516.62" y2="458.26"/><line class="cls-3" x1="770.88" y1="67.69" x2="503.36" y2="459.12"/><line class="cls-3" x1="757.62" y1="68.55" x2="490.1" y2="459.98"/><line class="cls-3" x1="744.35" y1="69.42" x2="476.84" y2="460.85"/><line class="cls-3" x1="731.09" y1="70.28" x2="463.58" y2="461.71"/><line class="cls-3" x1="717.83" y1="71.15" x2="450.31" y2="462.58"/><line class="cls-3" x1="704.57" y1="72.01" x2="437.05" y2="463.44"/><line class="cls-3" x1="691.31" y1="72.87" x2="423.79" y2="464.31"/><line class="cls-3" x1="678.05" y1="73.74" x2="410.53" y2="465.17"/><line class="cls-3" x1="664.78" y1="74.6" x2="397.27" y2="466.03"/><line class="cls-3" x1="651.52" y1="75.47" x2="384.01" y2="466.9"/><line class="cls-3" x1="638.26" y1="76.33" x2="370.74" y2="467.76"/><line class="cls-3" x1="625" y1="77.19" x2="357.48" y2="468.63"/><line class="cls-3" x1="611.74" y1="78.06" x2="344.22" y2="469.49"/><line class="cls-3" x1="598.48" y1="78.92" x2="330.96" y2="470.35"/><line class="cls-3" x1="585.21" y1="79.79" x2="317.7" y2="471.22"/><line class="cls-3" x1="571.95" y1="80.65" x2="304.43" y2="472.08"/><line class="cls-3" x1="558.69" y1="81.52" x2="291.17" y2="472.95"/><line class="cls-3" x1="545.43" y1="82.38" x2="277.91" y2="473.81"/><line class="cls-3" x1="532.17" y1="83.24" x2="264.65" y2="474.68"/><line class="cls-3" x1="518.91" y1="84.11" x2="251.39" y2="475.54"/><line class="cls-3" x1="505.64" y1="84.97" x2="238.13" y2="476.4"/><line class="cls-3" x1="492.38" y1="85.84" x2="224.86" y2="477.27"/><line class="cls-3" x1="479.12" y1="86.7" x2="211.6" y2="478.13"/><line class="cls-3" x1="465.86" y1="87.56" x2="198.34" y2="479"/><line class="cls-3" x1="452.6" y1="88.43" x2="185.08" y2="479.86"/><line class="cls-3" x1="439.34" y1="89.29" x2="171.82" y2="480.72"/><line class="cls-3" x1="426.07" y1="90.16" x2="158.56" y2="481.59"/><line class="cls-3" x1="412.81" y1="91.02" x2="145.29" y2="482.45"/><line class="cls-3" x1="399.55" y1="91.89" x2="132.03" y2="483.32"/><line class="cls-3" x1="386.29" y1="92.75" x2="118.77" y2="484.18"/><line class="cls-3" x1="373.03" y1="93.61" x2="105.51" y2="485.05"/><line class="cls-3" x1="359.76" y1="94.48" x2="92.25" y2="485.91"/><line class="cls-3" x1="346.5" y1="95.34" x2="78.99" y2="486.77"/><line class="cls-3" x1="333.24" y1="96.21" x2="65.72" y2="487.64"/><line class="cls-3" x1="319.98" y1="97.07" x2="52.46" y2="488.5"/><line class="cls-3" x1="306.72" y1="97.93" x2="39.2" y2="489.37"/><line class="cls-3" x1="293.46" y1="98.8" x2="25.94" y2="490.23"/><line class="cls-3" x1="280.19" y1="99.66" x2="12.68" y2="491.09"/><line class="cls-3" x1="266.93" y1="100.53" x2="-0.58" y2="491.96"/></g></mask></defs><g id="Layer_2" data-name="Layer 2"><g id="Layer_1-2" data-name="Layer 1"><rect class="cls-4" x="208.93" y="163.25" width="1328.25" height="153.45"/><g class="cls-5"><rect class="cls-1" x="1435.48" y="195.5" width="474.11" height="1.01" transform="translate(566.91 1466.19) rotate(-55.65)"/><rect class="cls-1" x="1422.21" y="196.36" width="474.11" height="1.01" transform="translate(560.42 1455.62) rotate(-55.65)"/><rect class="cls-1" x="1408.95" y="197.22" width="474.11" height="1.01" transform="translate(553.93 1445.04) rotate(-55.65)"/><rect class="cls-1" x="1395.69" y="198.09" width="474.11" height="1.01" transform="translate(547.44 1434.47) rotate(-55.65)"/><rect class="cls-1" x="1382.43" y="198.95" width="474.11" height="1.01" transform="translate(540.94 1423.9) rotate(-55.65)"/><rect class="cls-1" x="1369.17" y="199.82" width="474.11" height="1.01" transform="translate(534.45 1413.33) rotate(-55.65)"/><rect class="cls-1" x="1355.9" y="200.68" width="474.11" height="1.01" transform="translate(527.96 1402.76) rotate(-55.65)"/><rect class="cls-1" x="1342.64" y="201.55" width="474.11" height="1.01" transform="translate(521.47 1392.18) rotate(-55.65)"/><rect class="cls-1" x="1329.38" y="202.41" width="474.11" height="1.01" transform="translate(514.98 1381.61) rotate(-55.65)"/><rect class="cls-1" x="1316.12" y="203.27" width="474.11" height="1.01" transform="translate(508.49 1371.04) rotate(-55.65)"/><rect class="cls-1" x="1302.86" y="204.14" width="474.11" height="1.01" transform="translate(501.99 1360.47) rotate(-55.65)"/><rect class="cls-1" x="1289.6" y="205" width="474.11" height="1.01" transform="translate(495.5 1349.9) rotate(-55.65)"/><rect class="cls-1" x="1276.34" y="205.87" width="474.11" height="1.01" transform="translate(489.01 1339.33) rotate(-55.65)"/><rect class="cls-1" x="1263.07" y="206.73" width="474.11" height="1.01" transform="translate(482.52 1328.75) rotate(-55.65)"/><rect class="cls-1" x="1249.81" y="207.59" width="474.11" height="1.01" transform="translate(476.03 1318.18) rotate(-55.65)"/><rect class="cls-1" x="1236.55" y="208.46" width="474.11" height="1.01" transform="translate(469.54 1307.61) rotate(-55.65)"/><rect class="cls-1" x="1223.29" y="209.32" width="474.11" height="1.01" transform="translate(463.05 1297.04) rotate(-55.65)"/><rect class="cls-1" x="1210.03" y="210.19" width="474.11" height="1.01" transform="translate(456.55 1286.47) rotate(-55.65)"/><rect class="cls-1" x="1196.77" y="211.05" width="474.11" height="1.01" transform="translate(450.06 1275.89) rotate(-55.65)"/><rect class="cls-1" x="1183.5" y="211.92" width="474.11" height="1.01" transform="translate(443.57 1265.32) rotate(-55.65)"/><rect class="cls-1" x="1170.24" y="212.78" width="474.11" height="1.01" transform="translate(437.08 1254.75) rotate(-55.65)"/><rect class="cls-1" x="1156.98" y="213.64" width="474.11" height="1.01" transform="translate(430.59 1244.18) rotate(-55.65)"/><rect class="cls-1" x="1143.72" y="214.51" width="474.11" height="1.01" transform="translate(424.1 1233.61) rotate(-55.65)"/><rect class="cls-1" x="1130.46" y="215.37" width="474.11" height="1.01" transform="translate(417.6 1223.03) rotate(-55.65)"/><rect class="cls-1" x="1117.19" y="216.24" width="474.11" height="1.01" transform="translate(411.11 1212.46) rotate(-55.65)"/><rect class="cls-1" x="1103.93" y="217.1" width="474.11" height="1.01" transform="translate(404.62 1201.89) rotate(-55.65)"/><rect class="cls-1" x="1090.67" y="217.97" width="474.11" height="1.01" transform="translate(398.13 1191.32) rotate(-55.65)"/><rect class="cls-1" x="1077.41" y="218.83" width="474.11" height="1.01" transform="translate(391.64 1180.75) rotate(-55.65)"/><rect class="cls-1" x="1064.15" y="219.69" width="474.11" height="1.01" transform="translate(385.15 1170.17) rotate(-55.65)"/><rect class="cls-1" x="1050.89" y="220.56" width="474.11" height="1.01" transform="translate(378.65 1159.6) rotate(-55.65)"/><rect class="cls-1" x="1037.62" y="221.42" width="474.11" height="1.01" transform="translate(372.16 1149.03) rotate(-55.65)"/><rect class="cls-1" x="1024.36" y="222.29" width="474.11" height="1.01" transform="translate(365.67 1138.46) rotate(-55.65)"/><rect class="cls-1" x="1011.1" y="223.15" width="474.11" height="1.01" transform="translate(359.18 1127.89) rotate(-55.65)"/><rect class="cls-1" x="997.84" y="224.01" width="474.11" height="1.01" transform="translate(352.69 1117.31) rotate(-55.65)"/><rect class="cls-1" x="984.58" y="224.88" width="474.11" height="1.01" transform="translate(346.2 1106.74) rotate(-55.65)"/><rect class="cls-1" x="971.32" y="225.74" width="474.11" height="1.01" transform="translate(339.71 1096.17) rotate(-55.65)"/><rect class="cls-1" x="958.05" y="226.61" width="474.11" height="1.01" transform="translate(333.21 1085.6) rotate(-55.65)"/><rect class="cls-1" x="944.79" y="227.47" width="474.11" height="1.01" transform="translate(326.72 1075.03) rotate(-55.65)"/><rect class="cls-1" x="931.53" y="228.34" width="474.11" height="1.01" transform="translate(320.23 1064.45) rotate(-55.65)"/><rect class="cls-1" x="918.27" y="229.2" width="474.11" height="1.01" transform="translate(313.74 1053.88) rotate(-55.65)"/><rect class="cls-1" x="905.01" y="230.06" width="474.11" height="1.01" transform="translate(307.25 1043.31) rotate(-55.65)"/><rect class="cls-1" x="891.75" y="230.93" width="474.11" height="1.01" transform="translate(300.76 1032.74) rotate(-55.65)"/><rect class="cls-1" x="878.48" y="231.79" width="474.11" height="1.01" transform="translate(294.27 1022.17) rotate(-55.65)"/><rect class="cls-1" x="865.22" y="232.66" width="474.11" height="1.01" transform="translate(287.77 1011.59) rotate(-55.65)"/><rect class="cls-1" x="851.96" y="233.52" width="474.11" height="1.01" transform="translate(281.28 1001.02) rotate(-55.65)"/><rect class="cls-1" x="838.7" y="234.38" width="474.11" height="1.01" transform="translate(274.79 990.45) rotate(-55.65)"/><rect class="cls-1" x="825.44" y="235.25" width="474.11" height="1.01" transform="translate(268.3 979.88) rotate(-55.65)"/><rect class="cls-1" x="812.18" y="236.11" width="474.11" height="1.01" transform="translate(261.81 969.31) rotate(-55.65)"/><rect class="cls-1" x="798.91" y="236.98" width="474.11" height="1.01" transform="translate(255.32 958.74) rotate(-55.65)"/><rect class="cls-1" x="785.65" y="237.84" width="474.11" height="1.01" transform="translate(248.83 948.17) rotate(-55.65)"/><rect class="cls-1" x="772.39" y="238.71" width="474.11" height="1.01" transform="translate(242.33 937.59) rotate(-55.65)"/><rect class="cls-1" x="759.13" y="239.57" width="474.11" height="1.01" transform="translate(235.84 927.02) rotate(-55.65)"/><rect class="cls-1" x="745.87" y="240.43" width="474.11" height="1.01" transform="translate(229.35 916.45) rotate(-55.65)"/><rect class="cls-1" x="732.6" y="241.3" width="474.11" height="1.01" transform="translate(222.86 905.88) rotate(-55.65)"/><rect class="cls-1" x="719.34" y="242.16" width="474.11" height="1.01" transform="translate(216.37 895.3) rotate(-55.65)"/><rect class="cls-1" x="706.08" y="243.03" width="474.11" height="1.01" transform="translate(209.87 884.73) rotate(-55.65)"/><rect class="cls-1" x="692.82" y="243.89" width="474.11" height="1.01" transform="translate(203.38 874.16) rotate(-55.65)"/><rect class="cls-1" x="679.56" y="244.75" width="474.11" height="1.01" transform="translate(196.89 863.59) rotate(-55.65)"/><rect class="cls-1" x="666.3" y="245.62" width="474.11" height="1.01" transform="translate(190.4 853.02) rotate(-55.65)"/><rect class="cls-1" x="653.03" y="246.48" width="474.11" height="1.01" transform="translate(183.91 842.44) rotate(-55.65)"/><rect class="cls-1" x="639.77" y="247.35" width="474.11" height="1.01" transform="translate(177.42 831.87) rotate(-55.65)"/><rect class="cls-1" x="626.51" y="248.21" width="474.11" height="1.01" transform="translate(170.93 821.3) rotate(-55.65)"/><rect class="cls-1" x="613.25" y="249.08" width="474.11" height="1.01" transform="translate(164.43 810.73) rotate(-55.65)"/><rect class="cls-1" x="599.99" y="249.94" width="474.11" height="1.01" transform="translate(157.94 800.16) rotate(-55.65)"/><rect class="cls-1" x="586.73" y="250.8" width="474.11" height="1.01" transform="translate(151.45 789.58) rotate(-55.65)"/><rect class="cls-1" x="573.46" y="251.67" width="474.11" height="1.01" transform="translate(144.96 779.01) rotate(-55.65)"/><rect class="cls-1" x="560.2" y="252.53" width="474.11" height="1.01" transform="translate(138.47 768.44) rotate(-55.65)"/><rect class="cls-1" x="546.94" y="253.4" width="474.11" height="1.01" transform="translate(131.98 757.87) rotate(-55.65)"/><rect class="cls-1" x="533.68" y="254.26" width="474.11" height="1.01" transform="translate(125.48 747.3) rotate(-55.65)"/><rect class="cls-1" x="520.42" y="255.12" width="474.11" height="1.01" transform="translate(118.99 736.72) rotate(-55.65)"/><rect class="cls-1" x="507.16" y="255.99" width="474.11" height="1.01" transform="translate(112.5 726.15) rotate(-55.65)"/><rect class="cls-1" x="493.89" y="256.85" width="474.11" height="1.01" transform="translate(106.01 715.58) rotate(-55.65)"/><rect class="cls-1" x="480.63" y="257.72" width="474.11" height="1.01" transform="translate(99.52 705.01) rotate(-55.65)"/><rect class="cls-1" x="467.37" y="258.58" width="474.11" height="1.01" transform="translate(93.03 694.44) rotate(-55.65)"/><rect class="cls-1" x="454.11" y="259.45" width="474.11" height="1.01" transform="translate(86.54 683.86) rotate(-55.65)"/><rect class="cls-1" x="440.85" y="260.31" width="474.11" height="1.01" transform="translate(80.04 673.29) rotate(-55.65)"/><rect class="cls-1" x="427.59" y="261.17" width="474.11" height="1.01" transform="translate(73.55 662.72) rotate(-55.65)"/><rect class="cls-1" x="414.32" y="262.04" width="474.11" height="1.01" transform="translate(67.06 652.15) rotate(-55.65)"/><rect class="cls-1" x="401.06" y="262.9" width="474.11" height="1.01" transform="translate(60.57 641.58) rotate(-55.65)"/><rect class="cls-1" x="387.8" y="263.77" width="474.11" height="1.01" transform="translate(54.08 631) rotate(-55.65)"/><rect class="cls-1" x="374.54" y="264.63" width="474.11" height="1.01" transform="translate(47.59 620.43) rotate(-55.65)"/><rect class="cls-1" x="361.28" y="265.49" width="474.11" height="1.01" transform="translate(41.09 609.86) rotate(-55.65)"/><rect class="cls-1" x="348.02" y="266.36" width="474.11" height="1.01" transform="translate(34.6 599.29) rotate(-55.65)"/><rect class="cls-1" x="334.75" y="267.22" width="474.11" height="1.01" transform="translate(28.11 588.72) rotate(-55.65)"/><rect class="cls-1" x="321.49" y="268.09" width="474.11" height="1.01" transform="translate(21.62 578.15) rotate(-55.65)"/><rect class="cls-1" x="308.23" y="268.95" width="474.11" height="1.01" transform="translate(15.13 567.57) rotate(-55.65)"/><rect class="cls-1" x="294.97" y="269.82" width="474.11" height="1.01" transform="translate(8.64 557) rotate(-55.65)"/><rect class="cls-1" x="281.71" y="270.68" width="474.11" height="1.01" transform="translate(2.15 546.43) rotate(-55.65)"/><rect class="cls-1" x="268.44" y="271.54" width="474.11" height="1.01" transform="translate(-4.35 535.86) rotate(-55.65)"/><rect class="cls-1" x="255.18" y="272.41" width="474.11" height="1.01" transform="translate(-10.84 525.29) rotate(-55.65)"/><rect class="cls-1" x="241.92" y="273.27" width="474.11" height="1.01" transform="translate(-17.33 514.71) rotate(-55.65)"/><rect class="cls-1" x="228.66" y="274.14" width="474.11" height="1.01" transform="translate(-23.82 504.14) rotate(-55.65)"/><rect class="cls-1" x="215.4" y="275" width="474.11" height="1.01" transform="translate(-30.31 493.57) rotate(-55.65)"/><rect class="cls-1" x="202.14" y="275.86" width="474.11" height="1.01" transform="translate(-36.8 483) rotate(-55.65)"/><rect class="cls-1" x="188.87" y="276.73" width="474.11" height="1.01" transform="translate(-43.3 472.43) rotate(-55.65)"/><rect class="cls-1" x="175.61" y="277.59" width="474.11" height="1.01" transform="translate(-49.79 461.85) rotate(-55.65)"/><rect class="cls-1" x="162.35" y="278.46" width="474.11" height="1.01" transform="translate(-56.28 451.28) rotate(-55.65)"/><rect class="cls-1" x="149.09" y="279.32" width="474.11" height="1.01" transform="translate(-62.77 440.71) rotate(-55.65)"/><rect class="cls-1" x="135.83" y="280.19" width="474.11" height="1.01" transform="translate(-69.26 430.14) rotate(-55.65)"/><rect class="cls-1" x="122.57" y="281.05" width="474.11" height="1.01" transform="translate(-75.75 419.57) rotate(-55.65)"/><rect class="cls-1" x="109.3" y="281.91" width="474.11" height="1.01" transform="translate(-82.25 408.99) rotate(-55.65)"/><rect class="cls-1" x="96.04" y="282.78" width="474.11" height="1.01" transform="translate(-88.74 398.42) rotate(-55.65)"/><rect class="cls-1" x="82.78" y="283.64" width="474.11" height="1.01" transform="translate(-95.23 387.85) rotate(-55.65)"/><rect class="cls-1" x="69.52" y="284.51" width="474.11" height="1.01" transform="translate(-101.72 377.28) rotate(-55.65)"/><rect class="cls-1" x="56.26" y="285.37" width="474.11" height="1.01" transform="translate(-108.21 366.71) rotate(-55.65)"/><rect class="cls-1" x="43" y="286.23" width="474.11" height="1.01" transform="translate(-114.7 356.13) rotate(-55.65)"/><rect class="cls-1" x="29.73" y="287.1" width="474.11" height="1.01" transform="translate(-121.19 345.56) rotate(-55.65)"/><rect class="cls-1" x="16.47" y="287.96" width="474.11" height="1.01" transform="translate(-127.69 334.99) rotate(-55.65)"/><rect class="cls-1" x="3.21" y="288.83" width="474.11" height="1.01" transform="translate(-134.18 324.42) rotate(-55.65)"/><rect class="cls-1" x="-10.05" y="289.69" width="474.11" height="1.01" transform="translate(-140.67 313.85) rotate(-55.65)"/><rect class="cls-1" x="-23.31" y="290.56" width="474.11" height="1.01" transform="translate(-147.16 303.27) rotate(-55.65)"/><rect class="cls-1" x="-36.57" y="291.42" width="474.11" height="1.01" transform="translate(-153.65 292.7) rotate(-55.65)"/><rect class="cls-1" x="-49.84" y="292.28" width="474.11" height="1.01" transform="translate(-160.14 282.13) rotate(-55.65)"/><rect class="cls-1" x="-63.1" y="293.15" width="474.11" height="1.01" transform="translate(-166.64 271.56) rotate(-55.65)"/><rect class="cls-1" x="-76.36" y="294.01" width="474.11" height="1.01" transform="translate(-173.13 260.99) rotate(-55.65)"/><rect class="cls-1" x="-89.62" y="294.88" width="474.11" height="1.01" transform="translate(-179.62 250.41) rotate(-55.65)"/><rect class="cls-1" x="-102.88" y="295.74" width="474.11" height="1.01" transform="translate(-186.11 239.84) rotate(-55.65)"/></g><g class="cls-6"><path class="cls-1" d="M254,200.06v22H290.1v33.15H254V303.7H213.65v-137h86.57v33.36Z"/><path class="cls-1" d="M315.7,303.7v-137h52.42c35.34,0,55.59,15.68,55.59,45.07,0,18.47-8.34,31.57-23.82,39.51l33.55,52.42H386.58l-24.42-42.49H356V303.7Zm48.05-107.42h-8.14V233H364c13.1,0,20.25-6.76,20.25-18.87C384.2,202.64,376.86,196.28,363.75,196.28Z"/><path class="cls-1" d="M442.77,303.7v-137h90.34v32H482.48v19.65h40.9v31.57h-40.9v21.84h52.41v32Z"/><path class="cls-1" d="M551.76,303.7v-137h90.35v32H591.47v19.65h40.91v31.57H591.47v21.84h52.42v32Z"/><path class="cls-1" d="M772.15,200.45V303.7H731.44V200.45H694.71V166.7H808.88v33.75Z"/><path class="cls-1" d="M902.39,303.7V251.48H864.46V303.7h-40.7v-137h40.7v49.64h37.93V166.7h40.7v137Z"/><path class="cls-1" d="M964.52,303.7v-137h90.34v32h-50.63v19.65h40.91v31.57h-40.91v21.84h52.42v32Z"/><path class="cls-1" d="M1190.67,303.7l-5-83.59-18.46,83.59h-39.51l-18.67-83.59-4.76,83.59h-35l9.73-137h52.62l19.85,86.57,19.86-86.57h51.22l9.73,137Z"/><path class="cls-1" d="M1328.85,303.28a110.24,110.24,0,0,1-43.49-8.74l5.16-32c11.32,4.76,24.43,8.73,37.73,8.73,11.91,0,20.45-5.56,20.45-14.89,0-8.93-6.35-13.7-17.08-13.7A44.16,44.16,0,0,0,1314,246.3l-23.62-5.17,4.56-74.65h85.18v31.57h-55.79l-1,17.07a80.24,80.24,0,0,1,17.87-1.78c25.42,0,44.08,13.5,44.08,41.3C1385.23,286.4,1362.2,303.28,1328.85,303.28Z"/><path class="cls-1" d="M1480.53,303.7l-37.13-61.35V303.7h-40.7v-137h40.7v57.38l36.14-57.38h45.66l-44.47,63.73,48,73.27Z"/></g></g></g></svg>