<?xml version="1.0" encoding="utf-8"?>
<!-- Generator: Adobe Illustrator 16.0.2, SVG Export Plug-In . SVG Version: 6.00 Build 0)  -->
<!DOCTYPE svg PUBLIC "-//W3C//DTD SVG 1.1//EN" "http://www.w3.org/Graphics/SVG/1.1/DTD/svg11.dtd">
<svg version="1.1" id="Layer_1" xmlns="http://www.w3.org/2000/svg" xmlns:xlink="http://www.w3.org/1999/xlink" x="0px" y="0px"
	 width="310px" height="260px" viewBox="0 0 310 260" enable-background="new 0 0 310 260" xml:space="preserve">
<g>
	<g opacity="0.3">
		<path d="M178.368,106.034c4.036-5.686,8.25-7.96,11.207-8.115c2.048-0.107,3.232,0.743,3.34,2.79
			c0.262,5.005-7.641,15.227-16.74,15.703c-1.592,0.084-2.502,0.132-2.969-0.072C174.608,112.617,176.476,109.098,178.368,106.034
			 M215.416,125.304c-0.239-0.215-0.694-0.192-0.922-0.18c-1.137,0.06-0.982,3.017-9.723,10.317
			c-3.725,2.933-11.207,8.114-17.805,8.46c-8.871,0.465-14.985-7.426-15.428-15.842c-0.143-2.729,0.169-5.482,0.936-8.26
			c1.677,1.508,5.147,2.467,9.925,2.217c14.103-0.74,25.347-12.505,24.679-25.243c-0.333-6.369-6.138-12.679-15.919-12.167
			c-15.695,0.823-29.443,21.387-28.37,41.859c0.488,9.326,6.519,24.292,22.441,23.457c10.69-0.561,18.365-6.438,23.312-12.17
			c2.79-3.339,5.329-7.122,7.377-11.563C215.907,125.963,215.656,125.52,215.416,125.304 M135.845,165.056
			c1.691-15.598,6.519-32.274,11.443-47.13c4.057,7.771,8.437,17.349,8.973,27.585c0.477,9.099-4.604,29.665-17.342,30.332
			c-2.502,0.131-3.076-2.119-3.219-4.849C135.592,168.946,135.713,166.888,135.845,165.056 M136.722,94.759
			c-0.239-0.216-0.479-0.431-0.49-0.659c-0.036-0.682,0.886-0.502,4.752-0.705c-0.598,1.628-0.742,3.232-1.341,4.86
			C138.649,96.71,137.692,95.848,136.722,94.759 M138.929,184.737c6.788-1.04,25.55-12.971,24.322-36.399
			c-0.858-16.378-9.212-27.8-13.998-36.445c2.36-7.194,4.552-13.24,6.96-19.524c7.949-0.645,14.318-0.979,14.271-1.888
			c-0.036-0.683-2.777-0.767-13.062-1.141c3.163-9.289,8.78-19.619,8.494-25.078c-0.346-6.597-12.137-9.628-13.31-10.251
			c0.095,1.82-0.66,4.824-1.427,7.602l-1.341,4.86c-2.181,6.272-3.942,11.839-7.284,22.05c-4.358-0.456-8.691-0.457-12.367-0.949
			c-0.682,0.036-1.341,0.527-1.305,1.209c0.048,0.91,3.208,4.622,9.407,14.105c-4.601,16.663-14.832,47.764-13.783,67.78
			c0.286,5.459,1.242,14.988,12.16,14.417C137.576,185.037,138.258,185.001,138.929,184.737 M131.269,82.043
			c0.407-0.934,0.587-1.856,0.528-2.993c-0.203-3.867-3.327-6.897-7.649-6.67c-4.322,0.226-7.327,3.805-7.077,8.582
			c0.203,3.867,1.986,7.423,6.308,7.196C126.791,87.98,129.856,85.539,131.269,82.043 M114.158,151.595
			c19.107-1.001,22.501-27.637,22.537-26.955l-0.479-0.431c-0.479-0.432-0.946-0.636-1.628-0.6
			c-0.215,0.239-0.443,0.251-0.443,0.251c-5.414,14.197-13.521,20.553-18.752,20.827c-3.412,0.178-3.986-2.072-4.165-5.483
			c-0.513-9.781,5.488-21.5,10.207-31.556c1.485-2.131,2.287-4.226,2.192-6.045c-0.477-9.099-12.185-10.538-11.562-11.711
			c-0.827,5.973-12.469,27.568-11.515,45.765C100.991,144.073,105.287,152.06,114.158,151.595 M22.295,174.428
			c0.636-5.279,7.999-8.402,15.183-10.604c4.262-1.363,9.003-2.297,14.211-3.025C45.187,167.298,31.369,177.83,22.295,174.428
			 M302.666,144.908c-3.664,4.07-8.956,7.54-15.398,10.844c-11.325,5.84-28.817,11.546-56.796,13.012
			c-33.893,1.777-66.837-4.48-98.393-10.353c-6.919-1.463-14.066-2.912-21.428-4.123c-12.654-2.074-28.037-4.006-41.038-4.009
			c2.73-4.477,6.179-8.307,9.772-13.74c11.844-17.728,23.942-48.013,31.452-65.741c0.802-2.095,0.946-3.699,0.863-5.292
			c-0.381-7.279-11.933-10.094-13.107-10.717c-7.296,26.156-21.146,75.237-38.761,96.004l0.215-0.24
			c0.012,0.228-0.215,0.24-0.443,0.252l-0.455,0.024c-2.502,0.131-42.692,7.938-41.822,24.544c0.131,2.502,1.399,4.944,10.271,4.479
			c7.733-0.406,19.383-4.437,34.938-20.991l0.287,1.126c0.227-0.012,0.682-0.035,1.352-0.299c0.91-0.048,2.036-0.335,4.083-0.441
			c7.961-0.418,26.038,0.688,61.699,10.907c0.012,0.228,52.265,18.018,100.259,15.501c7.052-0.368,45.697-2.851,65.347-19.618
			c1.532-1.221,3.053-2.669,4.335-4.332c2.37-2.635,4.215-6.608,3.965-11.386C303.767,148.501,303.444,146.692,302.666,144.908"/>
	</g>
	<g>
		<path fill="#FFFFFF" d="M176.368,104.034c4.036-5.686,8.25-7.96,11.207-8.115c2.048-0.107,3.232,0.743,3.34,2.79
			c0.262,5.005-7.641,15.227-16.74,15.703c-1.592,0.084-2.502,0.132-2.969-0.072C172.608,110.617,174.476,107.098,176.368,104.034
			 M213.416,123.304c-0.239-0.215-0.694-0.192-0.922-0.18c-1.137,0.06-0.982,3.017-9.723,10.317
			c-3.725,2.933-11.207,8.114-17.805,8.46c-8.871,0.465-14.985-7.426-15.428-15.842c-0.143-2.729,0.169-5.483,0.936-8.26
			c1.677,1.508,5.147,2.467,9.925,2.217c14.103-0.74,25.347-12.505,24.679-25.243c-0.333-6.369-6.138-12.679-15.919-12.167
			c-15.695,0.823-29.443,21.387-28.37,41.859c0.488,9.326,6.519,24.292,22.441,23.457c10.69-0.561,18.365-6.438,23.312-12.17
			c2.79-3.339,5.329-7.122,7.377-11.563C213.907,123.963,213.656,123.52,213.416,123.304 M133.845,163.056
			c1.691-15.598,6.519-32.274,11.443-47.13c4.057,7.771,8.436,17.349,8.973,27.585c0.477,9.099-4.604,29.665-17.342,30.332
			c-2.502,0.131-3.076-2.119-3.219-4.849C133.592,166.946,133.713,164.888,133.845,163.056 M134.722,92.759
			c-0.239-0.216-0.479-0.431-0.49-0.659c-0.036-0.682,0.886-0.502,4.752-0.705c-0.598,1.628-0.742,3.232-1.341,4.86
			C136.649,94.71,135.692,93.848,134.722,92.759 M136.929,182.737c6.788-1.04,25.55-12.971,24.322-36.399
			c-0.858-16.378-9.212-27.8-13.998-36.445c2.36-7.194,4.552-13.24,6.96-19.524c7.949-0.645,14.318-0.979,14.271-1.888
			c-0.036-0.683-2.777-0.767-13.062-1.141c3.163-9.289,8.78-19.619,8.494-25.078c-0.346-6.597-12.137-9.628-13.31-10.251
			c0.095,1.82-0.66,4.824-1.427,7.602l-1.341,4.86c-2.181,6.272-3.942,11.839-7.284,22.05c-4.358-0.456-8.691-0.457-12.367-0.949
			c-0.682,0.036-1.341,0.527-1.305,1.209c0.048,0.91,3.208,4.622,9.407,14.105c-4.601,16.663-14.832,47.764-13.783,67.78
			c0.286,5.459,1.242,14.988,12.16,14.417C135.576,183.037,136.258,183.001,136.929,182.737 M129.269,80.043
			c0.407-0.934,0.587-1.856,0.528-2.993c-0.203-3.867-3.327-6.897-7.649-6.67c-4.322,0.226-7.327,3.805-7.077,8.582
			c0.203,3.867,1.986,7.423,6.308,7.196C124.791,85.98,127.856,83.539,129.269,80.043 M112.158,149.595
			c19.107-1.001,22.501-27.637,22.537-26.955l-0.479-0.431c-0.479-0.432-0.946-0.636-1.628-0.6
			c-0.215,0.239-0.443,0.251-0.443,0.251c-5.414,14.197-13.521,20.553-18.752,20.827c-3.412,0.178-3.986-2.072-4.165-5.483
			c-0.513-9.781,5.488-21.5,10.207-31.556c1.485-2.131,2.287-4.226,2.192-6.045c-0.477-9.099-12.185-10.538-11.562-11.711
			c-0.827,5.973-12.469,27.568-11.515,45.765C98.991,142.073,103.287,150.06,112.158,149.595 M20.295,172.428
			c0.636-5.279,7.999-8.402,15.183-10.604c4.262-1.363,9.003-2.297,14.211-3.025C43.187,165.298,29.369,175.83,20.295,172.428
			 M300.666,142.908c-3.664,4.07-8.956,7.54-15.398,10.844c-11.325,5.84-28.817,11.546-56.796,13.012
			c-33.893,1.777-66.837-4.48-98.393-10.353c-6.919-1.463-14.066-2.912-21.428-4.123c-12.654-2.074-28.037-4.006-41.038-4.009
			c2.73-4.477,6.179-8.307,9.772-13.74c11.844-17.728,23.942-48.013,31.452-65.741c0.802-2.095,0.946-3.699,0.863-5.292
			c-0.381-7.279-11.933-10.094-13.107-10.717c-7.296,26.156-21.146,75.237-38.761,96.004l0.215-0.24
			c0.012,0.228-0.215,0.24-0.443,0.252l-0.455,0.024c-2.502,0.131-42.692,7.938-41.822,24.544c0.131,2.502,1.399,4.944,10.271,4.479
			c7.733-0.406,19.383-4.437,34.938-20.991l0.287,1.126c0.227-0.012,0.682-0.035,1.352-0.299c0.91-0.048,2.036-0.335,4.083-0.441
			c7.961-0.418,26.038,0.688,61.699,10.907c0.012,0.228,52.265,18.018,100.259,15.501c7.052-0.368,45.697-2.851,65.347-19.618
			c1.532-1.221,3.053-2.669,4.335-4.332c2.37-2.635,4.215-6.608,3.965-11.386C301.767,146.501,301.444,144.692,300.666,142.908"/>
	</g>
</g>
<g>
	<g opacity="0.3">
		<path d="M211.117,25.8c1.74-2.197,3.479-3.021,4.67-3.021c0.824,0,1.282,0.366,1.282,1.19c0,2.015-3.389,5.952-7.052,5.952
			c-0.641,0-1.007,0-1.189-0.092C209.469,28.364,210.293,26.991,211.117,25.8 M225.585,34.316c-0.092-0.091-0.275-0.091-0.367-0.091
			c-0.457,0-0.457,1.19-4.12,3.937c-1.557,1.099-4.67,3.022-7.325,3.022c-3.571,0-5.86-3.297-5.86-6.685
			c0-1.098,0.183-2.197,0.55-3.296c0.641,0.641,2.014,1.099,3.937,1.099c5.678,0,10.439-4.487,10.439-9.615
			c0-2.564-2.198-5.219-6.135-5.219c-6.318,0-12.271,7.966-12.271,16.207c0,3.754,2.106,9.889,8.516,9.889
			c4.304,0,7.509-2.197,9.614-4.395c1.19-1.282,2.289-2.747,3.205-4.487C225.768,34.591,225.676,34.408,225.585,34.316
			 M193.72,39.353c0,0.733-2.656,1.465-3.846,1.465c-4.029,0-4.67-3.388-4.67-6.226c0-5.494,5.128-11.08,9.431-11.08
			c1.374,0,2.656,0.458,3.663,1.282C196.924,28.731,195.093,33.858,193.72,39.353 M201.503,47.319c2.106,0,2.747,0.641,2.747,1.648
			c0,2.838-2.656,4.12-4.212,4.12c-2.29,0-4.212-2.106-4.854-4.578c-0.274-0.091-0.55-0.091-0.916-0.183
			c-0.274,0-0.458,0-0.641-0.092C197.291,47.96,199.396,47.319,201.503,47.319 M205.715,19.757
			c-0.275-1.007-1.191-1.831-2.198-2.472c-0.549-0.367-1.189-0.733-1.831-1.099c-0.092,1.099-0.732,2.014-1.374,3.022
			c-1.373-0.641-2.93-1.191-5.401-1.191c-7.966,0.458-13.003,9.248-13.003,16.024c0.274,3.205,1.374,8.974,7.233,8.974
			c1.831,0,2.931-0.641,4.029-1.099c-0.091,0.641-0.275,0.916-0.366,1.557c-3.938,0.275-6.959,0.366-9.889,0.824
			c-0.733,0.275-3.572,1.282-3.572,4.945c0,0.641,0.092,1.282,0.275,2.014c0-1.099,8.424-2.381,12.819-2.838
			c0.642,3.937,3.846,6.592,7.051,6.592c3.663,0,6.867-3.388,6.867-6.592c0-4.213-5.402-4.67-10.163-4.945
			c2.563-7.6,6.317-15.292,9.247-21.518c0.275-0.55,0.366-1.099,0.366-1.557C205.806,20.123,205.806,19.849,205.715,19.757
			 M170.682,39.444c1.1,1.465,2.381,1.831,3.48,1.831c5.401,0,8.606-9.981,8.606-10.347l-0.183-0.183
			c-0.183-0.183-0.366-0.275-0.549-0.275c-0.092,0.092-0.185,0.092-0.185,0.092c-2.472,5.586-5.401,7.966-6.959,7.966
			c-1.098,0-1.281-1.007-1.281-2.38c0-4.945,4.213-10.073,6.135-14.193c0.458-0.458,0.641-1.74,0.641-2.106
			c0-2.106-3.937-4.579-4.212-4.579c-1.098,4.945-3.205,1.923-15.383,25.09c-0.092-0.275-0.092-0.641-0.092-1.099
			c0-7.234,7.051-13.461,7.051-17.581c0-1.923-3.388-4.67-4.212-4.67c-0.275,0.824-1.099,3.296-1.831,4.761
			c-0.458,1.008-5.128,9.157-5.128,17.215c0,3.663,0.732,6.135,3.663,6.135c1.923,0,3.296-3.479,3.296-3.571
			c0.732-2.839,5.677-11.721,7.875-15.841c-1.191,3.296-2.015,5.585-2.015,8.882C169.4,36.605,169.858,38.254,170.682,39.444
			 M145.594,37.613c-1.465,1.831-3.297,3.021-5.403,3.021c-4.029,0-4.578-3.388-4.578-5.952c0-5.402,5.219-11.262,9.248-11.262
			c1.465,0,2.656,0.915,3.754,2.106C147.242,28.731,145.594,33.492,145.594,37.613 M158.779,31.935c-0.274,0-0.55,0-0.55,0.092
			c-2.197,6.868-5.219,10.164-6.958,10.164c-0.824,0-1.282-1.007-1.282-3.022c0-4.395,2.93-9.34,4.945-13.002h0.092
			c0.458-1.008,0.916-1.832,0.916-2.839c0-2.106-4.122-4.578-4.487-4.578c-0.092,0.274-0.092,0.732-0.366,1.099
			c-1.374-0.825-2.656-1.832-5.311-1.832c-7.692,0-13.369,8.699-13.369,15.658c0,2.839,1.19,9.065,6.776,9.065
			c4.029,0,5.586-2.197,6.593-3.388c0.824,3.755,3.021,5.128,4.853,5.128c5.402,0,8.607-11.263,8.607-12.178
			C159.237,32.21,159.054,32.119,158.779,31.935 M134.423,31.935c-0.275,0-0.55,0-0.55,0.092c-2.472,5.586-5.219,7.966-6.959,7.966
			c-1.19,0-1.373-1.373-1.373-2.747c0-4.761,3.754-8.79,5.219-12.728c0.183-0.549,0.275-1.007,0.275-1.281
			c0-2.106-3.938-4.579-4.212-4.579c0.732,1.648-3.663,4.487-13.918,22.984c-0.092,0-0.092,0-0.092,0.091
			c0-6.501,10.713-28.386,12.453-31.957c0.275-0.824,0.458-1.648,0.458-2.381c0-2.747-4.853-4.12-5.128-4.395
			c0,0.733-0.366,1.923-0.732,3.022c-0.275,0.641-0.458,1.373-0.641,2.014c-1.099,2.931-10.347,25.456-10.347,34.521
			c0,3.205,1.556,4.212,3.021,4.212c1.374,0,2.656-0.915,3.114-2.38c0.732-2.747,4.395-9.707,7.05-14.56
			c-0.641,2.106-0.915,3.48-0.915,5.678c0,3.937,2.197,7.233,5.036,7.233c5.128,0,8.699-9.706,8.699-10.438
			C134.881,32.21,134.698,32.119,134.423,31.935 M90.014,47.044c5.494,0,10.713-3.022,13.644-5.219
			c7.233-5.494,9.706-12.545,9.706-14.285c0-0.275-0.092-0.549-0.458-0.549c-1.648,0,0.091,1.74-6.044,9.157
			c-3.388,4.12-9.797,7.874-15.932,7.874c-6.135,0-7.509-4.12-7.509-9.34c0-12.911,13.369-25.638,23.075-25.638
			c0.824,0,1.648,0.091,2.381,0.274c-2.198,3.755-2.839,6.502-2.839,7.509c0.092,0.916,0.367,1.74,0.824,2.381
			c0.733,1.19,2.106,2.38,4.945,2.655l0.183-0.092c0.733-0.732-0.183-4.578,5.219-13.185c0.092-0.092,0.092-0.275,0.092-0.55
			c-0.275-2.472-3.754-4.944-10.713-4.944c-14.651,0-27.745,16.757-27.47,31.224C79.118,41.367,83.696,47.044,90.014,47.044"/>
	</g>
	<g>
		<path fill="#FFFFFF" d="M210.117,24.8c1.74-2.197,3.479-3.021,4.67-3.021c0.824,0,1.282,0.366,1.282,1.19
			c0,2.015-3.389,5.952-7.052,5.952c-0.641,0-1.007,0-1.189-0.092C208.469,27.364,209.293,25.991,210.117,24.8 M224.585,33.316
			c-0.092-0.091-0.275-0.091-0.367-0.091c-0.457,0-0.457,1.19-4.12,3.937c-1.557,1.099-4.67,3.022-7.325,3.022
			c-3.571,0-5.86-3.297-5.86-6.685c0-1.098,0.183-2.197,0.55-3.296c0.641,0.641,2.014,1.099,3.937,1.099
			c5.678,0,10.439-4.487,10.439-9.615c0-2.564-2.198-5.219-6.135-5.219c-6.318,0-12.271,7.966-12.271,16.207
			c0,3.754,2.106,9.889,8.516,9.889c4.304,0,7.509-2.197,9.614-4.395c1.19-1.282,2.289-2.747,3.205-4.487
			C224.768,33.591,224.676,33.408,224.585,33.316 M192.72,38.353c0,0.733-2.656,1.465-3.846,1.465c-4.029,0-4.67-3.388-4.67-6.226
			c0-5.494,5.128-11.08,9.431-11.08c1.374,0,2.656,0.458,3.663,1.282C195.924,27.731,194.093,32.858,192.72,38.353 M200.503,46.319
			c2.106,0,2.747,0.641,2.747,1.648c0,2.838-2.656,4.12-4.212,4.12c-2.29,0-4.212-2.106-4.854-4.578
			c-0.274-0.091-0.55-0.091-0.916-0.183c-0.274,0-0.458,0-0.641-0.092C196.291,46.96,198.396,46.319,200.503,46.319 M204.715,18.757
			c-0.275-1.007-1.191-1.831-2.198-2.472c-0.549-0.367-1.189-0.733-1.831-1.099c-0.092,1.099-0.732,2.014-1.374,3.022
			c-1.373-0.641-2.93-1.191-5.401-1.191c-7.966,0.458-13.003,9.248-13.003,16.024c0.274,3.205,1.374,8.974,7.233,8.974
			c1.831,0,2.931-0.641,4.029-1.099c-0.091,0.641-0.275,0.916-0.366,1.557c-3.938,0.275-6.959,0.366-9.889,0.824
			c-0.733,0.275-3.572,1.282-3.572,4.945c0,0.641,0.092,1.282,0.275,2.014c0-1.099,8.424-2.381,12.819-2.838
			c0.642,3.937,3.846,6.592,7.051,6.592c3.663,0,6.867-3.388,6.867-6.592c0-4.213-5.402-4.67-10.163-4.945
			c2.563-7.6,6.317-15.292,9.247-21.518c0.275-0.55,0.366-1.099,0.366-1.557C204.806,19.123,204.806,18.849,204.715,18.757
			 M169.682,38.444c1.1,1.465,2.381,1.831,3.48,1.831c5.401,0,8.606-9.981,8.606-10.347l-0.183-0.183
			c-0.183-0.183-0.366-0.275-0.549-0.275c-0.092,0.092-0.185,0.092-0.185,0.092c-2.472,5.586-5.401,7.966-6.959,7.966
			c-1.098,0-1.281-1.007-1.281-2.38c0-4.945,4.213-10.073,6.135-14.193c0.458-0.458,0.641-1.74,0.641-2.106
			c0-2.106-3.937-4.579-4.212-4.579c-1.098,4.945-3.205,1.923-15.383,25.09c-0.092-0.275-0.092-0.641-0.092-1.099
			c0-7.234,7.051-13.461,7.051-17.581c0-1.923-3.388-4.67-4.212-4.67c-0.275,0.824-1.099,3.296-1.831,4.761
			c-0.458,1.008-5.128,9.157-5.128,17.215c0,3.663,0.732,6.135,3.663,6.135c1.923,0,3.296-3.479,3.296-3.571
			c0.732-2.839,5.677-11.721,7.875-15.841c-1.191,3.296-2.015,5.585-2.015,8.882C168.4,35.605,168.858,37.254,169.682,38.444
			 M144.594,36.613c-1.465,1.831-3.297,3.021-5.403,3.021c-4.029,0-4.578-3.388-4.578-5.952c0-5.402,5.219-11.262,9.248-11.262
			c1.465,0,2.656,0.915,3.754,2.106C146.242,27.731,144.594,32.492,144.594,36.613 M157.779,30.935c-0.274,0-0.55,0-0.55,0.092
			c-2.197,6.868-5.219,10.164-6.958,10.164c-0.824,0-1.282-1.007-1.282-3.022c0-4.395,2.93-9.34,4.944-13.002h0.092
			c0.458-1.008,0.917-1.832,0.917-2.839c0-2.106-4.122-4.578-4.487-4.578c-0.092,0.274-0.092,0.732-0.366,1.099
			c-1.374-0.825-2.656-1.832-5.311-1.832c-7.692,0-13.369,8.699-13.369,15.658c0,2.839,1.19,9.065,6.776,9.065
			c4.029,0,5.586-2.197,6.593-3.388c0.824,3.755,3.021,5.128,4.853,5.128c5.402,0,8.607-11.263,8.607-12.178
			C158.237,31.21,158.054,31.119,157.779,30.935 M133.423,30.935c-0.275,0-0.55,0-0.55,0.092c-2.472,5.586-5.219,7.966-6.959,7.966
			c-1.19,0-1.373-1.373-1.373-2.747c0-4.761,3.754-8.79,5.219-12.728c0.183-0.549,0.275-1.007,0.275-1.281
			c0-2.106-3.938-4.579-4.212-4.579c0.732,1.648-3.663,4.487-13.918,22.984c-0.092,0-0.092,0-0.092,0.091
			c0-6.501,10.713-28.386,12.453-31.957c0.275-0.824,0.458-1.648,0.458-2.381c0-2.747-4.853-4.12-5.128-4.395
			c0,0.733-0.366,1.923-0.732,3.022c-0.275,0.641-0.458,1.373-0.641,2.014c-1.099,2.931-10.347,25.456-10.347,34.521
			c0,3.205,1.556,4.212,3.021,4.212c1.374,0,2.656-0.915,3.114-2.38c0.732-2.747,4.395-9.707,7.05-14.56
			c-0.641,2.106-0.915,3.48-0.915,5.678c0,3.937,2.197,7.233,5.036,7.233c5.128,0,8.699-9.706,8.699-10.438
			C133.881,31.21,133.698,31.119,133.423,30.935 M89.014,46.044c5.494,0,10.713-3.022,13.644-5.219
			c7.233-5.494,9.706-12.545,9.706-14.285c0-0.275-0.092-0.549-0.458-0.549c-1.648,0,0.091,1.74-6.044,9.157
			c-3.388,4.12-9.797,7.874-15.932,7.874c-6.135,0-7.509-4.12-7.509-9.34c0-12.911,13.369-25.638,23.075-25.638
			c0.824,0,1.648,0.091,2.381,0.274c-2.198,3.755-2.839,6.502-2.839,7.509c0.092,0.916,0.367,1.74,0.824,2.381
			c0.733,1.19,2.106,2.38,4.945,2.655l0.183-0.092c0.733-0.732-0.183-4.578,5.219-13.185c0.092-0.092,0.092-0.275,0.092-0.55
			c-0.275-2.472-3.754-4.944-10.713-4.944c-14.651,0-27.745,16.757-27.47,31.224C78.118,40.367,82.696,46.044,89.014,46.044"/>
	</g>
</g>
<g>
	<g opacity="0.3">
		<path d="M255.843,155.528c-2.21,0.116-3.985-1.737-4.038-2.741c-0.109-2.076,4.443-2.315,4.416-2.852
			c-0.01-0.2-0.084-0.331-0.155-0.394c-0.07-0.064-0.07-0.064-0.137-0.061c0.069,0.063-1.143-0.008-2.925,0.557
			c1.24-1.945,2.915-4.584,4.34-6.875c0.654,2.249,2.673,6.172,2.782,8.247C260.252,153.82,257.919,155.42,255.843,155.528
			 M261.348,140.133c-0.627-1.713-3.288-2.513-3.298-2.714l0.066-0.003c-0.603,0.03-1.171,2.008-1.129,2.812
			c-1.279,2.484-3.443,7.297-4.975,10.13c-1.261,0.269-1.871,1.441-1.801,2.781c0.111,2.143,2.212,5.054,6.229,4.843
			c3.548-0.186,7.376-2.735,7.138-7.29c-0.683-4.06-2.06-7.277-2.239-9.417c0.053-0.271,0.112-0.408,0.103-0.608
			C261.432,140.465,261.422,140.264,261.348,140.133 M250.955,137.724c0.12-0.274,0.174-0.547,0.155-0.881
			c-0.059-1.139-0.979-2.031-2.251-1.964c-1.271,0.066-2.157,1.12-2.084,2.527c0.061,1.138,0.585,2.185,1.857,2.117
			C249.638,139.471,250.539,138.753,250.955,137.724 M245.919,158.198c5.625-0.296,6.624-8.137,6.634-7.936l-0.142-0.127
			c-0.141-0.127-0.277-0.187-0.479-0.176c-0.063,0.069-0.13,0.074-0.13,0.074c-1.594,4.179-3.981,6.05-5.521,6.131
			c-1.004,0.052-1.173-0.61-1.226-1.615c-0.151-2.879,1.616-6.329,3.005-9.289c0.437-0.627,0.673-1.244,0.645-1.779
			c-0.14-2.679-3.587-3.102-3.402-3.447c-0.244,1.759-3.671,8.115-3.391,13.472C242.043,155.983,243.308,158.335,245.919,158.198
			 M243.696,150.391c-0.201,0.011-0.401,0.021-0.397,0.088c-1.595,4.181-3.512,6.026-4.784,6.093
			c-0.87,0.046-1.057-0.951-1.109-1.956c-0.183-3.481,2.408-6.572,3.329-9.508c0.112-0.408,0.162-0.747,0.151-0.947
			c-0.08-1.54-3.055-3.197-3.255-3.188c0.599,1.178-2.508,3.422-9.297,17.341c-0.067,0.003-0.067,0.003-0.064,0.07
			c-0.249-4.754,6.747-21.168,7.882-23.846c0.169-0.613,0.272-1.224,0.244-1.76c-0.106-2.008-3.707-2.826-3.919-3.017
			c0.028,0.536-0.194,1.42-0.42,2.238c-0.176,0.479-0.282,1.021-0.391,1.497c-0.691,2.185-6.592,19.012-6.244,25.641
			c0.123,2.343,1.3,3.021,2.372,2.964c1.004-0.052,1.905-0.771,2.185-1.859c0.43-2.037,2.842-7.267,4.598-10.917
			c-0.388,1.564-0.535,2.579-0.451,4.187c0.15,2.879,1.884,5.205,3.96,5.096c3.75-0.195,5.988-7.431,5.961-7.966
			C244.043,150.575,243.904,150.515,243.696,150.391 M232.959,140.614c5.173,0.064,6.167,1.087,6.702,1.059
			c0.335-0.019,0.382-1.699,0.37-1.9c-0.069-1.339-0.781-2.106-1.412-2.61c-0.353-0.318-0.765-0.498-1.243-0.675
			c-0.747-0.161-2.845-0.454-6.059-0.286c-2.344,0.123-5.146,0.471-8.398,1.179c0.427-0.828,0.667-1.378,0.628-2.114
			c-0.096-1.808-3.063-3.331-3.865-3.289c0.066-0.004-1.31,4.5-2.257,6.9c-2.379,0.729-3.762,1.271-5.033,1.338
			c-1.205,0.063-1.832-0.374-1.878-1.245c-0.056-1.071,0.599-1.374,1.067-1.399c0.336-0.017,0.412,0.181,0.613,0.171
			c0.134-0.008,0.198-0.078,0.191-0.213c-0.011-0.2-0.363-0.518-1.167-0.476c-1.3,0.807-1.924,1.713-1.872,2.717
			c0.081,1.54,1.832,2.925,4.444,2.789c0.735-0.039,1.535-0.147,2.389-0.529c-1.703,4.656-3.65,11.069-3.453,14.819
			c0.168,3.214,2.42,3.902,3.759,3.831c5.554-0.358,6.712-7.737,6.712-7.737l-0.141-0.127c-0.141-0.127-0.278-0.187-0.412-0.18
			c-0.064,0.071-0.131,0.074-0.131,0.074c-1.664,4.116-4.191,5.859-5.731,5.94c-0.736,0.038-1.093-0.346-1.138-1.217
			c-0.169-3.214,3.117-10.973,5.399-16.128c2.333-0.324,4.334-0.563,6.142-0.658C229.529,140.524,231.407,140.494,232.959,140.614"
			/>
	</g>
	<g>
		<path fill="#FFFFFF" d="M255.343,155.028c-2.21,0.116-3.985-1.737-4.038-2.741c-0.109-2.076,4.443-2.315,4.416-2.852
			c-0.01-0.2-0.084-0.331-0.155-0.394c-0.07-0.064-0.07-0.064-0.137-0.061c0.069,0.063-1.143-0.008-2.925,0.557
			c1.24-1.945,2.915-4.584,4.34-6.875c0.654,2.249,2.673,6.172,2.782,8.247C259.752,153.32,257.419,154.92,255.343,155.028
			 M260.848,139.633c-0.627-1.713-3.288-2.513-3.298-2.714l0.066-0.003c-0.603,0.03-1.171,2.008-1.129,2.812
			c-1.279,2.484-3.443,7.297-4.975,10.13c-1.261,0.269-1.871,1.441-1.801,2.781c0.111,2.143,2.212,5.054,6.229,4.843
			c3.548-0.186,7.376-2.735,7.138-7.29c-0.683-4.06-2.06-7.277-2.239-9.417c0.053-0.271,0.112-0.408,0.103-0.608
			C260.932,139.965,260.922,139.764,260.848,139.633 M250.455,137.224c0.12-0.274,0.174-0.547,0.155-0.881
			c-0.059-1.139-0.979-2.031-2.251-1.964c-1.271,0.066-2.157,1.12-2.084,2.527c0.061,1.138,0.585,2.185,1.857,2.117
			C249.138,138.971,250.039,138.253,250.455,137.224 M245.419,157.698c5.625-0.296,6.624-8.137,6.634-7.936l-0.142-0.127
			c-0.141-0.127-0.277-0.187-0.479-0.176c-0.063,0.069-0.13,0.074-0.13,0.074c-1.594,4.179-3.981,6.05-5.521,6.131
			c-1.004,0.052-1.173-0.61-1.226-1.615c-0.151-2.879,1.616-6.329,3.005-9.289c0.437-0.627,0.673-1.244,0.645-1.779
			c-0.14-2.679-3.587-3.102-3.402-3.447c-0.244,1.759-3.671,8.115-3.391,13.472C241.543,155.483,242.808,157.835,245.419,157.698
			 M243.196,149.891c-0.201,0.011-0.401,0.021-0.397,0.088c-1.595,4.181-3.512,6.026-4.784,6.093
			c-0.87,0.046-1.057-0.951-1.109-1.956c-0.183-3.481,2.408-6.572,3.329-9.508c0.112-0.408,0.162-0.747,0.151-0.947
			c-0.08-1.54-3.055-3.197-3.255-3.188c0.599,1.178-2.508,3.422-9.297,17.341c-0.067,0.003-0.067,0.003-0.064,0.07
			c-0.249-4.754,6.747-21.168,7.882-23.846c0.169-0.613,0.272-1.224,0.244-1.76c-0.106-2.008-3.707-2.826-3.919-3.017
			c0.028,0.536-0.194,1.42-0.42,2.238c-0.176,0.479-0.282,1.021-0.391,1.497c-0.691,2.185-6.592,19.012-6.244,25.641
			c0.123,2.343,1.3,3.021,2.372,2.964c1.004-0.052,1.905-0.771,2.185-1.859c0.43-2.037,2.842-7.267,4.598-10.917
			c-0.388,1.564-0.535,2.579-0.451,4.187c0.15,2.879,1.884,5.205,3.96,5.096c3.75-0.195,5.988-7.431,5.961-7.966
			C243.543,150.075,243.404,150.015,243.196,149.891 M232.459,140.114c5.173,0.064,6.167,1.087,6.702,1.059
			c0.335-0.019,0.382-1.699,0.37-1.9c-0.069-1.339-0.781-2.106-1.412-2.61c-0.353-0.318-0.765-0.498-1.243-0.675
			c-0.747-0.161-2.845-0.454-6.059-0.286c-2.344,0.123-5.146,0.471-8.398,1.179c0.427-0.828,0.667-1.378,0.628-2.114
			c-0.096-1.808-3.063-3.331-3.865-3.289c0.066-0.004-1.31,4.5-2.257,6.9c-2.379,0.729-3.762,1.271-5.033,1.338
			c-1.205,0.063-1.832-0.374-1.878-1.245c-0.056-1.071,0.599-1.374,1.067-1.399c0.336-0.017,0.412,0.181,0.613,0.171
			c0.134-0.008,0.198-0.078,0.191-0.213c-0.011-0.2-0.363-0.518-1.167-0.476c-1.3,0.807-1.924,1.713-1.872,2.717
			c0.081,1.54,1.832,2.925,4.444,2.789c0.735-0.039,1.535-0.147,2.389-0.529c-1.703,4.656-3.65,11.069-3.453,14.819
			c0.168,3.214,2.42,3.902,3.759,3.831c5.554-0.358,6.712-7.737,6.712-7.737l-0.141-0.127c-0.141-0.127-0.278-0.187-0.412-0.18
			c-0.064,0.071-0.131,0.074-0.131,0.074c-1.664,4.116-4.191,5.859-5.731,5.94c-0.736,0.038-1.093-0.346-1.138-1.217
			c-0.169-3.214,3.117-10.973,5.399-16.128c2.333-0.324,4.334-0.563,6.142-0.658C229.029,140.024,230.907,139.994,232.459,140.114"
			/>
	</g>
</g>
<g>
	<g opacity="0.3">
		<path d="M20.616,81.342c2.308-0.353,4.621-0.591,6.825-0.706c6.496-0.341,12.68,0.033,18.87,0.523
			c-5.063,9.919-10.549,25.094-20.176,25.598c-5.915,0.31-13.008-6.297-13.409-13.952C12.459,87.701,15.207,82.439,20.616,81.342
			 M65.696,64.906c-1.136,2.735-2.363,5.94-3.451,9.602c-1.746-0.025-3.486,0.067-5.347,0.048
			C59.707,70.454,62.68,67.273,65.696,64.906 M18.815,109.118c2.411,1.618,4.895,2.419,7.563,2.279
			c7.772-0.408,14.476-7.854,17.53-13.946c2.632-5.255,5.722-10.651,8.586-15.919c2.802,0.203,5.727,0.514,7.582,0.417
			c-1.246,5.067-2.358,10.475-2.036,16.623c0.237,4.523,5.523,7.736,9.119,7.547c0.347-0.018,0.805-0.158,1.379-0.305
			c8.382-2.067,10.221-6.932,10.569-6.951l0.006,0.116c-0.018-0.348-0.5-0.671-0.848-0.653s-0.977,1.331-6.081,3.808
			c-1.258,0.415-2.62,1.068-4.359,1.159c-4.06,0.213-5.946-2.48-6.11-5.612c-0.225-4.291,1.999-10.689,3.953-15.56
			c3.962,0.142,9.029-0.822,12.276,1.218c-0.03-0.58-0.066-1.276,0.019-1.862c0.061-1.05,0.104-2.448,0.038-3.724
			c-0.098-1.856-1.233-3.541-9.236-3.121c2.492-5.714,7.597-12.611,7.457-15.279c-0.213-4.059-1.397-4.462-3.253-4.365
			c-4.639,0.243-16.056,6.54-23.385,19.835c-11.135,0.583-20.952,1.912-26.025,2.759c-7.258,1.311-14.903,6.364-14.422,15.527
			C9.459,99.257,13.169,105.692,18.815,109.118"/>
	</g>
	<g>
		<path fill="#FFFFFF" d="M19.616,80.342c2.308-0.353,4.621-0.591,6.825-0.706c6.496-0.341,12.68,0.033,18.87,0.523
			c-5.063,9.919-10.549,25.094-20.176,25.598c-5.915,0.31-13.008-6.297-13.409-13.952C11.459,86.701,14.207,81.439,19.616,80.342
			 M64.696,63.906c-1.136,2.735-2.363,5.94-3.451,9.602c-1.746-0.025-3.486,0.067-5.347,0.048
			C58.707,69.454,61.68,66.273,64.696,63.906 M17.815,108.118c2.411,1.618,4.895,2.419,7.563,2.279
			c7.772-0.408,14.476-7.854,17.53-13.946c2.632-5.255,5.722-10.651,8.586-15.919c2.802,0.203,5.727,0.514,7.582,0.417
			c-1.246,5.067-2.358,10.475-2.036,16.623c0.237,4.523,5.523,7.736,9.119,7.547c0.347-0.018,0.805-0.158,1.379-0.305
			c8.382-2.067,10.221-6.932,10.569-6.951l0.006,0.116c-0.018-0.348-0.5-0.671-0.848-0.653s-0.977,1.331-6.081,3.808
			c-1.258,0.415-2.62,1.068-4.359,1.159c-4.06,0.213-5.946-2.48-6.11-5.612c-0.225-4.291,1.999-10.689,3.953-15.56
			c3.962,0.142,9.029-0.822,12.276,1.218c-0.03-0.58-0.066-1.276,0.019-1.862c0.061-1.05,0.104-2.448,0.038-3.724
			c-0.098-1.856-1.233-3.541-9.236-3.121c2.492-5.714,7.597-12.611,7.457-15.279c-0.213-4.059-1.397-4.462-3.253-4.365
			c-4.639,0.243-16.056,6.54-23.385,19.835c-11.135,0.583-20.952,1.912-26.025,2.759c-7.258,1.311-14.903,6.364-14.422,15.527
			C8.459,98.257,12.169,104.692,17.815,108.118"/>
	</g>
</g>
<g>
	<g opacity="0.3">
		<path d="M285.448,232.453c-3.894,1.017-7.735-1.634-8.198-3.403c-0.955-3.657,7.066-5.752,6.82-6.696
			c-0.093-0.354-0.272-0.559-0.421-0.646s-0.148-0.087-0.267-0.057c0.149,0.088-2.036,0.405-5.006,2.063
			c1.497-3.919,3.511-9.234,5.207-13.836c1.992,3.765,7.025,10.011,7.98,13.668C292.674,227.794,289.104,231.498,285.448,232.453
			 M289.604,203.014c-1.745-2.819-6.776-3.27-6.869-3.624l0.118-0.031c-1.062,0.278-1.348,4.008-0.978,5.423
			c-1.368,4.894-3.458,14.261-5.145,19.867c-2.148,0.939-2.805,3.254-2.188,5.612c0.986,3.775,5.793,8.19,12.871,6.341
			c6.252-1.633,12.134-7.58,10.039-15.601c-2.706-6.981-6.339-12.206-7.443-15.95c-0.005-0.503,0.051-0.77-0.042-1.124
			C289.876,203.573,289.784,203.22,289.604,203.014 M261.121,234.173c-1.574,2.697-3.756,4.62-6.531,5.028
			c-5.307,0.78-6.688-3.575-7.185-6.953c-1.048-7.116,4.691-15.849,10-16.629c1.93-0.285,3.675,0.69,5.354,2.046
			C261.571,222.153,260.323,228.745,261.121,234.173 M277.391,224.138c-0.361,0.053-0.724,0.107-0.706,0.228
			c-1.563,9.473-4.904,14.4-7.196,14.738c-1.087,0.16-1.885-1.079-2.275-3.731c-0.853-5.79,2.049-12.872,3.993-18.088l0.121-0.018
			c0.406-1.416,0.851-2.59,0.655-3.917c-0.408-2.774-6.315-5.232-6.799-5.162c-0.066,0.381,0.022,0.983-0.269,1.52
			c-1.969-0.819-3.854-1.898-7.352-1.383c-10.133,1.49-15.925,14.051-14.575,23.219c0.551,3.739,3.325,11.711,10.684,10.628
			c5.307-0.781,6.932-3.978,8.028-5.741c1.813,4.785,4.975,6.169,7.387,5.814c7.117-1.048,9.155-16.506,8.978-17.712
			C278.047,224.411,277.788,224.326,277.391,224.138 M219.006,239.773c0.32-1.2,7.301-13.225,11.226-19.333
			c-1.855,4.282-3.757,9.295-4.023,13.554c-0.365,5.841,2.73,9.089,5.772,9.278c7.181,0.448,12.383-12.42,12.42-13.027l-0.229-0.259
			c-0.229-0.26-0.464-0.396-0.829-0.418c-0.129,0.113-0.251,0.105-0.251,0.105c-3.749,7.218-7.597,10.154-9.909,10.009
			c-1.339-0.084-1.499-1.437-1.385-3.263c0.502-8.031,10.328-18.656,10.617-23.28c0.16-2.555-4.989-6.175-5.11-6.183
			c-2.008,6.716-5.712,5.385-20.877,29.114c0.973-9.713,10.716-18.999,11.005-23.623c0.175-2.8-4.853-6.411-5.218-6.435
			c-0.433,1.072-0.996,2.259-1.81,3.552c-0.419,0.829-0.95,1.528-1.49,2.351c-2.069,1.825-7.934,9.644-16.474,23.158
			c0.501-8.031,9.264-19.211,12.139-24.162c-0.937-0.669-1.879-1.217-2.708-1.635c-1.529-0.951-3.188-1.787-4.525-1.871
			c-0.487-0.03-9.659,13.811-10.419,25.979c-0.312,4.989,0.616,7.735,4.388,7.971c3.286,0.205,6.48-7.902,11.994-17.941
			c-1.315,3.461-2.282,7.187-2.495,10.595c-0.304,4.867,0.594,8.099,4.487,8.343C215.911,242.391,217.995,242.277,219.006,239.773
			 M222.249,210.929c8.98,2.803,10.181,5.102,11.129,5.33c0.592,0.145,1.547-2.761,1.633-3.117c0.574-2.369-0.266-4.078-1.103-5.285
			c-0.449-0.735-1.074-1.264-1.817-1.819c-1.218-0.671-4.719-2.272-10.407-3.65c-4.146-1.005-9.21-1.854-15.246-2.313
			c1.174-1.222,1.877-2.055,2.193-3.358c0.775-3.199-3.604-7.396-5.024-7.741c0.118,0.029-4.62,7.161-7.521,10.85
			c-4.524,0.032-7.214,0.26-9.465-0.285c-2.133-0.518-2.999-1.605-2.625-3.146c0.459-1.896,1.759-2.083,2.588-1.882
			c0.593,0.144,0.625,0.527,0.98,0.613c0.237,0.058,0.385-0.032,0.441-0.27c0.086-0.354-0.363-1.091-1.785-1.436
			c-2.685,0.729-4.243,1.983-4.674,3.76c-0.66,2.727,1.671,6.05,6.292,7.17c1.303,0.316,2.754,0.542,4.438,0.322
			c-5.388,7.226-12.114,17.388-13.723,24.024c-1.378,5.688,2.188,8.057,4.559,8.631c9.863,2.264,15.718-9.992,15.718-9.992
			l-0.18-0.294c-0.18-0.294-0.388-0.47-0.625-0.528c-0.146,0.09-0.266,0.062-0.266,0.062c-5.04,6.306-10.35,8.03-13.076,7.371
			c-1.303-0.316-1.723-1.172-1.35-2.712c1.378-5.688,11.139-17.498,17.794-25.296c4.233,0.649,7.846,1.274,11.046,2.05
			C216.321,208.991,219.609,209.913,222.249,210.929 M162.172,226.91c-3.933-0.848-6.169-4.945-5.784-6.733
			c0.796-3.695,8.901-1.95,9.106-2.904c0.077-0.356,0.009-0.62-0.084-0.766c-0.095-0.145-0.095-0.145-0.213-0.171
			c0.094,0.145-2-0.555-5.398-0.414c3.102-2.824,7.296-6.66,10.884-10.003c0.081,4.257,1.759,12.102,0.964,15.797
			C170.723,226.007,165.867,227.705,162.172,226.91 M179.15,202.504c-0.286-3.305-4.575-5.974-4.499-6.332l0.119,0.026
			c-1.071-0.231-3.009,2.969-3.315,4.398c-3.428,3.752-9.516,11.172-13.547,15.417c-2.342-0.13-3.97,1.641-4.483,4.024
			c-0.821,3.813,1.481,9.922,8.632,11.461c6.317,1.361,14.248-1.297,15.993-9.402c0.731-7.451-0.157-13.753,0.545-17.593
			c0.222-0.451,0.394-0.664,0.47-1.021C179.142,203.125,179.219,202.768,179.15,202.504 M160.446,193.082
			c0.32-0.44,0.521-0.901,0.622-1.502c0.344-2.045-0.938-3.99-3.223-4.373s-4.27,1.138-4.694,3.663
			c-0.343,2.045,0.177,4.109,2.461,4.493C157.417,195.665,159.302,194.745,160.446,193.082 M143.435,227.44
			c10.101,1.694,14.964-11.83,14.904-11.47l-0.2-0.281c-0.2-0.28-0.421-0.44-0.781-0.502c-0.141,0.101-0.261,0.08-0.261,0.08
			c-4.476,6.791-9.45,9.171-12.215,8.707c-1.804-0.302-1.843-1.545-1.54-3.349c0.866-5.17,5.362-10.598,8.994-15.305
			c1.023-0.941,1.686-1.942,1.847-2.904c0.808-4.811-5.144-6.92-4.683-7.461c-1.125,3.024-9.714,12.959-11.327,22.579
			C137.427,221.983,138.746,226.655,143.435,227.44 M141.123,212.231c-0.111-0.132-0.354-0.152-0.476-0.162
			c-0.132,0.11-0.253,0.1-0.253,0.1c-3.918,7.128-7.834,9.973-10.142,9.774c-1.336-0.115-1.464-1.473-1.307-3.295
			c0.7-8.139,10.852-18.033,11.27-22.893c0.241-2.794-4.832-6.413-5.075-6.434c-0.48,1.305-1.234,2.954-2.209,4.338
			c-0.438,0.818-0.997,1.628-1.677,2.426l-3.402-0.293c-2.308-0.198-5.435-0.835-5.393-1.32c0.396-0.334,0.396-0.334,0.976-1.385
			c0.01-0.121-2.246-0.927-4.987-1.775c-0.819-0.438-1.437-0.368-1.801-0.399c-1.337-0.115-1.531,0.725-1.688,2.547
			c-0.157,1.822,0.332,4.679,2.969,6.741c-1.38,4.653-4.089,10.54-5.707,13.705c-0.122-0.012-0.122-0.012-0.132,0.11l-0.032,0.364
			c-0.031,0.365,0.313,0.639,0.92,0.691c0.972,0.084,0.722-1.284,7.873-13.273c0.597,0.174,1.204,0.226,2.054,0.299
			c1.822,0.157,3.291,0.161,5.144-0.047c-2.198,4.216-4.227,9.304-4.635,14.042c-0.501,5.83,2.517,9.149,5.554,9.411
			c7.167,0.616,12.669-12.127,12.721-12.734C141.699,212.648,141.466,212.506,141.123,212.231 M115.048,209.09
			c-0.364,0.041-0.727,0.081-0.714,0.202c-2.444,7.758-5.727,11.314-8.029,11.572c-1.575,0.177-2.021-1.614-2.224-3.432
			c-0.705-6.301,3.666-12.188,5.022-17.614c0.161-0.756,0.214-1.374,0.174-1.737c-0.312-2.787-5.889-5.477-6.252-5.436
			c1.213,2.072-4.182,6.479-15.015,32.475c-0.121,0.013-0.121,0.013-0.107,0.134c-0.963-8.602,9.974-39.148,11.747-44.131
			c0.241-1.131,0.362-2.249,0.253-3.218c-0.406-3.636-7.032-4.734-7.436-5.058c0.109,0.969-0.2,2.6-0.522,4.107
			c-0.268,0.889-0.402,1.885-0.55,2.761c-1.02,4.04-9.923,35.216-8.58,47.212c0.474,4.241,2.683,5.343,4.622,5.126
			c1.817-0.203,3.378-1.604,3.767-3.61c0.563-3.744,4.379-13.495,7.174-20.311c-0.536,2.882-0.696,4.74-0.371,7.648
			c0.583,5.211,3.979,9.247,7.735,8.826c6.786-0.759,10.074-14.132,9.966-15.101C115.694,209.386,115.438,209.292,115.048,209.09
			 M61.447,240.642c6.96-2.252,12.334-8.219,15.146-12.204c6.912-9.925,7.155-19.869,6.442-22.074
			c-0.113-0.349-0.341-0.658-0.805-0.509c-2.088,0.677,0.829,2.167-3.904,14.077c-2.603,6.609-9.185,13.992-16.957,16.507
			c-7.773,2.515-11.201-2.143-13.341-8.756c-5.291-16.355,6.43-37.96,18.726-41.938c1.044-0.338,2.126-0.56,3.129-0.628
			c-1.246,5.656-0.932,9.399-0.519,10.676c0.491,1.123,1.177,2.054,2.02,2.678c1.416,1.208,3.643,2.153,7.352,1.338l0.195-0.19
			c0.627-1.229-2.109-5.726,1.208-18.845c0.078-0.152,0.003-0.385-0.109-0.732c-1.361-3.021-6.783-4.727-15.599-1.874
			c-18.561,6.005-28.282,32.6-22.005,50.815C45.316,237.915,53.443,243.23,61.447,240.642"/>
	</g>
	<g>
		<path fill="#FFFFFF" d="M284.448,231.453c-3.894,1.017-7.735-1.634-8.198-3.403c-0.955-3.657,7.066-5.752,6.82-6.696
			c-0.093-0.354-0.272-0.559-0.421-0.646s-0.148-0.087-0.267-0.057c0.149,0.088-2.036,0.405-5.006,2.063
			c1.497-3.919,3.511-9.234,5.207-13.836c1.992,3.765,7.025,10.011,7.98,13.668C291.674,226.794,288.104,230.498,284.448,231.453
			 M288.604,202.014c-1.745-2.819-6.776-3.27-6.869-3.624l0.118-0.031c-1.062,0.278-1.348,4.008-0.978,5.423
			c-1.368,4.894-3.458,14.261-5.145,19.867c-2.148,0.939-2.805,3.254-2.188,5.612c0.986,3.775,5.793,8.19,12.871,6.341
			c6.252-1.633,12.134-7.58,10.039-15.601c-2.706-6.981-6.339-12.206-7.443-15.95c-0.005-0.503,0.051-0.77-0.042-1.124
			C288.876,202.573,288.784,202.22,288.604,202.014 M260.121,233.173c-1.574,2.697-3.756,4.62-6.531,5.028
			c-5.307,0.78-6.688-3.575-7.185-6.953c-1.048-7.116,4.691-15.849,10-16.629c1.93-0.285,3.675,0.69,5.354,2.046
			C260.571,221.153,259.323,227.745,260.121,233.173 M276.391,223.138c-0.361,0.053-0.724,0.107-0.706,0.228
			c-1.563,9.473-4.904,14.4-7.196,14.738c-1.087,0.16-1.885-1.079-2.275-3.731c-0.853-5.79,2.049-12.872,3.993-18.088l0.121-0.018
			c0.406-1.416,0.851-2.59,0.655-3.917c-0.408-2.774-6.315-5.232-6.799-5.162c-0.066,0.381,0.022,0.983-0.269,1.52
			c-1.969-0.819-3.854-1.898-7.352-1.383c-10.133,1.49-15.925,14.051-14.575,23.219c0.551,3.739,3.325,11.711,10.684,10.628
			c5.307-0.781,6.932-3.978,8.028-5.741c1.813,4.785,4.975,6.169,7.387,5.814c7.117-1.048,9.155-16.506,8.978-17.712
			C277.047,223.411,276.788,223.326,276.391,223.138 M218.006,238.773c0.32-1.2,7.301-13.225,11.226-19.333
			c-1.855,4.282-3.757,9.295-4.023,13.554c-0.365,5.841,2.73,9.089,5.772,9.278c7.181,0.448,12.383-12.42,12.42-13.027l-0.229-0.259
			c-0.229-0.26-0.464-0.396-0.829-0.418c-0.129,0.113-0.251,0.105-0.251,0.105c-3.749,7.218-7.597,10.154-9.909,10.009
			c-1.339-0.084-1.499-1.437-1.385-3.263c0.502-8.031,10.328-18.656,10.617-23.28c0.16-2.555-4.989-6.175-5.11-6.183
			c-2.008,6.716-5.712,5.385-20.877,29.114c0.973-9.713,10.716-18.999,11.005-23.623c0.175-2.8-4.853-6.411-5.218-6.435
			c-0.433,1.072-0.996,2.259-1.81,3.552c-0.419,0.829-0.95,1.528-1.49,2.351c-2.069,1.825-7.934,9.644-16.474,23.158
			c0.501-8.031,9.264-19.211,12.139-24.162c-0.937-0.669-1.879-1.217-2.708-1.635c-1.529-0.951-3.188-1.787-4.525-1.871
			c-0.487-0.03-9.659,13.811-10.419,25.979c-0.312,4.989,0.616,7.735,4.388,7.971c3.286,0.205,6.48-7.902,11.994-17.941
			c-1.315,3.461-2.282,7.187-2.495,10.595c-0.304,4.867,0.594,8.099,4.487,8.343C214.911,241.391,216.995,241.277,218.006,238.773
			 M221.249,209.929c8.98,2.803,10.181,5.102,11.129,5.33c0.592,0.145,1.547-2.761,1.633-3.117c0.574-2.369-0.266-4.078-1.103-5.285
			c-0.449-0.735-1.074-1.264-1.817-1.819c-1.218-0.671-4.719-2.272-10.407-3.65c-4.146-1.005-9.21-1.854-15.246-2.313
			c1.174-1.222,1.877-2.055,2.193-3.358c0.775-3.199-3.604-7.396-5.024-7.741c0.118,0.029-4.62,7.161-7.521,10.85
			c-4.524,0.032-7.214,0.26-9.465-0.285c-2.133-0.518-2.999-1.605-2.625-3.146c0.459-1.896,1.759-2.083,2.588-1.882
			c0.593,0.144,0.625,0.527,0.98,0.613c0.237,0.058,0.385-0.032,0.441-0.27c0.086-0.354-0.363-1.091-1.785-1.436
			c-2.685,0.729-4.243,1.983-4.674,3.76c-0.66,2.727,1.671,6.05,6.292,7.17c1.303,0.316,2.754,0.542,4.438,0.322
			c-5.388,7.226-12.114,17.388-13.723,24.024c-1.378,5.688,2.188,8.057,4.559,8.631c9.863,2.264,15.718-9.992,15.718-9.992
			l-0.18-0.294c-0.18-0.294-0.388-0.47-0.625-0.528c-0.146,0.09-0.266,0.062-0.266,0.062c-5.04,6.306-10.35,8.03-13.076,7.371
			c-1.303-0.316-1.723-1.172-1.35-2.712c1.378-5.688,11.139-17.498,17.794-25.296c4.233,0.649,7.846,1.274,11.046,2.05
			C215.321,207.991,218.609,208.913,221.249,209.929 M161.172,225.91c-3.933-0.848-6.169-4.945-5.784-6.733
			c0.796-3.695,8.901-1.95,9.106-2.904c0.077-0.356,0.009-0.62-0.084-0.766c-0.095-0.145-0.095-0.145-0.213-0.171
			c0.094,0.145-2-0.555-5.398-0.414c3.102-2.824,7.296-6.66,10.884-10.003c0.081,4.257,1.759,12.102,0.964,15.797
			C169.723,225.007,164.867,226.705,161.172,225.91 M178.15,201.504c-0.286-3.305-4.575-5.974-4.499-6.332l0.119,0.026
			c-1.071-0.231-3.009,2.969-3.315,4.398c-3.428,3.752-9.516,11.172-13.547,15.417c-2.342-0.13-3.97,1.641-4.483,4.024
			c-0.821,3.813,1.481,9.922,8.632,11.461c6.317,1.361,14.248-1.297,15.993-9.402c0.731-7.451-0.157-13.753,0.545-17.593
			c0.222-0.451,0.394-0.664,0.47-1.021C178.142,202.125,178.219,201.768,178.15,201.504 M159.446,192.082
			c0.32-0.44,0.521-0.901,0.622-1.502c0.344-2.045-0.938-3.99-3.223-4.373s-4.27,1.138-4.694,3.663
			c-0.343,2.045,0.177,4.109,2.461,4.493C156.417,194.665,158.302,193.745,159.446,192.082 M142.435,226.44
			c10.101,1.694,14.964-11.83,14.904-11.47l-0.2-0.281c-0.2-0.28-0.421-0.44-0.781-0.502c-0.141,0.101-0.261,0.08-0.261,0.08
			c-4.476,6.791-9.45,9.171-12.215,8.707c-1.804-0.302-1.843-1.545-1.54-3.349c0.866-5.17,5.362-10.598,8.994-15.305
			c1.023-0.941,1.686-1.942,1.847-2.904c0.807-4.811-5.144-6.92-4.683-7.461c-1.125,3.024-9.714,12.959-11.327,22.579
			C136.427,220.983,137.746,225.655,142.435,226.44 M140.123,211.231c-0.111-0.132-0.354-0.152-0.476-0.162
			c-0.132,0.11-0.253,0.1-0.253,0.1c-3.918,7.128-7.834,9.973-10.142,9.774c-1.336-0.115-1.464-1.473-1.307-3.295
			c0.7-8.139,10.852-18.033,11.27-22.893c0.241-2.794-4.832-6.413-5.075-6.434c-0.48,1.305-1.234,2.954-2.209,4.338
			c-0.438,0.818-0.997,1.628-1.677,2.426l-3.402-0.293c-2.308-0.198-5.435-0.835-5.393-1.32c0.396-0.334,0.396-0.334,0.976-1.385
			c0.01-0.121-2.246-0.927-4.987-1.775c-0.819-0.438-1.437-0.368-1.801-0.399c-1.337-0.115-1.531,0.725-1.688,2.547
			c-0.157,1.822,0.332,4.679,2.969,6.741c-1.38,4.653-4.089,10.54-5.707,13.705c-0.122-0.012-0.122-0.012-0.132,0.11l-0.032,0.364
			c-0.031,0.365,0.313,0.639,0.92,0.691c0.972,0.084,0.722-1.284,7.873-13.273c0.597,0.174,1.204,0.226,2.054,0.299
			c1.822,0.157,3.291,0.161,5.144-0.047c-2.198,4.216-4.227,9.304-4.635,14.042c-0.501,5.83,2.517,9.149,5.554,9.411
			c7.167,0.616,12.669-12.127,12.721-12.734C140.699,211.648,140.466,211.506,140.123,211.231 M114.048,208.09
			c-0.364,0.041-0.727,0.081-0.714,0.202c-2.444,7.758-5.727,11.314-8.029,11.572c-1.575,0.177-2.021-1.614-2.224-3.432
			c-0.705-6.301,3.666-12.188,5.022-17.614c0.161-0.756,0.214-1.374,0.174-1.737c-0.312-2.787-5.889-5.477-6.252-5.436
			c1.213,2.072-4.182,6.479-15.015,32.475c-0.121,0.013-0.121,0.013-0.107,0.134c-0.963-8.602,9.974-39.148,11.747-44.131
			c0.241-1.131,0.362-2.249,0.253-3.218c-0.406-3.636-7.032-4.734-7.436-5.058c0.109,0.969-0.2,2.6-0.522,4.107
			c-0.268,0.889-0.402,1.885-0.55,2.761c-1.02,4.04-9.923,35.216-8.58,47.212c0.474,4.241,2.683,5.343,4.622,5.126
			c1.817-0.203,3.378-1.604,3.767-3.61c0.563-3.744,4.379-13.495,7.174-20.311c-0.536,2.882-0.696,4.74-0.371,7.648
			c0.583,5.211,3.979,9.247,7.735,8.826c6.786-0.759,10.074-14.132,9.966-15.101C114.694,208.386,114.438,208.292,114.048,208.09
			 M60.447,239.642c6.96-2.252,12.334-8.219,15.146-12.204c6.912-9.925,7.155-19.869,6.442-22.074
			c-0.113-0.349-0.341-0.658-0.805-0.509c-2.088,0.677,0.829,2.167-3.904,14.077c-2.603,6.609-9.185,13.992-16.957,16.507
			c-7.773,2.515-11.201-2.143-13.341-8.756c-5.291-16.355,6.43-37.96,18.726-41.938c1.044-0.338,2.126-0.56,3.129-0.628
			c-1.246,5.656-0.932,9.399-0.519,10.676c0.491,1.123,1.177,2.054,2.02,2.678c1.416,1.208,3.643,2.153,7.352,1.338l0.195-0.19
			c0.627-1.229-2.109-5.726,1.208-18.845c0.078-0.152,0.003-0.385-0.109-0.732c-1.361-3.021-6.783-4.727-15.599-1.874
			c-18.561,6.005-28.282,32.6-22.005,50.815C44.316,236.915,52.443,242.23,60.447,239.642"/>
	</g>
</g>
</svg>
