<?xml version="1.0" encoding="utf-8"?>
<!-- Generator: Adobe Illustrator 16.0.2, SVG Export Plug-In . SVG Version: 6.00 Build 0)  -->
<!DOCTYPE svg PUBLIC "-//W3C//DTD SVG 1.1//EN" "http://www.w3.org/Graphics/SVG/1.1/DTD/svg11.dtd" [
	<!ENTITY ns_flows "http://ns.adobe.com/Flows/1.0/">
	<!ENTITY ns_extend "http://ns.adobe.com/Extensibility/1.0/">
	<!ENTITY ns_ai "http://ns.adobe.com/AdobeIllustrator/10.0/">
	<!ENTITY ns_graphs "http://ns.adobe.com/Graphs/1.0/">
]>
<svg version="1.1" xmlns:x="&ns_extend;" xmlns:i="&ns_ai;" xmlns:graph="&ns_graphs;"
	 xmlns="http://www.w3.org/2000/svg" xmlns:xlink="http://www.w3.org/1999/xlink" xmlns:a="http://ns.adobe.com/AdobeSVGViewerExtensions/3.0/"
	 x="0px" y="0px" width="612px" height="792px" viewBox="0 0 612 792" enable-background="new 0 0 612 792" xml:space="preserve">
<g id="Layer_1">
	<g>
		<path fill="#796441" d="M85.469,344.411c-0.39-20.541,18.201-44.332,39.001-44.332c9.88,0,14.821,3.51,15.21,7.021
			c0,0.39,0,0.65-0.13,0.78c-7.67,12.221-6.37,17.681-7.41,18.721l-0.26,0.13c-4.03-0.39-5.98-2.08-7.02-3.771
			c-0.65-0.91-1.04-2.08-1.17-3.38c0-1.43,0.91-5.33,4.03-10.661c-1.04-0.26-2.21-0.39-3.38-0.39
			c-13.781,0-32.761,18.071-32.761,36.401c0,7.411,1.95,13.261,10.66,13.261c8.71,0,17.811-5.33,22.621-11.181
			c8.71-10.53,6.24-13,8.58-13c0.52,0,0.65,0.39,0.65,0.78c0,2.47-3.51,12.48-13.781,20.281c-4.16,3.12-11.57,7.41-19.371,7.41
			C91.969,362.481,85.469,354.421,85.469,344.411z"/>
		<path fill="#796441" d="M163.338,341.551c0,1.04-5.07,14.82-12.351,14.82c-4.03,0-7.15-4.68-7.15-10.27
			c0-3.12,0.39-5.07,1.3-8.061c-3.77,6.89-8.97,16.771-10.01,20.671c-0.65,2.08-2.47,3.38-4.42,3.38c-2.08,0-4.291-1.43-4.291-5.98
			c0-12.871,13.13-44.852,14.691-49.012c0.26-0.91,0.52-1.95,0.91-2.86c0.52-1.56,1.04-3.25,1.04-4.29
			c0.39,0.39,7.28,2.34,7.28,6.24c0,1.04-0.26,2.21-0.65,3.38c-2.47,5.07-17.681,36.142-17.681,45.372c0-0.13,0-0.13,0.13-0.13
			c14.561-26.261,20.801-30.292,19.761-32.631c0.39,0,5.98,3.51,5.98,6.5c0,0.39-0.13,1.04-0.39,1.82
			c-2.08,5.59-7.41,11.31-7.41,18.071c0,1.95,0.26,3.9,1.95,3.9c2.47,0,6.371-3.38,9.881-11.311c0-0.13,0.39-0.13,0.78-0.13
			C163.078,341.291,163.338,341.421,163.338,341.551z"/>
		<path fill="#796441" d="M196.618,341.551c0,1.3-4.55,17.291-12.221,17.291c-2.6,0-5.72-1.95-6.89-7.28
			c-1.43,1.69-3.64,4.81-9.36,4.81c-7.93,0-9.62-8.84-9.62-12.87c0-9.88,8.06-22.231,18.98-22.231c3.77,0,5.59,1.43,7.54,2.6
			c0.39-0.52,0.39-1.17,0.521-1.56c0.52,0,6.37,3.51,6.37,6.5c0,1.43-0.65,2.6-1.3,4.03h-0.13c-2.86,5.2-7.02,12.221-7.02,18.461
			c0,2.86,0.65,4.29,1.82,4.29c2.47,0,6.76-4.68,9.88-14.431c0-0.13,0.39-0.13,0.78-0.13
			C196.357,341.291,196.618,341.421,196.618,341.551z M181.537,331.931c-1.56-1.69-3.25-2.99-5.33-2.99
			c-5.721,0-13.131,8.32-13.131,15.99c0,3.641,0.78,8.451,6.5,8.451c2.99,0,5.59-1.69,7.67-4.291
			C177.247,343.241,179.587,336.48,181.537,331.931z"/>
		<path fill="#796441" d="M209.746,344.801c0-4.68,1.17-7.93,2.86-12.61c-3.12,5.85-10.141,18.461-11.181,22.491
			c0,0.13-1.95,5.07-4.68,5.07c-4.16,0-5.2-3.51-5.2-8.71c0-11.44,6.63-23.011,7.28-24.441c1.04-2.08,2.21-5.59,2.6-6.76
			c1.17,0,5.98,3.9,5.98,6.63c0,5.85-10.011,14.69-10.011,24.961c0,0.65,0,1.17,0.13,1.56
			c17.291-32.891,20.281-28.601,21.841-35.621c0.39,0,5.98,3.51,5.98,6.5c0,0.52-0.26,2.34-0.91,2.99
			c-2.73,5.85-8.71,13.13-8.71,20.15c0,1.95,0.26,3.38,1.82,3.38c2.21,0,6.37-3.38,9.88-11.311c0,0,0.13,0,0.26-0.13
			c0.26,0,0.521,0.13,0.78,0.39l0.26,0.26c0,0.52-4.55,14.69-12.22,14.69c-1.56,0-3.38-0.52-4.94-2.6
			C210.396,350.001,209.746,347.661,209.746,344.801z"/>
		<path fill="#796441" d="M258.755,324.65c0,0.65-0.13,1.43-0.52,2.21c-4.16,8.84-9.49,19.761-13.13,30.551
			c6.76,0.39,14.431,1.04,14.431,7.021c0,4.55-4.55,9.36-9.75,9.36c-4.55,0-9.1-3.77-10.01-9.36c-6.24,0.65-18.201,2.47-18.201,4.03
			c-0.26-1.04-0.39-1.95-0.39-2.86c0-5.2,4.03-6.63,5.07-7.02c4.16-0.65,8.45-0.78,14.041-1.17c0.13-0.91,0.39-1.3,0.52-2.21
			c-1.56,0.65-3.12,1.56-5.72,1.56c-8.32,0-9.88-8.19-10.271-12.74c0-9.621,7.15-22.101,18.46-22.751c3.51,0,5.721,0.78,7.67,1.69
			c0.91-1.43,1.82-2.73,1.95-4.29c0.91,0.52,1.82,1.04,2.6,1.56c1.43,0.91,2.73,2.08,3.12,3.51
			C258.755,323.87,258.755,324.26,258.755,324.65z M248.095,330.891c-1.43-1.17-3.25-1.82-5.2-1.82
			c-6.11,0-13.391,7.93-13.391,15.73c0,4.03,0.91,8.84,6.63,8.84c1.69,0,5.46-1.04,5.46-2.08
			C243.544,343.761,246.145,336.48,248.095,330.891z M241.464,364.172c0.26,0.13,0.52,0.13,0.91,0.13c0.52,0.13,0.91,0.13,1.3,0.26
			c0.91,3.51,3.64,6.5,6.89,6.5c2.21,0,5.98-1.82,5.98-5.85c0-1.43-0.91-2.34-3.9-2.34
			C249.655,362.872,246.665,363.782,241.464,364.172z"/>
		<path fill="#796441" d="M286.185,344.931c-1.3,2.47-2.86,4.55-4.55,6.371c-2.99,3.12-7.541,6.24-13.651,6.24
			c-9.1,0-12.09-8.71-12.09-14.041c0-11.701,8.45-23.011,17.421-23.011c5.59,0,8.71,3.77,8.71,7.41c0,7.28-6.76,13.65-14.82,13.65
			c-2.73,0-4.68-0.65-5.59-1.56c-0.52,1.56-0.78,3.12-0.78,4.68c0,4.81,3.25,9.49,8.32,9.49c3.77,0,8.19-2.73,10.4-4.29
			c5.2-3.9,5.2-5.59,5.85-5.59c0.13,0,0.39,0,0.52,0.13C286.055,344.541,286.185,344.801,286.185,344.931z M262.134,338.041
			c0.26,0.13,0.78,0.13,1.69,0.13c5.2,0,10.01-5.59,10.01-8.451c0-1.17-0.65-1.69-1.82-1.69c-1.69,0-4.16,1.17-6.63,4.29
			C264.214,334.011,263.044,335.96,262.134,338.041z"/>
		<path fill="#796441" d="M295.023,338.431c0-10.271,8.84-15.471,17.031-16.511c5.72-0.65,16.771-1.56,29.251-1.56
			c8.971-14.43,22.101-20.801,27.301-20.801c2.08,0,3.381,0.52,3.381,5.07c0,2.99-6.111,10.4-9.23,16.641
			c8.97,0,10.141,1.95,10.141,4.03c0,1.43-0.131,2.99-0.261,4.16c-0.13,0.65-0.13,1.43-0.13,2.08c-3.51-2.47-9.23-1.69-13.65-2.08
			c-2.471,5.33-5.33,12.35-5.33,17.161c0,3.51,1.949,6.63,6.5,6.63c1.95,0,3.51-0.65,4.94-1.04c5.851-2.47,6.63-3.9,7.021-3.9
			c0.39,0,0.91,0.39,0.91,0.78v-0.13c-0.391,0-2.73,5.33-12.221,7.15c-0.65,0.13-1.17,0.26-1.561,0.26c-4.03,0-9.75-3.9-9.75-8.97
			c0-6.89,1.56-12.871,3.25-18.46c-2.08,0-5.33-0.52-8.45-0.91c-3.511,5.72-7.28,11.57-10.53,17.291
			c-3.771,6.63-11.701,14.561-20.411,14.561c-2.99,0-5.72-1.04-8.32-2.99C298.793,352.731,295.023,345.321,295.023,338.431z
			 M299.053,338.301c0,8.58,7.54,16.38,14.17,16.38c10.79,0,17.811-16.641,24.051-27.431c-6.89-0.91-13.78-1.69-21.061-1.69
			c-2.47,0-5.07,0.13-7.671,0.39C302.433,326.86,299.053,332.581,299.053,338.301z M349.495,320.49c2.08,0.13,4.03,0.13,5.979,0.26
			c1.431-4.03,2.99-7.54,4.421-10.53C356.385,312.689,352.875,316.07,349.495,320.49z"/>
		<path fill="#796441" d="M529.807,361.312c0,2.73-1.17,4.94-2.6,6.37c-0.78,0.91-1.69,1.69-2.601,2.34
			c-11.7,8.97-33.801,9.23-37.831,9.23c-27.432,0-56.682-11.7-56.682-11.83c-20.021-6.891-30.292-8.061-34.842-8.061
			c-1.17,0-1.82,0.13-2.34,0.13c-0.391,0.13-0.65,0.13-0.78,0.13l-0.13-0.65c-9.36,8.97-16.121,10.92-20.541,10.92
			c-5.07,0-5.721-1.43-5.721-2.86c0-9.49,23.142-12.741,24.571-12.741h0.261c0.129,0,0.26,0,0.26-0.13l-0.131,0.13
			c10.661-11.31,20.021-38.871,24.961-53.562c0.65,0.39,7.15,2.34,7.15,6.5c0,0.91-0.13,1.82-0.649,2.99
			c-4.811,9.88-12.61,26.781-19.892,36.531c-2.209,2.99-4.289,5.07-5.979,7.54c7.41,0.39,16.12,1.95,23.271,3.51
			c4.16,0.91,8.19,1.95,12.091,2.99c17.811,4.29,36.401,8.84,55.772,8.84c15.99,0,26.131-2.73,32.761-5.72
			c3.771-1.69,6.891-3.51,9.101-5.72C529.677,359.231,529.807,360.271,529.807,361.312z M385.762,359.751
			c-2.99,0.26-5.721,0.65-8.19,1.3c-4.16,1.04-8.45,2.6-8.971,5.59C373.671,368.852,381.861,363.262,385.762,359.751z"/>
		<path fill="#796441" d="M411.761,346.881c0-10.4,7.28-22.361,7.931-25.741c-0.391,0.65,6.24,1.82,6.24,7.02
			c0,1.04-0.52,2.21-1.43,3.38c-2.99,5.59-6.761,12.09-6.761,17.681c0,1.95,0.26,3.25,2.21,3.25c2.99,0,7.801-3.38,11.311-11.311
			c0,0,0.13,0,0.26-0.13c0.391,0,0.65,0.13,0.91,0.39l0.26,0.26c0-0.39-2.729,14.69-13.65,14.69
			C413.971,356.371,411.761,351.691,411.761,346.881z M426.191,320.49c-2.47,0-3.38-2.08-3.38-4.291c0-2.73,1.819-4.68,4.29-4.68
			s4.16,1.82,4.16,4.03c0,0.65-0.13,1.17-0.391,1.69C429.962,319.19,428.142,320.49,426.191,320.49z"/>
		<path fill="#796441" d="M430.869,376.132c-6.24,0-6.5-5.46-6.5-8.58c0-11.44,6.76-28.861,9.881-38.222
			c-3.25-5.59-4.94-7.8-4.94-8.32c0-0.39,0.39-0.65,0.78-0.65c2.08,0.39,4.55,0.52,7.02,0.91c2.21-5.72,3.381-8.84,4.811-12.351
			l0.91-2.73c0.52-1.56,1.04-3.25,1.04-4.29c0.649,0.39,7.28,2.47,7.28,6.24c0,3.12-3.511,8.84-5.591,14.041
			c5.851,0.52,7.411,0.65,7.411,1.04c0,0.52-3.641,0.52-8.19,0.65c-1.561,3.51-2.99,6.89-4.551,10.92
			c2.471,5.07,6.891,11.831,6.891,21.191c0,13.391-11.051,19.631-14.95,20.021C431.779,376.132,431.39,376.132,430.869,376.132z
			 M430.739,368.072c0,1.56,0.261,2.86,1.69,2.86c7.28,0,10.79-11.57,10.79-16.771c0-5.85-2.21-11.44-4.29-15.99
			c-3.25,8.32-6.5,17.681-7.93,26.521C430.869,365.731,430.739,366.902,430.739,368.072z M435.159,326.73
			c0.391-0.91,0.521-1.82,0.91-2.73c-2.21,0-2.729-0.13-2.729,0.26c0,0.13,0.13,0.26,0.26,0.39
			C434.119,325.3,434.64,325.82,435.159,326.73z"/>
		<path fill="#796441" d="M477.8,344.931c-1.301,2.47-2.86,4.55-4.551,6.371c-2.99,3.12-7.54,6.24-13.65,6.24
			c-9.101,0-12.091-8.71-12.091-14.041c0-11.701,8.451-23.011,17.421-23.011c5.591,0,8.711,3.77,8.711,7.41
			c0,7.28-6.761,13.65-14.821,13.65c-2.729,0-4.68-0.65-5.59-1.56c-0.52,1.56-0.78,3.12-0.78,4.68c0,4.81,3.25,9.49,8.32,9.49
			c3.771,0,8.19-2.73,10.4-4.29c5.2-3.9,5.2-5.59,5.851-5.59c0.13,0,0.39,0,0.52,0.13C477.67,344.541,477.8,344.801,477.8,344.931z
			 M453.748,338.041c0.261,0.13,0.78,0.13,1.69,0.13c5.2,0,10.011-5.59,10.011-8.451c0-1.17-0.65-1.69-1.82-1.69
			c-1.69,0-4.16,1.17-6.63,4.29C455.828,334.011,454.658,335.96,453.748,338.041z"/>
		<path fill="#796441" d="M93.169,384.882c8.33,0,15.979,1.36,22.61,2.21c8.33,1.19,14.62,1.7,19.209,1.7
			c17.68,0,23.97-6.12,25.33-6.12c1.19,0,1.87,6.46,2.04,6.46c0,2.55-1.02,4.42-1.87,5.61c-0.51,0.68-1.02,1.36-1.7,1.87
			c-1.53,1.19-8.16,3.57-18.53,3.57c-6.29,0-14.11-1.02-21.76-2.55c0,1.19-0.17,2.55-0.85,4.42c-1.02,0-20.74,50.659-20.74,62.05
			c-1.19-0.17-2.21-0.511-3.06-1.021c-1.53-0.68-3.23-2.04-3.74-4.08c0.68-5.439,1.7-11.39,2.89-17.68
			c2.21-10.88,5.78-26.01,12.41-42.499c0.17-0.17,0.17-0.511,0.34-1.021c0.17-0.68,0.17-1.36,0.68-2.55
			c-5.61-1.19-11.22-2.04-17.17-2.04c-18.36,0-34.68,11.22-34.68,31.109c0,15.3,10.37,22.78,21.25,22.78c3.23,0,4.93-0.68,5.44-0.68
			c0.17,0,0.51,0,0.68,0.17c0.34,0.17,0.51,0.34,0.68,0.68c-0.17,0.51-0.68,0.85-1.36,1.189c-1.19,0.681-3.57,1.19-8.33,1.19
			c-7.31,0-22.95-5.439-22.95-27.199C49.99,397.972,69.879,384.882,93.169,384.882z"/>
		<path fill="#796441" d="M151.82,437.071c0,1.36-6.63,19.38-16.15,19.38c-5.27,0-9.35-6.12-9.35-13.43c0-4.08,0.51-6.63,1.7-10.54
			c-4.93,9.01-11.73,21.93-13.09,27.03c-0.85,2.72-3.23,4.42-5.78,4.42c-2.72,0-5.61-1.87-5.61-7.82
			c0-16.83,17.17-58.649,19.21-64.089c0.34-1.19,0.68-2.55,1.19-3.74c0.68-2.04,1.36-4.25,1.36-5.61c0.51,0.51,9.52,3.06,9.52,8.16
			c0,1.36-0.34,2.89-0.85,4.42c-3.23,6.63-23.12,47.26-23.12,59.329c0-0.17,0-0.17,0.17-0.17c19.04-34.34,27.2-39.609,25.84-42.669
			c0.51,0,7.82,4.59,7.82,8.5c0,0.51-0.17,1.359-0.51,2.38c-2.72,7.31-9.69,14.789-9.69,23.629c0,2.551,0.34,5.101,2.55,5.101
			c3.23,0,8.33-4.42,12.92-14.79c0-0.17,0.51-0.17,1.02-0.17C151.479,436.731,151.82,436.901,151.82,437.071z"/>
		<path fill="#796441" d="M144.85,444.041c0-13.6,9.52-29.239,10.37-33.659c-0.51,0.85,8.16,2.38,8.16,9.18
			c0,1.36-0.68,2.891-1.87,4.42c-3.91,7.311-8.84,15.81-8.84,23.12c0,2.55,0.34,4.25,2.89,4.25c3.91,0,10.2-4.42,14.79-14.79
			c0,0,0.17,0,0.34-0.17c0.51,0,0.85,0.17,1.19,0.51l0.34,0.34c0-0.51-3.57,19.21-17.85,19.21
			C147.74,456.451,144.85,450.331,144.85,444.041z M163.72,409.532c-3.23,0-4.42-2.721-4.42-5.61c0-3.57,2.38-6.12,5.61-6.12
			s5.44,2.38,5.44,5.271c0,0.85-0.17,1.529-0.51,2.21C168.649,407.832,166.27,409.532,163.72,409.532z"/>
		<path fill="#796441" d="M194.997,414.122c0,0.51-0.17,0.85-0.34,1.529c0.17,5.44,3.23,13.771,4.42,24.14
			c0,11.561-10.03,17.511-19.04,17.511c-10.2,0-15.13-7.65-15.13-13.09c0-3.4,1.7-6.29,4.93-6.801
			c4.25-6.97,10.37-18.869,13.94-24.989c0-2.04,1.7-6.97,3.23-6.97h-0.17c0,0.51,6.63,2.89,7.99,7.31
			C194.997,413.102,194.997,413.611,194.997,414.122z M190.237,441.151c0-5.27-4.59-15.47-5.95-21.25
			c-3.91,5.61-8.5,12.07-11.9,16.83c4.59-1.189,7.65-0.85,7.48-1.02c0.17,0,0.17,0,0.34,0.17c0.17,0.17,0.34,0.51,0.34,1.02
			c0,1.36-11.56,1.36-11.56,6.63c0,2.55,4.25,7.48,9.86,7.48C184.117,451.012,190.237,447.271,190.237,441.151z"/>
		<path fill="#796441" d="M214.376,440.812c-0.51-26.859,23.8-57.969,51-57.969c12.92,0,19.38,4.59,19.89,9.18
			c0,0.51,0,0.85-0.17,1.02c-10.03,15.979-8.33,23.12-9.69,24.479l-0.34,0.17c-5.27-0.51-7.82-2.72-9.18-4.93
			c-0.85-1.189-1.36-2.72-1.53-4.42c0-1.87,1.19-6.97,5.27-13.94c-1.36-0.34-2.89-0.51-4.42-0.51
			c-18.02,0-42.84,23.629-42.84,47.599c0,9.69,2.55,17.34,13.94,17.34s23.29-6.97,29.58-14.619c11.39-13.771,8.16-17,11.22-17
			c0.68,0,0.85,0.51,0.85,1.02c0,3.23-4.59,16.32-18.02,26.52c-5.44,4.08-15.13,9.69-25.33,9.69
			C222.876,464.441,214.376,453.901,214.376,440.812z"/>
		<path fill="#796441" d="M316.203,437.071c0,1.36-6.63,19.38-16.149,19.38c-5.27,0-9.35-6.12-9.35-13.43
			c0-4.08,0.51-6.63,1.7-10.54c-4.93,9.01-11.73,21.93-13.09,27.03c-0.85,2.72-3.23,4.42-5.78,4.42c-2.72,0-5.61-1.87-5.61-7.82
			c0-16.83,17.17-58.649,19.21-64.089c0.34-1.19,0.68-2.55,1.19-3.74c0.68-2.04,1.36-4.25,1.36-5.61c0.51,0.51,9.52,3.06,9.52,8.16
			c0,1.36-0.34,2.89-0.85,4.42c-3.23,6.63-23.12,47.26-23.12,59.329c0-0.17,0-0.17,0.17-0.17c19.04-34.34,27.2-39.609,25.84-42.669
			c0.51,0,7.82,4.59,7.82,8.5c0,0.51-0.17,1.359-0.51,2.38c-2.72,7.31-9.69,14.789-9.69,23.629c0,2.551,0.34,5.101,2.55,5.101
			c3.23,0,8.331-4.42,12.92-14.79c0-0.17,0.51-0.17,1.02-0.17C315.863,436.731,316.203,436.901,316.203,437.071z"/>
		<path fill="#796441" d="M352.072,437.241c0,0.851-6.119,19.21-16.149,19.21c-4.25,0-8.84-4.25-8.84-12.41
			c0-6.63,2.21-13.939,4.76-20.06c-2.55,0.51-4.59,0.681-7.14,0.681c-1.19,0-2.04,0-2.891-0.171c-8.5,17.511-7.99,19.38-9.35,19.38
			c-0.85,0-1.359-0.34-1.359-0.85v-0.51c0-0.17,0-0.17,0.17-0.17c1.869-4.59,4.93-13.09,6.289-19.72
			c-3.91-2.551-4.93-6.46-4.93-9.011c0-2.55,0.17-3.739,2.04-3.739c0.511,0,1.36-0.17,2.55,0.34c3.91,0.85,7.141,1.7,7.141,1.87
			c-0.681,1.529-0.681,1.529-1.19,2.04c0,0.68,4.42,1.189,7.649,1.189h4.76c0.851-1.189,1.531-2.38,2.041-3.569
			c1.189-2.04,2.039-4.42,2.55-6.29c0.34,0,7.819,4.42,7.819,8.33c0,6.8-12.92,21.76-12.92,33.149c0,2.55,0.34,4.42,2.211,4.42
			c3.229,0,8.33-4.42,12.92-14.79c0,0,0.17,0,0.34-0.17c0.17,0,0.51,0,0.68,0.17C351.732,436.901,352.072,437.071,352.072,437.241z"
			/>
		<path fill="#796441" d="M345.271,444.041c0-13.6,9.52-29.239,10.37-33.659c-0.511,0.85,8.159,2.38,8.159,9.18
			c0,1.36-0.68,2.891-1.869,4.42c-3.91,7.311-8.84,15.81-8.84,23.12c0,2.55,0.34,4.25,2.89,4.25c3.91,0,10.2-4.42,14.79-14.79
			c0,0,0.17,0,0.34-0.17c0.51,0,0.85,0.17,1.189,0.51l0.34,0.34c0-0.51-3.569,19.21-17.85,19.21
			C348.162,456.451,345.271,450.331,345.271,444.041z M364.142,409.532c-3.229,0-4.421-2.721-4.421-5.61
			c0-3.57,2.381-6.12,5.611-6.12c3.229,0,5.439,2.38,5.439,5.271c0,0.85-0.17,1.529-0.51,2.21
			C369.071,407.832,366.691,409.532,364.142,409.532z"/>
		<path fill="#796441" d="M395.418,414.122c0,0.51-0.17,0.85-0.34,1.529c0.17,5.44,3.23,13.771,4.42,24.14
			c0,11.561-10.029,17.511-19.039,17.511c-10.2,0-15.131-7.65-15.131-13.09c0-3.4,1.701-6.29,4.931-6.801
			c4.25-6.97,10.37-18.869,13.94-24.989c0-2.04,1.699-6.97,3.229-6.97h-0.17c0,0.51,6.63,2.89,7.989,7.31
			C395.418,413.102,395.418,413.611,395.418,414.122z M390.658,441.151c0-5.27-4.59-15.47-5.949-21.25
			c-3.91,5.61-8.5,12.07-11.9,16.83c4.59-1.189,7.65-0.85,7.48-1.02c0.17,0,0.17,0,0.34,0.17s0.34,0.51,0.34,1.02
			c0,1.36-11.561,1.36-11.561,6.63c0,2.55,4.25,7.48,9.86,7.48C384.539,451.012,390.658,447.271,390.658,441.151z"/>
		<path fill="#796441" d="M438.088,409.532c-4.59,0-9.689,0.34-15.64,0.85c-6.46,12.75-15.81,31.96-15.81,40.119
			c0,2.21,0.85,3.23,2.72,3.23c3.91,0,10.54-4.08,15.3-14.28c0,0,0.17,0,0.34-0.17c0.34,0,0.68,0.17,1.021,0.51l0.34,0.341
			c0,0-3.91,18.529-18.021,18.699c-3.399,0-9.01-2.04-9.01-10.199c0-9.521,5.78-25.5,10.711-37.06c-2.211,0.85-4.25,1.02-6.121,1.02
			c-6.629,0-10.879-3.74-10.879-7.65c0-2.55,1.699-4.76,5.1-6.63c2.04,0,2.891,0.851,2.891,1.36c0,0.34-0.171,0.51-0.511,0.51
			c-0.51,0-0.68-0.51-1.53-0.51c-1.189,0-2.89,0.68-2.89,3.4c0,2.21,1.53,3.399,4.59,3.399c3.229,0,6.8-1.189,12.92-2.72
			c2.72-5.95,6.8-17.17,6.63-17.17c2.04,0,9.35,4.25,9.35,8.84c0,1.87-0.68,3.23-1.869,5.271c8.329-1.36,15.47-1.87,21.419-1.87
			c8.16,0,13.431,1.02,15.3,1.529c1.19,0.511,2.21,1.021,3.061,1.87c1.53,1.36,3.229,3.4,3.229,6.8c0,0.511-0.34,4.761-1.189,4.761
			c-1.36,0-3.74-2.721-16.83-3.57C448.798,409.702,444.038,409.532,438.088,409.532z"/>
		<path fill="#796441" d="M448.458,456.621c-5.44,0-6.97-4.42-6.97-11.22c0-4.76,1.02-10.03,2.55-14.96
			c-6.8,14.45-10.54,26.01-15.13,26.01c-5.27,0-6.8-3.74-6.8-10.71c0-17,11.56-37.06,12.239-37.06c1.87,0,4.25,1.021,6.46,2.21
			c1.19,0.51,2.551,1.19,3.91,2.04c-3.569,7.14-14.79,23.46-14.79,34.68c10.71-19.55,18.19-30.939,20.91-33.659
			c0.68-1.19,1.36-2.21,1.87-3.4c1.02-1.87,1.7-3.57,2.21-5.1c0.51,0,7.82,4.59,7.82,8.5c0,6.46-12.75,20.229-13.261,33.829
			c19.04-34.34,24.311-32.81,26.521-42.329c0.17,0,7.649,4.59,7.649,8.159c0,6.46-12.75,22.101-12.75,33.32
			c0,2.55,0.34,4.42,2.21,4.42c3.23,0,8.33-4.42,12.92-14.79c0,0,0.17,0,0.34-0.17c0.511,0,0.851,0.17,1.19,0.51l0.34,0.34
			c0,0.851-6.12,19.21-16.149,19.21c-4.25,0-8.84-4.25-8.84-12.41c0-5.949,2.21-13.09,4.42-19.209
			c-4.931,8.84-13.601,26.18-13.94,27.879C452.198,456.281,449.308,456.621,448.458,456.621z"/>
		<path fill="#796441" d="M531.416,437.071c0,1.7-5.95,22.61-15.98,22.61c-3.399,0-7.479-2.551-9.01-9.521
			c-1.87,2.21-4.76,6.29-12.239,6.29c-10.37,0-12.58-11.56-12.58-16.83c0-12.92,10.54-29.069,24.819-29.069
			c4.931,0,7.311,1.87,9.86,3.4c0.51-0.681,0.51-1.53,0.68-2.04c0.68,0,8.33,4.59,8.33,8.5c0,1.869-0.85,3.399-1.7,5.27h-0.17
			c-3.74,6.8-9.18,15.979-9.18,24.14c0,3.74,0.85,5.61,2.38,5.61c3.229,0,8.84-6.12,12.92-18.87c0-0.17,0.51-0.17,1.02-0.17
			C531.076,436.731,531.416,436.901,531.416,437.071z M511.696,424.491c-2.04-2.21-4.25-3.909-6.97-3.909
			c-7.48,0-17.17,10.88-17.17,20.909c0,4.76,1.02,11.05,8.5,11.05c3.909,0,7.31-2.21,10.029-5.609
			C506.086,439.281,509.146,430.441,511.696,424.491z"/>
		<path fill="#796441" d="M555.045,414.122c0,0.51-0.17,0.85-0.34,1.529c0.17,5.44,3.229,13.771,4.42,24.14
			c0,11.561-10.03,17.511-19.04,17.511c-10.2,0-15.13-7.65-15.13-13.09c0-3.4,1.7-6.29,4.93-6.801
			c4.25-6.97,10.37-18.869,13.94-24.989c0-2.04,1.7-6.97,3.229-6.97h-0.17c0,0.51,6.63,2.89,7.99,7.31
			C555.045,413.102,555.045,413.611,555.045,414.122z M550.285,441.151c0-5.27-4.59-15.47-5.95-21.25
			c-3.91,5.61-8.5,12.07-11.899,16.83c4.59-1.189,7.649-0.85,7.479-1.02c0.17,0,0.17,0,0.34,0.17s0.34,0.51,0.34,1.02
			c0,1.36-11.56,1.36-11.56,6.63c0,2.55,4.25,7.48,9.86,7.48C544.165,451.012,550.285,447.271,550.285,441.151z"/>
	</g>
</g>
<g id="Layer_1_copy" display="none">
	<g display="inline">
		<path fill="#796441" d="M85.469,344.411c-0.39-20.541,18.201-44.332,39.001-44.332c9.88,0,14.821,3.51,15.21,7.021
			c0,0.39,0,0.65-0.13,0.78c-7.67,12.221-6.37,17.681-7.41,18.721l-0.26,0.13c-4.03-0.39-5.98-2.08-7.02-3.771
			c-0.65-0.91-1.04-2.08-1.17-3.38c0-1.43,0.91-5.33,4.03-10.661c-1.04-0.26-2.21-0.39-3.38-0.39
			c-13.781,0-32.761,18.071-32.761,36.401c0,7.411,1.95,13.261,10.66,13.261c8.71,0,17.811-5.33,22.621-11.181
			c8.71-10.53,6.24-13,8.58-13c0.52,0,0.65,0.39,0.65,0.78c0,2.47-3.51,12.48-13.781,20.281c-4.16,3.12-11.57,7.41-19.371,7.41
			C91.969,362.481,85.469,354.421,85.469,344.411z"/>
		<path fill="#796441" d="M163.338,341.551c0,1.04-5.07,14.82-12.351,14.82c-4.03,0-7.15-4.68-7.15-10.27
			c0-3.12,0.39-5.07,1.3-8.061c-3.77,6.89-8.97,16.771-10.01,20.671c-0.65,2.08-2.47,3.38-4.42,3.38c-2.08,0-4.291-1.43-4.291-5.98
			c0-12.871,13.13-44.852,14.691-49.012c0.26-0.91,0.52-1.95,0.91-2.86c0.52-1.56,1.04-3.25,1.04-4.29
			c0.39,0.39,7.28,2.34,7.28,6.24c0,1.04-0.26,2.21-0.65,3.38c-2.47,5.07-17.681,36.142-17.681,45.372c0-0.13,0-0.13,0.13-0.13
			c14.561-26.261,20.801-30.292,19.761-32.631c0.39,0,5.98,3.51,5.98,6.5c0,0.39-0.13,1.04-0.39,1.82
			c-2.08,5.59-7.41,11.31-7.41,18.071c0,1.95,0.26,3.9,1.95,3.9c2.47,0,6.371-3.38,9.881-11.311c0-0.13,0.39-0.13,0.78-0.13
			C163.078,341.291,163.338,341.421,163.338,341.551z"/>
		<path fill="#796441" d="M196.618,341.551c0,1.3-4.55,17.291-12.221,17.291c-2.6,0-5.72-1.95-6.89-7.28
			c-1.43,1.69-3.64,4.81-9.36,4.81c-7.93,0-9.62-8.84-9.62-12.87c0-9.88,8.06-22.231,18.98-22.231c3.77,0,5.59,1.43,7.54,2.6
			c0.39-0.52,0.39-1.17,0.521-1.56c0.52,0,6.37,3.51,6.37,6.5c0,1.43-0.65,2.6-1.3,4.03h-0.13c-2.86,5.2-7.02,12.221-7.02,18.461
			c0,2.86,0.65,4.29,1.82,4.29c2.47,0,6.76-4.68,9.88-14.431c0-0.13,0.39-0.13,0.78-0.13
			C196.357,341.291,196.618,341.421,196.618,341.551z M181.537,331.931c-1.56-1.69-3.25-2.99-5.33-2.99
			c-5.721,0-13.131,8.32-13.131,15.99c0,3.641,0.78,8.451,6.5,8.451c2.99,0,5.59-1.69,7.67-4.291
			C177.247,343.241,179.587,336.48,181.537,331.931z"/>
		<path fill="#796441" d="M209.746,344.801c0-4.68,1.17-7.93,2.86-12.61c-3.12,5.85-10.141,18.461-11.181,22.491
			c0,0.13-1.95,5.07-4.68,5.07c-4.16,0-5.2-3.51-5.2-8.71c0-11.44,6.63-23.011,7.28-24.441c1.04-2.08,2.21-5.59,2.6-6.76
			c1.17,0,5.98,3.9,5.98,6.63c0,5.85-10.011,14.69-10.011,24.961c0,0.65,0,1.17,0.13,1.56
			c17.291-32.891,20.281-28.601,21.841-35.621c0.39,0,5.98,3.51,5.98,6.5c0,0.52-0.26,2.34-0.91,2.99
			c-2.73,5.85-8.71,13.13-8.71,20.15c0,1.95,0.26,3.38,1.82,3.38c2.21,0,6.37-3.38,9.88-11.311c0,0,0.13,0,0.26-0.13
			c0.26,0,0.521,0.13,0.78,0.39l0.26,0.26c0,0.52-4.55,14.69-12.22,14.69c-1.56,0-3.38-0.52-4.94-2.6
			C210.396,350.001,209.746,347.661,209.746,344.801z"/>
		<path fill="#796441" d="M258.755,324.65c0,0.65-0.13,1.43-0.52,2.21c-4.16,8.84-9.49,19.761-13.13,30.551
			c6.76,0.39,14.431,1.04,14.431,7.021c0,4.55-4.55,9.36-9.75,9.36c-4.55,0-9.1-3.77-10.01-9.36c-6.24,0.65-18.201,2.47-18.201,4.03
			c-0.26-1.04-0.39-1.95-0.39-2.86c0-5.2,4.03-6.63,5.07-7.02c4.16-0.65,8.45-0.78,14.041-1.17c0.13-0.91,0.39-1.3,0.52-2.21
			c-1.56,0.65-3.12,1.56-5.72,1.56c-8.32,0-9.88-8.19-10.271-12.74c0-9.621,7.15-22.101,18.46-22.751c3.51,0,5.721,0.78,7.67,1.69
			c0.91-1.43,1.82-2.73,1.95-4.29c0.91,0.52,1.82,1.04,2.6,1.56c1.43,0.91,2.73,2.08,3.12,3.51
			C258.755,323.87,258.755,324.26,258.755,324.65z M248.095,330.891c-1.43-1.17-3.25-1.82-5.2-1.82
			c-6.11,0-13.391,7.93-13.391,15.73c0,4.03,0.91,8.84,6.63,8.84c1.69,0,5.46-1.04,5.46-2.08
			C243.544,343.761,246.145,336.48,248.095,330.891z M241.464,364.172c0.26,0.13,0.52,0.13,0.91,0.13c0.52,0.13,0.91,0.13,1.3,0.26
			c0.91,3.51,3.64,6.5,6.89,6.5c2.21,0,5.98-1.82,5.98-5.85c0-1.43-0.91-2.34-3.9-2.34
			C249.655,362.872,246.665,363.782,241.464,364.172z"/>
		<path fill="#796441" d="M286.185,344.931c-1.3,2.47-2.86,4.55-4.55,6.371c-2.99,3.12-7.541,6.24-13.651,6.24
			c-9.1,0-12.09-8.71-12.09-14.041c0-11.701,8.45-23.011,17.421-23.011c5.59,0,8.71,3.77,8.71,7.41c0,7.28-6.76,13.65-14.82,13.65
			c-2.73,0-4.68-0.65-5.59-1.56c-0.52,1.56-0.78,3.12-0.78,4.68c0,4.81,3.25,9.49,8.32,9.49c3.77,0,8.19-2.73,10.4-4.29
			c5.2-3.9,5.2-5.59,5.85-5.59c0.13,0,0.39,0,0.52,0.13C286.055,344.541,286.185,344.801,286.185,344.931z M262.134,338.041
			c0.26,0.13,0.78,0.13,1.69,0.13c5.2,0,10.01-5.59,10.01-8.451c0-1.17-0.65-1.69-1.82-1.69c-1.69,0-4.16,1.17-6.63,4.29
			C264.214,334.011,263.044,335.96,262.134,338.041z"/>
		<path fill="#796441" d="M295.023,338.431c0-10.271,8.84-15.471,17.031-16.511c5.72-0.65,16.771-1.56,29.251-1.56
			c8.971-14.43,22.101-20.801,27.301-20.801c2.08,0,3.381,0.52,3.381,5.07c0,2.99-6.111,10.4-9.23,16.641
			c8.97,0,10.141,1.95,10.141,4.03c0,1.43-0.131,2.99-0.261,4.16c-0.13,0.65-0.13,1.43-0.13,2.08c-3.51-2.47-9.23-1.69-13.65-2.08
			c-2.471,5.33-5.33,12.35-5.33,17.161c0,3.51,1.949,6.63,6.5,6.63c1.95,0,3.51-0.65,4.94-1.04c5.851-2.47,6.63-3.9,7.021-3.9
			c0.39,0,0.91,0.39,0.91,0.78v-0.13c-0.391,0-2.73,5.33-12.221,7.15c-0.65,0.13-1.17,0.26-1.561,0.26c-4.03,0-9.75-3.9-9.75-8.97
			c0-6.89,1.56-12.871,3.25-18.46c-2.08,0-5.33-0.52-8.45-0.91c-3.511,5.72-7.28,11.57-10.53,17.291
			c-3.771,6.63-11.701,14.561-20.411,14.561c-2.99,0-5.72-1.04-8.32-2.99C298.793,352.731,295.023,345.321,295.023,338.431z
			 M299.053,338.301c0,8.58,7.54,16.38,14.17,16.38c10.79,0,17.811-16.641,24.051-27.431c-6.89-0.91-13.78-1.69-21.061-1.69
			c-2.47,0-5.07,0.13-7.671,0.39C302.433,326.86,299.053,332.581,299.053,338.301z M349.495,320.49c2.08,0.13,4.03,0.13,5.979,0.26
			c1.431-4.03,2.99-7.54,4.421-10.53C356.385,312.689,352.875,316.07,349.495,320.49z"/>
		<path fill="#796441" d="M529.807,361.312c0,2.73-1.17,4.94-2.6,6.37c-0.78,0.91-1.69,1.69-2.601,2.34
			c-11.7,8.97-33.801,9.23-37.831,9.23c-27.432,0-56.682-11.7-56.682-11.83c-20.021-6.891-30.292-8.061-34.842-8.061
			c-1.17,0-1.82,0.13-2.34,0.13c-0.391,0.13-0.65,0.13-0.78,0.13l-0.13-0.65c-9.36,8.97-16.121,10.92-20.541,10.92
			c-5.07,0-5.721-1.43-5.721-2.86c0-9.49,23.142-12.741,24.571-12.741h0.261c0.129,0,0.26,0,0.26-0.13l-0.131,0.13
			c10.661-11.31,20.021-38.871,24.961-53.562c0.65,0.39,7.15,2.34,7.15,6.5c0,0.91-0.13,1.82-0.649,2.99
			c-4.811,9.88-12.61,26.781-19.892,36.531c-2.209,2.99-4.289,5.07-5.979,7.54c7.41,0.39,16.12,1.95,23.271,3.51
			c4.16,0.91,8.19,1.95,12.091,2.99c17.811,4.29,36.401,8.84,55.772,8.84c15.99,0,26.131-2.73,32.761-5.72
			c3.771-1.69,6.891-3.51,9.101-5.72C529.677,359.231,529.807,360.271,529.807,361.312z M385.762,359.751
			c-2.99,0.26-5.721,0.65-8.19,1.3c-4.16,1.04-8.45,2.6-8.971,5.59C373.671,368.852,381.861,363.262,385.762,359.751z"/>
		<path fill="#796441" d="M411.761,346.881c0-10.4,7.28-22.361,7.931-25.741c-0.391,0.65,6.24,1.82,6.24,7.02
			c0,1.04-0.52,2.21-1.43,3.38c-2.99,5.59-6.761,12.09-6.761,17.681c0,1.95,0.26,3.25,2.21,3.25c2.99,0,7.801-3.38,11.311-11.311
			c0,0,0.13,0,0.26-0.13c0.391,0,0.65,0.13,0.91,0.39l0.26,0.26c0-0.39-2.729,14.69-13.65,14.69
			C413.971,356.371,411.761,351.691,411.761,346.881z M426.191,320.49c-2.47,0-3.38-2.08-3.38-4.291c0-2.73,1.819-4.68,4.29-4.68
			s4.16,1.82,4.16,4.03c0,0.65-0.13,1.17-0.391,1.69C429.962,319.19,428.142,320.49,426.191,320.49z"/>
		<path fill="#796441" d="M430.869,376.132c-6.24,0-6.5-5.46-6.5-8.58c0-11.44,6.76-28.861,9.881-38.222
			c-3.25-5.59-4.94-7.8-4.94-8.32c0-0.39,0.39-0.65,0.78-0.65c2.08,0.39,4.55,0.52,7.02,0.91c2.21-5.72,3.381-8.84,4.811-12.351
			l0.91-2.73c0.52-1.56,1.04-3.25,1.04-4.29c0.649,0.39,7.28,2.47,7.28,6.24c0,3.12-3.511,8.84-5.591,14.041
			c5.851,0.52,7.411,0.65,7.411,1.04c0,0.52-3.641,0.52-8.19,0.65c-1.561,3.51-2.99,6.89-4.551,10.92
			c2.471,5.07,6.891,11.831,6.891,21.191c0,13.391-11.051,19.631-14.95,20.021C431.779,376.132,431.39,376.132,430.869,376.132z
			 M430.739,368.072c0,1.56,0.261,2.86,1.69,2.86c7.28,0,10.79-11.57,10.79-16.771c0-5.85-2.21-11.44-4.29-15.99
			c-3.25,8.32-6.5,17.681-7.93,26.521C430.869,365.731,430.739,366.902,430.739,368.072z M435.159,326.73
			c0.391-0.91,0.521-1.82,0.91-2.73c-2.21,0-2.729-0.13-2.729,0.26c0,0.13,0.13,0.26,0.26,0.39
			C434.119,325.3,434.64,325.82,435.159,326.73z"/>
		<path fill="#796441" d="M477.8,344.931c-1.301,2.47-2.86,4.55-4.551,6.371c-2.99,3.12-7.54,6.24-13.65,6.24
			c-9.101,0-12.091-8.71-12.091-14.041c0-11.701,8.451-23.011,17.421-23.011c5.591,0,8.711,3.77,8.711,7.41
			c0,7.28-6.761,13.65-14.821,13.65c-2.729,0-4.68-0.65-5.59-1.56c-0.52,1.56-0.78,3.12-0.78,4.68c0,4.81,3.25,9.49,8.32,9.49
			c3.771,0,8.19-2.73,10.4-4.29c5.2-3.9,5.2-5.59,5.851-5.59c0.13,0,0.39,0,0.52,0.13C477.67,344.541,477.8,344.801,477.8,344.931z
			 M453.748,338.041c0.261,0.13,0.78,0.13,1.69,0.13c5.2,0,10.011-5.59,10.011-8.451c0-1.17-0.65-1.69-1.82-1.69
			c-1.69,0-4.16,1.17-6.63,4.29C455.828,334.011,454.658,335.96,453.748,338.041z"/>
		<path fill="#796441" d="M93.169,384.882c8.33,0,15.979,1.36,22.61,2.21c8.33,1.19,14.62,1.7,19.209,1.7
			c17.68,0,23.97-6.12,25.33-6.12c1.19,0,1.87,6.46,2.04,6.46c0,2.55-1.02,4.42-1.87,5.61c-0.51,0.68-1.02,1.36-1.7,1.87
			c-1.53,1.19-8.16,3.57-18.53,3.57c-6.29,0-14.11-1.02-21.76-2.55c0,1.19-0.17,2.55-0.85,4.42c-1.02,0-20.74,50.659-20.74,62.05
			c-1.19-0.17-2.21-0.511-3.06-1.021c-1.53-0.68-3.23-2.04-3.74-4.08c0.68-5.439,1.7-11.39,2.89-17.68
			c2.21-10.88,5.78-26.01,12.41-42.499c0.17-0.17,0.17-0.511,0.34-1.021c0.17-0.68,0.17-1.36,0.68-2.55
			c-5.61-1.19-11.22-2.04-17.17-2.04c-18.36,0-34.68,11.22-34.68,31.109c0,15.3,10.37,22.78,21.25,22.78c3.23,0,4.93-0.68,5.44-0.68
			c0.17,0,0.51,0,0.68,0.17c0.34,0.17,0.51,0.34,0.68,0.68c-0.17,0.51-0.68,0.85-1.36,1.189c-1.19,0.681-3.57,1.19-8.33,1.19
			c-7.31,0-22.95-5.439-22.95-27.199C49.99,397.972,69.879,384.882,93.169,384.882z"/>
		<path fill="#796441" d="M151.82,437.071c0,1.36-6.63,19.38-16.15,19.38c-5.27,0-9.35-6.12-9.35-13.43c0-4.08,0.51-6.63,1.7-10.54
			c-4.93,9.01-11.73,21.93-13.09,27.03c-0.85,2.72-3.23,4.42-5.78,4.42c-2.72,0-5.61-1.87-5.61-7.82
			c0-16.83,17.17-58.649,19.21-64.089c0.34-1.19,0.68-2.55,1.19-3.74c0.68-2.04,1.36-4.25,1.36-5.61c0.51,0.51,9.52,3.06,9.52,8.16
			c0,1.36-0.34,2.89-0.85,4.42c-3.23,6.63-23.12,47.26-23.12,59.329c0-0.17,0-0.17,0.17-0.17c19.04-34.34,27.2-39.609,25.84-42.669
			c0.51,0,7.82,4.59,7.82,8.5c0,0.51-0.17,1.359-0.51,2.38c-2.72,7.31-9.69,14.789-9.69,23.629c0,2.551,0.34,5.101,2.55,5.101
			c3.23,0,8.33-4.42,12.92-14.79c0-0.17,0.51-0.17,1.02-0.17C151.479,436.731,151.82,436.901,151.82,437.071z"/>
		<path fill="#796441" d="M144.85,444.041c0-13.6,9.52-29.239,10.37-33.659c-0.51,0.85,8.16,2.38,8.16,9.18
			c0,1.36-0.68,2.891-1.87,4.42c-3.91,7.311-8.84,15.81-8.84,23.12c0,2.55,0.34,4.25,2.89,4.25c3.91,0,10.2-4.42,14.79-14.79
			c0,0,0.17,0,0.34-0.17c0.51,0,0.85,0.17,1.19,0.51l0.34,0.34c0-0.51-3.57,19.21-17.85,19.21
			C147.74,456.451,144.85,450.331,144.85,444.041z M163.72,409.532c-3.23,0-4.42-2.721-4.42-5.61c0-3.57,2.38-6.12,5.61-6.12
			s5.44,2.38,5.44,5.271c0,0.85-0.17,1.529-0.51,2.21C168.649,407.832,166.27,409.532,163.72,409.532z"/>
		<path fill="#796441" d="M194.997,414.122c0,0.51-0.17,0.85-0.34,1.529c0.17,5.44,3.23,13.771,4.42,24.14
			c0,11.561-10.03,17.511-19.04,17.511c-10.2,0-15.13-7.65-15.13-13.09c0-3.4,1.7-6.29,4.93-6.801
			c4.25-6.97,10.37-18.869,13.94-24.989c0-2.04,1.7-6.97,3.23-6.97h-0.17c0,0.51,6.63,2.89,7.99,7.31
			C194.997,413.102,194.997,413.611,194.997,414.122z M190.237,441.151c0-5.27-4.59-15.47-5.95-21.25
			c-3.91,5.61-8.5,12.07-11.9,16.83c4.59-1.189,7.65-0.85,7.48-1.02c0.17,0,0.17,0,0.34,0.17c0.17,0.17,0.34,0.51,0.34,1.02
			c0,1.36-11.56,1.36-11.56,6.63c0,2.55,4.25,7.48,9.86,7.48C184.117,451.012,190.237,447.271,190.237,441.151z"/>
		<path fill="#796441" d="M214.376,440.812c-0.51-26.859,23.8-57.969,51-57.969c12.92,0,19.38,4.59,19.89,9.18
			c0,0.51,0,0.85-0.17,1.02c-10.03,15.979-8.33,23.12-9.69,24.479l-0.34,0.17c-5.27-0.51-7.82-2.72-9.18-4.93
			c-0.85-1.189-1.36-2.72-1.53-4.42c0-1.87,1.19-6.97,5.27-13.94c-1.36-0.34-2.89-0.51-4.42-0.51
			c-18.02,0-42.84,23.629-42.84,47.599c0,9.69,2.55,17.34,13.94,17.34s23.29-6.97,29.58-14.619c11.39-13.771,8.16-17,11.22-17
			c0.68,0,0.85,0.51,0.85,1.02c0,3.23-4.59,16.32-18.02,26.52c-5.44,4.08-15.13,9.69-25.33,9.69
			C222.876,464.441,214.376,453.901,214.376,440.812z"/>
		<path fill="#796441" d="M316.203,437.071c0,1.36-6.63,19.38-16.149,19.38c-5.27,0-9.35-6.12-9.35-13.43
			c0-4.08,0.51-6.63,1.7-10.54c-4.93,9.01-11.73,21.93-13.09,27.03c-0.85,2.72-3.23,4.42-5.78,4.42c-2.72,0-5.61-1.87-5.61-7.82
			c0-16.83,17.17-58.649,19.21-64.089c0.34-1.19,0.68-2.55,1.19-3.74c0.68-2.04,1.36-4.25,1.36-5.61c0.51,0.51,9.52,3.06,9.52,8.16
			c0,1.36-0.34,2.89-0.85,4.42c-3.23,6.63-23.12,47.26-23.12,59.329c0-0.17,0-0.17,0.17-0.17c19.04-34.34,27.2-39.609,25.84-42.669
			c0.51,0,7.82,4.59,7.82,8.5c0,0.51-0.17,1.359-0.51,2.38c-2.72,7.31-9.69,14.789-9.69,23.629c0,2.551,0.34,5.101,2.55,5.101
			c3.23,0,8.331-4.42,12.92-14.79c0-0.17,0.51-0.17,1.02-0.17C315.863,436.731,316.203,436.901,316.203,437.071z"/>
		<path fill="#796441" d="M352.072,437.241c0,0.851-6.119,19.21-16.149,19.21c-4.25,0-8.84-4.25-8.84-12.41
			c0-6.63,2.21-13.939,4.76-20.06c-2.55,0.51-4.59,0.681-7.14,0.681c-1.19,0-2.04,0-2.891-0.171c-8.5,17.511-7.99,19.38-9.35,19.38
			c-0.85,0-1.359-0.34-1.359-0.85v-0.51c0-0.17,0-0.17,0.17-0.17c1.869-4.59,4.93-13.09,6.289-19.72
			c-3.91-2.551-4.93-6.46-4.93-9.011c0-2.55,0.17-3.739,2.04-3.739c0.511,0,1.36-0.17,2.55,0.34c3.91,0.85,7.141,1.7,7.141,1.87
			c-0.681,1.529-0.681,1.529-1.19,2.04c0,0.68,4.42,1.189,7.649,1.189h4.76c0.851-1.189,1.531-2.38,2.041-3.569
			c1.189-2.04,2.039-4.42,2.55-6.29c0.34,0,7.819,4.42,7.819,8.33c0,6.8-12.92,21.76-12.92,33.149c0,2.55,0.34,4.42,2.211,4.42
			c3.229,0,8.33-4.42,12.92-14.79c0,0,0.17,0,0.34-0.17c0.17,0,0.51,0,0.68,0.17C351.732,436.901,352.072,437.071,352.072,437.241z"
			/>
		<path fill="#796441" d="M345.271,444.041c0-13.6,9.52-29.239,10.37-33.659c-0.511,0.85,8.159,2.38,8.159,9.18
			c0,1.36-0.68,2.891-1.869,4.42c-3.91,7.311-8.84,15.81-8.84,23.12c0,2.55,0.34,4.25,2.89,4.25c3.91,0,10.2-4.42,14.79-14.79
			c0,0,0.17,0,0.34-0.17c0.51,0,0.85,0.17,1.189,0.51l0.34,0.34c0-0.51-3.569,19.21-17.85,19.21
			C348.162,456.451,345.271,450.331,345.271,444.041z M364.142,409.532c-3.229,0-4.421-2.721-4.421-5.61
			c0-3.57,2.381-6.12,5.611-6.12c3.229,0,5.439,2.38,5.439,5.271c0,0.85-0.17,1.529-0.51,2.21
			C369.071,407.832,366.691,409.532,364.142,409.532z"/>
		<path fill="#796441" d="M395.418,414.122c0,0.51-0.17,0.85-0.34,1.529c0.17,5.44,3.23,13.771,4.42,24.14
			c0,11.561-10.029,17.511-19.039,17.511c-10.2,0-15.131-7.65-15.131-13.09c0-3.4,1.701-6.29,4.931-6.801
			c4.25-6.97,10.37-18.869,13.94-24.989c0-2.04,1.699-6.97,3.229-6.97h-0.17c0,0.51,6.63,2.89,7.989,7.31
			C395.418,413.102,395.418,413.611,395.418,414.122z M390.658,441.151c0-5.27-4.59-15.47-5.949-21.25
			c-3.91,5.61-8.5,12.07-11.9,16.83c4.59-1.189,7.65-0.85,7.48-1.02c0.17,0,0.17,0,0.34,0.17s0.34,0.51,0.34,1.02
			c0,1.36-11.561,1.36-11.561,6.63c0,2.55,4.25,7.48,9.86,7.48C384.539,451.012,390.658,447.271,390.658,441.151z"/>
		<path fill="#796441" d="M438.088,409.532c-4.59,0-9.689,0.34-15.64,0.85c-6.46,12.75-15.81,31.96-15.81,40.119
			c0,2.21,0.85,3.23,2.72,3.23c3.91,0,10.54-4.08,15.3-14.28c0,0,0.17,0,0.34-0.17c0.34,0,0.68,0.17,1.021,0.51l0.34,0.341
			c0,0-3.91,18.529-18.021,18.699c-3.399,0-9.01-2.04-9.01-10.199c0-9.521,5.78-25.5,10.711-37.06c-2.211,0.85-4.25,1.02-6.121,1.02
			c-6.629,0-10.879-3.74-10.879-7.65c0-2.55,1.699-4.76,5.1-6.63c2.04,0,2.891,0.851,2.891,1.36c0,0.34-0.171,0.51-0.511,0.51
			c-0.51,0-0.68-0.51-1.53-0.51c-1.189,0-2.89,0.68-2.89,3.4c0,2.21,1.53,3.399,4.59,3.399c3.229,0,6.8-1.189,12.92-2.72
			c2.72-5.95,6.8-17.17,6.63-17.17c2.04,0,9.35,4.25,9.35,8.84c0,1.87-0.68,3.23-1.869,5.271c8.329-1.36,15.47-1.87,21.419-1.87
			c8.16,0,13.431,1.02,15.3,1.529c1.19,0.511,2.21,1.021,3.061,1.87c1.53,1.36,3.229,3.4,3.229,6.8c0,0.511-0.34,4.761-1.189,4.761
			c-1.36,0-3.74-2.721-16.83-3.57C448.798,409.702,444.038,409.532,438.088,409.532z"/>
		<path fill="#796441" d="M448.458,456.621c-5.44,0-6.97-4.42-6.97-11.22c0-4.76,1.02-10.03,2.55-14.96
			c-6.8,14.45-10.54,26.01-15.13,26.01c-5.27,0-6.8-3.74-6.8-10.71c0-17,11.56-37.06,12.239-37.06c1.87,0,4.25,1.021,6.46,2.21
			c1.19,0.51,2.551,1.19,3.91,2.04c-3.569,7.14-14.79,23.46-14.79,34.68c10.71-19.55,18.19-30.939,20.91-33.659
			c0.68-1.19,1.36-2.21,1.87-3.4c1.02-1.87,1.7-3.57,2.21-5.1c0.51,0,7.82,4.59,7.82,8.5c0,6.46-12.75,20.229-13.261,33.829
			c19.04-34.34,24.311-32.81,26.521-42.329c0.17,0,7.649,4.59,7.649,8.159c0,6.46-12.75,22.101-12.75,33.32
			c0,2.55,0.34,4.42,2.21,4.42c3.23,0,8.33-4.42,12.92-14.79c0,0,0.17,0,0.34-0.17c0.511,0,0.851,0.17,1.19,0.51l0.34,0.34
			c0,0.851-6.12,19.21-16.149,19.21c-4.25,0-8.84-4.25-8.84-12.41c0-5.949,2.21-13.09,4.42-19.209
			c-4.931,8.84-13.601,26.18-13.94,27.879C452.198,456.281,449.308,456.621,448.458,456.621z"/>
		<path fill="#796441" d="M531.416,437.071c0,1.7-5.95,22.61-15.98,22.61c-3.399,0-7.479-2.551-9.01-9.521
			c-1.87,2.21-4.76,6.29-12.239,6.29c-10.37,0-12.58-11.56-12.58-16.83c0-12.92,10.54-29.069,24.819-29.069
			c4.931,0,7.311,1.87,9.86,3.4c0.51-0.681,0.51-1.53,0.68-2.04c0.68,0,8.33,4.59,8.33,8.5c0,1.869-0.85,3.399-1.7,5.27h-0.17
			c-3.74,6.8-9.18,15.979-9.18,24.14c0,3.74,0.85,5.61,2.38,5.61c3.229,0,8.84-6.12,12.92-18.87c0-0.17,0.51-0.17,1.02-0.17
			C531.076,436.731,531.416,436.901,531.416,437.071z M511.696,424.491c-2.04-2.21-4.25-3.909-6.97-3.909
			c-7.48,0-17.17,10.88-17.17,20.909c0,4.76,1.02,11.05,8.5,11.05c3.909,0,7.31-2.21,10.029-5.609
			C506.086,439.281,509.146,430.441,511.696,424.491z"/>
		<path fill="#796441" d="M555.045,414.122c0,0.51-0.17,0.85-0.34,1.529c0.17,5.44,3.229,13.771,4.42,24.14
			c0,11.561-10.03,17.511-19.04,17.511c-10.2,0-15.13-7.65-15.13-13.09c0-3.4,1.7-6.29,4.93-6.801
			c4.25-6.97,10.37-18.869,13.94-24.989c0-2.04,1.7-6.97,3.229-6.97h-0.17c0,0.51,6.63,2.89,7.99,7.31
			C555.045,413.102,555.045,413.611,555.045,414.122z M550.285,441.151c0-5.27-4.59-15.47-5.95-21.25
			c-3.91,5.61-8.5,12.07-11.899,16.83c4.59-1.189,7.649-0.85,7.479-1.02c0.17,0,0.17,0,0.34,0.17s0.34,0.51,0.34,1.02
			c0,1.36-11.56,1.36-11.56,6.63c0,2.55,4.25,7.48,9.86,7.48C544.165,451.012,550.285,447.271,550.285,441.151z"/>
	</g>
</g>
</svg>
