<?xml version="1.0" encoding="utf-8"?>
<!-- Generator: Adobe Illustrator 19.2.1, SVG Export Plug-In . SVG Version: 6.00 Build 0)  -->
<svg version="1.1" id="Logo__x2F__Color" xmlns="http://www.w3.org/2000/svg" xmlns:xlink="http://www.w3.org/1999/xlink" x="0px"
	 y="0px" viewBox="0 0 464.3 112.6" style="enable-background:new 0 0 464.3 112.6;" xml:space="preserve">
<style type="text/css">
	.st0{fill:#FFFFFF;}
</style>
<g>
	<path class="st0" d="M110.1,56.9c0,0,2.3-19.6,2.9-35.5c0.4-10.5-0.7-19.5-0.7-19.5s5.9-1,12.6-1.3c8.6-0.4,18.6-0.5,18.6-0.5
		l-0.5,10.9l-17.5,1.2v10.5l14.4,1.1l0.3,11.9l-13.7-0.9v9.5l19.1,1.3v12.5L110.1,56.9z"/>
	<path class="st0" d="M89.1,56.4c0,0-10.2-17-15.8-25.3c-1.8-2.8-4.3-4.2-4.3-4.2v28.4l-11.8-0.3L56.4,3.4L68.2,3l22.1,33.2L90.9,3
		l11.2,1.3l0.7,53.1L89.1,56.4z"/>
</g>
<path class="st0" d="M25.3,57C14.6,57,0,45.3,0,28.1C0,10.7,10,0,25.5,0c15.4,0,25.4,13.5,25.4,27.9C50.9,45.2,40.8,57,25.3,57z
	 M25.4,10.9c-7.6,0-10.7,6-10.7,17.1s3.1,18.9,10.8,18.9c9.9,0,12.2-7.8,12.2-18.9S33.1,10.9,25.4,10.9z"/>
<g>
	<path class="st0" d="M432.3,56.1l-0.2-55.3L462.2,1l0.2,10.8l-17.8-0.5l-0.1,11.2l16.2,0l-0.3,9.7L445,33v11.8h18.4l0.9,12.9
		L432.3,56.1z"/>
	<path class="st0" d="M343.7,3.9l12.6-1l18.3,52.2l-13.7,0.4l-2.5-8.5L340,46.7L334.6,57l-11.9-0.1L343.7,3.9z M342.4,35.7l13.6,0.4
		l-6.3-17.8L342.4,35.7z"/>
	<path class="st0" d="M230.7,56l-1-52.9h12.8l2,52.9H230.7z"/>
	<path class="st0" d="M224.5,1.5l-20.1,55.6l-14.6-0.9l-19-53.8l13.6-2.1l14.2,36.3l11.3-35.9C209.9,0.8,218.9,0.4,224.5,1.5z"/>
	<path class="st0" d="M252.8,56.8l-2.3-55.1l16,1.4l0,41.9h16.9l1.3,12.6L252.8,56.8z"/>
	<path class="st0" d="M290,58.6V3.5l14.4,1.4l-0.2,41.3l18.2-0.1l-2,13L290,58.6z"/>
	<path class="st0" d="M403.2,59.6c-17.5,0-29.4-14.5-29.4-31.5c0-18.9,12.7-25.7,29.7-25.7c6.8,0,14.4,1.3,18.8,3.8l-4,13.3
		c-4.2-2.6-8.8-5.8-14.5-5.8c-9.5,0-14.1,7-14.1,17.3c0,10.4,4.8,17.7,14.3,17.7c3,0,6.4-0.8,8.7-1.9l0.7-9.6l-12,0.3l-1.1-10.5
		l24.4-0.1l1.3,25.3C420.2,55.8,410.8,59.6,403.2,59.6z"/>
</g>
<g>
	<path class="st0" d="M298.2,110.7c0,0,1.5-13.3,1.9-24c0.3-7.1-0.5-13.2-0.5-13.2s4-0.7,8.6-0.9c5.8-0.3,12.6-0.3,12.6-0.3
		l-0.4,7.4l-11.8,0.8v7.1l9.7,0.7l0.2,8.1l-9.2-0.6v6.5l12.9,0.9v8.4L298.2,110.7z"/>
	<path class="st0" d="M239.7,111.9l-4.8-12.7l-4.3,0.3c0,0-0.3,5.2-0.1,8.9c0.1,2,0.7,3.6,0.7,3.6l-8.9-0.6c0,0-0.2-2.7-0.1-6.6
		c0.1-4.4,0.2-10.2,0.3-15.6c0.1-7.4-0.6-13.7-0.6-13.7l13.2,0.4c9.1,0,13.3,3.6,13.4,10.2c0.1,5.3-1.8,9.5-6.1,11.4
		c0,0,1,1.9,2.1,4.4c1,2.1,1.6,4.9,2.3,6.9c0.8,2,1.7,3.3,1.7,3.3H239.7z M233.9,81.7l-3.7-0.1l0.8,10.9l2.9-0.3
		c4-1.1,5.7-2,5.7-5.6C239.7,83,238,81.7,233.9,81.7z"/>
	<path class="st0" d="M149.5,111.7c-5.1-0.3-9.1-0.8-13.4-2.2l1.4-7.2c3.9,2.1,7.1,3,10.9,3c2.7,0,3.8-1.4,3.8-3.7
		c0-2.1-0.3-3.3-4.5-5.2c-7.4-3.3-11.3-5.4-11.3-11.6c0-7.3,6.1-10.2,13.3-10.2c4.4,0,5.3,0.1,8.6,1.7l-1,6.5
		c-3.4-2-4.6-1.9-7.5-1.9c-2.8,0-3.6,1.9-3.6,3.7c0,1.9,0.6,2.9,5.3,5c8,3.6,9.7,7.3,9.7,11.8C161,107.8,155.5,112,149.5,111.7z"/>
	<path class="st0" d="M172.6,82.9v6.8l9.4,0.6l-0.1,7.6l-9-0.5l-0.8,14.3l-8.6,0c0,0,0-12.9,0.5-23.2c0.3-6.9,1.5-12.8,1.5-12.8
		l18.2,0.4l-0.6,7.3L172.6,82.9z"/>
	<path class="st0" d="M54.9,112.3l-5.6-12.5l-5-0.1v12.9H35l1.3-37.8l11.9,0.4c9.1,0,14,5.3,14,11.2c0,5.3-2.4,9.3-5.6,11.7
		l7.1,14.1H54.9z M47.3,81.5l-3-0.4v12l3.3-0.2c4,0,6.4-1.7,6.4-5.3C54,84.1,51.4,82.4,47.3,81.5z"/>
	<path class="st0" d="M287.3,111l-2.2-23.6l-8,23.6h-8.9l-6.1-21.9l-3.6,22.3l-7.1,0.3c0,0,0.2-12.5,1.2-22.7
		c0.7-7.5,1.9-14.1,1.9-14.1l11.1,0.9l7.7,21.6l8.2-23l11.2,0.5l1.5,36H287.3z"/>
	<path class="st0" d="M76.5,74.2l12,1.4L98,111l-7.6,0.4l-2.8-8.2h-13l-2.8,8.6h-8.3L76.5,74.2z M77,95.3h8.5l-3.1-12.1L77,95.3z"/>
	<path class="st0" d="M22,82.7l0.8,29.1h-9.3l0-29.8H2.7v-7.4l29.3,0.1l0.5,8.2L22,82.7z"/>
	<path class="st0" d="M202.5,111.7c-7.2,0-17.1-7.9-17.1-19.6c0-11.8,6.8-19,17.2-19c10.4,0,17.2,9.1,17.2,18.9
		C219.7,103.7,213,111.7,202.5,111.7z M202.5,80.5c-5.2,0-7.3,4.1-7.3,11.6c0,7.5,2.1,12.8,7.3,12.8c6.7,0,8.2-5.3,8.2-12.8
		C210.8,84.5,207.7,80.5,202.5,80.5z"/>
	<path class="st0" d="M123.6,111l-15.3-20.6l-0.1,22h-8.7c0,0-0.5-5.5-0.4-12.4c0.2-10.4,1-23.6,1-23.6h9.1L122.7,96l0.3-19.9
		l8.7,0.8v34H123.6z"/>
	<path class="st0" d="M340.1,110.1l-13.9-0.1l0.7-36l13-1.2c13.1-1.1,19.9,10.1,19.9,21.2C359.8,105.1,352.7,110.1,340.1,110.1z
		 M339.3,80.7l-3.8,0.2l0.8,22h3.4c6.6,0,10.7-3.5,10.7-11.5C350.3,83.6,345.6,79.8,339.3,80.7z"/>
</g>
<g>
	<path class="st0" d="M365.1,110.1v-4.4h-1.6v-0.9h4.2v0.9h-1.6v4.4H365.1z"/>
	<path class="st0" d="M368.4,110.1v-5.3h1.6l1,3.6l1-3.6h1.6v5.3h-1v-4.2l-1.1,4.2h-1l-1-4.2v4.2H368.4z"/>
</g>
</svg>
