<svg xmlns="http://www.w3.org/2000/svg" viewBox="0 0 464.31 112.63"><defs><style>.cls-1{fill:#776441;}</style></defs><title>ovt-text-logo</title><g id="Layer_2" data-name="Layer 2"><g id="Logo_Color" data-name="Logo / Color"><path class="cls-1" d="M110.11,56.86s2.26-19.64,2.88-35.52a133.33,133.33,0,0,0-.73-19.53A123.48,123.48,0,0,1,124.89.49c8.65-.43,18.6-.48,18.6-.48l-.54,10.91-17.47,1.17V22.63l14.39,1.07.29,11.89-13.66-.88v9.55l19.07,1.33V58.06Z"/><path class="cls-1" d="M89.06,56.43s-10.25-17-15.82-25.27a15.2,15.2,0,0,0-4.34-4.23v28.4l-11.84-.26L56.39,3.42,68.15,3,90.27,36.11,90.87,3l11.22,1.26.72,53.09Z"/><path class="cls-1" d="M25.31,57C14.65,57,0,45.35,0,28.07S10,0,25.46,0,50.85,13.48,50.85,27.91C50.85,45.18,40.82,57,25.31,57Zm.08-46.14c-7.64,0-10.74,6-10.74,17.1s3.13,18.95,10.78,18.95c9.85,0,12.15-7.84,12.15-18.95S33.1,10.88,25.39,10.88Z"/><path class="cls-1" d="M432.3,56.11,432.11.81,462.23,1l.19,10.79-17.81-.46-.09,11.16h16.22l-.31,9.66L445,33V44.83h18.37l.95,12.89Z"/><path class="cls-1" d="M343.66,3.95l12.62-1,18.29,52.24-13.67.4-2.51-8.52L340,46.74,334.55,57l-11.87-.12Zm-1.29,31.77,13.57.4-6.34-17.83Z"/><path class="cls-1" d="M230.68,56l-1-52.89h12.78l2,52.9Z"/><path class="cls-1" d="M224.54,1.48,204.42,57.12l-14.56-.86-19-53.79L184.4.32l14.23,36.32L209.92.79S218.88.44,224.54,1.48Z"/><path class="cls-1" d="M252.83,56.82,250.54,1.68l16,1.42V45h16.94l1.34,12.62Z"/><path class="cls-1" d="M290,58.6V3.45l14.44,1.42-.2,41.34,18.16-.12-2,13Z"/><path class="cls-1" d="M403.18,59.64c-17.5,0-29.43-14.47-29.43-31.49,0-18.95,12.72-25.73,29.75-25.73,6.79,0,14.39,1.31,18.79,3.79l-4,13.3c-4.15-2.64-8.8-5.82-14.48-5.82-9.51,0-14.15,7-14.15,17.34S394.47,48.69,404,48.69a20.93,20.93,0,0,0,8.66-1.93l.67-9.64-12,.33-1.12-10.5,24.39-.14,1.33,25.27C420.19,55.83,410.77,59.64,403.18,59.64Z"/><path class="cls-1" d="M298.18,110.71s1.53-13.29,1.95-24a90.12,90.12,0,0,0-.5-13.22,83.82,83.82,0,0,1,8.55-.9c5.85-.29,12.59-.33,12.59-.33l-.37,7.38-11.83.79v7.14l9.74.72.2,8.05-9.24-.6v6.46l12.91.9v8.44Z"/><path class="cls-1" d="M239.67,111.91l-4.83-12.73-4.29.26s-.26,5.22-.13,8.91a11.89,11.89,0,0,0,.69,3.57l-8.92-.59s-.17-2.68-.12-6.6c.05-4.36.25-10.23.32-15.58a132,132,0,0,0-.57-13.7l13.18.4c9.13,0,13.26,3.58,13.4,10.15.11,5.27-1.82,9.52-6.15,11.38,0,0,1,1.92,2.12,4.4,1,2.11,1.56,4.87,2.33,6.88a14.56,14.56,0,0,0,1.7,3.26ZM233.94,81.7l-3.71-.13.85,10.91,2.86-.32c4-1.08,5.72-2,5.72-5.62S238,81.7,233.94,81.7Z"/><path class="cls-1" d="M149.47,111.69a50.22,50.22,0,0,1-13.4-2.2l1.36-7.2a21.67,21.67,0,0,0,10.88,3c2.68,0,3.75-1.42,3.75-3.67s-.27-3.26-4.52-5.16c-7.38-3.3-11.26-5.38-11.26-11.64,0-7.3,6.12-10.2,13.34-10.2,4.45,0,5.28.11,8.56,1.7l-1,6.51c-3.39-2-4.59-1.86-7.49-1.86s-3.62,1.9-3.62,3.66c0,1.92.63,2.9,5.28,5,8,3.62,9.65,7.29,9.65,11.8C161,107.76,155.49,112,149.47,111.69Z"/><path class="cls-1" d="M172.58,82.86v6.76l9.43.62-.09,7.64-9-.45-.76,14.28-8.62,0s0-12.87.53-23.25a105.41,105.41,0,0,1,1.47-12.83l18.24.4-.57,7.28Z"/><path class="cls-1" d="M54.91,112.3,49.32,99.77l-5-.05v12.91H35L36.3,74.86l11.87.44c9.13,0,14,5.29,14,11.19a14.35,14.35,0,0,1-5.59,11.71l7.11,14.08ZM47.26,81.5l-3-.38v12l3.31-.24c4,0,6.41-1.66,6.41-5.29S51.41,82.38,47.26,81.5Z"/><path class="cls-1" d="M287.32,111l-2.18-23.56-8,23.61h-8.86l-6.13-21.94-3.6,22.27-7.1.33s.15-12.54,1.15-22.68c.74-7.51,1.95-14.11,1.95-14.11l11.13.94,7.75,21.64,8.18-23,11.2.55,1.47,36Z"/><path class="cls-1" d="M76.51,74.22l12,1.42L98,111l-7.58.39-2.79-8.24h-13l-2.79,8.56H63.56Zm.47,21h8.47l-3.1-12.07Z"/><path class="cls-1" d="M22,82.67l.76,29.05H13.42V81.92H2.75V74.47l29.32.08.48,8.2Z"/><path class="cls-1" d="M202.45,111.73c-7.21,0-17.13-7.91-17.13-19.6s6.79-19,17.23-19S219.74,82.26,219.74,92C219.74,103.71,213,111.73,202.45,111.73Zm.05-31.23c-5.17,0-7.27,4.05-7.27,11.57s2.12,12.83,7.29,12.83c6.67,0,8.23-5.3,8.23-12.83S207.73,80.49,202.51,80.49Z"/><path class="cls-1" d="M123.59,111,108.28,90.39l-.14,22H99.44s-.5-5.54-.39-12.41c.17-10.37,1-23.56,1-23.56h9.08L122.7,96,123,76.13l8.69.84v34Z"/><path class="cls-1" d="M340.08,110.09,326.23,110l.67-36,13-1.19C353,71.7,359.76,82.88,359.76,94S352.69,110.09,340.08,110.09Zm-.8-29.39-3.83.23.79,22h3.35c6.6,0,10.71-3.46,10.71-11.47C350.31,83.58,345.58,79.8,339.28,80.7Z"/><path class="cls-1" d="M364.09,104.24a3.2,3.2,0,0,0-3.19,3.19v0a3.16,3.16,0,0,0,3.17,3.17,3.2,3.2,0,0,0,3.18-3.2v0A3.17,3.17,0,0,0,364.09,104.24Zm2.43,3.19a2.45,2.45,0,1,1-4.89,0v0a2.45,2.45,0,0,1,2.46-2.47,2.42,2.42,0,0,1,2.43,2.46Zm-1-.53v0a.93.93,0,0,0-.25-.68,1.36,1.36,0,0,0-1-.33h-1.37v2.94h.82v-.9H364l.6.9h.94l-.7-1A.92.92,0,0,0,365.47,106.89Zm-.81.05c0,.21-.16.34-.44.34h-.53v-.71h.52c.27,0,.45.11.45.35Z"/></g></g></svg>