<?xml version="1.0" encoding="utf-8"?>
<!-- Generator: Adobe Illustrator 22.0.1, SVG Export Plug-In . SVG Version: 6.00 Build 0)  -->
<svg version="1.1" id="Layer_1" xmlns="http://www.w3.org/2000/svg" xmlns:xlink="http://www.w3.org/1999/xlink" x="0px" y="0px"
	 viewBox="0 0 100 100" style="enable-background:new 0 0 100 100;" xml:space="preserve">
<style type="text/css">
	.st0{fill:#93B75D;}
</style>
<g id="Layer_2_1_">
</g>
<g>
	<path class="st0" d="M50,96.8c-25.6,0-46.5-20.9-46.5-46.5C3.5,24.7,24.4,3.8,50,3.8c25.6,0,46.5,20.9,46.5,46.5
		C96.5,75.9,75.6,96.8,50,96.8z M50,6.8C26,6.8,6.5,26.3,6.5,50.3c0,24,19.5,43.5,43.5,43.5c24,0,43.5-19.5,43.5-43.5
		C93.5,26.3,74,6.8,50,6.8z M48,82.9c-1.9,0-3.4-1.5-3.4-3.4c0-0.9,0-1.9-0.1-2.8c0-0.4,0-0.8-0.1-1.1c-0.3,0-0.6-0.1-0.8-0.1
		c-2.6-0.4-5.4-0.9-8.2-2.2c-2.6-1.2-3.2-2.4-2.5-5.1c0.2-0.6,0.3-1.2,0.5-1.7c0.2-0.9,0.5-1.9,0.8-2.8c0.3-1,0.7-2,1.7-2.4
		c1-0.4,2.1,0,2.9,0.5c2.3,1.2,5,2,8,2.2c1.9,0.2,3.5-0.1,4.8-0.7c1.1-0.5,1.8-1.4,1.9-2.4c0.1-1-0.4-1.9-1.3-2.7
		c-0.7-0.6-1.8-1.2-2.9-1.6c-1-0.4-2-0.8-2.9-1.2c-2-0.8-4.1-1.6-6.1-2.8c-5.5-3.1-8.2-7.5-7.9-13c0.3-6.4,3.7-10.9,10.2-13.5
		l0.3-0.1c0.4-0.2,0.8-0.3,1-0.4c0-0.3,0-0.9,0-1.3l0-2.5c0-2.7,1-3.7,3.6-3.8l1.7,0c2.3-0.1,3.6-0.1,4.5,0.8
		c0.9,0.9,0.9,2.2,0.9,4.5l0,0.2c0,0.4,0,0.9,0.1,1.2c0.3,0.1,0.9,0.1,1.4,0.2c2.1,0.3,4.2,0.9,6.5,1.9c1.8,0.8,2.5,2.5,1.9,4.2
		l-0.2,0.8c-0.4,1.4-0.8,2.8-1.2,4.2c-0.3,1-0.8,1.9-1.8,2.3c-1,0.4-2,0-2.8-0.4c-2.7-1.3-5.5-1.8-8.9-1.6c-0.8,0.1-1.5,0.2-2,0.4
		c-0.9,0.4-1.5,1.1-1.6,1.9c-0.1,0.7,0.3,1.4,1,2c1.1,0.8,2.4,1.5,3.9,2.1l1.2,0.5c2.2,0.8,4.4,1.7,6.6,2.9
		c4.4,2.3,7.4,6.2,8.4,10.8c0.9,4.3-0.2,8.7-3,12.1c-2.1,2.7-4.9,4.6-8.2,5.5c-0.5,0.2-0.6,0.3-0.6,0.3l0,0c0,0-0.1,0.1,0,0.6
		c0.1,1,0,1.9,0,2.8c0,0.4,0,0.9,0,1.3c0,2.1-1.2,3.3-3.2,3.3C50.9,82.9,49.5,82.9,48,82.9z M37.2,64.2c0,0.1-0.1,0.2-0.1,0.4l0,0.1
		c-0.3,0.8-0.5,1.6-0.7,2.5c-0.2,0.6-0.3,1.2-0.5,1.8c-0.2,0.8-0.2,1-0.2,1c0,0,0.2,0.2,1,0.6c2.4,1.1,4.9,1.6,7.3,2
		c2.9,0.4,3.3,1.2,3.4,4c0.1,0.9,0.1,2.1,0.1,3c0,0.3,0.2,0.4,0.4,0.4c1.4,0,2.8,0,4.2-0.1c0.2,0,0.3,0,0.3,0c0-0.1,0-0.2,0-0.3
		c0-0.5,0-0.9,0-1.4c0-0.9,0-1.7,0-2.5c-0.1-2.1,0.7-3.3,2.8-4c2.8-0.8,5-2.2,6.7-4.5l0,0c2.2-2.8,3.1-6.2,2.4-9.6
		c-0.8-3.7-3.3-6.9-6.9-8.8c-2-1.1-4.1-1.9-6.3-2.8l-1.2-0.5c-1.7-0.7-3.2-1.5-4.5-2.5c-1.6-1.2-2.4-2.9-2.2-4.7
		c0.2-1.8,1.4-3.4,3.3-4.3c1.1-0.5,2.1-0.6,3.1-0.7c4-0.2,7.2,0.4,10.4,1.9c0.1,0.1,0.2,0.1,0.3,0.1c0-0.1,0.1-0.2,0.1-0.4
		c0.4-1.3,0.8-2.7,1.2-4.1L62,30c0.1-0.3,0.1-0.4-0.3-0.6c-2-0.9-3.8-1.4-5.6-1.6c-3.4-0.5-3.9-1.1-4.1-4.3l0-0.3c0-1,0-2-0.1-2.4
		c-0.4-0.1-1.4,0-2.3,0l-1.7,0c-0.3,0-0.5,0-0.7,0.1c0,0.1,0,0.4,0,0.7V24c0.1,2.9-0.3,3.5-2.9,4.6l-0.3,0.1
		c-5.5,2.2-8.1,5.6-8.3,10.9c-0.2,4.4,1.9,7.8,6.4,10.3c1.8,1.1,3.7,1.8,5.7,2.6c1,0.4,2,0.8,3,1.2c1.3,0.6,2.6,1.3,3.6,2
		c1.7,1.4,2.6,3.3,2.4,5.3c-0.2,2-1.6,3.8-3.6,4.8c-1.8,0.9-4,1.2-6.4,1c-3.4-0.3-6.4-1.2-9.1-2.5C37.4,64.2,37.3,64.2,37.2,64.2z"
		/>
</g>
</svg>
