<?xml version="1.0" encoding="utf-8"?>
<!-- Generator: Adobe Illustrator 19.1.0, SVG Export Plug-In . SVG Version: 6.00 Build 0)  -->
<svg version="1.1" id="Layer_1" xmlns="http://www.w3.org/2000/svg" xmlns:xlink="http://www.w3.org/1999/xlink" x="0px" y="0px"
	 viewBox="0 0 98.9 98.9" style="enable-background:new 0 0 98.9 98.9;" xml:space="preserve">
<style type="text/css">
	.st0{fill:#FFF200;}
</style>
<path class="st0" d="M98.9,46.8c-0.2-4.2-4.8-7.6-6-11.5c-1.3-4,0.3-9.4-1.9-12.9c-2.3-3.5-7.9-4.2-11-6.9
	c-3.1-2.8-4.3-8.3-8.1-10.2c-3.7-1.9-8.9,0.3-13-0.6c-4-0.8-7.8-5-12.1-4.8c-4.3,0.2-7.6,4.8-11.5,6c-4,1.3-9.4-0.3-12.9,1.9
	c-3.5,2.3-4.2,7.9-6.9,11C12.8,22,7.2,23.3,5.3,27c-1.9,3.7,0.3,8.9-0.6,13c-0.8,4-5,7.8-4.8,12.1c0.2,4.3,4.8,7.6,6,11.5
	c1.3,4-0.3,9.4,1.9,12.9c2.3,3.5,7.9,4.2,11,6.9c3.1,2.8,4.3,8.3,8.1,10.2c3.7,1.9,8.9-0.3,13,0.6c4,0.8,7.8,5,12.1,4.8
	c4.2-0.2,7.6-4.8,11.5-6c4-1.3,9.4,0.3,12.9-1.9c3.5-2.3,4.2-7.9,6.9-11c2.8-3.1,8.3-4.3,10.2-8.1c1.9-3.7-0.3-8.9,0.6-13
	C94.9,55,99.1,51.1,98.9,46.8"/>
<path d="M84.9,48.3c-0.5,0-0.9-0.3-0.9-0.8c0-0.5,0.3-0.9,0.8-0.9c0.5,0,0.9,0.3,0.9,0.8C85.7,47.9,85.4,48.3,84.9,48.3"/>
<path d="M84.9,52.6c0,0-0.1,0-0.1,0c-0.5,0-0.8-0.4-0.8-0.9c0-0.5,0.4-0.8,0.9-0.8c0.5,0,0.8,0.4,0.8,0.9
	C85.6,52.2,85.3,52.6,84.9,52.6"/>
<path d="M85.1,56.2c-0.1,0.4-0.4,0.7-0.8,0.7c-0.1,0-0.1,0-0.2,0c-0.5-0.1-0.8-0.5-0.7-1c0.1-0.5,0.5-0.8,1-0.7
	C84.9,55.2,85.2,55.7,85.1,56.2"/>
<path d="M84.1,60.4c-0.1,0.3-0.4,0.6-0.8,0.6c-0.1,0-0.2,0-0.3,0c-0.5-0.1-0.7-0.6-0.6-1.1c0.1-0.5,0.6-0.7,1.1-0.6
	C83.9,59.5,84.2,60,84.1,60.4"/>
<path d="M81.5,34.3c0.4-0.2,0.9,0,1.1,0.4c0.2,0.4,0,0.9-0.4,1.1c-0.1,0-0.2,0.1-0.3,0.1c-0.3,0-0.7-0.2-0.8-0.5
	C80.9,35,81.1,34.5,81.5,34.3"/>
<path d="M82.5,64.5C82.3,64.8,82,65,81.7,65c-0.1,0-0.3,0-0.4-0.1c-0.4-0.2-0.6-0.7-0.4-1.1c0.2-0.4,0.7-0.6,1.1-0.4
	C82.5,63.6,82.7,64.1,82.5,64.5"/>
<path d="M79.4,30.5c0.4-0.2,0.9-0.1,1.2,0.3c0.2,0.4,0.1,0.9-0.3,1.2c-0.1,0.1-0.3,0.1-0.4,0.1c-0.3,0-0.6-0.1-0.8-0.4
	C78.9,31.3,79,30.8,79.4,30.5"/>
<path d="M80.4,68.4c-0.1,0.2-0.4,0.4-0.7,0.4c-0.2,0-0.3,0-0.5-0.1c-0.4-0.2-0.5-0.8-0.3-1.2c0.2-0.4,0.8-0.5,1.2-0.3
	C80.5,67.4,80.7,68,80.4,68.4"/>
<path d="M76.9,27.1c0.4-0.3,0.9-0.2,1.2,0.2c0.3,0.4,0.2,0.9-0.2,1.2c-0.1,0.1-0.3,0.2-0.5,0.2c-0.3,0-0.5-0.1-0.7-0.3
	C76.5,27.9,76.6,27.3,76.9,27.1"/>
<path d="M77.9,72c-0.2,0.2-0.4,0.3-0.6,0.3c-0.2,0-0.4,0-0.6-0.2c-0.4-0.3-0.4-0.8-0.1-1.2c0.3-0.4,0.8-0.4,1.2-0.1
	C78.1,71,78.2,71.6,77.9,72"/>
<path d="M74,23.9c0.3-0.3,0.9-0.3,1.2,0c0.3,0.3,0.3,0.9,0,1.2c-0.2,0.2-0.4,0.2-0.6,0.2c-0.2,0-0.5-0.1-0.7-0.3
	C73.7,24.8,73.7,24.2,74,23.9"/>
<path d="M84.2,38.8c0.1,0.5-0.1,0.9-0.6,1.1c-0.1,0-0.1,0-0.2,0c-0.4,0-0.7-0.2-0.9-0.6c-0.1-0.5,0.1-0.9,0.6-1.1
	C83.5,38.1,84,38.4,84.2,38.8"/>
<path d="M85.2,43.1L85.2,43.1c0.1,0.5-0.2,0.9-0.7,1c0,0-0.1,0-0.1,0c-0.4,0-0.8-0.3-0.9-0.7c-0.1-0.5,0.2-0.9,0.7-1
	C84.7,42.3,85.1,42.6,85.2,43.1"/>
<path d="M75,75.2c-0.2,0.2-0.4,0.2-0.6,0.2c-0.2,0-0.5-0.1-0.7-0.3c-0.3-0.3-0.3-0.9,0-1.2c0.3-0.3,0.9-0.3,1.2,0
	C75.3,74.4,75.3,74.9,75,75.2"/>
<path d="M71.7,78.1c-0.1,0.1-0.3,0.2-0.5,0.2c-0.3,0-0.5-0.1-0.7-0.3c-0.3-0.4-0.2-0.9,0.2-1.2c0.4-0.3,0.9-0.2,1.2,0.1
	C72.1,77.3,72.1,77.8,71.7,78.1"/>
<path d="M68.1,80.6c-0.1,0.1-0.3,0.1-0.4,0.1c-0.3,0-0.6-0.1-0.8-0.4c-0.2-0.4-0.1-0.9,0.3-1.2c0.4-0.2,0.9-0.1,1.2,0.3
	C68.6,79.8,68.5,80.4,68.1,80.6"/>
<polygon points="64.9,70.9 59.7,62.4 55.6,71.1 47.4,71.5 54.9,57.2 46.6,45 55.2,43.3 59.8,50.8 63.4,43.1 71.6,42.7 64.6,56 
	73.6,69.1 "/>
<path d="M64.2,82.6c-0.1,0-0.2,0.1-0.3,0.1c-0.3,0-0.7-0.2-0.8-0.5c-0.2-0.4,0-0.9,0.4-1.1c0.4-0.2,0.9,0,1.1,0.4
	C64.8,81.9,64.6,82.4,64.2,82.6"/>
<path d="M60.1,84.2c-0.1,0-0.1,0-0.2,0c-0.4,0-0.7-0.2-0.9-0.6c-0.1-0.5,0.1-0.9,0.6-1.1c0.5-0.1,0.9,0.1,1.1,0.6
	C60.8,83.5,60.6,84,60.1,84.2"/>
<path d="M55.8,85.2c0,0-0.1,0-0.1,0c-0.4,0-0.8-0.3-0.9-0.7c-0.1-0.5,0.2-0.9,0.7-1c0.5-0.1,0.9,0.2,1,0.7
	C56.6,84.7,56.3,85.1,55.8,85.2"/>
<path d="M51.5,85.7C51.5,85.7,51.4,85.7,51.5,85.7c-0.1,0-0.1,0-0.2,0c-0.5,0-0.9-0.3-0.9-0.8c0-0.5,0.3-0.9,0.8-0.9c0,0,0,0,0.1,0
	c0,0,0,0,0.1,0c0.5,0,0.9,0.3,0.9,0.8C52.3,85.3,52,85.7,51.5,85.7"/>
<path d="M37,72.6c-3.7,0.2-7-0.5-9.4-1.6l0.6-5.9c2.2,1,4.9,1.6,7.5,1.4c2.2-0.1,3.5-1.1,3.5-2.7c-0.1-1.7-1.3-2.6-4.4-2.4l-2.7,0.1
	l-1.3-5.6l3.2-0.2c3-0.2,4.2-1.3,4.1-2.8c-0.1-1.5-1.2-2.2-3.5-2.1c-2.3,0.1-4.7,1-6.7,2.4l-1.3-5.7c2-1.5,5.3-2.8,8.9-2.9
	c6-0.3,10,2.2,10.2,6.6c0.2,3.7-1.6,5.5-4.3,6.7c3.2,0.9,5.2,2.6,5.4,6C47.2,69.3,42.7,72.3,37,72.6"/>
<path d="M47.1,85.7c0,0-0.1,0-0.1,0c-0.5,0-0.8-0.4-0.8-0.9c0-0.5,0.4-0.8,0.9-0.8c0.5,0,0.8,0.4,0.8,0.9
	C47.8,85.3,47.5,85.7,47.1,85.7"/>
<path d="M43.6,84.4c-0.1,0.4-0.4,0.7-0.8,0.7c-0.1,0-0.1,0-0.2,0c-0.5-0.1-0.8-0.5-0.7-1c0.1-0.5,0.5-0.8,1-0.7
	C43.4,83.5,43.7,84,43.6,84.4"/>
<path d="M39.4,83.5c-0.1,0.3-0.4,0.6-0.8,0.6c-0.1,0-0.2,0-0.3,0c-0.5-0.1-0.7-0.6-0.6-1.1c0.1-0.5,0.6-0.7,1.1-0.6
	C39.3,82.5,39.6,83,39.4,83.5"/>
<path d="M35.4,82c-0.1,0.3-0.4,0.5-0.7,0.5c-0.1,0-0.3,0-0.4-0.1c-0.4-0.2-0.6-0.7-0.4-1.1c0.2-0.4,0.7-0.6,1.1-0.4
	C35.4,81.1,35.6,81.6,35.4,82"/>
<path d="M31.6,80.1c-0.2,0.2-0.4,0.4-0.7,0.4c-0.2,0-0.3,0-0.5-0.1c-0.4-0.2-0.5-0.8-0.3-1.2c0.2-0.4,0.8-0.5,1.2-0.3
	C31.7,79.1,31.8,79.7,31.6,80.1"/>
<path d="M28,77.7c-0.2,0.2-0.4,0.3-0.6,0.3c-0.2,0-0.4,0-0.6-0.2l0,0c-0.4-0.3-0.4-0.8-0.1-1.2c0.3-0.4,0.8-0.4,1.2-0.1
	C28.3,76.8,28.3,77.3,28,77.7"/>
<path d="M23.9,23.6c0.3-0.3,0.9-0.3,1.2,0c0.3,0.3,0.3,0.9,0,1.2c-0.1,0.1-0.4,0.2-0.6,0.2c-0.2,0-0.5-0.1-0.7-0.3
	C23.6,24.5,23.6,23.9,23.9,23.6"/>
<path d="M27.6,28.3l-0.1,0.7c-0.3-0.2-0.7-0.3-1.1-0.3c-0.6,0-0.8,0.3-0.8,0.7c0,0.4,0.2,0.6,1,0.9c1,0.4,1.3,0.7,1.4,1.5
	c0,0.9-0.6,1.4-1.5,1.5c-0.5,0-1-0.1-1.4-0.3l0.1-0.7c0.4,0.2,0.8,0.4,1.3,0.4c0.5,0,0.9-0.3,0.9-0.8c0-0.5-0.2-0.6-1-0.9
	c-1-0.4-1.3-0.7-1.4-1.4c0-0.8,0.5-1.4,1.5-1.4C26.9,28,27.3,28.1,27.6,28.3"/>
<path d="M27.2,20.7c0.4-0.3,0.9-0.2,1.2,0.2c0.3,0.4,0.2,0.9-0.2,1.2c-0.1,0.1-0.3,0.2-0.5,0.2c-0.3,0-0.5-0.1-0.7-0.3
	C26.8,21.6,26.9,21,27.2,20.7"/>
<polygon points="29.2,28 31.9,27.8 31.9,28.4 29.9,28.5 30,30 31.5,29.9 31.7,30.5 30,30.6 30.1,32.3 32.2,32.2 32.2,32.8 29.5,33 
	"/>
<polygon points="33.2,41.9 32.3,42 31.6,36.4 29.7,42.1 28.9,42.2 26.5,36.7 26.4,42.3 25.5,42.3 25.7,35.4 26.8,35.3 29.3,40.9 
	31.1,35.1 32.3,35.1 "/>
<path d="M30.9,18.2c0.4-0.2,0.9-0.1,1.2,0.3c0.2,0.4,0.1,0.9-0.3,1.2c-0.1,0.1-0.3,0.1-0.4,0.1c-0.3,0-0.6-0.1-0.8-0.4
	C30.3,19,30.4,18.5,30.9,18.2"/>
<polygon points="33.2,27.7 33.9,27.7 34.1,32.1 35.9,32 36,32.6 33.5,32.7 "/>
<path d="M34.7,16.2c0.4-0.2,0.9,0,1.1,0.4c0.2,0.4,0,0.9-0.4,1.1c-0.1,0-0.2,0.1-0.3,0.1c-0.3,0-0.7-0.2-0.8-0.5
	C34.1,16.9,34.3,16.4,34.7,16.2"/>
<polygon points="37,27.5 39.7,27.4 39.7,28 37.7,28.1 37.7,29.6 39.3,29.5 39.4,30.1 37.8,30.2 37.9,31.9 40,31.8 40,32.4 
	37.2,32.5 "/>
<polygon points="40.8,41.4 39.9,41.6 39,39.5 36.2,39.7 35.5,41.8 34.5,41.8 36.9,34.8 37.8,34.7 "/>
<path d="M38.9,14.7c0.4-0.1,0.9,0.1,1.1,0.6c0.1,0.4-0.1,0.9-0.6,1.1c-0.1,0-0.1,0-0.2,0c-0.4,0-0.7-0.2-0.9-0.6
	C38.1,15.3,38.4,14.8,38.9,14.7"/>
<path d="M43,27.1c0.6,0,1,0.1,1.4,0.3l-0.1,0.7c-0.4-0.3-0.8-0.4-1.4-0.4c-1,0.1-1.6,0.9-1.5,2.1c0.1,1.2,0.7,1.9,1.7,1.9
	c0.5,0,1-0.3,1.4-0.6l0.1,0.6c-0.4,0.3-0.9,0.5-1.5,0.6c-1.4,0.1-2.4-0.9-2.4-2.5C40.7,28.3,41.6,27.2,43,27.1"/>
<path d="M43.1,13.7c0.5-0.1,0.9,0.2,1,0.7c0.1,0.5-0.2,0.9-0.7,1c0,0-0.1,0-0.1,0c-0.4,0-0.8-0.3-0.9-0.7
	C42.3,14.2,42.6,13.8,43.1,13.7"/>
<polygon points="46,35.2 43.7,35.3 44.1,41.3 43.1,41.4 42.8,35.4 40.6,35.5 40.6,34.6 45.8,34.4 "/>
<polygon points="45.5,27.1 49.3,26.9 49.4,27.5 47.8,27.6 48,32 47.4,32 47.1,27.6 45.5,27.7 "/>
<path d="M47.5,13.2c0.5,0,0.9,0.3,0.9,0.8c0,0.5-0.3,0.9-0.8,0.9c-0.5,0-0.9-0.3-0.9-0.8C46.6,13.6,47,13.2,47.5,13.2"/>
<path d="M52.1,34.5l-0.1,1c-0.5-0.4-1.1-0.6-1.9-0.6C48.7,34.9,48,36,48,37.7c0.1,1.7,1,2.7,2.4,2.6c0.7,0,1.4-0.4,1.9-0.8l0.2,0.9
	c-0.5,0.4-1.3,0.7-2,0.8c-1.9,0.1-3.3-1.3-3.4-3.4c-0.1-2.1,1.1-3.6,3-3.7C50.9,34,51.5,34.1,52.1,34.5"/>
<path d="M51.8,13.2c0.5,0,0.8,0.4,0.8,0.9c0,0.4-0.4,0.8-0.8,0.8c0,0-0.1,0-0.1,0c-0.5,0-0.8-0.4-0.8-0.9
	C51,13.5,51.4,13.2,51.8,13.2"/>
<path d="M56,26.9l-0.1,0.7c-0.4-0.3-0.9-0.5-1.4-0.4c-1.1,0.1-1.6,0.9-1.6,2.1c0.1,1.2,0.7,1.9,1.8,1.9c0.4,0,0.7-0.1,1-0.3
	l-0.1-1.3l-1.2,0.1l-0.1-0.6l1.9-0.1l0.1,2.3c-0.4,0.3-1,0.5-1.7,0.6c-1.6,0.1-2.5-0.9-2.6-2.5c-0.1-1.5,0.7-2.6,2.2-2.7
	C55.1,26.5,55.6,26.6,56,26.9"/>
<path d="M55.2,14.4c0.1-0.5,0.5-0.8,1-0.7c0.5,0.1,0.8,0.5,0.7,1c-0.1,0.4-0.4,0.7-0.8,0.7c-0.1,0-0.1,0-0.2,0
	C55.4,15.4,55.1,14.9,55.2,14.4"/>
<rect x="57.9" y="26.4" transform="matrix(-0.9987 5.132148e-02 -5.132148e-02 -0.9987 117.9071 54.8448)" width="0.7" height="5"/>
<polygon points="54.9,37.6 55.1,40.8 54.1,40.8 53.8,33.9 54.7,33.9 54.9,36.7 58.3,36.6 58.2,33.7 59.1,33.7 59.5,40.5 58.6,40.6 
	58.4,37.4 "/>
<path d="M59.4,15.4c0.1-0.4,0.6-0.7,1.1-0.6c0.5,0.1,0.7,0.6,0.6,1.1c-0.1,0.4-0.4,0.6-0.8,0.6c-0.1,0-0.2,0-0.3,0
	C59.5,16.3,59.2,15.8,59.4,15.4"/>
<polygon points="62.7,26.8 60.8,26.9 60.9,28.4 62.4,28.4 62.5,29 60.9,29.1 61,31.3 60.4,31.3 60.1,26.3 62.7,26.2 "/>
<polygon points="64.9,33.4 64.9,34.2 62.2,34.4 62.3,36.4 64.4,36.2 64.6,37.1 62.3,37.2 62.4,39.5 65.3,39.4 65.4,40.2 61.5,40.4 
	61.2,33.5 "/>
<polygon points="63.7,26.1 67.5,25.9 67.6,26.6 66,26.6 66.2,31 65.6,31.1 65.3,26.7 63.7,26.8 "/>
<path d="M63.4,16.8c0.2-0.4,0.7-0.6,1.1-0.4c0.4,0.2,0.6,0.7,0.4,1.1c-0.1,0.3-0.4,0.5-0.7,0.5c-0.1,0-0.3,0-0.4-0.1
	C63.4,17.8,63.2,17.3,63.4,16.8"/>
<path d="M67.2,18.8c0.2-0.4,0.8-0.5,1.2-0.3c0.4,0.2,0.5,0.8,0.3,1.2c-0.2,0.3-0.4,0.4-0.7,0.4c-0.2,0-0.3,0-0.5-0.1
	C67.1,19.7,67,19.2,67.2,18.8"/>
<path d="M71.3,26l-0.1,0.7c-0.3-0.2-0.7-0.3-1.1-0.3c-0.6,0-0.8,0.3-0.8,0.7c0,0.4,0.2,0.6,1,0.9c1,0.4,1.3,0.7,1.4,1.5
	c0,0.9-0.6,1.4-1.5,1.5c-0.5,0-1-0.1-1.4-0.3l0.1-0.7c0.4,0.2,0.8,0.4,1.3,0.4c0.5,0,0.9-0.3,0.9-0.8c0-0.5-0.2-0.6-1-0.9
	c-1-0.4-1.3-0.7-1.4-1.4c0-0.8,0.5-1.3,1.5-1.4C70.7,25.7,71,25.8,71.3,26"/>
<path d="M72.3,36.4c0.1,2-1.1,3.5-3.5,3.6l-2,0.1l-0.4-6.9l2-0.1C70.9,33,72.2,34.4,72.3,36.4"/>
<path d="M70.8,21.1c0.3-0.4,0.8-0.4,1.2-0.1c0.4,0.3,0.4,0.8,0.1,1.2c-0.2,0.2-0.4,0.3-0.6,0.3c-0.2,0-0.4,0-0.6-0.2
	C70.5,22,70.5,21.5,70.8,21.1"/>
<path d="M24.8,74.9c-0.2,0.2-0.4,0.2-0.6,0.2c-0.2,0-0.5-0.1-0.7-0.3c-0.3-0.3-0.3-0.9,0-1.2c0.3-0.3,0.9-0.3,1.2,0
	C25.1,74,25.1,74.6,24.8,74.9"/>
<path d="M21,26.9c0.3-0.4,0.8-0.4,1.2-0.1c0.4,0.3,0.4,0.8,0.1,1.2c-0.2,0.2-0.4,0.3-0.6,0.3c-0.2,0-0.4,0-0.6-0.2
	C20.8,27.8,20.7,27.2,21,26.9"/>
<path d="M21.9,71.8c-0.1,0.1-0.3,0.2-0.5,0.2c-0.3,0-0.5-0.1-0.7-0.3l0,0c-0.3-0.4-0.2-0.9,0.1-1.2c0.4-0.3,0.9-0.2,1.2,0.2
	C22.3,70.9,22.3,71.5,21.9,71.8"/>
<path d="M18.5,30.5c0.2-0.4,0.8-0.5,1.2-0.3c0.4,0.2,0.5,0.8,0.3,1.2c-0.2,0.3-0.4,0.4-0.7,0.4c-0.2,0-0.3,0-0.5-0.1
	C18.4,31.4,18.2,30.9,18.5,30.5"/>
<path d="M19.4,68.3c-0.1,0.1-0.3,0.1-0.4,0.1c-0.3,0-0.6-0.1-0.8-0.4c-0.2-0.4-0.1-0.9,0.3-1.2c0.4-0.2,0.9-0.1,1.2,0.3
	C19.9,67.5,19.8,68,19.4,68.3"/>
<path d="M16.4,34.3c0.2-0.4,0.7-0.6,1.1-0.4c0.4,0.2,0.6,0.7,0.4,1.1c-0.1,0.3-0.4,0.5-0.7,0.5c-0.1,0-0.3,0-0.4-0.1
	C16.4,35.3,16.2,34.7,16.4,34.3"/>
<path d="M17.3,64.5c-0.1,0-0.2,0.1-0.3,0.1c-0.3,0-0.7-0.2-0.8-0.5c-0.2-0.4,0-0.9,0.4-1.1c0.4-0.2,0.9,0,1.1,0.4
	C18,63.8,17.8,64.3,17.3,64.5"/>
<path d="M15.6,60.6c-0.4,0-0.7-0.2-0.9-0.6c-0.1-0.5,0.1-0.9,0.6-1.1c0.5-0.1,0.9,0.1,1.1,0.6c0.1,0.5-0.1,0.9-0.6,1.1
	C15.7,60.6,15.6,60.6,15.6,60.6"/>
<path d="M13.7,55.7c-0.1-0.5,0.2-0.9,0.7-1c0.5-0.1,0.9,0.2,1,0.7c0.1,0.5-0.2,0.9-0.7,1c0,0-0.1,0-0.1,0
	C14.1,56.5,13.8,56.2,13.7,55.7"/>
<path d="M13.2,51.4c0-0.5,0.3-0.9,0.8-0.9c0.5,0,0.9,0.3,0.9,0.8c0,0.5-0.3,0.9-0.8,0.9C13.6,52.2,13.2,51.9,13.2,51.4"/>
<path d="M14.1,46.2c0.5,0,0.8,0.4,0.8,0.9c0,0.4-0.4,0.8-0.8,0.8c0,0-0.1,0-0.1,0c-0.5,0-0.8-0.4-0.8-0.9
	C13.2,46.5,13.6,46.2,14.1,46.2"/>
<path d="M13.8,42.7c0.1-0.5,0.5-0.8,1-0.7c0.5,0.1,0.8,0.5,0.7,1c-0.1,0.4-0.4,0.7-0.8,0.7c-0.1,0-0.1,0-0.2,0
	C14,43.6,13.7,43.1,13.8,42.7"/>
<path d="M14.8,38.4c0.1-0.5,0.6-0.7,1.1-0.6c0.5,0.1,0.7,0.6,0.5,1.1c-0.1,0.3-0.4,0.6-0.8,0.6c-0.1,0-0.2,0-0.3,0
	C14.9,39.3,14.7,38.8,14.8,38.4"/>
<path class="st0" d="M68.6,34l-1.1,0.1l0.3,5.2l1.1-0.1c1.7-0.1,2.6-1,2.5-2.7C71.3,34.7,70.2,33.9,68.6,34"/>
<polygon class="st0" points="36.4,38.8 38.6,38.7 37.4,35.9 "/>
</svg>
