<?xml version="1.0" encoding="utf-8"?>
<!-- Generator: Adobe Illustrator 16.0.2, SVG Export Plug-In . SVG Version: 6.00 Build 0)  -->
<!DOCTYPE svg PUBLIC "-//W3C//DTD SVG 1.1//EN" "http://www.w3.org/Graphics/SVG/1.1/DTD/svg11.dtd">
<svg version="1.1" id="Layer_1" xmlns="http://www.w3.org/2000/svg" xmlns:xlink="http://www.w3.org/1999/xlink" x="0px" y="0px"
	 width="100px" height="100px" viewBox="430 230 100 100" enable-background="new 430 230 100 100" xml:space="preserve">
<g>
	<g>
		<g>
			<path fill="#F2E900" d="M472.744,307.821c-0.036,0-0.066,0-0.098-0.002c-1.873-0.086-2.352-1.843-2.857-3.701
				c-0.729-2.677-1.948-7.155-6.202-11.936c-7.357-8.273-9.521-20.023-5.385-29.239c3.701-8.245,11.862-12.974,22.39-12.974
				c10.527,0,18.688,4.729,22.39,12.974c4.135,9.216,1.974,20.966-5.386,29.239c-4.765,5.356-7.181,8.56-7.181,9.517
				c0,0.901-0.603,1.688-1.474,1.925C473.589,307.784,473.078,307.821,472.744,307.821z"/>
			<path fill="#F2E900" d="M480.091,328.674c-0.89,0-1.701-0.6-1.93-1.503c-0.271-1.066,0.375-2.152,1.44-2.424l9.866-2.508
				c1.065-0.267,2.152,0.373,2.424,1.44c0.271,1.066-0.375,2.152-1.441,2.423l-9.864,2.51
				C480.419,328.653,480.255,328.674,480.091,328.674z"/>
			<path fill="#F2E900" d="M472.389,319.506c-0.886,0-1.695-0.598-1.927-1.492c-0.278-1.066,0.362-2.153,1.426-2.431l17.569-4.561
				c1.067-0.284,2.155,0.364,2.43,1.427c0.277,1.066-0.362,2.154-1.427,2.431l-17.568,4.561
				C472.723,319.484,472.555,319.506,472.389,319.506z"/>
			<path fill="#F2E900" d="M472.389,325.186c-0.886,0-1.695-0.597-1.927-1.493c-0.278-1.065,0.362-2.153,1.426-2.429l17.569-4.562
				c1.067-0.283,2.155,0.364,2.43,1.428c0.277,1.066-0.362,2.153-1.427,2.431l-17.568,4.561
				C472.723,325.165,472.555,325.186,472.389,325.186z"/>
			<path fill="#F2E900" d="M472.389,313.825c-0.886,0-1.695-0.597-1.927-1.492c-0.278-1.066,0.362-2.153,1.426-2.43l17.569-4.561
				c1.067-0.285,2.155,0.361,2.43,1.427c0.277,1.065-0.362,2.154-1.427,2.429l-17.568,4.562
				C472.723,313.804,472.555,313.825,472.389,313.825z"/>
		</g>
		<path fill="#F2E900" d="M447.048,277.918h-8.142c-1.102,0-1.994-0.892-1.994-1.993s0.894-1.994,1.994-1.994h8.142
			c1.102,0,1.994,0.893,1.994,1.994S448.149,277.918,447.048,277.918z"/>
		<path fill="#F2E900" d="M451.6,260.926c-0.339,0-0.681-0.086-0.995-0.268l-7.05-4.072c-0.953-0.549-1.28-1.769-0.728-2.723
			c0.551-0.955,1.772-1.277,2.723-0.729l7.05,4.072c0.953,0.55,1.28,1.77,0.729,2.723
			C452.958,260.568,452.288,260.926,451.6,260.926z"/>
		<path fill="#F2E900" d="M464.043,248.485c-0.688,0-1.357-0.358-1.729-0.997l-4.071-7.05c-0.55-0.952-0.222-2.173,0.729-2.723
			c0.951-0.549,2.172-0.224,2.723,0.729l4.072,7.049c0.55,0.953,0.223,2.174-0.729,2.724
			C464.725,248.399,464.382,248.485,464.043,248.485z"/>
		<path fill="#F2E900" d="M481.036,243.932c-1.101,0-1.994-0.892-1.994-1.993v-8.141c0-1.102,0.894-1.993,1.994-1.993
			c1.101,0,1.994,0.892,1.994,1.993v8.141C483.03,243.04,482.137,243.932,481.036,243.932z"/>
		<path fill="#F2E900" d="M498.027,248.487c-0.34,0-0.682-0.086-0.995-0.268c-0.952-0.55-1.279-1.77-0.729-2.724l4.073-7.049
			c0.552-0.953,1.771-1.278,2.724-0.729c0.952,0.55,1.28,1.77,0.728,2.724l-4.071,7.05
			C499.387,248.129,498.715,248.487,498.027,248.487z"/>
		<path fill="#F2E900" d="M510.471,260.927c-0.688,0-1.355-0.357-1.728-0.997c-0.55-0.953-0.223-2.174,0.729-2.724l7.049-4.071
			c0.95-0.55,2.173-0.225,2.725,0.729c0.55,0.953,0.223,2.174-0.729,2.723l-7.05,4.072
			C511.153,260.841,510.811,260.927,510.471,260.927z"/>
		<path fill="#F2E900" d="M523.166,277.92h-8.142c-1.103,0-1.995-0.892-1.995-1.993s0.895-1.993,1.995-1.993h8.142
			c1.101,0,1.993,0.892,1.993,1.993S524.267,277.92,523.166,277.92z"/>
		<path fill="#F2E900" d="M517.519,298.985c-0.339,0-0.682-0.086-0.995-0.268l-7.051-4.071c-0.952-0.55-1.279-1.77-0.728-2.724
			c0.551-0.953,1.771-1.282,2.724-0.729l7.05,4.071c0.952,0.55,1.28,1.77,0.729,2.724
			C518.876,298.628,518.208,298.985,517.519,298.985z"/>
		<path fill="#F2E900" d="M444.553,298.983c-0.688,0-1.357-0.357-1.729-0.997c-0.549-0.953-0.222-2.174,0.729-2.724l7.05-4.071
			c0.952-0.553,2.172-0.225,2.724,0.728c0.549,0.954,0.222,2.174-0.729,2.724l-7.05,4.072
			C445.234,298.897,444.891,298.983,444.553,298.983z"/>
	</g>
</g>
</svg>
