<?xml version="1.0" encoding="utf-8"?>
<!-- Generator: Adobe Illustrator 22.0.1, SVG Export Plug-In . SVG Version: 6.00 Build 0)  -->
<svg version="1.1" id="Layer_1" xmlns="http://www.w3.org/2000/svg" xmlns:xlink="http://www.w3.org/1999/xlink" x="0px" y="0px"
	 viewBox="0 0 100 100" style="enable-background:new 0 0 100 100;" xml:space="preserve">
<style type="text/css">
	.st0{display:none;}
	.st1{display:inline;fill:#999999;}
	.st2{fill:#04AEB4;}
</style>
<g class="st0">
	<rect x="-537" y="-883.8" class="st1" width="1280" height="1310.4"/>
</g>
<g>
	<path class="st2" d="M72.6,51.7c4.7,0,8.6-3.8,8.6-8.6s-3.8-8.6-8.6-8.6c-4.7,0-8.6,3.8-8.6,8.6S67.9,51.7,72.6,51.7z M72.6,37.9
		c2.9,0,5.2,2.3,5.2,5.2s-2.3,5.2-5.2,5.2c-2.9,0-5.2-2.3-5.2-5.2S69.8,37.9,72.6,37.9z"/>
	<path class="st2" d="M45.1,85.6L45.1,85.6l0-11.4c0-0.7-0.4-1.5-1.1-1.7c-1.2-0.4-2.3,0.5-2.3,1.6v11.3c-0.5-0.2-1-0.4-1.4-0.7
		c-0.9-0.6-1.5-1.4-1.5-2l0-16.6c0-1.1,0.2-2.3,0.7-3.3c1.4-2.9,4.2-4.6,7.2-4.6h8.1c3.4,0,6.5,2.2,7.6,5.7c0.2,0.7,0.3,1.5,0.3,2.2
		l0,16.7c0,0.9-1,1.9-2.4,2.5c-0.2,0.1-0.4,0.1-0.6,0.2l0-11.2c0-0.7-0.4-1.5-1.1-1.7c-1.2-0.4-2.3,0.5-2.3,1.6v11.5h0v9.3
		c0,0.5,0.2,1,0.6,1.3l0,0c0.6,0.5,1.5,0.5,2.1,0l0,0c0.4-0.3,0.6-0.8,0.6-1.3v-6c0.6-0.1,1.3-0.3,1.9-0.6c2.7-1.2,4.4-3.4,4.4-5.6
		V68.3V66c0-1.8-0.4-3.5-1.2-5.1c1.3-0.8,2.7-1.2,4.2-1.2h8.1c4.3,0,7.9,3.5,7.9,7.9v16.7c0,0.3-0.1,0.5-0.3,0.8
		c-0.2,0.4-0.5,0.7-1,1c-0.5,0.4-1.1,0.7-1.7,0.9l0-11.2c0-0.7-0.4-1.5-1.1-1.7c-1.2-0.4-2.3,0.5-2.3,1.6v11.5h0v4
		c0,0.6,0.3,1.2,0.9,1.5l0,0c0.5,0.3,1.1,0.3,1.6,0l0,0c0.5-0.3,0.9-0.9,0.9-1.5l0-0.7c1.3-0.2,2.7-0.8,3.8-1.6
		c0.8-0.6,1.4-1.3,1.9-2c0.2-0.3,0.4-0.7,0.5-1.1c0.5-0.6,1-1.2,1.4-1.8c6.5-8.8,9.7-19.2,9.4-30.2c-0.4-13-5.8-25-15.3-33.8
		C74.1,11.1,61.8,6.4,48.9,6.8c-12.9,0.4-25,5.8-33.8,15.3C6.2,31.5,1.5,43.8,1.9,56.8c0.3,10.9,4.2,21.1,11.2,29.5
		c0,0,1.4,1.7,2.4,2.5c1.1,0.8,2.5,1.4,3.8,1.6V91c0,0.6,0.4,1.2,0.9,1.5l0,0c0.5,0.2,1,0.2,1.5,0l0,0c0.6-0.3,0.9-0.9,0.9-1.5
		l0-15.3c0-0.7-0.4-1.5-1.1-1.7c-1.2-0.4-2.3,0.5-2.3,1.6V87c-0.6-0.2-1.2-0.5-1.7-0.9c-0.4-0.3-0.8-0.7-1-1
		c-0.2-0.3-0.3-0.5-0.3-0.8V67.5c0-4.3,3.5-7.9,7.9-7.9h8.1c1.5,0,3,0.4,4.2,1.2c-0.8,1.6-1.2,3.3-1.2,5.1v2.3v14.4
		c0,1.8,1.1,3.6,3.1,4.9c1,0.7,2.2,1.1,3.3,1.3v6.3c0,0.5,0.2,1,0.6,1.3l0,0c0.6,0.5,1.6,0.5,2.2,0l0,0c0.4-0.3,0.6-0.8,0.6-1.3
		V85.6z M13,67.5v12.9c-4.8-7-7.4-15.1-7.7-23.8c-0.4-12,4-23.5,12.2-32.3c8.2-8.8,19.4-13.8,31.5-14.2c13.6-0.4,26.5,5.2,35.6,15.6
		c6.4,7.4,10.2,16.8,10.9,26.6c0.6,9.8-1.8,19.1-7.1,27.2V67.5c0-6.2-5-11.3-11.3-11.3h-8.1c-2.2,0-4.4,0.7-6.2,1.9
		c-2.1-2.1-5-3.4-8-3.4h-8.1c-3,0-5.9,1.2-8,3.4c-1.8-1.2-4-1.9-6.2-1.9h-8.1C18,56.3,13,61.3,13,67.5z"/>
	<path class="st2" d="M27.9,51.7c4.7,0,8.6-3.8,8.6-8.6s-3.8-8.6-8.6-8.6s-8.6,3.8-8.6,8.6C19.3,47.8,23.2,51.7,27.9,51.7z
		 M27.9,37.9c2.9,0,5.2,2.3,5.2,5.2s-2.3,5.2-5.2,5.2s-5.2-2.3-5.2-5.2S25.1,37.9,27.9,37.9z"/>
	<path class="st2" d="M50.3,50.2c4.7,0,8.6-3.8,8.6-8.6S55,33,50.3,33s-8.6,3.8-8.6,8.6S45.5,50.2,50.3,50.2z M50.3,36.4
		c2.9,0,5.2,2.3,5.2,5.2c0,2.9-2.3,5.2-5.2,5.2c-2.9,0-5.2-2.3-5.2-5.2C45.1,38.7,47.4,36.4,50.3,36.4z"/>
</g>
</svg>
