<?xml version="1.0" encoding="utf-8"?>
<!-- Generator: Adobe Illustrator 19.2.1, SVG Export Plug-In . SVG Version: 6.00 Build 0)  -->
<svg version="1.1" id="Layer_1" xmlns="http://www.w3.org/2000/svg" xmlns:xlink="http://www.w3.org/1999/xlink" x="0px" y="0px"
	 viewBox="0 0 150.2 58.2" style="enable-background:new 0 0 150.2 58.2;" xml:space="preserve">
<style type="text/css">
	.st0{fill:#FFFFFF;}
</style>
<g>
	<path class="st0" d="M6.7,56.8c-0.2,1.1-1.2,1.5-2.4,1.5c-1.8,0-2.6-1.3-2.6-2.6c0-1.2,0.7-2.6,2.8-2.6c1.2,0,2.1,0.6,2.2,1.4H5.8
		c-0.1-0.7-0.7-0.9-1.4-0.9c-1.1,0-2,0.7-2,2.1c0,1.4,0.9,2.1,2,2.1c0.7,0,1.4-0.3,1.5-1H6.7z"/>
	<path class="st0" d="M13,53.9l1.2,2.5h-2.5L13,53.9z M12.6,53.2l-2.6,5h0.8l0.6-1.3h3.1l0.6,1.3H16l-2.6-5H12.6z"/>
	<path class="st0" d="M22,55.5c0.8,0,1.2-0.3,1.2-0.9c0-0.5-0.3-0.8-1.3-0.8h-1.6v1.7H22z M19.7,53.2H22c1.5,0,2,0.4,2,1.3
		c0,0.9-0.6,1.5-1.8,1.5h-1.8v2.2h-0.7V53.2z"/>
	<rect x="27.9" y="53.2" class="st0" width="0.7" height="5"/>
	<polygon class="st0" points="32.1,53.2 32.1,53.9 34.3,53.9 34.3,58.2 35,58.2 35,53.9 37.1,53.9 37.1,53.2 	"/>
	<path class="st0" d="M43,53.9l1.2,2.5h-2.5L43,53.9z M42.6,53.2l-2.6,5h0.8l0.6-1.3h3.1l0.6,1.3H46l-2.6-5H42.6z"/>
	<polygon class="st0" points="49.7,53.2 49.7,58.2 53.3,58.2 53.3,57.7 50.4,57.7 50.4,53.2 	"/>
	<polygon class="st0" points="67.9,53.2 65.7,57.6 63.5,53.2 62.3,53.2 62.3,58.2 63,58.2 63,53.8 63,53.8 65.3,58.2 66,58.2 
		68.3,53.8 68.3,53.8 68.3,58.2 69,58.2 69,53.2 	"/>
	<path class="st0" d="M75.6,53.9l1.2,2.5h-2.5L75.6,53.9z M75.2,53.2l-2.6,5h0.8l0.6-1.3h3.1l0.6,1.3h0.8l-2.6-5H75.2z"/>
	<polygon class="st0" points="86.2,53.2 86.2,57.5 86.2,57.5 83.1,53.2 82.1,53.2 82.1,58.2 82.8,58.2 82.8,54 82.9,54 85.9,58.2 
		86.9,58.2 86.9,53.2 	"/>
	<path class="st0" d="M93.4,53.9l1.2,2.5h-2.5L93.4,53.9z M93,53.2l-2.6,5h0.8l0.6-1.3h3.1l0.6,1.3h0.8l-2.6-5H93z"/>
	<path class="st0" d="M102.9,55.6h2.3v2.3c-0.8,0.3-1.6,0.5-2.4,0.5c-2,0-2.9-1.2-2.9-2.6c0-1.3,0.8-2.6,2.9-2.6
		c1.4,0,2.3,0.4,2.5,1.4h-0.8c-0.2-0.6-0.8-0.9-1.6-0.9c-1.4,0-2.2,0.9-2.2,2.1c0,1.1,0.8,2.1,2.2,2.1c0.5,0,1.2-0.1,1.7-0.3v-1.3
		h-1.6V55.6z"/>
	<polygon class="st0" points="109.4,53.2 109.4,58.2 113.2,58.2 113.2,57.7 110.1,57.7 110.1,56 113,56 113,55.4 110.1,55.4 
		110.1,53.8 113.2,53.8 113.2,53.2 	"/>
	<polygon class="st0" points="122.9,53.2 120.7,57.6 118.5,53.2 117.3,53.2 117.3,58.2 118,58.2 118,53.8 118,53.8 120.3,58.2 
		121,58.2 123.3,53.8 123.3,53.8 123.3,58.2 124,58.2 124,53.2 	"/>
	<polygon class="st0" points="128.3,53.2 128.3,58.2 132.1,58.2 132.1,57.7 129,57.7 129,56 131.8,56 131.8,55.4 129,55.4 129,53.8 
		132,53.8 132,53.2 	"/>
	<polygon class="st0" points="140.1,53.2 140.1,57.5 140.1,57.5 137.1,53.2 136.1,53.2 136.1,58.2 136.8,58.2 136.8,54 136.8,54 
		139.9,58.2 140.9,58.2 140.9,53.2 	"/>
	<polygon class="st0" points="144.4,53.2 144.4,53.9 146.5,53.9 146.5,58.2 147.2,58.2 147.2,53.9 149.4,53.9 149.4,53.2 	"/>
	<polygon class="st0" points="149.3,57.4 149.3,58 148.3,58 148.3,58.1 149.4,58.1 149.4,57.4 	"/>
	<polygon class="st0" points="149.3,56.6 149.3,57.1 148.3,57.1 148.3,57.3 149.4,57.3 149.4,56.6 	"/>
	<path class="st0" d="M148.6,55.7c-0.1,0-0.2,0.1-0.2,0.2c0,0.3,0.3,0.3,0.4,0.3c0.2,0,0.4-0.1,0.4-0.3c0-0.1-0.1-0.2-0.2-0.2v-0.2
		c0.2,0,0.3,0.2,0.3,0.4c0,0.3-0.3,0.5-0.6,0.5c-0.3,0-0.6-0.1-0.6-0.5c0-0.2,0.1-0.4,0.3-0.4V55.7z"/>
	<polygon class="st0" points="94.2,27.8 88.3,45.4 88.3,45.4 85,36 81.6,36 78.5,45.4 78.4,45.4 75.3,36 72.4,36 76.7,48.1 
		79.9,48.1 83.1,38.5 83.2,38.5 86.5,48.1 89.8,48.1 96.6,28.5 	"/>
	<polygon class="st0" points="0,36.1 0,37.5 5.1,37.5 5.1,48.1 6.8,48.1 6.8,37.5 11.9,37.5 11.9,36.1 	"/>
	<path class="st0" d="M16.8,41.3h3.9c1.8,0,2.9-0.4,2.9-2c0-1.5-0.8-2-2.9-2h-4V41.3z M16.8,48.1h-1.7v-12H21c3.7,0,4.5,1.3,4.5,3.2
		c0,1.5-1.1,2.6-2.7,2.8v0c1.6,0.2,2,0.9,2.4,2.9c0.2,1.3,0.3,2.4,0.7,3.1H24c-0.3-0.9-0.5-2.5-0.8-3.9c-0.2-0.9-0.8-1.5-3-1.5h-3.3
		V48.1z"/>
	<path class="st0" d="M38.8,43.6l-3-6.1l-3,6.1H38.8z M39.5,44.9h-7.4l-1.6,3.1h-1.9l6.2-12h2l6.2,12h-2L39.5,44.9z"/>
	<path class="st0" d="M47,46.7h3.3c4,0,5-2.3,5-4.6c0-3.1-1.4-4.6-5.4-4.6H47V46.7z M45.3,36.1H50c5.3,0,7.2,2.2,7.2,6.2
		c0,3.7-2.3,5.9-6.9,5.9h-4.9V36.1z"/>
	<polygon class="st0" points="60.6,36.1 69.6,36.1 69.6,37.4 62.3,37.4 62.3,41.2 69.1,41.2 69.1,42.6 62.3,42.6 62.3,46.7 
		69.8,46.7 69.8,48.1 60.6,48.1 	"/>
	<rect x="97.7" y="36" class="st0" width="2.7" height="12"/>
	<polygon class="st0" points="105.3,36 109.1,36 115.9,45.3 115.9,45.3 115.9,36 118.4,36 118.4,48.1 114.7,48.1 107.8,38.7 
		107.7,38.7 107.7,48.1 105.3,48.1 	"/>
	<path class="st0" d="M125.6,46.1h2.7c3.4,0,4.2-2.5,4.2-4.1c0-2.8-1.8-4-4.2-4h-2.6V46.1z M122.9,36h5.7c4.6,0,6.7,2.6,6.7,6.1
		c0,2.2-1.3,5.9-6.6,5.9h-5.7V36z"/>
	<path class="st0" d="M141,44.3c0.2,1.4,1.2,2.3,3.3,2.3c2.2,0,3-1,3-1.8c0-0.9-0.6-1.3-1.9-1.4L143,43c-3.2-0.4-4.2-1.8-4.2-3.4
		c0-2.8,2.6-3.9,5.4-3.9c3.5,0,5.4,1.5,5.5,3.9H147c-0.1-1.6-1.2-2.1-3-2.1c-1.1,0-2.3,0.5-2.3,1.6c0,0.9,0.7,1.3,1.8,1.5l3.4,0.5
		c2.9,0.4,3.5,2.1,3.5,3.3c0,2.5-2.1,3.9-6.2,3.9c-3.5,0-5.7-1.5-5.7-4.1H141z"/>
	<g>
		<path class="st0" d="M110.1,16.6c0.1-0.5,0.2-1,0.2-1.6l-3.1-0.1L110.1,16.6z"/>
		<path class="st0" d="M110.6,14.5c0,0,0,0.1,0,0.1l4,0.1c0-1.1-0.1-2.3-0.3-3.4l-3.9,0.9C110.5,13,110.6,13.7,110.6,14.5z"/>
		<path class="st0" d="M108.9,19.7c0.2-0.4,0.4-0.7,0.6-1.1l-2.6-0.1L108.9,19.7z"/>
		<path class="st0" d="M104.9,13.7l1.5,0.9l3.9,0.1c0,0,0-0.1,0-0.1c0-0.7-0.1-1.5-0.2-2.2l-5.1,1.2L104.9,13.7z"/>
		<path class="st0" d="M104,18.4l3.3,3.5c0.5-0.5,1-1.1,1.4-1.8l-2.6-1.6L104,18.4z"/>
		<path class="st0" d="M100.1,20.4l-0.1,4.4c0,0,0.1,0,0.1,0c0.7,0,1.5-0.1,2.2-0.2l-0.9-3.7L100.1,20.4z"/>
		<path class="st0" d="M105.1,23.4c0.7-0.4,1.3-0.8,1.8-1.3l-3.3-3.5L105.1,23.4z"/>
		<path class="st0" d="M102.6,24.4c0.7-0.2,1.4-0.4,2-0.7l-2.9-3L102.6,24.4z"/>
		<path class="st0" d="M104,4.7c0.5,0.2,1,0.5,1.5,0.7l2.1-3.4c-1-0.6-2-1.1-3.1-1.4l-0.2,0.6L104,4.7z"/>
		<path class="st0" d="M100.1,4c0,0,0.1,0,0.1,0l0.1-4c-1.1,0-2.2,0.1-3.4,0.3l0.9,3.9C98.6,4.1,99.3,4,100.1,4z"/>
		<path class="st0" d="M110.3,11.9l3.9-0.9c-0.3-1-0.6-2-1.1-3c0-0.1-0.1-0.1-0.1-0.2l-3.5,1.9C109.8,10.4,110.1,11.1,110.3,11.9z"
			/>
		<path class="st0" d="M94.9,5.3L93,1.8c-1,0.6-1.9,1.2-2.8,2L93,6.7C93.6,6.2,94.2,5.7,94.9,5.3z"/>
		<path class="st0" d="M92.7,7L90,4.1c-0.8,0.8-1.5,1.7-2.1,2.6l3.4,2.1C91.6,8.1,92.1,7.5,92.7,7z"/>
		<path class="st0" d="M97.5,4.3l-0.9-3.9c-1,0.3-2,0.6-3,1.1c-0.1,0-0.1,0.1-0.2,0.1l1.9,3.5C95.9,4.8,96.7,4.5,97.5,4.3z"/>
		<path class="st0" d="M109.2,9.4l3.5-1.9c-0.6-1-1.2-1.9-2-2.8l-2.9,2.7C108.4,8,108.9,8.7,109.2,9.4z"/>
		<path class="st0" d="M102,4.2l1.9-3.1l0.2-0.5c-1.1-0.3-2.2-0.5-3.3-0.6l-0.1,4C101.1,4,101.6,4.1,102,4.2z"/>
		<path class="st0" d="M99.5,20.2L98,24.6c0.5,0.1,1,0.2,1.6,0.2l0.1-4.5L99.5,20.2z"/>
		<path class="st0" d="M91,9.1L87.6,7c-0.6,1-1,2-1.4,3.1l4.1,0.3C90.5,10,90.7,9.6,91,9.1z"/>
		<path class="st0" d="M101.9,4.4c-0.4-0.1-0.9-0.1-1.3-0.1l-0.1,2.4L101.9,4.4z"/>
		<path class="st0" d="M95,5.6c-0.6,0.4-1.2,0.8-1.8,1.3l2.7,2.9L95,5.6z"/>
		<path class="st0" d="M100.1,7.4l0.1-3.1c0,0-0.1,0-0.1,0c-0.7,0-1.5,0.1-2.2,0.2L99,9.2L100.1,7.4z"/>
		<path class="st0" d="M97.5,4.6c-0.7,0.2-1.5,0.5-2.1,0.8l3.3,4L97.5,4.6z"/>
		<path class="st0" d="M105.3,5.7c-0.4-0.3-0.9-0.5-1.4-0.7l-0.3,3.3L105.3,5.7z"/>
		<path class="st0" d="M105.6,13l4.4-1c-0.2-0.7-0.4-1.4-0.8-2.1L105.6,13z"/>
		<path class="st0" d="M97.3,19.4l-2.4,4c0.3,0.2,0.6,0.3,0.9,0.5L97.3,19.4L97.3,19.4z"/>
		<path class="st0" d="M103.4,11l0.2,0l3.8-3.6c-0.5-0.5-1.1-1-1.8-1.4l-2.1,3.3L103.4,11z"/>
		<path class="st0" d="M109,9.5L109,9.5c-0.4-0.7-0.8-1.3-1.3-1.9l-3.3,3.1L109,9.5z"/>
		<path class="st0" d="M95.1,18.6L95.1,18.6L95.1,18.6L95.1,18.6L95.1,18.6L95.1,18.6l-3.9,1.1c0.4,0.6,0.8,1.2,1.3,1.7l2.9-2.7
			L95.1,18.6z"/>
		<path class="st0" d="M90.1,17.1c0.2,0.7,0.4,1.4,0.8,2l3.3-3L90.1,17.1z"/>
		<path class="st0" d="M96.2,11l-0.1-0.4l-3.2-3.4c-0.5,0.5-1,1.1-1.4,1.8l3,1.9L96.2,11z"/>
		<path class="st0" d="M95.8,18.8l-3,2.8c0.5,0.5,1.1,1,1.8,1.4l2.4-3.9L95.8,18.8z"/>
		<path class="st0" d="M92.6,14.5l-2.9-0.1c0,0,0,0.1,0,0.1c0,0.7,0.1,1.5,0.2,2.2l4.5-1.1L92.6,14.5z"/>
		<path class="st0" d="M91.2,9.3c-0.2,0.4-0.4,0.8-0.6,1.2l3,0.3L91.2,9.3z"/>
		<path class="st0" d="M89.9,12.8c-0.1,0.4-0.1,0.8-0.1,1.1l2.1,0.1L89.9,12.8z"/>
		<path class="st0" d="M107.6,7.1l2.9-2.7c-0.8-0.8-1.7-1.5-2.6-2.1l-2.1,3.4C106.4,6.1,107,6.6,107.6,7.1z"/>
		<path class="st0" d="M90.7,19.3c-0.3-0.7-0.6-1.4-0.8-2.2L86,18c0.3,1,0.6,2,1.1,3c0,0.1,0.1,0.1,0.1,0.2l3.3-1.8L90.7,19.3z"/>
		<path class="st0" d="M97.9,24.8l-1.3,3.8c0.9,0.2,1.9,0.4,2.8,0.4l0.1-4C99,25,98.4,24.9,97.9,24.8z"/>
		<path class="st0" d="M100.1,25.1c0,0-0.1,0-0.1,0l-0.1,4c1.1,0,2.3-0.1,3.4-0.3l-0.9-3.9C101.6,25,100.8,25.1,100.1,25.1z"/>
		<path class="st0" d="M89.5,14.5c0,0,0-0.1,0-0.1l-4-0.1c0,1.1,0.1,2.3,0.3,3.4l3.9-0.9C89.6,16,89.5,15.3,89.5,14.5z"/>
		<path class="st0" d="M94.7,23.6l-2.1,3.4c0.5,0.3,1.1,0.6,1.6,0.8l1.4-3.7C95.3,23.9,95,23.7,94.7,23.6z"/>
		<path class="st0" d="M90.9,19.7l-0.4,0.1l-3.2,1.7c0.6,1,1.2,1.9,2,2.8l2.9-2.7C91.7,21,91.3,20.4,90.9,19.7z"/>
		<path class="st0" d="M92.5,21.9l-2.9,2.7c0.8,0.8,1.7,1.5,2.6,2.1l2.1-3.4C93.7,22.9,93.1,22.4,92.5,21.9z"/>
		<path class="st0" d="M107.4,22l2.7,2.9c0.8-0.8,1.5-1.7,2.1-2.6l-3.4-2.1C108.5,20.9,108,21.5,107.4,22z"/>
		<path class="st0" d="M89.7,12.7l-3.6-2.2c-0.3,1.1-0.5,2.2-0.6,3.3l4,0.1C89.6,13.5,89.6,13.1,89.7,12.7z"/>
		<path class="st0" d="M105.2,23.7l1.9,3.5c1-0.6,1.9-1.2,2.8-2l-2.7-2.9C106.5,22.8,105.9,23.3,105.2,23.7z"/>
		<path class="st0" d="M110.4,16.7l2.7,1.5l1,0.3c0.3-1.1,0.5-2.2,0.6-3.3l-4-0.1C110.6,15.6,110.5,16.2,110.4,16.7z"/>
		<path class="st0" d="M109.8,18.6c-0.2,0.4-0.4,0.8-0.6,1.3l3.4,2.1c0.6-1,1.1-2,1.4-3.1l-0.2-0.1L109.8,18.6z"/>
		<path class="st0" d="M104.8,23.9c-0.7,0.3-1.4,0.6-2.1,0.8l0.9,3.9c1-0.3,2-0.6,3-1.1c0.1,0,0.1-0.1,0.2-0.1l-1.7-3.2L104.8,23.9z
			"/>
		<polygon class="st0" points="95.1,18.6 95.1,18.6 95.1,18.6 		"/>
		<polygon class="st0" points="95.1,18.6 96,18.1 97.3,17.3 97.7,17 97.8,17 98,16.8 98.7,16.4 99.7,15.8 99.8,16.1 99.8,16.1 
			100.2,17.1 100.2,17.2 100.5,17.8 100.5,17.9 100.9,18.8 101.6,20.5 101.7,20.9 101.7,20.7 101.7,20.6 101.8,18.1 101.8,18.1 
			101.8,18 101.8,17.3 101.8,17.2 101.8,16.7 101.8,16.3 101.8,16.1 101.8,15.8 101.8,15.4 101.8,15.3 101.8,14.8 101.8,14.8 
			101.9,14.4 101.9,14.3 101.9,13.9 101.9,13.8 101.9,13.4 101.9,13.3 101.9,13.1 101.9,12.5 101.9,12 101.9,11.9 101.9,11.3 
			101.9,11.1 102,8.8 102,8.2 102,8.1 101.6,8.7 101.5,8.8 100.4,10.6 100,11.1 100,11.2 99.9,11.3 99.6,11.7 99.4,12 99.3,12.2 
			99.2,12.4 98.9,12.8 98.8,12.9 98.6,13.3 98.6,13.3 98.3,13.7 98.3,13.8 98.1,14.1 98,14.2 97.7,14.6 97.5,14.9 97.2,15.4 
			97.2,15.4 96.9,15.8 96.8,16 96.4,16.6 96.4,16.7 96.3,16.7 95.1,18.6 95.1,18.6 		"/>
		<polygon class="st0" points="101.7,20.9 101.7,20.9 101.7,20.9 		"/>
	</g>
</g>
</svg>
