<?xml version="1.0" encoding="utf-8"?>
<!-- Generator: Adobe Illustrator 20.0.0, SVG Export Plug-In . SVG Version: 6.00 Build 0)  -->
<svg version="1.1" id="Layer_1" xmlns="http://www.w3.org/2000/svg" xmlns:xlink="http://www.w3.org/1999/xlink" x="0px" y="0px"
	 viewBox="0 0 75.9 103.6" style="enable-background:new 0 0 75.9 103.6;" xml:space="preserve">
<style type="text/css">
	.st0{fill:#FFFFFF;}
	.st1{fill:none;}
	.st2{fill:#00AFB3;}
</style>
<title>water-multiplier</title>
<g id="Layer_2">
	<g id="Layer_1-2">
		<g id="water-multiplier">
			<rect x="17.6" y="36.3" class="st0" width="41.3" height="53"/>
			<path class="st1" d="M36.9,55.8c0-3.1-1.6-4.9-4.1-5.9c3.3-1.2,5.7-3.1,5.7-7c0-4.3-3.1-6.6-8.3-6.6c-3,0-5.9,0.8-8.5,2.2v5.3
				c2.1-1.3,4.5-2.1,7-2.2c2.3,0,3.3,1,3.3,2.5c0,2.2-1.9,3.5-5.3,3.5h-2.7v4.7H26c3.3,0,4.7,1.2,4.7,3.3c0,2.4-1.9,3.7-4.5,3.7
				c-2.4-0.1-4.8-0.8-6.9-1.9l-1.5,4.9c2.7,1.5,5.8,2.3,8.9,2.3C32.7,64.5,36.9,61.5,36.9,55.8z"/>
			<path class="st1" d="M24.5,72.6c-0.1,1.3,0.8,2.5,2.2,2.6c0.1,0,0.2,0,0.3,0c1.5,0.1,2.7-1,2.9-2.4c0.1-1.5-1-2.7-2.4-2.9
				c-1.5-0.1-2.7,1-2.9,2.4C24.5,72.4,24.5,72.5,24.5,72.6z M27.9,72.6c0,0.8-0.3,1.4-1,1.4c-0.6,0-1-0.6-1-1.4s0.3-1.4,1-1.4
				C27.6,71.2,27.9,71.8,27.9,72.6z"/>
			<path class="st1" d="M37.5,71l-0.2-1H36v5h1.6v-2.8c0.4-0.5,1.1-0.7,1.7-0.8L39,69.9C38.3,70,37.7,70.4,37.5,71z"/>
			<polygon class="st1" points="24,78.4 18.5,78.4 18.3,79.8 20.3,79.8 19.4,85.5 21.1,85.5 22,79.8 24,79.8 			"/>
			<polygon class="st1" points="20.6,75.1 22.3,75.1 22.3,72.5 24.9,68 23,68 21.5,70.9 20,67.9 18.1,68.1 20.6,72.5 			"/>
			<path class="st1" d="M45.5,69.3c0.7,0,1.4,0.2,1.9,0.6l0.2-1.6c-0.7-0.4-1.4-0.5-2.2-0.5c-1.9-0.1-3.5,1.4-3.6,3.3
				c0,0.2,0,0.3,0,0.5c0,2.2,1.3,3.7,3.5,3.7c0.9,0,1.8-0.3,2.6-0.8V71h-3l0.2,1.3h1.3v1.3c-0.3,0.2-0.6,0.2-1,0.2
				c-1.2,0-1.9-1-1.9-2.3C43.7,70.2,44.3,69.3,45.5,69.3z"/>
			<rect x="49.3" y="70" class="st1" width="1.6" height="5.1"/>
			<polygon class="st1" points="37.3,64 43.5,64 47.4,58.1 49.8,64.3 55.6,63.5 51.4,54 58.3,44.3 52.1,44.3 48.6,49.9 46.5,44.1 
				40.7,44.8 44.6,53.9 			"/>
			<path class="st1" d="M29.8,80.4c0-1.4-1-2-2.6-2h-2.1L24,85.5h1.7l0.4-2.5h0.4l1.1,2.6l1.8-0.3l-1.2-2.7
				C29.2,82.3,29.8,81.4,29.8,80.4z M26.7,81.8h-0.4l0.3-2.1H27c0.7,0,1.1,0.3,1.1,0.9C28.1,81.3,27.6,81.8,26.7,81.8z"/>
			<path class="st1" d="M50.1,67.7c-0.5,0-0.9,0.3-0.9,0.8c0,0,0,0,0,0.1c0,0.5,0.4,0.9,0.9,0.9c0.5,0,0.9-0.4,0.9-0.9
				S50.6,67.7,50.1,67.7C50.1,67.7,50.1,67.7,50.1,67.7z"/>
			<path class="st1" d="M54.5,68.9c0.2,0,0.4,0,0.6,0l-0.2-1.2c-0.2,0-0.4-0.1-0.6-0.1c-1.2,0-1.9,0.5-1.9,1.7V70h-0.7v1.3h0.7v3.8
				h1.6v-3.8H55L54.8,70h-1v-0.5c-0.1-0.3,0.2-0.6,0.4-0.6C54.4,68.9,54.5,68.9,54.5,68.9z"/>
			<polygon class="st1" points="55.5,85.5 57.2,85.5 57.5,83.8 55.8,83.8 			"/>
			<polygon class="st1" points="42.3,78.4 40.5,78.4 39.4,85.5 43.6,85.5 43.6,84 41.4,84 			"/>
			<polygon class="st1" points="49.6,79.8 49.8,78.4 45.5,78.4 44.4,85.5 48.7,85.5 49,84.1 46.4,84.1 46.6,82.5 48.7,82.5 
				48.7,81.1 46.8,81.1 47,79.8 			"/>
			<path class="st1" d="M52.9,79.6c0.6,0.1,1.2,0.3,1.8,0.7l0.5-1.4c-0.7-0.4-1.4-0.6-2.2-0.6c-1.2-0.1-2.3,0.8-2.5,2
				c0,0.1,0,0.1,0,0.2c0,1,0.5,1.5,1.9,2.2c0.5,0.3,0.7,0.5,0.7,0.8s-0.4,0.8-1,0.8c-0.8-0.1-1.5-0.3-2.1-0.8l-0.5,1.4
				c0.8,0.4,1.7,0.7,2.6,0.7c1.3,0.1,2.4-0.8,2.6-2.1c0-0.1,0-0.2,0-0.3c0-0.9-0.4-1.4-1.8-2.2c-0.6-0.3-0.8-0.5-0.8-0.8
				C52.2,79.9,52.4,79.6,52.9,79.6z"/>
			<polygon class="st1" points="56.3,83.1 57.2,82.9 58.4,78.4 56.5,78.4 			"/>
			<path class="st1" d="M58.3,73.9c-0.4,0-0.6-0.2-0.6-0.6v-1.9h1.2l-0.2-1.3h-1v-1.8l-1.6,0.3V70h-0.7v1.3h0.7v2.2
				c0,1.3,0.8,1.7,1.8,1.7c0.3,0,0.6,0,0.9-0.1l-0.2-1.3C58.6,73.8,58.4,73.9,58.3,73.9z"/>
			<polygon class="st1" points="30.3,85.5 32,85.5 33.2,78.4 31.4,78.4 			"/>
			<path class="st1" d="M36.6,78.4h-2l-1.1,7.2h1.8l0.4-2.4h0.4c2,0,3.2-1.1,3.2-2.6C39.3,79.1,38.4,78.4,36.6,78.4z M36.2,81.8
				h-0.3l0.3-2.2h0.3c0.7,0,1.1,0.3,1.1,1c0,0.7-0.5,1.2-1.2,1.2C36.3,81.8,36.2,81.8,36.2,81.8z"/>
			<path class="st1" d="M34.8,70h-1.6v3.4c-0.2,0.3-0.5,0.4-0.9,0.5c-0.4,0-0.5-0.3-0.5-0.6V70h-1.5v3.6c0,1,0.5,1.6,1.4,1.6
				c0.6,0,1.2-0.3,1.6-0.8l0.1,0.7h1.4L34.8,70z"/>
			<path class="st2" d="M27,79.6h-0.4l-0.3,2.2h0.4c0.9,0,1.4-0.5,1.4-1.3C28.1,79.9,27.7,79.6,27,79.6z"/>
			<path class="st2" d="M26,72.6c0,0.8,0.3,1.4,1,1.4c0.6,0,1-0.5,1-1.4c0-0.8-0.3-1.4-1-1.4C26.4,71.2,26,71.8,26,72.6z"/>
			<path class="st2" d="M62,39c-9.6-8.2-17.7-20.1-23.7-37c-6.1,16.9-12.1,25.4-23.9,37C6.6,46.7,1.4,56.5,1.4,65.3
				c0,21.9,19.5,36.4,36.8,36.4s35.9-15,35.9-36.4C74.2,53.3,68.8,44.8,62,39z M46.5,44l2.1,5.8l3.5-5.5h6.2l-6.9,9.6l4.2,9.6
				l-5.8,0.8l-2.4-6.2L43.6,64h-6.3l7.3-10.1l-3.8-9.1L46.5,44z M54.9,70l0.2,1.3h-1.1v3.8h-1.6v-3.8h-0.7V70h0.7v-0.7
				c0-1.2,0.8-1.7,1.9-1.7c0.2,0,0.4,0,0.6,0.1l0.2,1.2c-0.2,0-0.4,0-0.6,0c-0.3,0-0.6,0.2-0.6,0.5c0,0.1,0,0.1,0,0.2V70L54.9,70z
				 M50.1,69.3c-0.5,0-0.9-0.3-0.9-0.8c0,0,0,0,0-0.1c0-0.5,0.4-0.9,0.9-0.9S51,68,51,68.5C51,69,50.7,69.4,50.1,69.3
				C50.2,69.4,50.1,69.4,50.1,69.3L50.1,69.3z M50.9,70v5.1h-1.6V70L50.9,70z M45.6,73.9c0.3,0,0.7-0.1,1-0.2v-1.3h-1.3L45.1,71h3
				v3.5c-0.8,0.5-1.7,0.8-2.6,0.8c-2.3,0-3.5-1.5-3.5-3.7c-0.2-1.9,1.2-3.5,3.1-3.7c0.2,0,0.3,0,0.5,0c0.8,0,1.5,0.2,2.2,0.5
				l-0.2,1.5c-0.6-0.4-1.2-0.6-1.9-0.6c-1.2,0-1.8,1-1.8,2.3C43.7,72.8,44.3,73.8,45.6,73.9L45.6,73.9z M39.3,71.6
				c-0.6,0-1.3,0.3-1.7,0.8v2.8H36V70h1.4l0.2,1c0.3-0.6,0.8-1,1.5-1.1L39.3,71.6z M19.3,57.2c2.1,1.2,4.5,1.8,6.9,1.9
				c2.6,0,4.5-1.3,4.5-3.7c0-2.1-1.4-3.2-4.7-3.2H24v-4.6h2.7c3.3,0,5.3-1.3,5.3-3.5c0-1.6-1-2.5-3.3-2.5c-2.5,0.1-4.9,0.9-7,2.2
				v-5.3c2.6-1.4,5.5-2.2,8.5-2.2c5.1,0,8.3,2.3,8.3,6.6c0,4-2.4,5.8-5.7,7c2.6,1.1,4.2,2.9,4.2,5.9c0,5.6-4.2,8.7-10.2,8.7
				c-3.1,0-6.2-0.8-8.9-2.3L19.3,57.2z M29.4,72.6c0.1,1.3-0.9,2.5-2.2,2.6c-0.1,0-0.2,0-0.3,0c-1.3,0-2.4-1-2.4-2.4
				c0-0.1,0-0.2,0-0.3c-0.1-1.4,0.9-2.5,2.3-2.6c1.4-0.1,2.5,0.9,2.6,2.3C29.4,72.4,29.4,72.5,29.4,72.6L29.4,72.6z M20,67.9l1.6,3
				L23,68H25l-2.6,4.5v2.6h-1.8v-2.6l-2.5-4.4L20,67.9z M21.1,85.5h-1.8l0.9-5.7h-1.9l0.2-1.5H24v1.5h-2L21.1,85.5z M29.4,85.3
				l-1.8,0.3L26.5,83h-0.4l-0.4,2.5H24l1.1-7.2h2.1c1.7,0,2.6,0.7,2.6,2c0,1-0.6,1.9-1.5,2.2L29.4,85.3z M32,85.5h-1.7l1.1-7.2h1.8
				L32,85.5z M33.3,74.4c-0.4,0.5-1,0.8-1.6,0.8c-1,0-1.4-0.6-1.4-1.6V70h1.6v3.2c0,0.4,0.2,0.6,0.5,0.6c0.3,0,0.6-0.2,0.9-0.5V70
				h1.6v5.1h-1.4L33.3,74.4z M36.1,83.1h-0.5l-0.4,2.4h-1.8l1.1-7.2h2c1.7,0,2.6,0.7,2.6,2.1C39.3,82.1,38.1,83.1,36.1,83.1
				L36.1,83.1z M43.6,85.5h-4.2l1.1-7.2h1.8L41.4,84h2.1V85.5z M48.7,81.1v1.4h-2.1l-0.3,1.6H49l-0.2,1.4h-4.3l1.1-7.2h4.3l-0.3,1.5
				H47l-0.2,1.3L48.7,81.1z M53,81c1.4,0.8,1.8,1.3,1.8,2.2c0.1,1.3-0.9,2.4-2.2,2.5c-0.1,0-0.3,0-0.4,0c-0.9,0-1.8-0.3-2.6-0.7
				l0.5-1.4c0.6,0.4,1.3,0.7,2.1,0.8c0.5,0,1-0.3,1-0.8c0-0.5-0.2-0.5-0.7-0.8c-1.5-0.8-1.9-1.3-1.9-2.2c0-1.2,1-2.2,2.3-2.2
				c0.1,0,0.1,0,0.2,0c0.8,0,1.5,0.2,2.2,0.6l-0.5,1.4c-0.5-0.4-1.1-0.6-1.8-0.7c-0.5,0-0.8,0.3-0.8,0.6C52.2,80.6,52.3,80.7,53,81
				L53,81z M57.2,85.5h-1.7l0.3-1.8h1.7L57.2,85.5z M57.2,82.9l-1,0.2l0.3-4.7h1.9L57.2,82.9z M58,75.2c-1.1,0-1.8-0.4-1.8-1.7v-2.2
				h-0.7V70h0.7v-1.5l1.6-0.3V70h1l0.2,1.3h-1.1v1.9c0,0.4,0.2,0.6,0.6,0.6c0.1,0,0.3,0,0.4,0l0.2,1.3C58.6,75.2,58.3,75.2,58,75.2
				L58,75.2z"/>
			<path class="st2" d="M36.5,79.6h-0.3l-0.3,2.2h0.3c0.7,0.1,1.3-0.4,1.4-1c0-0.1,0-0.2,0-0.2C37.6,80,37.2,79.6,36.5,79.6z"/>
		</g>
	</g>
</g>
</svg>
