<svg id="Logo_Color" data-name="Logo / Color" xmlns="http://www.w3.org/2000/svg" viewBox="0 0 520.11 161.26"><defs><style>.cls-1{fill:#fff;}.cls-2{fill:#11a8ab;}</style></defs><title>woco_teal_logo_White_RBG_horiz</title><path class="cls-1" d="M541.56,159.84a6.7,6.7,0,0,0-6.69,6.68v0.06a6.64,6.64,0,0,0,6.65,6.65,6.71,6.71,0,0,0,6.67-6.71v0A6.64,6.64,0,0,0,541.56,159.84Zm5.09,6.68a5.12,5.12,0,1,1-10.24,0v0a5.13,5.13,0,0,1,5.15-5.19,5.08,5.08,0,0,1,5.09,5.15v0Zm-2.19-1.12v0a1.9,1.9,0,0,0-.53-1.41,2.81,2.81,0,0,0-2.08-.69H539v6.16h1.71v-1.88h0.75l1.25,1.88h2l-1.48-2.15A1.93,1.93,0,0,0,544.46,165.4Zm-1.7.11a0.78,0.78,0,0,1-.93.72h-1.12v-1.49h1.1a0.78,0.78,0,0,1,.95.73v0Z" transform="translate(-28.08 -26.17)"/><path class="cls-1" d="M222.55,173.89a26,26,0,0,1-26.41-26.33v-0.19a26.1,26.1,0,0,1,26.59-26.52c9.56,0,15.53,3.23,20.26,8.55l-8.8,9.51c-3.22-3.42-6.44-5.61-11.55-5.61-7.19,0-12.3,6.37-12.3,13.88v0.19c0,7.79,5,14.07,12.87,14.07,4.83,0,8.14-2.09,11.65-5.42l8.42,8.56C238.36,170,232.68,173.89,222.55,173.89Z" transform="translate(-28.08 -26.17)"/><path class="cls-1" d="M269.39,173.89c-15.71,0-27.36-11.69-27.36-26.33v-0.19c0-14.64,11.74-26.52,27.54-26.52s27.36,11.69,27.36,26.33v0.19C296.94,162,285.2,173.89,269.39,173.89Zm13.35-26.52c0-7.51-5.4-14.07-13.35-14.07-8.24,0-13.15,6.37-13.15,13.88v0.19c0,7.51,5.39,14.07,13.34,14.07,8.24,0,13.16-6.37,13.16-13.88v-0.19Z" transform="translate(-28.08 -26.17)"/><path class="cls-1" d="M332.81,172.75V144.33c0-6.85-3.22-10.36-8.72-10.36s-9,3.52-9,10.36v28.42H300.72V121.8h14.39V129c3.32-4.28,7.58-8.17,14.87-8.17,10.89,0,17.22,7.22,17.22,18.92v33H332.81Z" transform="translate(-28.08 -26.17)"/><path class="cls-1" d="M376.27,173.89a26,26,0,0,1-26.41-26.33v-0.19a26.1,26.1,0,0,1,26.6-26.52c9.56,0,15.53,3.23,20.26,8.55l-8.8,9.51c-3.22-3.42-6.43-5.61-11.55-5.61-7.19,0-12.3,6.37-12.3,13.88v0.19c0,7.79,5,14.07,12.87,14.07,4.83,0,8.15-2.09,11.65-5.42l8.43,8.56C392.07,170,386.39,173.89,376.27,173.89Z" transform="translate(-28.08 -26.17)"/><path class="cls-1" d="M445.68,152.31h-35.3c1.42,6.55,6,10,12.4,10,4.82,0,8.33-1.52,12.3-5.22l8.24,7.31c-4.73,5.9-11.55,9.51-20.73,9.51-15.24,0-26.51-10.74-26.51-26.33v-0.19c0-14.54,10.32-26.52,25.09-26.52,16.94,0,24.71,13.21,24.71,27.66v0.19C445.87,150.13,445.77,151,445.68,152.31Zm-24.51-19.86c-6,0-9.85,4.28-11,10.83h21.68C431,136.82,427.22,132.45,421.16,132.45Z" transform="translate(-28.08 -26.17)"/><path class="cls-1" d="M479,136c-9.56,0-15.43,5.8-15.43,18v18.82H449.19V121.8h14.39v10.26c2.93-7,7.67-11.6,16.19-11.21V136H479Z" transform="translate(-28.08 -26.17)"/><path class="cls-1" d="M516.12,172.75V144.33c0-6.85-3.22-10.36-8.71-10.36s-9,3.52-9,10.36v28.42H484V121.8h14.38V129c3.31-4.28,7.57-8.17,14.87-8.17,10.88,0,17.22,7.22,17.22,18.92v33H516.12Z" transform="translate(-28.08 -26.17)"/><path class="cls-1" d="M246.72,111.35h-9.06L227,80.38l-10.68,31h-9.06L191.07,63.67h11.15L212,95.73l10.62-32.19h8.93l10.61,32.19L252,63.67h10.88Z" transform="translate(-28.08 -26.17)"/><path class="cls-1" d="M322.85,84.84c-6.83,0-11,4.12-11,12.78V111H301.55V74.77h10.27v7.3c2.1-5,5.48-8.25,11.56-8V84.84h-0.54Z" transform="translate(-28.08 -26.17)"/><path class="cls-1" d="M326.23,111V61.65h10.28V111H326.23Z" transform="translate(-28.08 -26.17)"/><path class="cls-1" d="M368.29,111V105.8A13.31,13.31,0,0,1,357,111.68c-8.45,0-16.5-6.62-16.5-18.73V92.82c0-12.1,7.91-18.73,16.5-18.73a13.93,13.93,0,0,1,11.29,5.41V61.65h10.28V111H368.29Zm0.13-18.19c0-6-4-10-8.79-10s-8.86,3.92-8.86,10V93c0,6,4.06,10,8.86,10s8.79-4,8.79-10V92.82Z" transform="translate(-28.08 -26.17)"/><path class="cls-1" d="M278.39,74a19,19,0,1,0,19,19A19,19,0,0,0,278.39,74Zm0,28.21A9.22,9.22,0,1,1,287.61,93,9.22,9.22,0,0,1,278.39,102.22Z" transform="translate(-28.08 -26.17)"/><path class="cls-2" d="M135.79,41.06a38,38,0,0,1,29.39,11,36.79,36.79,0,0,1,11.09,27.42c-0.34,10.36-5.16,20.11-13.58,27.48l-9,7.31-10-10.73c-23-23-46.76-11.07-52.95-2l-0.51.82c-1.72,2.95-3.08,5.75-3.08,9.21a15.23,15.23,0,0,0,3.42,9.54h0a0.35,0.35,0,0,1-.25.6,0.36,0.36,0,0,1-.18-0.07,19.3,19.3,0,0,1-7.62-10.81c-3.21-12.78,4.22-28.75,13.28-39.34L110,54.74C117,46.58,125.46,41.76,135.79,41.06ZM41.85,107.27L58.68,121.5c10.59,9,26.56,16.48,39.34,13.27a19.33,19.33,0,0,0,10.81-7.62,0.35,0.35,0,0,0,.08-0.18,0.36,0.36,0,0,0-.36-0.35,0.35,0.35,0,0,0-.24.1h0a15.22,15.22,0,0,1-9.54,3.42,15.43,15.43,0,0,1-9.21-3.08h0l-0.81-.51c-5.18-3.28-10.12-9.83-11.49-15.25-3-12,1.91-27,13.5-41.22l30.18-37.42a4,4,0,1,0-6.15-5L93.38,53.81C86.11,45.88,76.66,41.32,66.64,41A36.81,36.81,0,0,0,39.21,52.09a37.93,37.93,0,0,0-11,29.39C28.87,91.81,33.68,100.24,41.85,107.27Zm80.06,12.84a19.34,19.34,0,0,0-7.62-10.81,0.37,0.37,0,0,0-.18-0.07,0.35,0.35,0,0,0-.35.35,0.37,0.37,0,0,0,.1.24h0a15.27,15.27,0,0,1,3.42,9.55,15.43,15.43,0,0,1-3.08,9.21h0l-0.51.81c-3.28,5.18-9.83,10.12-15.26,11.49-11.95,3-27-1.91-41.22-13.5l-5.54-4.32L43,132.64a33,33,0,0,0,1.54,45.47c12.54,12.12,33.72,12.58,46.29.46l17.77-19.11C117.69,148.87,125.12,132.89,121.91,120.11Zm25-4.55c-15.57-20.19-33.05-20.21-40.51-18.33a19.32,19.32,0,0,0-10.81,7.62,0.35,0.35,0,0,0-.07.18,0.35,0.35,0,0,0,.36.35,0.36,0.36,0,0,0,.24-0.1h0a15.26,15.26,0,0,1,9.55-3.42,15.42,15.42,0,0,1,9.2,3.08h0l0.81,0.51c5.19,3.28,10.13,9.83,11.49,15.25,3,12-1.91,27-13.5,41.22l-7.26,9.31,8.69,7.85a33,33,0,0,0,45.46-1.54c12.13-12.54,12-31.76,0-45.48ZM93.77,45.68L98.9,39.4,89.29,27.63a4,4,0,1,0-6.15,5Z" transform="translate(-28.08 -26.17)"/></svg>