<svg id="Logo_Color" data-name="Logo / Color" xmlns="http://www.w3.org/2000/svg" viewBox="0 0 357.48 296.58"><defs><style>.cls-1{fill:#fff;}.cls-2{fill:#00afb4;}</style></defs><title>world_concern_white_logo_color_vert</title><path class="cls-1" d="M424.21,349.09a6.71,6.71,0,0,0-6.7,6.69v0.06a6.67,6.67,0,1,0,13.33-.06v0A6.64,6.64,0,0,0,424.21,349.09Zm5.1,6.69a5.13,5.13,0,1,1-10.25,0v0a5.14,5.14,0,0,1,5.15-5.19,5.08,5.08,0,0,1,5.1,5.16v0Zm-2.2-1.12v0a1.87,1.87,0,0,0-.53-1.41,2.79,2.79,0,0,0-2.08-.7h-2.86v6.18h1.71v-1.89h0.75l1.25,1.89h2l-1.47-2.15A1.94,1.94,0,0,0,427.11,354.66Zm-1.7.11a0.78,0.78,0,0,1-.94.73h-1.12V354h1.11a0.78,0.78,0,0,1,.94.73v0Z" transform="translate(-73.36 -66.58)"/><path class="cls-1" d="M104.88,363.16A26,26,0,0,1,78.44,336.8v-0.19a26.13,26.13,0,0,1,26.62-26.55c9.57,0,15.55,3.25,20.28,8.57l-8.82,9.52c-3.22-3.43-6.44-5.62-11.56-5.62-7.2,0-12.32,6.38-12.32,13.89v0.19c0,7.8,5,14.09,12.89,14.09,4.83,0,8.15-2.1,11.65-5.43l8.44,8.57C120.7,359.25,115,363.16,104.88,363.16Z" transform="translate(-73.36 -66.58)"/><path class="cls-1" d="M151.76,363.16c-15.73,0-27.39-11.7-27.39-26.36v-0.19c0-14.64,11.74-26.55,27.57-26.55s27.39,11.71,27.39,26.36v0.19C179.34,351.26,167.58,363.16,151.76,363.16Zm13.36-26.55c0-7.51-5.4-14.08-13.36-14.08-8.25,0-13.17,6.38-13.17,13.89v0.19c0,7.52,5.4,14.09,13.36,14.09,8.25,0,13.17-6.37,13.17-13.89v-0.19Z" transform="translate(-73.36 -66.58)"/><path class="cls-1" d="M215.25,362V333.57c0-6.85-3.22-10.38-8.72-10.38s-9,3.53-9,10.38V362h-14.4V311h14.4v7.23c3.32-4.28,7.59-8.19,14.88-8.19,10.89,0,17.24,7.24,17.24,18.94v33h-14.4Z" transform="translate(-73.36 -66.58)"/><path class="cls-1" d="M258.74,363.16a26,26,0,0,1-26.44-26.36v-0.19a26.13,26.13,0,0,1,26.63-26.55c9.57,0,15.54,3.25,20.28,8.57l-8.8,9.52c-3.22-3.43-6.45-5.62-11.56-5.62-7.2,0-12.32,6.38-12.32,13.89v0.19c0,7.8,5,14.09,12.88,14.09,4.83,0,8.15-2.1,11.66-5.43l8.44,8.57C274.56,359.25,268.88,363.16,258.74,363.16Z" transform="translate(-73.36 -66.58)"/><path class="cls-1" d="M328.23,341.56H292.88c1.42,6.56,6,10,12.42,10,4.83,0,8.34-1.52,12.31-5.23l8.24,7.32c-4.73,5.9-11.56,9.52-20.75,9.52-15.25,0-26.53-10.75-26.53-26.36v-0.19c0-14.56,10.33-26.55,25.11-26.55,17,0,24.73,13.23,24.73,27.7v0.19C328.41,339.37,328.32,340.23,328.23,341.56Zm-24.54-19.89c-6,0-9.86,4.28-11,10.85h21.7C313.54,326,309.75,321.67,303.69,321.67Z" transform="translate(-73.36 -66.58)"/><path class="cls-1" d="M361.59,325.19c-9.57,0-15.44,5.8-15.44,18V362h-14.4V311h14.4v10.27c2.94-7,7.67-11.61,16.21-11.23v15.14h-0.76Z" transform="translate(-73.36 -66.58)"/><path class="cls-1" d="M398.74,362V333.57c0-6.85-3.22-10.38-8.72-10.38s-9,3.53-9,10.38V362h-14.4V311H381v7.23c3.31-4.28,7.58-8.19,14.88-8.19,10.89,0,17.24,7.24,17.24,18.94v33h-14.4Z" transform="translate(-73.36 -66.58)"/><path class="cls-1" d="M129.07,300.55H120l-10.69-31-10.69,31H89.53L73.37,252.83H84.53l9.81,32.09L105,252.7h8.93l10.63,32.22,9.81-32.09h10.89Z" transform="translate(-73.36 -66.58)"/><path class="cls-1" d="M205.28,274c-6.84,0-11,4.14-11,12.8v13.39H184V263.94h10.29v7.3c2.1-5,5.48-8.25,11.58-8V274h-0.54Z" transform="translate(-73.36 -66.58)"/><path class="cls-1" d="M208.66,300.21V250.8h10.28v49.4H208.66Z" transform="translate(-73.36 -66.58)"/><path class="cls-1" d="M250.76,300.21V295a13.3,13.3,0,0,1-11.31,5.89c-8.45,0-16.51-6.64-16.51-18.75V282c0-12.12,7.91-18.76,16.51-18.76a13.94,13.94,0,0,1,11.31,5.42V250.8H261v49.4H250.76Zm0.14-18.2c0-6-4-10-8.8-10s-8.87,3.93-8.87,10v0.13c0,6,4.07,10,8.87,10s8.8-4,8.8-10V282Z" transform="translate(-73.36 -66.58)"/><path class="cls-1" d="M160.78,263.19a19,19,0,1,0,19,19A19,19,0,0,0,160.78,263.19Zm0,28.22a9.22,9.22,0,1,1,9.22-9.22A9.23,9.23,0,0,1,160.78,291.41Z" transform="translate(-73.36 -66.58)"/><path class="cls-2" d="M181.18,81.49A38,38,0,0,1,210.6,92.55,36.82,36.82,0,0,1,221.7,120c-0.34,10.37-5.16,20.13-13.59,27.5l-9,7.32-10-10.74c-23-23-46.8-11.08-53-2l-0.5.82c-1.73,3-3.08,5.75-3.08,9.21a15.27,15.27,0,0,0,3.43,9.56h0a0.38,0.38,0,0,1,.1.25,0.36,0.36,0,0,1-.36.35,0.3,0.3,0,0,1-.18-0.08,19.29,19.29,0,0,1-7.63-10.81c-3.22-12.79,4.23-28.79,13.29-39.39l14.24-16.84C162.4,87,170.84,82.2,181.18,81.49Zm-94,66.28L104,162c10.6,9.06,26.59,16.5,39.38,13.29a19.39,19.39,0,0,0,10.82-7.63,0.38,0.38,0,0,0,.08-0.18,0.36,0.36,0,0,0-.36-0.36,0.32,0.32,0,0,0-.24.1h0a15.21,15.21,0,0,1-9.55,3.43,15.37,15.37,0,0,1-9.22-3.09h0l-0.82-.51c-5.19-3.27-10.13-9.84-11.5-15.27-3-12,1.92-27,13.51-41.26l30.22-37.46a4,4,0,0,0-6.16-5l-21.4,26.21C131.45,86.31,122,81.75,112,81.43a36.83,36.83,0,0,0-27.45,11.1A38,38,0,0,0,73.45,122C74.15,132.29,79,140.73,87.14,147.77Zm80.14,12.86a19.35,19.35,0,0,0-7.63-10.83,0.36,0.36,0,0,0-.18-0.07,0.35,0.35,0,0,0-.26.6h0a15.27,15.27,0,0,1,3.43,9.56,15.43,15.43,0,0,1-3.08,9.21h0l-0.51.81c-3.28,5.19-9.84,10.14-15.27,11.5-12,3-27-1.91-41.26-13.51L97,163.59l-8.63,9.57a33,33,0,0,0,1.55,45.51c12.55,12.13,33.75,12.59,46.33.46L154,200C163.06,189.41,170.5,173.41,167.29,160.62Zm25-4.56c-15.58-20.21-33.08-20.22-40.55-18.35a19.33,19.33,0,0,0-10.82,7.64,0.3,0.3,0,0,0-.08.17,0.36,0.36,0,0,0,.36.36,0.33,0.33,0,0,0,.24-0.1h0a15.25,15.25,0,0,1,9.56-3.43,15.43,15.43,0,0,1,9.21,3.08h0l0.82,0.51c5.19,3.28,10.13,9.83,11.5,15.27,3,12-1.92,27-13.52,41.26l-7.27,9.33,8.7,7.85A33,33,0,0,0,206,218.11c12.14-12.55,12-31.8,0-45.52ZM139.12,86.12l5.13-6.29L134.63,68a4,4,0,1,0-6.16,5Z" transform="translate(-73.36 -66.58)"/></svg>