<?xml version="1.0" encoding="utf-8"?>
<!-- Generator: Adobe Illustrator 20.1.0, SVG Export Plug-In . SVG Version: 6.00 Build 0)  -->
<svg version="1.1" id="Layer_1" xmlns="http://www.w3.org/2000/svg" xmlns:xlink="http://www.w3.org/1999/xlink" x="0px" y="0px"
	 viewBox="0 0 186.9 136.1" style="enable-background:new 0 0 186.9 136.1;" xml:space="preserve">
<style type="text/css">
	.st0{clip-path:url(#SVGID_2_);}
	.st1{fill:#FFFFFF;}
	.st2{clip-path:url(#SVGID_4_);}
</style>
<g>
	<defs>
		<rect id="SVGID_1_" x="16.1" y="9.6" width="154.6" height="111.8"/>
	</defs>
	<clipPath id="SVGID_2_">
		<use xlink:href="#SVGID_1_"  style="overflow:visible;"/>
	</clipPath>
	<g class="st0">
		<path class="st1" d="M105.3,17.5c-22.8,0.9-44.8,5.2-62.6,17.8C26.8,46.5,16.3,62.2,16.1,76.5c-0.4,28.1,49.2,31.5,82.3,24.9
			c34.5-6.9,66.3-31.2,65.1-55.6c-1.3-27.2-40.6-41.4-79.3-34.6c-0.8,0.1-0.6,0.9,0.2,0.8c36.5-4.5,73.5,6.3,76.5,32.5
			c2.8,23.9-27.4,46.3-60,54.6c-32.9,8.4-77.1,4.2-82.5-20.5c-2.8-12.8,8.2-27.5,20.3-38.5c17.5-15.8,41.3-20,66.3-22
			C105.8,18.1,105.9,17.5,105.3,17.5"/>
	</g>
</g>
<g>
	<path class="st1" d="M55.5,57c-0.2,1.6-0.3,3.2-0.4,4.7c0,0.5-0.2,0.6-0.7,0.6c-0.5,0-1.1-0.1-1.5-0.4c-0.5-0.2-0.6-0.5-0.6-1.2
		c0-1.1,0.1-2.6,0.2-4.2c-0.9-2.6-2.1-5.7-2.9-7.9c-0.2-0.5-0.1-0.7,0.4-0.8c0.5-0.2,1-0.3,1.5-0.3c0.5,0,0.7,0.2,1,0.8
		c0.5,1.1,1.1,2.8,1.7,4.6c0.8-2,1.6-4.3,2.3-6.3c0.2-0.5,0.4-0.6,0.9-0.4c0.5,0.2,0.9,0.4,1.2,0.7c0.4,0.3,0.4,0.6,0.2,1.3
		C58.4,49.8,56.8,53.8,55.5,57z"/>
	<path class="st1" d="M68,47.3c0.8,3,0.6,8.2-1.4,11.2c-0.7,1-1.6,1.4-2.7,1.5c-0.7,0.1-1.7,0-2.3-0.3C61,59.5,60.4,59,60,58.4
		c-1.7-3-0.9-9.2,1.7-12.4c0.5-0.7,1.5-1.2,2.2-1.2c1-0.1,2,0.1,2.7,0.5C67.3,45.8,67.7,46.4,68,47.3z M62.5,52.3
		c-0.3,2.3-0.2,5.2,0.7,5.4c0.9,0.2,1.8-2.1,2.1-4.9c0.3-2.2,0.1-5.4-0.7-5.5C63.9,47.2,62.8,50,62.5,52.3z"/>
	<path class="st1" d="M70.7,44.1c0.1-0.6,0.4-0.7,0.9-0.6c0.5,0.1,1.1,0.2,1.5,0.5c0.5,0.3,0.7,0.8,0.6,1.5
		c-0.6,3.4-1.6,9.9-0.2,10.1c1.6,0.2,2.2-8.7,2.4-12.7c0-0.6,0.3-0.8,0.9-0.7c0.5,0.1,1.2,0.3,1.7,0.5c0.5,0.3,0.6,0.4,0.5,1
		c-0.3,6.5-0.8,11.3-2.6,13.2c-0.6,0.7-1.3,0.9-2.2,1.1c-0.9,0.1-1.7,0-2.3-0.3c-0.5-0.2-1-0.7-1.4-1.3C69.1,53.9,70,48.3,70.7,44.1
		z"/>
	<path class="st1" d="M83,55.5c0,0.5-0.2,0.6-0.7,0.6c-0.5,0-1-0.1-1.3-0.3c-0.5-0.2-0.6-0.5-0.6-1.2c0-2.2,0.3-6.4,0.7-9.8
		c-0.3-0.3-0.6-0.7-0.8-1c-0.3-0.5-0.4-0.8,0.1-1.2c1.9-1.7,6-3.7,7.7-2.3c0.7,0.6,1.4,1.4,1.8,2.6c0.4,1.2,0.1,2.4-0.6,3.4
		c-0.7,1.1-1.8,2.2-3.1,3.3c1,1.1,2.5,2.5,3.6,3.3c0.4,0.3,0.4,0.6,0.1,0.9c-0.3,0.4-0.5,0.5-0.9,0.7c-0.4,0.2-0.9,0.4-1.7-0.1
		c-1-0.6-2.7-2-3.8-3.3C83.3,52.6,83.1,54.1,83,55.5z M83.8,47.9c2.4-1.6,3.7-4,3.4-4.7c-0.2-0.5-1.5-0.3-2.8,0.7
		C84.2,45,84,46.4,83.8,47.9z"/>
	<path class="st1" d="M103.9,42.9c-1.3,0.1-2-0.6-2.1-1.6c-0.1-0.8-0.2-1.9-0.6-2c-0.7-0.1-1.9,2.6-2.4,5.4
		c-0.5,2.4-0.2,5.2,0.7,5.4c0.7,0.2,1.5-1.3,1.9-3.1c-1.1,0.3-1.8-0.1-2.2-1.4c-0.1-0.4,0-0.6,0.4-0.7c0.7-0.4,2-0.9,2.6-1.1
		c0.6-0.2,1-0.2,1.4,0.2c0.3,0.2,0.5,0.5,0.7,0.8c0.4,0.5,0.4,0.8,0.3,1.5c-0.4,2.3-1.2,4.1-2.2,5.2c-0.7,0.7-1.5,1.1-2.4,1.1
		c-0.8,0-1.6-0.1-2.3-0.4c-0.5-0.2-1.2-0.8-1.5-1.4c-1.6-3.1-0.5-9.8,2.3-13c0.6-0.7,1.4-0.9,2.1-0.9c0.9-0.1,2,0.1,2.7,0.6
		c0.7,0.4,0.9,1,1.1,1.8c0.2,0.8,0.3,2.3,0.2,3.1C104.5,42.7,104.4,42.9,103.9,42.9z"/>
	<path class="st1" d="M110.1,37.2c-0.4,3-1,9.4-1.3,12.9c0,0.5-0.2,0.7-0.7,0.6c-0.5,0-1.1-0.2-1.5-0.4c-0.5-0.2-0.6-0.5-0.6-1.2
		c0-2.7,0.5-9.8,0.9-12.8c0.1-0.6,0.4-0.7,0.9-0.7c0.5,0.1,1.3,0.3,1.8,0.5C110.1,36.4,110.1,36.6,110.1,37.2z"/>
	<path class="st1" d="M115.4,37c-0.1,0.9-0.3,2-0.4,3.3c0.5-0.2,1.1-0.4,1.6-0.5c0.5-0.1,0.8,0,1,0.3c0.3,0.4,0.4,0.8,0.6,1.2
		c0.2,0.5,0.1,0.7-0.4,0.9c-1,0.4-2.2,0.9-3.2,1.4c-0.2,1.9-0.4,3.8-0.5,5.2c-0.1,0.5-0.3,0.7-0.8,0.6c-0.5,0-1.1-0.1-1.5-0.3
		c-0.5-0.2-0.6-0.5-0.6-1.2c-0.1-1.9,0.4-6.9,0.8-10.5c-0.3-0.4-0.7-1-0.8-1.3c-0.2-0.4-0.1-0.5,0.2-0.7c1.4-0.8,4.1-1.7,6.2-2.2
		c0.5-0.1,0.7-0.1,1.1,0.4c0.3,0.4,0.5,0.8,0.6,1.2c0.1,0.5,0,0.6-0.4,0.8C117.8,36.1,116.6,36.5,115.4,37z"/>
	<path class="st1" d="M125.9,34.4c-0.5,3.8-0.9,8.6-1.2,12.4c0,0.5-0.2,0.6-0.7,0.6c-0.5,0-1.1-0.1-1.5-0.4
		c-0.5-0.2-0.6-0.5-0.6-1.2c0-2.5,0.3-7.2,0.7-10.2c-0.5,0.2-1,0.4-1.4,0.6c-0.5,0.2-0.7,0.2-1-0.2c-0.4-0.4-0.8-1.1-1-1.5
		c-0.2-0.4-0.1-0.6,0.3-0.7c2-0.9,5.3-2,7.4-2.5c0.5-0.1,0.7,0,0.9,0.2c0.4,0.4,0.7,1,0.9,1.4c0.2,0.5,0.2,0.6-0.4,0.8
		C127.6,33.8,126.6,34.1,125.9,34.4z"/>
</g>
<g>
	<defs>
		<rect id="SVGID_3_" x="16.1" y="9.6" width="154.6" height="111.8"/>
	</defs>
	<clipPath id="SVGID_4_">
		<use xlink:href="#SVGID_3_"  style="overflow:visible;"/>
	</clipPath>
	<g class="st2">
		<path class="st1" d="M40.4,75.1c-0.2,2.4-0.6,7-0.7,9.7c0,0.6-0.2,0.8-0.8,0.7c-0.3,0-0.7-0.1-1-0.3c-0.6-0.2-0.8-0.6-0.8-1.5
			c0-3.1,0.6-9.6,1-12.5c0.1-0.6,0.3-0.8,0.7-0.9c0.6-0.1,1.8,0,2.4,0.2c0.8,0.2,1,0.4,1.1,1.2l0.2,1.2l0.6,3l0.3,1.4
			c0.6-2.5,1.9-6.3,2.5-8c0.2-0.6,0.6-0.8,1.2-0.8c0.5,0,1.6,0.1,2.5,0.3c0.5,0.1,0.7,0.4,0.6,1.2c-0.2,3.2-0.9,9.9-1,12.8
			c0,0.4-0.2,0.6-0.4,0.7c-0.3,0.1-1-0.1-1.3-0.2c-0.6-0.2-0.9-0.5-0.9-1.6c0-1.9,0.2-5.5,0.6-8.5c-0.8,2.4-2,6.4-2.7,9.3
			c-0.1,0.4-0.2,0.6-0.5,0.7c-0.3,0.1-0.7,0-1.2-0.1c-0.5-0.1-0.8-0.4-1-1.1C41.5,80.7,40.8,77,40.4,75.1z"/>
		<path class="st1" d="M52.5,68.1c0.1-0.6,0.4-0.7,0.9-0.6c0.5,0.1,1.1,0.2,1.5,0.5c0.5,0.3,0.7,0.8,0.6,1.5
			c-0.6,3.4-1.6,9.9-0.2,10.1c1.6,0.2,2.2-8.7,2.4-12.7c0-0.6,0.3-0.8,0.9-0.7c0.5,0.1,1.2,0.3,1.7,0.5c0.5,0.3,0.6,0.4,0.5,1
			C60.4,74.1,60,79,58.1,80.9c-0.6,0.7-1.3,0.9-2.2,1.1c-0.9,0.1-1.7,0-2.3-0.3c-0.5-0.2-1-0.7-1.4-1.3C50.9,78,51.8,72.4,52.5,68.1
			z"/>
		<path class="st1" d="M65.1,79.8c-0.7,0.4-1.1,0.4-1.6,0.1c-0.4-0.2-0.7-0.4-1.1-0.8c-0.4-0.4-0.6-0.7-0.6-1.3
			c0.1-2.9,0.6-9,1.2-12.3c0.1-0.6,0.4-0.7,0.9-0.7c0.5,0.1,1.3,0.2,1.8,0.5c0.5,0.2,0.6,0.5,0.5,1c-0.4,2.7-0.9,6.7-1.3,10.1
			c0.8-0.4,1.6-0.6,2.5-0.9c0.5-0.2,0.8-0.1,1.1,0.3c0.3,0.4,0.5,0.8,0.6,1.3c0.2,0.5,0.2,0.6-0.4,0.9
			C67.5,78.6,66.2,79.2,65.1,79.8z"/>
		<path class="st1" d="M75.3,65.3c-0.5,3.8-0.9,8.6-1.2,12.4c0,0.5-0.2,0.6-0.7,0.6c-0.5,0-1.1-0.1-1.5-0.4
			c-0.5-0.2-0.6-0.5-0.6-1.2c0-2.5,0.3-7.2,0.7-10.2c-0.5,0.2-1,0.4-1.4,0.6c-0.5,0.2-0.7,0.2-1-0.2c-0.4-0.4-0.8-1.1-1-1.5
			c-0.2-0.4-0.1-0.6,0.3-0.7c2-0.9,5.3-2,7.4-2.5c0.5-0.1,0.7,0,0.9,0.2c0.4,0.4,0.7,1,0.9,1.4c0.2,0.5,0.2,0.6-0.4,0.8
			C77,64.7,76.1,65,75.3,65.3z"/>
		<path class="st1" d="M82.2,63.2c-0.4,3-1,9.4-1.3,12.9c0,0.5-0.2,0.7-0.7,0.6c-0.5,0-1.1-0.2-1.5-0.4c-0.5-0.2-0.6-0.5-0.6-1.2
			c0-2.7,0.5-9.8,0.9-12.8c0.1-0.6,0.4-0.7,0.9-0.7c0.5,0.1,1.3,0.3,1.8,0.5C82.2,62.5,82.3,62.7,82.2,63.2z"/>
		<path class="st1" d="M86.3,75.1c-0.1,0.5-0.2,0.7-0.7,0.6c-0.5,0-1.1-0.1-1.5-0.3c-0.4-0.2-0.6-0.5-0.6-1.2c0-2.2,0.3-6.4,0.7-9.8
			c-0.2-0.3-0.5-0.7-0.8-1c-0.3-0.5-0.4-0.8,0.1-1.2c1.9-1.7,6-3.7,7.7-2.3c0.7,0.6,1.4,1.3,1.8,2.6c0.4,1.2,0,2.4-0.7,3.4
			c-1,1.8-3.4,3.8-5.7,5C86.5,72.4,86.4,73.8,86.3,75.1z M90.4,62.7c-0.2-0.5-1.5-0.2-2.8,0.7c-0.2,1.2-0.4,2.5-0.5,4
			C89.6,65.9,90.7,63.6,90.4,62.7z"/>
		<path class="st1" d="M96.7,73.1c-0.7,0.4-1.1,0.4-1.6,0.1c-0.4-0.2-0.7-0.4-1.1-0.8c-0.4-0.4-0.6-0.7-0.6-1.3
			c0.1-2.9,0.6-9,1.2-12.3c0.1-0.6,0.4-0.7,0.9-0.7c0.5,0.1,1.3,0.2,1.8,0.5c0.5,0.2,0.6,0.5,0.5,1c-0.4,2.7-0.9,6.7-1.3,10.1
			c0.8-0.4,1.6-0.6,2.5-0.9c0.5-0.2,0.8-0.1,1.1,0.3c0.3,0.4,0.5,0.8,0.6,1.3c0.2,0.5,0.2,0.6-0.4,0.9
			C99.1,71.9,97.8,72.5,96.7,73.1z"/>
		<path class="st1" d="M105.2,58.4c-0.4,3-1,9.4-1.3,12.9c0,0.5-0.2,0.7-0.7,0.6c-0.5,0-1.1-0.2-1.5-0.4c-0.5-0.2-0.6-0.5-0.6-1.2
			c0-2.7,0.5-9.8,0.9-12.8c0.1-0.6,0.4-0.7,0.9-0.7c0.5,0.1,1.3,0.3,1.8,0.5C105.2,57.6,105.3,57.8,105.2,58.4z"/>
		<path class="st1" d="M106.3,57.4c-0.2-0.4-0.1-0.5,0.2-0.7c1.5-0.8,4.3-1.7,6.3-2.2c0.5-0.1,0.8,0,1,0.4c0.3,0.4,0.4,0.8,0.5,1.2
			c0.1,0.5,0,0.7-0.5,0.9c-1,0.3-2.3,0.8-3.4,1.2c-0.1,1-0.3,2.1-0.5,3.3c0.5-0.2,1.1-0.4,1.7-0.5c0.5-0.1,0.8-0.1,1,0.3
			c0.3,0.4,0.5,0.8,0.6,1.2c0.2,0.5,0.1,0.6-0.4,0.9c-1.1,0.5-2.3,1-3.4,1.5c-0.1,0.8-0.2,1.5-0.3,2.2c0.9-0.4,1.7-0.7,2.6-0.9
			c0.5-0.2,0.8-0.1,1.1,0.3c0.3,0.4,0.5,0.8,0.6,1.3c0.2,0.5,0.1,0.7-0.4,0.9c-1.2,0.6-2.6,1.2-3.7,1.8c-0.6,0.3-1,0.3-1.5,0.1
			c-0.3-0.2-0.7-0.4-1.1-0.8c-0.3-0.3-0.6-0.7-0.6-1.4c0-2.1,0.5-6.3,0.8-9.5C106.8,58.4,106.5,57.8,106.3,57.4z"/>
		<path class="st1" d="M116.8,65c1.6,0.9,2.9,1,3.4,0.4c0.5-0.7-2.1-1.6-3.6-2.7c-1-0.8-1.8-2.2-1.4-4c0.3-1.6,1.4-3.6,2.5-4.7
			c0.5-0.4,1.2-0.9,2.3-0.8c0.8,0.1,1.7,0.5,2.2,0.9c0.8,0.6,0.9,1.3,0.9,2c0.1,1.1-0.1,2.9-0.4,4c-0.1,0.5-0.3,0.6-0.8,0.5
			c-1.3-0.3-1.9-0.8-1.9-1.8c0-0.8,0.3-2.7,0-2.8c-0.5-0.2-2.8,3.4-1.2,4.8c1.7,1.5,4.9,2,4.2,4.3c-0.5,1.6-1.5,3-3.3,3.4
			c-1.5,0.3-3.1-0.1-4.7-1.6c-0.8-0.8-0.8-1.1-0.4-1.5C115.3,64.9,116.3,64.7,116.8,65z"/>
		<path class="st1" d="M138.1,57.5c0.3,0.4,0.4,0.7,0.5,1.1c0.1,0.5,0.1,0.6-0.4,0.8c-0.4,0.1-0.9,0.3-1.4,0.4
			c-0.2,1.7-0.3,3.4-0.4,4.6c0,0.5-0.2,0.7-0.7,0.6c-0.4,0-0.9-0.2-1.4-0.4c-0.4-0.2-0.6-0.5-0.6-1.2c0-0.6,0.1-1.6,0.2-2.7
			c-0.9,0.3-1.7,0.6-2.5,0.9c-0.4,0.2-0.8,0.3-1.2-0.1c-0.5-0.3-1-0.8-1.4-1.3c-0.3-0.4-0.3-0.8-0.1-1.4c1-2.5,3.3-6.5,4.8-8.5
			c0.4-0.5,0.6-0.6,1.1-0.5c0.5,0.1,2.1,0.6,2.6,0.9c0.5,0.3,0.6,0.5,0.5,1c-0.2,1.4-0.5,3.3-0.7,5.3
			C137.6,57,137.9,57.2,138.1,57.5z M134.3,57.8c0.2-1.6,0.4-3.2,0.6-4.7c-1.2,1.7-2.4,3.8-3.4,5.6
			C132.4,58.4,133.4,58.1,134.3,57.8z"/>
		<path class="st1" d="M139.7,50.4c-0.2-0.5-0.3-0.6-0.3-0.7c-0.1-0.4,0.2-0.6,1.2-0.8c1.5-0.3,1.8-0.1,2.3,1.1
			c0.5,1,0.9,1.9,1.1,2.4c0.4-0.8,0.8-1.6,1.2-2.3c1.3-2.6,1.4-2.7,1.8-2.8c0.8-0.2,1.8,1,1.9,1.5c0.1,0.3,0,0.6-0.2,0.9
			c-0.8,1.5-1.9,3.6-3.1,5.9c1,2.1,2.1,4.3,2.8,5.8c0.1,0.2,0.1,0.3,0.2,0.4c0.1,0.4-0.4,0.6-1.1,0.7c-1.4,0.3-1.6,0.1-2.3-1
			c-0.3-0.6-0.9-1.6-1.4-2.8c-0.8,1.6-1.8,3.7-2.3,4.9c-0.2,0.3-0.3,0.4-0.5,0.4c-0.2,0-0.5-0.1-0.9-0.3c-0.6-0.5-0.9-0.7-1-1
			c0-0.2-0.1-0.4,0.1-0.8c0.5-1.4,1.8-4.1,2.9-6.2C141.2,53.5,140.1,51.2,139.7,50.4z"/>
	</g>
</g>
</svg>
