<svg xmlns="http://www.w3.org/2000/svg" viewBox="0 0 112.87 112.87"><defs><style>.cls-1{fill:#e56054;}.cls-2{fill:none;stroke:#e44b40;stroke-miterlimit:10;stroke-width:1.34px;}.cls-3{fill:#fff;}</style></defs><title>your-gift-2x</title><g id="Layer_2" data-name="Layer 2"><g id="Layer_1-2" data-name="Layer 1"><path class="cls-1" d="M54,.73A55.76,55.76,0,1,0,112.15,54,55.81,55.81,0,0,0,54,.73"/><path class="cls-2" d="M54,.73A55.76,55.76,0,1,0,112.15,54,55.81,55.81,0,0,0,54,.73Z"/><path class="cls-3" d="M39.15,18.53l0,.16h0l.1-.13,2.34-4.52,2.17.56-4.48,8.05-1.66,6.4-2.2-.57,1.65-6.4,0-9.21,2.17.56Z"/><path class="cls-3" d="M47.55,28.31a4.15,4.15,0,0,1-.79,1.54,3,3,0,0,1-1.16.88,2.73,2.73,0,0,1-1.83.07,2.8,2.8,0,0,1-1.59-.95,2.89,2.89,0,0,1-.57-1.33,4.43,4.43,0,0,1,0-1.73L44,17.94a4.22,4.22,0,0,1,.79-1.52,2.65,2.65,0,0,1,3-1,2.86,2.86,0,0,1,1.56.95,3,3,0,0,1,.59,1.35,4.32,4.32,0,0,1,0,1.71Zm.08-9.42a1.41,1.41,0,0,0,0-1,.67.67,0,0,0-.41-.28.69.69,0,0,0-.79.39,1.35,1.35,0,0,0-.23.53l-2.29,8.85a1.33,1.33,0,0,0,.07,1,.55.55,0,0,0,.38.27.65.65,0,0,0,.8-.38,1.3,1.3,0,0,0,.22-.53Z"/><path class="cls-3" d="M58.08,18.3,55,30.24a4,4,0,0,1-.79,1.54,2.87,2.87,0,0,1-1.16.87,2.66,2.66,0,0,1-1.83.08,2.81,2.81,0,0,1-1.59-1,3,3,0,0,1-.57-1.32,4.25,4.25,0,0,1,.06-1.73l3.08-11.95,2.21.58L51.31,29.29a1.3,1.3,0,0,0,.07,1,.59.59,0,0,0,.39.28.67.67,0,0,0,.79-.38,1.54,1.54,0,0,0,.23-.53l3.08-11.94Z"/><path class="cls-3" d="M59.76,34.76l.49-6.63L59.66,28,58,34.31l-2.21-.57,3.89-15,2.21.57c2.63.68,3.37,2.46,2.64,5.3-.39,1.5-1.13,2.75-2.11,3.1L62,35.33Zm.43-8.83a1.55,1.55,0,0,0,1.13-.06,2.45,2.45,0,0,0,1.08-1.74,2.49,2.49,0,0,0-.1-2.08,1.55,1.55,0,0,0-1-.58Z"/><path class="cls-3" d="M72.76,27.85l.6-2.31a1.43,1.43,0,0,0,0-1,.6.6,0,0,0-.4-.28.71.71,0,0,0-.8.38,2,2,0,0,0-.23.53l-2.33,9a1.34,1.34,0,0,0,.06,1,.61.61,0,0,0,.39.27.68.68,0,0,0,.8-.38,1.76,1.76,0,0,0,.22-.53l.7-2.72-.88-.23.48-1.86,3.09.8-1.93,7.48-1.31-.34-.08-.78a2.24,2.24,0,0,1-2,.43,2.29,2.29,0,0,1-1.44-.91,2.88,2.88,0,0,1-.49-1.31,4.28,4.28,0,0,1,.18-1.7l2.29-8.85a4.21,4.21,0,0,1,.78-1.52,2.69,2.69,0,0,1,3-1,2.71,2.71,0,0,1,2.15,2.3,4,4,0,0,1,0,1.71L75,28.42Z"/><path class="cls-3" d="M78,23.45l2.21.57-3.89,15-2.21-.57Z"/><path class="cls-3" d="M86.51,28.07l-3.05-.79-1,3.95,2,.53L83.9,34l-2-.53L80.17,40,78,39.47l3.88-15L87.1,25.8Z"/><path class="cls-3" d="M87.39,28.3,88,26l6.38,1.65L93.77,30l-2.09-.54L88.39,42.17l-2.21-.57,3.3-12.76Z"/><path class="cls-3" d="M21.52,51.72l5.44-21,2.43.63c2.87.74,4.26,1.71,4.68,3.53s-.18,4.47-1.25,8.59-1.85,6.7-3.07,8.1-2.94,1.56-5.8.82Zm3.89-2.29c1.06.27,1.69.31,2.27-.64a9,9,0,0,0,.86-2.15c.29-1,.64-2.34,1.08-4.06s.8-3.07,1-4.08a10.08,10.08,0,0,0,.29-2.3c-.06-1.09-.63-1.36-1.69-1.63Z"/><path class="cls-3" d="M41.45,52.26a6,6,0,0,1-1.11,2.16,4.08,4.08,0,0,1-1.63,1.23,3.83,3.83,0,0,1-2.56.1,3.87,3.87,0,0,1-2.22-1.34,4,4,0,0,1-.81-1.86,6.05,6.05,0,0,1,.08-2.42l3.21-12.4a5.7,5.7,0,0,1,1.1-2.12,4,4,0,0,1,1.61-1.27,4.06,4.06,0,0,1,2.59-.09,3.92,3.92,0,0,1,2.19,1.33,4.16,4.16,0,0,1,.82,1.89,5.76,5.76,0,0,1-.07,2.4Zm.11-13.19a1.94,1.94,0,0,0-.06-1.42,1,1,0,0,0-.57-.4,1,1,0,0,0-1.12.54,2.36,2.36,0,0,0-.31.74l-3.21,12.4a1.94,1.94,0,0,0,.09,1.43.84.84,0,0,0,.54.38A.94.94,0,0,0,38,52.21a2,2,0,0,0,.31-.75Z"/><path class="cls-3" d="M56.11,38.22,51.78,54.94a5.9,5.9,0,0,1-1.1,2.15A4,4,0,0,1,49,58.32a3.77,3.77,0,0,1-2.56.1,3.86,3.86,0,0,1-2.22-1.34,3.94,3.94,0,0,1-.8-1.85,5.92,5.92,0,0,1,.08-2.43l4.32-16.72,3.09.8L46.63,53.6A1.89,1.89,0,0,0,46.72,55a.84.84,0,0,0,.54.39,1,1,0,0,0,1.12-.54,2,2,0,0,0,.31-.74L53,37.42Z"/><path class="cls-3" d="M52.9,59.84l5.44-21.05,2.72.71A6.15,6.15,0,0,1,65,41.82c.72,1.13.85,2.63.31,4.72a5.91,5.91,0,0,1-1,2.33,6.28,6.28,0,0,1-2,1.52,4.44,4.44,0,0,1,1.13,3A8.3,8.3,0,0,1,63,56.1,7.62,7.62,0,0,1,61,59.91a4.65,4.65,0,0,1-4.27.91Zm3.88-2.27a2.22,2.22,0,0,0,1.46,0c.61-.23,1.23-1,1.67-2.68s.26-2.65-.16-3.16a2.28,2.28,0,0,0-1.29-.67Zm2.41-9.3a2.44,2.44,0,0,0,1.46,0c.6-.21,1.18-.79,1.56-2.25s.15-2.26-.27-2.73a2.4,2.4,0,0,0-1.3-.67Z"/><path class="cls-3" d="M68.91,41.53l3.09.8L67.3,60.51l4.09,1.06-.74,2.86-7.18-1.86Z"/><path class="cls-3" d="M77.79,43.82l7.07,1.83L84,48.83l-4-1-1.43,5.53,2.86.74-.87,3.37-2.87-.74-1.49,5.79,4,1-.83,3.17-7.07-1.82Z"/><path class="cls-3" d="M90.67,53.17A7.16,7.16,0,0,0,91,51.05c-.06-.62-.27-1.1-.75-1.23-.81-.18-1.29.58-1.6,1.82a4.84,4.84,0,0,0,.18,2.46c.25.92.64,1.9,1,2.95A31.43,31.43,0,0,1,91,60.76,7.41,7.41,0,0,1,91,64.29a6.83,6.83,0,0,1-1.84,3.47,4.67,4.67,0,0,1-7-2.13,9.17,9.17,0,0,1,.32-4.44l3.11.5a8.14,8.14,0,0,0-.37,2.5c0,.74.24,1.28.9,1.45.92.24,1.51-.64,1.86-2a5.39,5.39,0,0,0-.2-2.52c-.15-.47-.3-1-.48-1.47-.37-1-.78-2.16-1.19-3.4a12.28,12.28,0,0,1-.68-3.65,5.8,5.8,0,0,1,.18-1.76,6,6,0,0,1,1.78-3.08A3.85,3.85,0,0,1,90.9,47,3.73,3.73,0,0,1,94,49.75a8.32,8.32,0,0,1-.19,3.92Z"/><path class="cls-3" d="M35.49,72.52,36,70.68a9.81,9.81,0,0,1,2.24-4.49,4.6,4.6,0,0,1,4.72-1,4.82,4.82,0,0,1,3.61,3,8.88,8.88,0,0,1-.13,5,25.57,25.57,0,0,1-4.57,8.31,68.72,68.72,0,0,1-5.74,6.43l6.16,1.59-1,3.85L30.71,90.56l1-3.85c1.66-1.53,3.23-3.12,4.69-4.74A38.3,38.3,0,0,0,40,77.32a19,19,0,0,0,2.47-5,8.53,8.53,0,0,0,.35-2.22c0-.66-.23-1.21-.81-1.36s-1,.17-1.29.7a8.57,8.57,0,0,0-.84,2.2l-.47,1.84Z"/><path class="cls-3" d="M47.12,94.81l-3.81-1L51.19,81l-1-13.65,3.82,1,.39,7.25,0,.35.14,0,.19-.3,3.86-6.14,3.81,1L55,82l.69,15-3.81-1-.2-8.47v-.34l-.14,0-.15.31Z"/><path class="cls-3" d="M59,93.6l3.78,1-1,4-3.78-1Zm5.59-22.52,4.22,1.09-6,19.08-2.27-.58Z"/></g></g></svg>