<?xml version="1.0" encoding="utf-8"?>
<!-- Generator: Adobe Illustrator 21.0.1, SVG Export Plug-In . SVG Version: 6.00 Build 0)  -->
<svg version="1.1" id="Layer_1" xmlns="http://www.w3.org/2000/svg" xmlns:xlink="http://www.w3.org/1999/xlink" x="0px" y="0px"
	 viewBox="0 0 154 154" style="enable-background:new 0 0 154 154;" xml:space="preserve">
<style type="text/css">
	.st0{clip-path:url(#SVGID_2_);}
	.st1{fill:#E56054;}
	.st2{fill:#FFFFFF;}
</style>
<g>
	<defs>
		<rect id="SVGID_1_" x="4" y="3.2" width="146.8" height="146.8"/>
	</defs>
	<clipPath id="SVGID_2_">
		<use xlink:href="#SVGID_1_"  style="overflow:visible;"/>
	</clipPath>
	<g class="st0">
		<path class="st1" d="M77.4,150C36.9,150,4,117.1,4,76.6C4,36.1,36.9,3.2,77.4,3.2c40.5,0,73.4,32.9,73.4,73.4
			C150.8,117.1,117.9,150,77.4,150z M77.4,4.2C37.5,4.2,5,36.7,5,76.6S37.5,149,77.4,149s72.4-32.5,72.4-72.4S117.3,4.2,77.4,4.2z"
			/>
	</g>
	<g class="st0">
		<path class="st1" d="M77.4,146.5c38.6,0,69.9-31.3,69.9-69.9S116,6.7,77.4,6.7S7.5,38,7.5,76.6S38.8,146.5,77.4,146.5"/>
	</g>
</g>
<g>
	<path class="st2" d="M44.4,48.3l-0.9,5.9l-4-0.6l0.9-5.9l-4-10.7l4.3,0.1l2.4,7.2l4.4-6l4.3,0.7L44.4,48.3z"/>
	<path class="st2" d="M53.7,56.1c-3.2-0.5-5.1-3.1-4.5-6.8s3.3-5.6,6.4-5.1c3.2,0.5,5.2,3.2,4.6,6.8C59.6,54.7,56.8,56.6,53.7,56.1z
		 M55.1,47.1c-1.4-0.2-2.3,0.9-2.6,2.8c-0.3,1.8,0.3,3.2,1.6,3.4c1.4,0.2,2.3-0.9,2.6-2.8C57,48.7,56.5,47.3,55.1,47.1z"/>
	<path class="st2" d="M68.3,58.2l0-1.6c-1.2,0.9-2.4,1.5-3.9,1.2c-2.1-0.3-3-1.8-2.7-4l1.3-8.2l3.5,0.6l-1.1,7.2
		c-0.1,0.8,0.1,1.5,1,1.6c0.7,0.1,1.4-0.2,2.1-0.7l1.2-7.6l3.5,0.6l-1.8,11.5L68.3,58.2z"/>
	<path class="st2" d="M78.5,53.3l-1,6.4L74,59.1l1.8-11.5l3.1,0.5l0,2.3c0.9-1.2,2-2.1,3.7-2l0,3.7C80.9,52,79.5,52.5,78.5,53.3z"/>
	<path class="st2" d="M95.6,62.8c-5.1-0.8-7.4-4.6-6.6-9.6c0.8-5,4.4-7.9,9.4-7.1c2,0.3,3.6,1,4.7,2l-1.1,3.4
		c-1.1-1-2.4-1.8-4.1-2.1c-2.8-0.4-4.5,1.4-4.9,4.4c-0.5,3,0.6,5.4,3.4,5.8c0.9,0.1,1.5,0.1,2.3-0.2l0.5-2.9l-2.8-0.4l0-3l6.8,1.1
		l-1.2,7.9C100,62.9,97.9,63.2,95.6,62.8z"/>
	<path class="st2" d="M104.4,63.9l1.8-11.5l3.6,0.6l-1.8,11.5L104.4,63.9z M108.2,51.2c-1.1-0.2-1.9-1.1-1.7-2.2
		c0.2-1.2,1.2-1.8,2.3-1.6c1.1,0.2,1.9,1.1,1.7,2.3C110.3,50.8,109.3,51.4,108.2,51.2z"/>
	<path class="st2" d="M118.3,51.7c-1-0.2-1.5,0.2-1.6,1.2l-0.2,1.2l2.1,0.3l0,2.9l-2.5-0.4l-1.4,8.6l-3.5-0.6l1.4-8.6l-1.6-0.3
		l0.5-2.9l1.6,0.3l0.2-1.5c0.4-2.8,2.3-3.5,5-3.1c0.5,0.1,1,0.2,1.4,0.4l0,2.8C119.3,52,118.9,51.8,118.3,51.7z"/>
	<path class="st2" d="M123.9,67.2c-2.5-0.4-4-1.5-3.6-4.5l0.8-4.9l-1.5-0.2l0.5-2.9l1.5,0.2l0.5-3.4l3.6,0l-0.6,4l2.2,0.3l0,2.9
		l-2.6-0.4l-0.7,4.4c-0.1,0.9,0.3,1.4,1.2,1.6c0.3,0,0.6,0,0.9,0l0,3C125.3,67.3,124.8,67.3,123.9,67.2z"/>
</g>
<g>
	<path class="st2" d="M40.9,75.1l1-10.9l-4.8,10.3L33.4,74L32,62.7l-2.4,10.7l-3.5-0.6l3.7-15.9l5.2,0.8l1.4,11.6l4.9-10.6l5,0.8
		L45,75.8L40.9,75.1z"/>
	<path class="st2" d="M54.5,77.3l0-1.6c-1.2,0.9-2.4,1.5-3.9,1.2c-2.1-0.3-3-1.8-2.7-4l1.3-8.2l3.5,0.6l-1.1,7.2
		c-0.1,0.8,0.1,1.5,1,1.6c0.7,0.1,1.4-0.2,2.1-0.7l1.2-7.5l3.5,0.6l-1.8,11.5L54.5,77.3z"/>
	<path class="st2" d="M60.2,78.2l2.6-16.3l3.6,0l-2.7,16.9L60.2,78.2z"/>
	<path class="st2" d="M71.2,80.1c-2.5-0.4-4-1.5-3.6-4.5l0.8-4.9l-1.5-0.2l0.5-2.9l1.5,0.2l0.5-3.4l3.6,0l-0.6,4l2.2,0.3l0,2.9
		L72,71.3l-0.7,4.4c-0.1,0.9,0.3,1.4,1.2,1.6c0.3,0,0.6,0,0.9,0l0,3C72.7,80.3,72.2,80.3,71.2,80.1z"/>
	<path class="st2" d="M75.2,80.6L77,69.1l3.6,0.6l-1.8,11.5L75.2,80.6z M79,67.9c-1.1-0.2-1.9-1.1-1.7-2.2c0.2-1.2,1.2-1.8,2.3-1.6
		c1.1,0.2,1.9,1.1,1.7,2.3C81.2,67.5,80.2,68.1,79,67.9z"/>
	<path class="st2" d="M87.3,82.6c-1-0.2-1.7-0.5-2.3-0.8l-0.6,4.1l-3.6,0l2.5-15.8l3.1,0.5l0,1.5c0.9-0.7,2.1-1.4,3.6-1.2
		c2.4,0.4,3.9,2.4,3.2,6.3C92.4,81.6,89.8,83,87.3,82.6z M88.2,73.9c-0.8-0.1-1.4,0.3-2.1,0.9l-0.7,4.3c0.5,0.3,0.9,0.5,1.6,0.6
		c1.2,0.2,2.2-0.6,2.6-2.8C89.8,75,89.2,74.1,88.2,73.9z"/>
	<path class="st2" d="M94.3,83.6l2.6-16.3l3.6,0l-2.7,16.9L94.3,83.6z"/>
	<path class="st2" d="M100.4,84.6l1.8-11.5l3.6,0.6L104,85.1L100.4,84.6z M104.3,71.9c-1.1-0.2-1.9-1.1-1.7-2.2
		c0.2-1.2,1.2-1.8,2.3-1.6c1.1,0.2,1.9,1.1,1.7,2.3C106.4,71.5,105.4,72.1,104.3,71.9z"/>
	<path class="st2" d="M111.9,86.6c-3.4-0.5-5.6-2.8-5-6.8c0.6-3.7,3.2-5.6,6.4-5.2c3.5,0.6,4.7,3.4,4.1,6.7
		c-0.1,0.4-0.1,0.7-0.2,0.9l-6.9-1.1c-0.1,1.9,0.9,2.7,2.4,3c1.3,0.2,2.6-0.1,4-0.6l0,2.6C115.3,86.7,113.7,86.9,111.9,86.6z
		 M110.6,79.2l3.6,0.6c0.2-1.7-0.3-2.7-1.4-2.9C111.8,76.7,111,77.5,110.6,79.2z"/>
	<path class="st2" d="M122.8,88.3c-1.8-0.3-3.4-1.1-4.5-1.9l0.9-2.6c1.2,1.1,2.8,1.8,4.1,2c1,0.2,1.5-0.1,1.6-0.7
		c0.1-0.6-0.2-0.9-1.7-1.5c-2.8-1.2-3.8-2.2-3.5-4.3c0.3-2.1,2.2-3.3,5-2.9c1.5,0.2,3,0.8,4.1,1.5l-0.9,2.6
		c-1.1-0.9-2.5-1.5-3.6-1.7c-0.8-0.1-1.3,0.1-1.3,0.6c-0.1,0.5,0.2,0.8,1.8,1.5c2.9,1.3,3.9,2.2,3.5,4.4
		C127.7,87.8,125.9,88.8,122.8,88.3z"/>
</g>
<g>
	<path class="st2" d="M54.2,113.3c-3.6-0.6-6.7-1.9-8.8-3.6l1.7-5.2c2.1,1.6,4.6,2.8,7.3,3.3c2.7,0.4,4.6-0.4,4.9-2.5
		c0.4-2.3-1-3.8-4.8-4.4l-2.3-0.4l0-5.2l3,0.5c3.5,0.6,5.3-0.5,5.6-2.4c0.3-1.8-0.9-3-3.5-3.5c-2.6-0.4-5.2,0.1-7.5,1.2l0-5.4
		c2.4-1.1,5.8-1.7,9.4-1.1c6.2,1,9.3,4.5,8.6,8.9c-0.6,3.7-2.9,5.2-5.9,5.8c3.2,1.6,4.9,3.9,4.3,7.5C65.2,112,60.2,114.2,54.2,113.3
		z"/>
	<path class="st2" d="M79.6,117l-2.4-6.9l-4.3,5.6l-5.9-0.9l7.7-9l-4.3-10.6l6.6,0.2l2.2,6.3l3.9-5.1l5.9,0.9l-7.3,8.6l4.5,11.1
		L79.6,117z"/>
	<path class="st2" d="M89.2,118.3l1.1-7.1l6.7,1.1l-1.1,7.1L89.2,118.3z M96.2,108.5l-3.9,0.2l0.9-18.9L101,91L96.2,108.5z"/>
</g>
</svg>
