<?xml version="1.0" encoding="utf-8"?>
<!-- Generator: Adobe Illustrator 19.2.1, SVG Export Plug-In . SVG Version: 6.00 Build 0)  -->
<svg version="1.1" id="Layer_1" xmlns="http://www.w3.org/2000/svg" xmlns:xlink="http://www.w3.org/1999/xlink" x="0px" y="0px"
	 viewBox="0 0 477 202" style="enable-background:new 0 0 477 202;" xml:space="preserve">
<style type="text/css">
	.st0{fill:#FFFFFF;}
</style>
<path class="st0" d="M75.2,36.8C39.7,36.8,11,65.5,11,101c0,35.5,28.7,64.2,64.2,64.2c35.5,0,64.2-28.7,64.2-64.2
	C139.4,65.5,110.6,36.8,75.2,36.8 M52.9,89.1l-19.5,24.5h19.5v6.6H23.8v-6.6l19.4-24.1H24.4V83h28.6V89.1z M86.1,107.8
	c0,4.5-1.3,7.9-4,10.2c-2.6,2.3-6.4,3.4-11.3,3.4c-4.5,0-8.1-1.1-10.7-3.3c-2.6-2.2-3.9-5.5-3.9-10V83H64v24.6
	c0,2.3,0.6,4.2,1.7,5.5c1.2,1.3,2.8,2,4.9,2c5,0,7.5-2.4,7.5-7.2V83h7.9V107.8z M118.1,120.2V94.7l-7,25.5h-7.7l-6.9-25.4v25.4h-7.2
	V83h11.4l6.7,27.3l6.7-27.3h11.2v37.2H118.1z"/>
<path class="st0" d="M164.5,95.7c-0.7-3.8-3.8-5.7-7.5-5.7c-6.3,0-9,5.2-9,10.8c0,6.1,2.7,11.2,9.1,11.2c4.7,0,7.4-3.3,7.7-7.7h3.5
	c-0.7,6.6-4.8,10.7-11.5,10.7c-8.3,0-12.3-6.1-12.3-13.9c0-7.7,4.4-14,12.6-14c5.6,0,10.2,3,11,8.7H164.5z"/>
<path class="st0" d="M182.2,87c8.5,0,12.8,6.7,12.8,14c0,7.2-4.3,14-12.8,14c-8.5,0-12.8-6.7-12.8-14C169.4,93.8,173.7,87,182.2,87
	 M182.2,112c6.5,0,9.2-5.6,9.2-11c0-5.4-2.7-11-9.2-11c-6.5,0-9.2,5.6-9.2,11C172.9,106.4,175.7,112,182.2,112"/>
<polygon class="st0" points="197.5,87.7 202.3,87.7 210.7,110.1 219.2,87.7 224,87.7 224,114.3 220.7,114.3 220.7,92.2 220.6,92.2 
	212.3,114.3 209.2,114.3 200.9,92.2 200.8,92.2 200.8,114.3 197.5,114.3 "/>
<polygon class="st0" points="228.1,87.7 233,87.7 241.4,110.1 249.8,87.7 254.7,87.7 254.7,114.3 251.3,114.3 251.3,92.2 
	251.3,92.2 242.9,114.3 239.9,114.3 231.6,92.2 231.5,92.2 231.5,114.3 228.1,114.3 "/>
<path class="st0" d="M280,104.7c0,6.7-3.8,10.3-10.5,10.3c-6.9,0-10.9-3.2-10.9-10.3v-17h3.5v17c0,4.7,2.7,7.3,7.4,7.3
	c4.5,0,6.9-2.6,6.9-7.3v-17h3.5V104.7z"/>
<polygon class="st0" points="283.8,87.7 287.6,87.7 301.6,109.3 301.7,109.3 301.7,87.7 305,87.7 305,114.3 301.2,114.3 287.2,92.9 
	287.2,92.9 287.2,114.3 283.8,114.3 "/>
<rect x="309.1" y="87.7" class="st0" width="3.5" height="26.7"/>
<path class="st0" d="M335.5,95.7c-0.7-3.8-3.8-5.7-7.5-5.7c-6.4,0-9,5.2-9,10.8c0,6.1,2.7,11.2,9.1,11.2c4.7,0,7.4-3.3,7.7-7.7h3.5
	c-0.7,6.6-4.8,10.7-11.5,10.7c-8.3,0-12.3-6.1-12.3-13.9c0-7.7,4.4-14,12.6-14c5.6,0,10.2,3,11,8.7H335.5z"/>
<path class="st0" d="M349.1,87.7h3.9l10.4,26.7h-3.9l-2.9-8h-11.3l-3,8h-3.7L349.1,87.7z M346.4,103.3h9L351,90.9h-0.1L346.4,103.3z
	"/>
<polygon class="st0" points="366.5,90.7 357.6,90.7 357.6,87.7 378.9,87.7 378.9,90.7 370,90.7 370,114.3 366.5,114.3 "/>
<rect x="380.1" y="87.7" class="st0" width="3.5" height="26.7"/>
<path class="st0" d="M399.1,87c8.5,0,12.8,6.7,12.8,14c0,7.2-4.3,14-12.8,14c-8.5,0-12.8-6.7-12.8-14C386.3,93.8,390.6,87,399.1,87
	 M399.1,112c6.5,0,9.2-5.6,9.2-11c0-5.4-2.7-11-9.2-11c-6.5,0-9.2,5.6-9.2,11C389.9,106.4,392.6,112,399.1,112"/>
<polygon class="st0" points="414.3,87.7 418.1,87.7 432.1,109.3 432.2,109.3 432.2,87.7 435.5,87.7 435.5,114.3 431.7,114.3 
	417.7,92.9 417.6,92.9 417.6,114.3 414.3,114.3 "/>
<path class="st0" d="M454.8,95.5c-0.4-3.8-2.9-5.4-6.6-5.4c-3,0-6,1.1-6,4.6c0,3.3,4.3,3.8,8.6,4.7c4.3,1,8.5,2.5,8.5,7.7
	c0,5.7-5.6,8-10.4,8c-6,0-11-2.9-11-9.4h3.4c0,4.5,3.7,6.4,7.8,6.4c3.2,0,6.8-1,6.8-4.8c0-3.7-4.3-4.3-8.5-5.2
	c-4.3-0.9-8.6-2.2-8.6-7.1c0-5.4,4.8-7.8,9.7-7.8c5.4,0,9.6,2.6,9.8,8.4H454.8z"/>
</svg>
